<?xml version="1.0" encoding="UTF-8"?><svg id="_レイヤー_2" xmlns="http://www.w3.org/2000/svg" width="69.77mm" height="29.62mm" viewBox="0 0 197.76 83.96"><defs><style>.cls-1{opacity:.5;}.cls-2{fill:#226db6;}.cls-2,.cls-3{stroke-width:0px;}.cls-3{fill:#004098;}</style></defs><g id="_レイヤー_3"><path class="cls-3" d="m47.72,1.3v3.19c-4.14,2.84-5.1,3.48-7.25,4.51,4.44-.69,9.17-.88,11.37-.91l.05,3.87c-.69-.02-1.64-.05-2.72-.05-2.55,0-3.63.07-5.27,1.08-1.42.86-2.72,2.21-2.72,3.72,0,1.2.59,2.08,4.14,2.18,1.98.07,2.97.05,3.99,0l-.59,3.95c-4.78.07-11.81-.37-11.81-5.12,0-.51,0-3.01,3.31-5.27-1.62.25-7.13,1.2-9.7,1.89l-.22-4.04c1.52-.2,2.08-.37,2.52-.49,1.42-.39,5.27-2.7,8.55-5.05l-8.09.34V1.3h14.43Z"/><path class="cls-3" d="m63.97,18.82c2.65-.2,8.11-.64,8.11-7.23,0-4.09-2.38-5.83-5.17-6.05-.12,2.13-1.05,14.95-7.62,14.95-3.31,0-5.37-3.36-5.37-7.2,0-5.42,3.8-11.42,11.89-11.42,5.64,0,10.37,3.09,10.37,10.07,0,2.79-.81,5.68-3.33,7.94-2.4,2.11-6.13,2.5-7.43,2.65l-1.45-3.7Zm-6.18-5.59c0,.93.27,3.14,1.67,3.14,1.86,0,3.26-4.8,3.73-10.66-5.39,1.57-5.39,6.91-5.39,7.52Z"/><path class="cls-3" d="m90.42.91c.12,1.03.22,1.79.81,3.8,4.8-.29,5.37-.47,6.52-.86l.93,3.77c-2.84.64-4.12.66-6.05.74,1.54,3.36,2.79,4.73,3.48,5.46l-3.77,1.74c-2.11-2.99-3.48-6.27-3.8-7.08h-10.46v-3.68h9.17c-.44-1.47-.66-2.6-.86-3.53l4.04-.37Zm-3.26,12.52c-1.27.37-4.21,1.27-4.21,3.28s2.55,2.06,6.35,2.06c3.46,0,5.29-.2,6.71-.37l-.07,3.82c-1.69.15-3.53.2-5.76.2-5,0-6.79-.42-8.48-1.35-1.3-.71-2.6-2.11-2.6-4.26,0-4.26,5-5.88,6.37-6.32l1.69,2.94Z"/><path class="cls-3" d="m113.05.83c.07,1.15.12,1.89.22,2.67,2.38-.2,3.43-.27,5.76-.81l.44,3.36c-2.21.47-2.57.49-5.71.74.15.88.25,1.32.49,2.13,3.63-.2,5.49-.64,6.62-.91l.56,3.28c-2.92.64-5.34.78-5.91.81.81,1.52,1.4,2.18,1.99,2.82l-3.48,2.11c-.69-.76-1.74-1.94-2.87-4.78-.17.02-.22.02-.49.02h-10.24v-3.23h9.8c-.1-.49-.12-.66-.34-2.08h-8.58v-3.31h8.11c-.27-1.69-.29-1.89-.37-2.55l3.99-.27Zm-5.15,13.92c-.54.46-1.57,1.32-1.57,2.4,0,1.67,2.65,1.79,5.93,1.79,3.58,0,5.56-.2,6.52-.32l.15,3.77c-.86.07-2.21.17-4.97.17-4.68,0-6.25-.2-7.33-.46-3.85-.98-4.29-3.5-4.29-4.34,0-2.3,1.79-3.9,2.6-4.63l2.97,1.62Z"/><path class="cls-3" d="m143.51,10.76c1.23,3.11,2.48,8.28,2.84,12.11l-3.9.64c-.1-1.03-.12-1.52-.22-2.13-1.72.39-6.69,1.23-9.61,1.52l-.42-2.38c-.17.93-.39,1.4-.59,1.71-.34.59-1.42,1.27-2.57,1.27h-4.46l-.66-3.63h3.92c.39,0,.93,0,1.1-.81.12-.56.22-2.45.29-3.77h-6.44c.39-2.72.56-4.9.78-8.68h5.54v-2.21h-6.35V.91h9.75v8.94h-5.66c0,.2-.1,1.27-.2,1.96h5.96c0,1.25,0,4.93-.25,7.25.2-.02,1-.1,1.15-.1,1.08-4.41,2.25-13.28,2.6-18.87h3.99c-.44,3.97-1.72,13.45-2.94,18.55,1.45-.15,3.06-.29,4.53-.56-.17-.91-.69-3.6-1.69-6.44l3.48-.88Z"/><path class="cls-3" d="m147.36,9.26h5.56v7.33c.44,2.01,2.48,2.84,4.58,2.84h13.36l-.81,3.48h-12.55c-3.68,0-5-1.81-5.56-2.57-.93,1.08-2.3,2.28-3.63,3.14l-1.27-3.99c.42-.2,1.25-.61,2.35-1.52v-5.27h-2.03v-3.43Zm6.1-4.51l-2.21,2.21c-.91-1.25-2.08-2.62-3.8-4.02l2.45-2.62c1.74,1.25,3.21,2.89,3.55,3.28v-1.2h2.89c-.42-.81-.47-.91-.88-1.64l3.53-.76c.29.54.61,1.05,1.18,2.4h3.33c.32-.61.73-1.67.93-2.3l3.8.56c-.2.39-.69,1.3-.98,1.74h3.21v3.04h-7.13c-.12.29-.27.66-.44.96h6.3v11.98h-14.43V6.4h4.46c.15-.32.25-.66.32-.96h-6.08v-.69Zm4.95,4.07v1.18h7.16v-1.18h-7.16Zm0,2.89v1.18h7.16v-1.18h-7.16Zm0,2.89v1.25h7.16v-1.25h-7.16Z"/><path class="cls-3" d="m34.72,29.97l-1.93,7.22h-15.19l-3.87,14.44c.89-.7,1.95-1.29,3.18-1.77,1.23-.48,2.52-.71,3.88-.71,2.61,0,4.51.79,5.72,2.37s1.39,3.95.54,7.1l-3.71,13.83c-.48,1.8-1.23,3.41-2.23,4.81-1,1.4-2.16,2.61-3.49,3.61-1.32,1-2.74,1.77-4.26,2.29-1.52.53-3.03.79-4.53.79s-2.88-.26-4.11-.79c-1.24-.53-2.25-1.29-3.03-2.29-.78-1-1.3-2.2-1.55-3.61-.25-1.4-.13-3.01.35-4.81l.6-2.26h7.67l-.52,1.96c-.35,1.3-.26,2.32.27,3.04.53.73,1.37,1.09,2.53,1.09s2.13-.35,2.95-1.05c.81-.7,1.39-1.68,1.73-2.93l3.36-12.56c.28-1.05.19-1.96-.29-2.71-.48-.75-1.24-1.13-2.29-1.13-.65,0-1.23.11-1.75.34-.51.22-.96.49-1.34.79-.38.3-.69.63-.94.98-.37.45-.6.73-.67.83h-6.77l7.74-28.87h21.95Z"/><path class="cls-3" d="m29.97,71.15c.23.39.63.75,1.1.75.34,0,.65-.06,1.57-.47,2.41-.99,5.91-2.82,9.02-2.82,3.61,0,5.05,2.37,4.37,4.91-.7,2.61-2.7,4.24-5.02,5.27-2.24,1.01-5.55,1.34-8.48,1.16l.07-.49c2.77-.26,5-.63,7.32-1.76,2.18-1.01,3.67-2.43,4.21-4.46.55-2.05-.4-3.67-2.76-3.67-2.53,0-5.92,2.21-7.43,3.12-1.48.89-2.1,1.44-2.75,1.44-.73,0-1.54-.81-1.67-1.5-.09-.41.05-.91.12-1.32l.34-.16Z"/><path class="cls-3" d="m55.11,80.79c5.19-1.03,7.97-3.67,8.9-7.16.96-3.57-.88-5.86-4.11-5.86-.24,0-.5.02-.76.04.38.63.73,1.48.5,2.35-.26.97-.8,2.19-1.55,3.35-1.5,2.45-4.74,6.14-6.97,6.14-1.48,0-2.29-2.27-1.62-4.8.51-1.89,2.01-4.12,4.32-5.72,1.97-1.4,4.17-2.09,6.46-2.09,4.32,0,6.73,2.94,5.63,7.05-.95,3.53-4.21,6.79-10.83,7.12l.03-.41Zm3.18-12.83c-1.41.32-2.9,1.03-4.14,2.03-1.52,1.24-2.6,2.71-3.04,4.36-.46,1.72-.1,3.16.71,3.16,1.2,0,3.75-2.88,4.86-4.46.76-1.07,1.44-2.37,1.7-3.33.18-.67.08-1.24-.1-1.76Z"/><path class="cls-3" d="m86.01,65.55c1.68-.18,3.17-.33,4.09-.44,1.94-.27,2.37-.56,2.85-.56,1.54,0,3.13.8,2.85,1.83-.2.74-.67,1.07-1.35,1.07-.62,0-1.9-.3-3.47-.3-1.45,0-3.63.09-5.54.24-2.28,6.39-6.81,10.83-14.35,13.44l-.21-.53c6.38-3.37,9.72-7.1,11.68-12.64-2.39.29-5.7.83-6.82,1.15-.92.24-1.65.62-2.48.62-.89,0-1.85-1.39-2-2.25-.04-.42,0-1.01.18-1.78l.48-.15c.54.95.94,1.48,1.73,1.48,2.01,0,6.96-.56,9.47-.86l.2-.74c.42-1.69.57-2.78-.11-3.55-1.8.29-4.5.68-8.21.92l.04-.68c5.23-1.07,12.07-3.08,13.73-4.08.64-.41.73-.83-.13-1.72l.46-.38c1.45.24,2.13.68,2.7,1.18.52.47,1.09,1.36.92,1.98-.17.65-1.28.56-2.12.83-1.79.62-3.21,1.04-4.79,1.42.92.53,1.55,1.3,1.43,1.72-.18.68-.68.89-1.12,2.4l-.1.38Z"/><path class="cls-3" d="m101.35,62.86c.72-.27,1.42-.53,2.25-.53,1.04,0,2.83.5,2.64,1.18-.14.53-.46,1.07-.6,1.69-.08.42-.16,1.36-.22,2.25,2.24-.53,5.48-1.33,6.35-1.6.58-.18,1.16-.68,1.54-.68.98,0,2.4,1.66,2.15,2.58-.15.56-1.14.62-1.66,1.01-1.33,1.01-3.68,2.9-6.32,4.26l-.22-.3c1.76-1.72,3.55-3.85,4.33-5,.23-.29.12-.35-.22-.29-1,.21-3.72.98-6.02,1.6-.05,3.05-.01,6.57.04,8.14.03.65.13,1.72-.03,2.31-.23.86-.7,1.27-1.53,1.27-1.07,0-1.53-.92-1.33-2.1.31-2.04.58-6.13.61-9-1.16.35-2.42.74-2.95.95-1.12.41-1.66,1.01-2.25,1.01-.86,0-1.74-1.04-1.86-1.78-.05-.36.11-.95.26-1.54l.33-.12c.36.41.6.86,1.34.86.67.03,3.01-.5,5.15-1.01,0-1.42-.01-3.05-.19-3.7-.15-.56-.74-.89-1.63-1.09l.04-.35Z"/><path class="cls-3" d="m122.8,59.28c.84-.36,1.89-.86,2.57-.86,1.57,0,3.33,1.6,3.11,2.43-.17.65-1.03,1.18-1.39,2.1-.6,1.57-2.8,8.79-3.55,11.6-.09.33,0,.47.31.39,5.24-1.45,14.03-6.3,19.52-10.66l.38.47c-5.17,5.36-12.01,9.68-19.23,12.99-1.18.53-1.39,1.33-2.22,1.33-.92,0-2.34-2.1-2.1-2.99.15-.56.87-1.04,1.16-2.01.72-2.25,2.93-10.51,3.38-12.73.15-.77,0-1.09-2.03-1.6l.1-.47Z"/><path class="cls-3" d="m169.72,61.35l.49.38c-5.15,6.42-11.94,11.42-19.75,15.6-.93.5-1.52,1.36-2.29,1.36-1.48,0-2.98-1.6-3.31-2.66-.17-.59-.15-1.66.01-2.37l.52-.27c.55.83,1.28,1.87,2.31,1.87,2.78,0,16.19-7.96,22.02-13.91Zm-20.31-2.87c3.58.68,7.61,2.52,6.88,5.27-.24.89-1.05,1.6-1.97,1.6-.77,0-1.15-.44-1.65-1.45-.93-1.83-1.53-2.9-3.73-4.85l.48-.56Z"/><path class="cls-3" d="m195.64,62.71l.5.36c-4.72,6.01-12.75,11.69-20.26,15.39-.93.5-1.53,1.39-2.44,1.39-1.12,0-2.69-1.33-3.15-2.49-.28-.62-.17-1.89-.04-2.52l.51-.24c.5.77,1.16,1.86,2.25,1.86,2.81,0,15.71-7.13,22.63-13.76Zm-23.38,1.87l.4-.59c1.27.24,2.37.44,3.73.89,1.82.59,3.15,1.72,2.74,3.26-.16.59-.68,1.33-1.63,1.33-1.18,0-1.39-1.21-2.52-2.4-.94-1.12-1.82-1.92-2.71-2.49Zm5.46-6.01l.39-.56c1,.15,2.32.38,3.77.86,1.84.74,2.94,1.72,2.54,3.23-.19.71-.86,1.33-1.57,1.33-1.16,0-1.41-1.15-2.61-2.52-.83-.98-1.75-1.78-2.51-2.34Zm14.08,2.25c-.38-.8-.88-1.89-1.88-3.05l.47-.44c1.44.59,2.61,1.21,3.19,2.01.51.65.64,1.15.48,1.75-.15.56-.67.95-1.23.95-.47,0-.7-.47-1.04-1.21Zm3.63-2.49c-.39-.74-.88-1.57-1.96-2.75l.44-.44c1.5.47,2.58,1.09,3.21,1.72.55.59.76,1.15.57,1.83-.15.56-.6.92-1.13.92s-.72-.53-1.14-1.27Z"/><g class="cls-1"><path class="cls-2" d="m48.85,56.52s.09-.13.15-.14c.08-.01.13.06.13.09.01.06-.22.39-.22.39-1.63,2.43-5.95,7.13-10.08,7.85-2.67.47-6.13-1.29-6.63-4.1-1.27-7.21,8.95-18.19,14.9-19.24,2.02-.36,3.21,1.29,3.41,2.41.36,2.02-3.06,6.12-3.93,6.28-.67.12-1.43-.21-1.46-.38-.02-.11.06-.16.14-.2,1.85-.67,5.11-3.82,4.72-6.04-.1-.59-.83-1.1-1.87-.92-5.56.98-15.35,11.74-14.1,18.87.4,2.25,2.17,3.09,4.58,2.67,4.63-.82,7.93-4.26,10.25-7.54Z"/><path class="cls-2" d="m55.98,58.39c-.53.09-1.63-.55-1.75-1.25-.36-2.05,1.27-4.3,1.24-4.47-.02-.08-.09-.16-.23-.13-.62.11-4.01,3.2-4.92,6.22-.36,1.25-.38,1.92-.55,1.95-.37.06-.92-.45-1-.92-.94-5.33,3.92-15.34,6.59-15.81.67-.12,1.51.37,1.61.9.48,2.72-5.71,9.95-6.71,11.34-.17.81-.25,1.55-.21,2.12.86-2.81,4.6-6.22,5.22-6.33.36-.06,1.68.49,1.82,1.3.14.81-1.76,3-1.55,4.18.06.34.26.48.51.43,1.43-.25,3.59-3.29,3.59-3.29,0,0,.09-.13.18-.15.06,0,.13.06.13.09.01.06-.18.29-.25.39,0,0-2.19,3.16-3.71,3.43Zm.21-13.44c-2.05.36-4.84,6.35-5.8,10.58.62-.92,6.48-8.06,6.07-10.36-.03-.17-.13-.24-.27-.21Z"/><path class="cls-2" d="m66.29,56.8c-.9.16-1.79-.32-1.98-1.39-.09-.53-.09-1.03-.09-1.03-1.16,1.62-2.77,3.99-3.42,4.1-.65.11-1.76-.47-1.91-1.34-.4-2.25,2.74-6.79,5.15-7.22,1.09-.19,2.33.6,2.44,1.22.08.45-.01.75-.1.77-.08.01-.28-.12-.3-.24s.11-.22.05-.56c-.03-.2-.39-.39-.58-.36-2.64.47-5.59,5.04-5.25,6.97.04.23.18.35.43.3.53-.09,2.21-2.39,3.32-3.97.69-.99,1.21-1.66,1.46-1.71.25-.04,1.14.55,1.22,1,.06.34-1.01,1.48-.86,2.35.06.37.37.49.71.43,1.38-.24,3.57-3.38,3.57-3.38.05-.07.09-.13.15-.14.08-.02.13.06.13.09.01.06-.15.29-.22.39,0,0-2.35,3.42-3.92,3.7Z"/><path class="cls-2" d="m76.47,51.65c.05-.07.09-.13.15-.14.08-.01.13.06.13.09.01.06-.15.29-.22.39,0,0-3.04,4.1-4.58,4.37-.76.13-1.5-.31-1.71-1.46-.94-5.33,3.1-14.44,5.23-14.82.81-.14,1.59.47,1.73,1.29.34,1.91-3.29,7.76-5.56,10.79,0,0-.28,1.55-.07,2.71.12.67.47.84.86.77,1.12-.2,4.04-3.98,4.04-3.98Zm.22-10.23c-.04-.25-.23-.33-.43-.3-1.57.28-4.27,7.47-4.51,10.35,1.81-2.55,5.25-8.33,4.94-10.05Z"/><path class="cls-2" d="m82.78,50.54c.05-.07.09-.13.15-.14.08-.01.13.06.13.09.01.06-.15.29-.22.39,0,0-3.04,4.1-4.58,4.37-.76.13-1.5-.31-1.71-1.47-.94-5.33,3.1-14.44,5.23-14.81.81-.14,1.59.47,1.73,1.29.34,1.91-3.29,7.76-5.56,10.79,0,0-.28,1.55-.07,2.7.12.67.47.84.86.78,1.12-.2,4.04-3.98,4.04-3.98Zm.22-10.23c-.04-.25-.23-.33-.43-.3-1.57.28-4.27,7.47-4.51,10.35,1.81-2.55,5.25-8.33,4.94-10.05Z"/><path class="cls-2" d="m89.45,49.25c.08-.01.13.06.13.09.01.06-.15.29-.22.39,0,0-2.24,3.52-4.41,3.9-1.43.25-2.35-.51-2.61-1.97-.45-2.53,1.62-5.61,2.85-5.83.76-.13,1.4.74,1.46,1.07.14.79-1.31,2.58-2.69,3.8-.03.18.03.69.07.88.15.87.7,1.53,1.52,1.38,1.49-.26,3.74-3.58,3.74-3.58,0,0,.09-.13.15-.14Zm-3.37-2.21c-.04-.22-.14-.29-.28-.27-.48.08-1.38,1.37-1.86,3.57,1.12-1.06,2.25-2.66,2.14-3.3Z"/><path class="cls-2" d="m91.84,46.57c.09.5-.48,1.71-.91,2.88.9-1,3.55-3.52,4.61-3.71.45-.08.93.67.99,1.04.05.31-1.71,2.79-1.45,4.28.04.25.23.33.46.29,1.71-.3,4.19-3.81,4.19-3.81,0,0,.09-.13.15-.14.08-.02.15.06.16.09.01.06-.25.39-.25.39,0,0-2.66,3.77-4.15,4.03-.7.12-1.75-.59-1.92-1.51-.22-1.23.79-3.24.75-3.43,0-.03-.04-.05-.09-.04-.31.05-2.28,1.5-3.57,3.21-1.5,1.97-1.49,3.39-1.74,3.43-.28.05-.88-.57-.99-1.16-.1-.56,2.16-4.49,2.17-6.72-.04-.22.1-.28.24-.3.28-.05,1.21.45,1.34,1.18Z"/><path class="cls-2" d="m106.27,49.78c-.83,3.85-3.42,10.33-5.86,10.76-1.07.19-1.93-.61-2.08-1.43-.45-2.55,2.85-5.48,6.17-8.5.58-1.96.68-3.22.56-3.86,0-.06-.05-.11-.1-.1-.36.06-3,4.18-3.79,4.29-.71.1-1.73-.48-1.87-1.23-.36-2.02,2.55-6.53,5.3-7.01.62-.11,1.74.68,1.84,1.24.07.42-.53,1.45-.72,1.49-.06,0-.12-.04-.13-.09-.03-.17.44-.8.34-1.33-.05-.28-.34-.46-.57-.42-1.74.31-5.08,4.66-4.75,6.57.04.25.27.36.43.33.9-.16,3.59-4.28,3.98-4.35.51-.09,1.35.6,1.47,1.28.07.39.01,1.07-.13,1.88,1.25-1.12,2.38-2.27,3.21-3.46,0,0,.09-.13.18-.15.06,0,.13.06.13.09.01.06-.18.29-.25.39-.9,1.29-2.11,2.48-3.38,3.64Zm-6.91,9.73c1.88-.33,3.97-4.9,5.03-8.38-2.92,2.66-5.96,5.59-5.55,7.9.07.39.3.53.52.49Z"/><path class="cls-2" d="m116.25,44.52c.08-.01.13.06.13.09.01.06-.15.29-.22.39,0,0-2.24,3.52-4.41,3.9-1.43.25-2.35-.51-2.61-1.97-.45-2.53,1.62-5.61,2.85-5.83.76-.13,1.4.74,1.46,1.07.14.79-1.31,2.58-2.69,3.8-.03.18.04.69.07.88.15.87.7,1.53,1.52,1.38,1.49-.26,3.74-3.58,3.74-3.58,0,0,.09-.13.15-.14Zm-3.37-2.21c-.04-.22-.14-.29-.28-.27-.48.08-1.38,1.37-1.86,3.57,1.11-1.06,2.25-2.65,2.14-3.3Z"/></g></g></svg>