<?xml version="1.0" encoding="UTF-8"?><svg id="_レイヤー_2" xmlns="http://www.w3.org/2000/svg" width="127.36mm" height="17.37mm" viewBox="0 0 361.02 49.24"><defs><style>.cls-1{opacity:.5;}.cls-2{fill:#226db6;}.cls-2,.cls-3{stroke-width:0px;}.cls-3{fill:#004098;}</style></defs><g id="_レイヤー_3"><path class="cls-3" d="m212.3,0l-1.76,6.58h-13.85l-3.53,13.17c.81-.64,1.78-1.18,2.9-1.61,1.12-.43,2.3-.65,3.53-.65,2.38,0,4.12.72,5.22,2.16,1.1,1.44,1.26,3.6.49,6.48l-3.38,12.62c-.44,1.64-1.12,3.11-2.03,4.39-.92,1.28-1.98,2.38-3.18,3.29-1.21.92-2.5,1.61-3.89,2.09-1.39.48-2.76.72-4.14.72s-2.62-.24-3.75-.72c-1.13-.48-2.05-1.18-2.77-2.09-.72-.91-1.19-2.01-1.42-3.29-.23-1.28-.12-2.74.32-4.39l.55-2.06h7l-.48,1.78c-.32,1.19-.24,2.11.25,2.78.48.66,1.25,1,2.31,1s1.95-.32,2.69-.96c.74-.64,1.27-1.53,1.57-2.67l3.07-11.45c.26-.96.17-1.78-.26-2.47-.43-.69-1.13-1.03-2.09-1.03-.59,0-1.13.1-1.59.31-.47.21-.87.45-1.22.72-.35.27-.63.57-.86.89-.34.41-.54.66-.61.75h-6.17l7.06-26.33h20.03Z"/><path class="cls-3" d="m21.33,19.38v3.9c-5.07,3.48-6.24,4.26-8.88,5.52,5.43-.84,11.22-1.08,13.92-1.11l.06,4.74c-.84-.03-2.01-.06-3.33-.06-3.12,0-4.44.09-6.45,1.32-1.74,1.05-3.33,2.7-3.33,4.56,0,1.47.72,2.55,5.07,2.67,2.43.09,3.63.06,4.89,0l-.72,4.83c-5.85.09-14.46-.45-14.46-6.27,0-.63,0-3.69,4.05-6.45-1.98.3-8.73,1.47-11.88,2.31l-.27-4.95c1.86-.24,2.55-.45,3.09-.6,1.74-.48,6.45-3.3,10.47-6.18l-9.9.42v-4.65h17.67Z"/><path class="cls-3" d="m41.22,40.83c3.24-.24,9.93-.78,9.93-8.85,0-5.01-2.91-7.14-6.33-7.41-.15,2.61-1.29,18.3-9.33,18.3-4.05,0-6.57-4.11-6.57-8.82,0-6.63,4.65-13.98,14.55-13.98,6.9,0,12.69,3.78,12.69,12.33,0,3.42-.99,6.96-4.08,9.72-2.94,2.58-7.5,3.06-9.09,3.24l-1.77-4.53Zm-7.56-6.84c0,1.14.33,3.84,2.04,3.84,2.28,0,3.99-5.88,4.56-13.05-6.6,1.92-6.6,8.46-6.6,9.21Z"/><path class="cls-3" d="m73.59,18.9c.15,1.26.27,2.19.99,4.65,5.88-.36,6.57-.57,7.98-1.05l1.14,4.62c-3.48.78-5.04.81-7.41.9,1.89,4.11,3.42,5.79,4.26,6.69l-4.62,2.13c-2.58-3.66-4.26-7.68-4.65-8.67h-12.81v-4.5h11.22c-.54-1.8-.81-3.18-1.05-4.32l4.95-.45Zm-3.99,15.33c-1.56.45-5.16,1.56-5.16,4.02s3.12,2.52,7.77,2.52c4.23,0,6.48-.24,8.22-.45l-.09,4.68c-2.07.18-4.32.24-7.05.24-6.12,0-8.31-.51-10.38-1.65-1.59-.87-3.18-2.58-3.18-5.22,0-5.22,6.12-7.2,7.8-7.74l2.07,3.6Z"/><path class="cls-3" d="m101.28,18.81c.09,1.41.15,2.31.27,3.27,2.91-.24,4.2-.33,7.05-.99l.54,4.11c-2.7.57-3.15.6-6.99.9.18,1.08.3,1.62.6,2.61,4.44-.24,6.72-.78,8.1-1.11l.69,4.02c-3.57.78-6.54.96-7.23.99.99,1.86,1.71,2.67,2.43,3.45l-4.26,2.58c-.84-.93-2.13-2.37-3.51-5.85-.21.03-.27.03-.6.03h-12.54v-3.96h12c-.12-.6-.15-.81-.42-2.55h-10.5v-4.05h9.93c-.33-2.07-.36-2.31-.45-3.12l4.89-.33Zm-6.3,17.04c-.66.57-1.92,1.62-1.92,2.94,0,2.04,3.24,2.19,7.26,2.19,4.38,0,6.81-.24,7.98-.39l.18,4.62c-1.05.09-2.7.21-6.09.21-5.73,0-7.65-.24-8.97-.57-4.71-1.2-5.25-4.29-5.25-5.31,0-2.82,2.19-4.77,3.18-5.67l3.63,1.98Z"/><path class="cls-3" d="m138.57,30.96c1.5,3.81,3.03,10.14,3.48,14.82l-4.77.78c-.12-1.26-.15-1.86-.27-2.61-2.1.48-8.19,1.5-11.76,1.86l-.51-2.91c-.21,1.14-.48,1.71-.72,2.1-.42.72-1.74,1.56-3.15,1.56h-5.46l-.81-4.44h4.8c.48,0,1.14,0,1.35-.99.15-.69.27-3,.36-4.62h-7.89c.48-3.33.69-6,.96-10.62h6.78v-2.7h-7.77v-4.29h11.94v10.95h-6.93c0,.24-.12,1.56-.24,2.4h7.29c0,1.53,0,6.03-.3,8.88.24-.03,1.23-.12,1.41-.12,1.32-5.4,2.76-16.26,3.18-23.1h4.89c-.54,4.86-2.1,16.47-3.6,22.71,1.77-.18,3.75-.36,5.55-.69-.21-1.11-.84-4.41-2.07-7.89l4.26-1.08Z"/><path class="cls-3" d="m143.28,29.13h6.81v8.97c.54,2.46,3.03,3.48,5.61,3.48h16.35l-.99,4.26h-15.36c-4.5,0-6.12-2.22-6.81-3.15-1.14,1.32-2.82,2.79-4.44,3.84l-1.56-4.89c.51-.24,1.53-.75,2.88-1.86v-6.45h-2.49v-4.2Zm7.47-5.52l-2.7,2.7c-1.11-1.53-2.55-3.21-4.65-4.92l3-3.21c2.13,1.53,3.93,3.54,4.35,4.02v-1.47h3.54c-.51-.99-.57-1.11-1.08-2.01l4.32-.93c.36.66.75,1.29,1.44,2.94h4.08c.39-.75.9-2.04,1.14-2.82l4.65.69c-.24.48-.84,1.59-1.2,2.13h3.93v3.72h-8.73c-.15.36-.33.81-.54,1.17h7.71v14.67h-17.67v-14.67h5.46c.18-.39.3-.81.39-1.17h-7.44v-.84Zm6.06,4.98v1.44h8.76v-1.44h-8.76Zm0,3.54v1.44h8.76v-1.44h-8.76Zm0,3.54v1.53h8.76v-1.53h-8.76Z"/><path class="cls-3" d="m207.98,37.57c.21.36.57.68,1.01.68.31,0,.59-.05,1.43-.43,2.2-.9,5.39-2.57,8.23-2.57,3.29,0,4.61,2.16,3.98,4.48-.64,2.38-2.46,3.87-4.58,4.8-2.05.92-5.06,1.22-7.74,1.06l.07-.45c2.53-.23,4.56-.58,6.68-1.6,1.99-.92,3.35-2.21,3.84-4.07.5-1.87-.36-3.35-2.52-3.35-2.3,0-5.4,2.02-6.78,2.84-1.35.81-1.92,1.31-2.51,1.31-.67,0-1.4-.74-1.52-1.37-.08-.38.04-.83.11-1.21l.31-.14Z"/><path class="cls-3" d="m230.92,46.35c4.73-.94,7.27-3.35,8.12-6.53.87-3.26-.8-5.34-3.75-5.34-.22,0-.46.02-.69.04.35.58.66,1.35.45,2.14-.24.88-.73,2-1.41,3.06-1.37,2.23-4.33,5.6-6.36,5.6-1.35,0-2.09-2.07-1.48-4.37.46-1.73,1.84-3.76,3.94-5.22,1.8-1.28,3.81-1.91,5.89-1.91,3.94,0,6.14,2.68,5.14,6.42-.86,3.22-3.84,6.19-9.88,6.5l.03-.38Zm2.9-11.7c-1.28.29-2.65.94-3.77,1.85-1.38,1.13-2.37,2.46-2.78,3.98-.42,1.57-.09,2.88.65,2.88,1.1,0,3.42-2.63,4.44-4.07.69-.97,1.32-2.16,1.55-3.04.16-.61.07-1.13-.09-1.6Z"/><path class="cls-3" d="m259.09,32.45c1.53-.16,2.89-.3,3.72-.4,1.77-.24,2.16-.51,2.59-.51,1.4,0,2.85.73,2.6,1.67-.18.68-.61.97-1.23.97-.57,0-1.74-.27-3.17-.27-1.32,0-3.31.08-5.05.22-2.08,5.83-6.21,9.88-13.08,12.26l-.19-.49c5.82-3.08,8.86-6.48,10.65-11.53-2.18.27-5.2.76-6.22,1.05-.84.22-1.5.57-2.26.57-.81,0-1.68-1.27-1.83-2.05-.03-.38,0-.92.16-1.62l.44-.13c.5.86.85,1.35,1.58,1.35,1.83,0,6.35-.51,8.63-.78l.18-.67c.38-1.54.52-2.54-.1-3.24-1.64.27-4.11.62-7.49.84l.03-.62c4.77-.97,11.01-2.81,12.52-3.73.59-.38.66-.76-.12-1.57l.42-.35c1.32.22,1.94.62,2.46,1.08.48.43.99,1.24.84,1.81-.16.59-1.16.51-1.93.76-1.64.57-2.93.95-4.37,1.3.84.49,1.41,1.19,1.31,1.57-.17.62-.62.81-1.02,2.19l-.09.35Z"/><path class="cls-3" d="m273.09,30c.66-.24,1.29-.49,2.05-.49.94,0,2.58.46,2.41,1.08-.13.49-.42.97-.55,1.54-.08.38-.14,1.24-.2,2.05,2.05-.49,5-1.21,5.79-1.46.53-.16,1.06-.62,1.41-.62.89,0,2.19,1.51,1.96,2.35-.14.51-1.04.57-1.51.92-1.22.92-3.35,2.65-5.77,3.89l-.2-.27c1.61-1.57,3.23-3.51,3.95-4.56.21-.27.11-.32-.2-.27-.92.19-3.4.89-5.49,1.46-.04,2.78-.01,6,.04,7.43.03.59.12,1.57-.02,2.11-.21.78-.64,1.16-1.39,1.16-.97,0-1.39-.84-1.21-1.92.28-1.86.53-5.59.55-8.21-1.06.32-2.21.67-2.69.86-1.02.38-1.51.92-2.05.92-.78,0-1.58-.94-1.7-1.62-.05-.32.1-.86.24-1.41l.3-.11c.33.38.55.78,1.22.78.61.03,2.74-.46,4.7-.92,0-1.3-.01-2.78-.18-3.38-.13-.51-.67-.81-1.49-1l.03-.32Z"/><path class="cls-3" d="m292.65,26.73c.76-.32,1.72-.78,2.34-.78,1.43,0,3.04,1.46,2.83,2.21-.16.59-.94,1.08-1.27,1.92-.55,1.43-2.55,8.02-3.24,10.58-.08.3,0,.43.28.35,4.78-1.32,12.8-5.75,17.8-9.72l.34.43c-4.71,4.89-10.95,8.83-17.54,11.85-1.08.49-1.27,1.22-2.03,1.22-.84,0-2.13-1.92-1.91-2.73.14-.51.79-.95,1.06-1.84.66-2.05,2.68-9.58,3.08-11.61.13-.7,0-1-1.85-1.46l.09-.43Z"/><path class="cls-3" d="m335.45,28.62l.45.35c-4.7,5.86-10.89,10.42-18.01,14.23-.85.46-1.38,1.24-2.09,1.24-1.35,0-2.71-1.46-3.02-2.43-.15-.54-.13-1.51.01-2.16l.47-.24c.5.75,1.16,1.7,2.11,1.7,2.54,0,14.77-7.26,20.08-12.69Zm-18.52-2.62c3.26.62,6.94,2.29,6.27,4.81-.22.81-.96,1.46-1.79,1.46-.7,0-1.05-.41-1.51-1.32-.85-1.67-1.4-2.65-3.4-4.43l.43-.51Z"/><path class="cls-3" d="m359.09,29.86l.45.32c-4.3,5.48-11.63,10.67-18.47,14.04-.85.46-1.39,1.27-2.23,1.27-1.03,0-2.45-1.21-2.87-2.27-.25-.57-.16-1.73-.03-2.29l.46-.22c.46.7,1.06,1.7,2.05,1.7,2.56,0,14.32-6.51,20.64-12.56Zm-21.32,1.7l.36-.54c1.16.22,2.16.4,3.4.81,1.66.54,2.87,1.57,2.5,2.97-.15.54-.62,1.22-1.49,1.22-1.08,0-1.27-1.11-2.3-2.19-.86-1.03-1.66-1.75-2.47-2.27Zm4.98-5.48l.35-.51c.91.14,2.12.35,3.43.78,1.68.67,2.69,1.57,2.32,2.94-.17.65-.78,1.21-1.43,1.21-1.05,0-1.28-1.05-2.38-2.29-.76-.89-1.59-1.62-2.29-2.13Zm12.84,2.05c-.34-.73-.81-1.73-1.71-2.78l.43-.41c1.31.54,2.38,1.11,2.91,1.84.46.59.58,1.05.44,1.59-.14.51-.61.86-1.12.86-.43,0-.64-.43-.95-1.11Zm3.31-2.27c-.36-.67-.8-1.43-1.78-2.51l.41-.41c1.37.43,2.35,1,2.93,1.57.5.54.69,1.05.52,1.67-.14.51-.55.84-1.03.84s-.65-.49-1.04-1.16Z"/><g class="cls-1"><path class="cls-2" d="m225.2,24.21s.08-.12.14-.13c.08-.01.12.06.12.08,0,.05-.2.35-.2.35-1.48,2.21-5.43,6.5-9.19,7.17-2.43.43-5.59-1.18-6.04-3.74-1.16-6.58,8.16-16.59,13.59-17.55,1.84-.33,2.93,1.17,3.11,2.2.33,1.84-2.79,5.59-3.58,5.73-.61.11-1.3-.19-1.33-.35-.02-.1.05-.14.13-.18,1.69-.61,4.67-3.49,4.31-5.51-.09-.54-.76-1-1.7-.83-5.07.89-14.01,10.71-12.86,17.21.36,2.05,1.98,2.82,4.18,2.43,4.22-.75,7.23-3.89,9.35-6.88Z"/><path class="cls-2" d="m231.7,25.92c-.49.08-1.49-.5-1.6-1.14-.33-1.87,1.16-3.93,1.13-4.08-.01-.08-.08-.14-.21-.12-.56.1-3.66,2.92-4.49,5.68-.33,1.14-.35,1.75-.5,1.78-.33.06-.84-.41-.91-.84-.86-4.86,3.58-13.99,6.01-14.42.61-.11,1.38.34,1.46.82.44,2.48-5.21,9.08-6.12,10.35-.16.74-.23,1.41-.19,1.93.79-2.57,4.2-5.68,4.76-5.78.33-.06,1.53.44,1.66,1.19.13.74-1.6,2.74-1.41,3.81.05.31.23.43.47.39,1.31-.23,3.27-3.01,3.27-3.01,0,0,.08-.12.16-.13.05,0,.12.06.12.08,0,.05-.17.27-.23.36,0,0-2,2.89-3.38,3.13Zm.19-12.26c-1.87.33-4.42,5.8-5.3,9.65.57-.84,5.91-7.35,5.54-9.45-.03-.15-.12-.22-.24-.19Z"/><path class="cls-2" d="m241.11,24.47c-.82.14-1.64-.29-1.81-1.27-.09-.49-.09-.94-.09-.94-1.06,1.48-2.53,3.64-3.12,3.74-.59.1-1.61-.43-1.75-1.22-.36-2.05,2.5-6.2,4.7-6.58,1-.18,2.13.55,2.23,1.11.07.41-.01.69-.09.7-.08.01-.26-.11-.27-.21-.02-.1.1-.2.04-.51-.03-.18-.35-.36-.53-.33-2.41.42-5.1,4.6-4.79,6.36.04.2.16.31.39.27.49-.09,2.02-2.18,3.03-3.62.63-.9,1.1-1.52,1.34-1.56.23-.04,1.04.5,1.11.91.05.31-.92,1.35-.78,2.15.06.33.34.44.65.39,1.25-.22,3.26-3.08,3.26-3.08.04-.06.08-.12.14-.13.08-.01.12.06.12.08,0,.05-.14.26-.2.35,0,0-2.14,3.12-3.58,3.38Z"/><path class="cls-2" d="m250.39,19.77c.04-.06.08-.12.13-.13.08-.01.12.06.12.08,0,.05-.14.26-.2.35,0,0-2.77,3.74-4.18,3.98-.69.12-1.37-.29-1.56-1.34-.86-4.87,2.83-13.17,4.77-13.51.74-.13,1.45.43,1.58,1.17.31,1.74-3,7.08-5.08,9.85,0,0-.25,1.42-.07,2.47.11.61.43.77.79.71,1.02-.18,3.69-3.63,3.69-3.63Zm.2-9.33c-.04-.23-.21-.31-.39-.27-1.43.25-3.89,6.81-4.12,9.44,1.65-2.32,4.79-7.6,4.51-9.16Z"/><path class="cls-2" d="m256.15,18.75c.04-.06.08-.12.13-.13.08-.01.12.06.12.08,0,.05-.14.26-.2.35,0,0-2.77,3.74-4.18,3.98-.69.12-1.37-.29-1.56-1.34-.86-4.87,2.83-13.17,4.77-13.51.74-.13,1.45.43,1.58,1.17.31,1.74-3,7.08-5.08,9.85,0,0-.25,1.42-.07,2.47.11.62.43.77.78.71,1.02-.18,3.69-3.63,3.69-3.63Zm.2-9.33c-.04-.23-.21-.31-.39-.27-1.43.25-3.89,6.81-4.12,9.44,1.65-2.32,4.79-7.6,4.51-9.16Z"/><path class="cls-2" d="m262.23,17.58c.08-.01.12.06.12.08,0,.05-.14.26-.2.35,0,0-2.05,3.21-4.02,3.56-1.31.23-2.14-.47-2.38-1.8-.41-2.3,1.47-5.12,2.6-5.32.69-.12,1.28.67,1.33.98.13.72-1.2,2.35-2.45,3.47-.02.16.03.63.06.81.14.79.64,1.39,1.38,1.26,1.36-.24,3.41-3.27,3.41-3.27,0,0,.08-.12.14-.13Zm-3.08-2.02c-.04-.21-.13-.27-.25-.25-.43.08-1.26,1.25-1.7,3.26,1.02-.97,2.05-2.42,1.95-3.01Z"/><path class="cls-2" d="m264.41,15.13c.08.46-.44,1.56-.83,2.63.82-.91,3.24-3.21,4.21-3.38.41-.07.85.62.91.95.05.28-1.56,2.54-1.32,3.9.04.23.21.31.42.27,1.56-.28,3.82-3.47,3.82-3.47,0,0,.08-.12.13-.13.08-.01.14.05.15.08,0,.05-.23.36-.23.36,0,0-2.43,3.44-3.79,3.68-.64.11-1.6-.54-1.75-1.38-.2-1.13.72-2.95.69-3.13,0-.03-.03-.05-.08-.04-.28.05-2.08,1.37-3.26,2.92-1.37,1.8-1.36,3.09-1.59,3.13-.26.04-.8-.52-.9-1.06-.09-.51,1.97-4.1,1.98-6.13-.04-.2.09-.25.21-.28.26-.04,1.1.41,1.22,1.08Z"/><path class="cls-2" d="m277.57,18.07c-.75,3.51-3.12,9.42-5.35,9.81-.97.17-1.76-.56-1.89-1.3-.41-2.33,2.6-5,5.63-7.75.53-1.78.62-2.93.51-3.52,0-.05-.04-.1-.1-.09-.33.06-2.73,3.81-3.46,3.91-.64.09-1.58-.43-1.7-1.12-.33-1.84,2.33-5.96,4.84-6.4.56-.1,1.59.62,1.68,1.13.07.38-.48,1.33-.66,1.36-.05,0-.11-.03-.12-.08-.03-.15.4-.73.31-1.22-.05-.26-.31-.42-.52-.38-1.59.28-4.64,4.25-4.33,5.99.04.23.24.33.4.3.82-.14,3.27-3.9,3.63-3.97.46-.08,1.23.55,1.34,1.16.06.36.01.97-.12,1.71,1.14-1.02,2.17-2.07,2.93-3.16,0,0,.08-.12.16-.13.05,0,.12.06.12.08,0,.05-.17.27-.23.36-.82,1.17-1.92,2.27-3.08,3.32Zm-6.3,8.87c1.72-.3,3.62-4.47,4.59-7.65-2.66,2.42-5.44,5.1-5.07,7.2.06.36.27.48.47.44Z"/><path class="cls-2" d="m286.68,13.27c.08-.01.12.06.12.08,0,.05-.14.26-.2.35,0,0-2.05,3.21-4.02,3.56-1.31.23-2.14-.47-2.38-1.8-.41-2.3,1.47-5.12,2.6-5.32.69-.12,1.28.67,1.33.98.13.72-1.2,2.35-2.45,3.47-.02.16.03.63.06.81.14.79.64,1.39,1.38,1.26,1.36-.24,3.41-3.27,3.41-3.27,0,0,.08-.12.13-.13Zm-3.08-2.02c-.04-.21-.13-.27-.25-.25-.43.08-1.26,1.25-1.7,3.26,1.02-.97,2.05-2.42,1.95-3.01Z"/></g></g></svg>