<?xml version="1.0" encoding="UTF-8"?><svg id="_レイヤー_1" xmlns="http://www.w3.org/2000/svg" width="284.53" height="50.72" viewBox="0 0 284.53 50.72"><defs><style>.cls-1{fill:#fff;stroke-width:0px;}</style></defs><g id="_グループ_2"><path id="_パス_59" class="cls-1" d="m16.3,34.47c-5.91,1.48-9.67,2.85-13.05,4-.36.19-.75.33-1.15.42-.38-.1-.68-.39-.79-.76-.5-1.01-.94-2.06-1.31-3.12.87-.23,1.23-.34,2.06-.61,1.35-.6,2.63-1.36,3.81-2.25,3.96-3.1,7.73-6.43,11.3-9.97-2.42.65-4.56,1.03-7.06,1.48-.6.11-.91.15-1.51.3-.35.18-.72.31-1.11.38-.36,0-.67-.34-.95-.84-.59-1.21-1.07-2.47-1.43-3.77,1.3.12,2.62.15,3.92.08,2.66-.19,5.55-.65,9.04-1.14.74-.07,1.45-.29,2.1-.65.22-.17.48-.26.75-.27.36,0,.6.19,1.07.57.71.56,1.36,1.2,1.94,1.9.28.29.45.67.48,1.07,0,.38-.24.65-.71.88-.58.32-1.13.71-1.63,1.14-4.12,3.5-7.49,6.32-12.01,9.59l.08.11c6.28-1.78,12.66-3.18,19.11-4.19.52-.08.67.19.75.61.25,1.01.39,2.04.44,3.08.04.38-.2.49-.64.53-2.5.08-4.98.49-7.38,1.22-4.6,1.52-6.78,4.23-6.78,6.97,0,3.65,4.16,4.76,9.91,4.76.4,0,.64.19.6.68-.08.95-.4,2.51-.52,3.2-.08.61-.32.84-.87.84-.88-.03-1.75-.1-2.62-.23-7.45-.72-10.71-4-10.71-8.6.19-3.13,2.03-5.93,4.84-7.35v-.08h0Z"/><path id="_パス_60" class="cls-1" d="m51.78,25.34c-.91,6.47-2.58,12.41-4.96,16.4-1.7,2.85-3.77,4.38-6.74,4.38-3.49,0-7.02-3.58-7.02-9.78.07-3.77,1.69-7.35,4.48-9.9,3.46-3.29,8.11-5.05,12.89-4.87,9.52,0,15.11,5.63,15.11,13.21,0,7.08-4.16,11.53-12.21,13.86-.83.23-1.19.08-1.7-.68-.73-1-1.68-1.82-2.78-2.4,6.7-1.52,11.98-4.19,11.98-11.38.01-4.87-3.93-8.82-8.79-8.83-.03,0-.06,0-.09,0h-.16,0Zm-11.38,3.69c-1.87,1.88-2.97,4.39-3.09,7.04,0,3.5,1.47,5.44,2.7,5.44,1.03,0,1.9-.49,2.97-2.32,2.16-4.27,3.58-8.88,4.2-13.63-2.57.4-4.95,1.61-6.78,3.47Z"/><path id="_パス_61" class="cls-1" d="m78.75,21.56c-.51-1.12-1.17-2.16-1.98-3.08,1.56-.32,3.13-.52,4.72-.61,1.07,0,1.35.27,1.35.8-.03.36-.01.71.04,1.07.17.65.38,1.28.64,1.9.48,1.14.83,2.05,1.35,3.08,2.81-.6,5.58-1.39,8.29-2.36.4-.19.52-.15.75.27.42.94.76,1.92.99,2.93.12.38-.04.57-.32.65-2.58.9-5.22,1.64-7.89,2.21,1.7,2.9,3.74,5.6,6.07,8.03.33.3.67.58,1.03.84.24.19.4.3.4.49-.01.23-.1.46-.24.65-.43.87-.95,1.7-1.55,2.47-.32.42-.52.57-.79.57-.2,0-.32-.08-.64-.3-.52-.37-1.06-.7-1.63-.99-2.61-1.29-5.49-1.96-8.41-1.94-4.12,0-6.62,1.18-6.62,3.58,0,2.85,3.61,4.04,9.83,4.04,2.13-.01,4.25-.19,6.34-.53-.15,1.38-.43,2.74-.83,4.07-.12.38-.28.46-.75.53-1.46.18-2.93.26-4.4.27-9.36,0-14.39-2.85-14.39-7.88,0-4.34,3.89-7.38,10.43-7.38,2.39-.06,4.78.28,7.06,1.03-2.08-1.93-3.81-4.21-5.11-6.74-2.5.42-4.8.72-7.65.95-1.07.08-2.9.19-3.89.19-.36,0-.52-.23-.64-.68-.37-1.12-.68-2.27-.91-3.43,2.02.08,3.65.04,4.96-.04,2.1-.12,4.19-.37,6.27-.72-.67-1.37-1.23-2.47-1.86-3.92h0Z"/><path id="_パス_62" class="cls-1" d="m107.77,20.92c-.34-.88-.81-1.7-1.39-2.44,1.59-.27,3.19-.41,4.8-.42.56,0,.87.3.87.68,0,.23-.08.49-.08.72.02.38.07.77.16,1.14.28.99.4,1.33.64,1.98,2.74-.5,5.44-1.17,8.09-2.02.36-.15.56-.11.67.19.24.72.52,1.79.67,2.55.06.32-.15.62-.46.68,0,0,0,0-.01,0-2.66.8-5.08,1.37-7.77,1.94.36.95.87,2.13,1.39,3.2,2.45-.47,4.87-1.13,7.22-1.98.4-.19.6-.11.71.23.32.81.55,1.65.71,2.51.08.34.08.53-.32.68-2.19.78-4.43,1.4-6.7,1.87,1.4,2.44,3.15,4.66,5.19,6.59.4.34.4.49.2.91-.44.85-.98,1.65-1.63,2.36-.24.27-.4.38-.64.38-.2-.02-.4-.1-.56-.23-.72-.51-1.51-.92-2.34-1.22-2.38-.88-4.91-1.29-7.45-1.22-3.73,0-5.91,1.1-5.91,2.89,0,2.47,3.37,3.27,9.44,3.27,1.47,0,2.93-.15,4.36-.23.4,0,.52.19.48.49-.18,1.17-.44,2.33-.79,3.46-.12.38-.28.53-.83.57-.91.08-1.86.11-2.85.11-9.12,0-13.96-2.47-13.96-7.16,0-4.07,3.65-6.62,9.83-6.62,2.31-.1,4.62.22,6.82.95-1.19-1.43-2.29-2.93-3.29-4.49-3.6.58-7.22.96-10.86,1.14-.34.05-.66-.19-.71-.53,0,0,0,0,0,0-.33-1.02-.57-2.06-.71-3.12,3.57-.05,7.14-.37,10.67-.95-.4-.8-.99-2.09-1.51-3.16-3.19.52-6.41.83-9.63.91-.48,0-.71-.15-.79-.53-.12-.42-.4-1.83-.64-3.04,3.3.02,6.6-.18,9.87-.61-.32-.88-.56-1.52-.95-2.47h0Z"/><path id="_パス_63" class="cls-1" d="m131.6,22.71c-2.46,0-3.24.07-3.46.07-.39,0-.43-.04-.43-.39v-2.6c0-.36.04-.39.43-.39.21,0,1,.07,3.46.07h4.7c1.96,0,2.78-.07,2.99-.07.39,0,.43.04.43.39,0,.21-.07,1.18-.07,3.24v3.71c0,2.07.07,2.99.07,3.21,0,.36-.04.39-.43.39-.21,0-1.03-.07-2.99-.07h-4.17c-.18,1.43-.36,2.78-.61,4.14h4.53c1.96,0,2.53-.07,2.74-.07.36,0,.43.07.43.46-.07.86-.07,1.71-.14,2.53-.36,5.42-1.14,8.88-1.71,10.23-.75,1.75-2.03,2.6-4.6,2.6-.68,0-1.25,0-1.85-.04-.71-.04-.78-.11-1-1.21-.17-.87-.43-1.72-.78-2.53,1.06.13,2.14.21,3.21.21.93,0,1.35-.21,1.68-.78.54-.96,1.07-2.92,1.46-8.3h-4.56l-.36,1.64c-.05.31-.67.39-1.85.25-1.16-.17-1.72-.4-1.68-.71.72-2.92,1.25-5.89,1.6-8.88.12-.73.17-1.47.14-2.21,0-.39.14-.5.5-.5.21,0,1.18.07,2.82.07h3.96v-4.45h-4.45,0Zm21.03,11.65c.43-.18.5-.18.68.18,2.19,4.28,4,8.74,5.42,13.33.07.43.04.46-.43.68l-2.64,1.1c-.43.18-.5.18-.61-.21l-.85-2.99c-4.42.86-8.88,1.64-12.69,2.07-.41.04-.81.16-1.18.36-.21.12-.44.2-.68.21-.21,0-.39-.14-.5-.5-.36-1.19-.64-2.41-.85-3.64.93,0,1.75-.04,2.64-.11,2.15-7.07,3.79-14.29,4.92-21.6.28-1.47.44-2.96.46-4.45,1.31.18,2.61.44,3.89.78.39.11.68.29.68.57-.01.26-.1.5-.25.71-.35.56-.57,1.2-.64,1.85-1.33,7.35-3.04,14.62-5.13,21.79,2.6-.32,5.45-.75,8.27-1.25-.91-2.49-1.94-4.93-3.1-7.31-.18-.36-.14-.43.36-.64l2.24-.93Z"/><path id="_パス_64" class="cls-1" d="m170.48,42.6c.54,1.36,1.61,2.44,2.96,2.99,1.25.5,3.46.68,6.56.68,4.6,0,10.02-.29,15.33-.82-.53.86-.85,1.82-.96,2.82-.14,1.14-.18,1.14-1.32,1.21-4.53.21-8.77.32-12.47.32s-6.84-.21-8.3-.96c-1.5-.74-2.78-1.86-3.71-3.24-1.1,1.07-2.46,2.25-3.6,3.17-.28.19-.52.43-.71.71-.12.28-.45.4-.73.27-.16-.07-.27-.21-.31-.38-.55-1.09-1.04-2.21-1.46-3.35.73-.31,1.43-.68,2.1-1.1,1.12-.67,2.17-1.44,3.14-2.32v-7.88h-1.75c-1.93,0-2.42.07-2.6.07-.39,0-.43-.04-.43-.43v-2.71c0-.36.04-.39.43-.39.18,0,.68.07,2.6.07h2.25c1.89,0,2.46-.07,2.67-.07.36,0,.39.04.39.39,0,.21-.07,1.21-.07,3.39v7.55Zm-5.24-23.52c.21-.14.32-.21.43-.21.13.02.26.08.36.18,1.71,1.57,3.2,3.36,4.45,5.31.21.29.18.36-.21.64l-2.03,1.71c-.21.18-.32.25-.43.25-.14,0-.21-.11-.32-.29-1.21-2.03-2.67-3.9-4.35-5.56-.29-.25-.21-.36.18-.64l1.93-1.39Zm11.73,6.38c-3.71,0-4.92.07-5.13.07-.36,0-.39-.04-.39-.43v-2.32c0-.39.04-.43.39-.43.21,0,1.43.07,5.13.07h.39c-.47-1.17-1.09-2.27-1.85-3.28-.25-.32-.14-.46.32-.61l2.42-.64c.43-.11.5-.07.75.14.74.92,1.35,1.94,1.82,3.03.18.36.04.46-.32.61l-2.1.75h5.63c.53-.91.99-1.85,1.39-2.82.26-.6.46-1.22.61-1.85,1.15.2,2.3.46,3.42.78.29.11.46.25.46.5s-.14.39-.36.57c-.27.18-.49.43-.64.71-.39.64-.82,1.35-1.35,2.1h1.14c3.46,0,4.67-.07,4.88-.07.39,0,.43.04.43.43v2.32c0,.39-.04.43-.43.43-.21,0-1.43-.07-4.88-.07h-4.7c-.27.7-.58,1.39-.93,2.07h3.39c3.17,0,4.31-.07,4.49-.07.39,0,.43.04.43.39,0,.21-.07,1.32-.07,3.89v8.48c0,2.53.07,3.49.07,3.71,0,.39-.04.43-.43.43-.18,0-1.32-.07-4.49-.07h-7.63c-3.17,0-4.31.07-4.53.07-.39,0-.43-.04-.43-.43,0-.21.07-1.18.07-3.71v-8.48c0-2.57-.07-3.67-.07-3.89,0-.36.04-.39.43-.39.21,0,1.35.07,4.53.07h.71c.31-.67.58-1.36.82-2.07h-3.39Zm.39,6.84h10.52v-2.03h-10.52v2.03Zm10.52,4.53v-2h-10.52v2h10.52Zm0,2.49h-10.52v2.14h10.52v-2.14Z"/><path id="_パス_65" class="cls-1" d="m201.59,28.71c-.11,0-.12-.01-.12-.12,0-.08.02-.81.02-4.2v-2.14c0-2.16-.02-2.92-.02-2.99,0-.12.01-.13.12-.13.07,0,.42.02,1.43.02h6.05c1.01,0,1.35-.02,1.42-.02.12,0,.13.01.13.13,0,.07-.02.82-.02,2.61v2.52c0,3.38.02,4.12.02,4.19,0,.11-.01.12-.13.12h-.87c-.11,0-.12-.01-.12-.12v-.43h-6.92v.45c0,.11-.01.12-.12.12h-.88,0Zm1-1.53h6.92v-7.05h-6.92v7.05Zm4.4-3.97c.91,0,1.22-.02,1.29-.02.11,0,.12.01.12.12,0,.07-.02.18-.02.55v.42c0,.15,0,.3.01.44.04-.06.08-.13.12-.2.22.13.43.27.63.42.05.03.08.08.09.14,0,.07-.04.11-.12.13-.1.05-.18.11-.26.18-.19.15-.39.29-.61.45.34.15.7.28,1.06.38-.15.16-.29.34-.39.53-.1.17-.14.25-.23.25-.09-.01-.17-.04-.25-.09-.77-.33-1.46-.81-2.04-1.42.01.68.03,1.28.03,1.39s-.01.12-.13.12h-.71c-.11,0-.12,0-.12-.12s.01-.65.02-1.28c-.55.54-1.2.97-1.92,1.27-.07.04-.15.06-.23.07-.07,0-.12-.07-.2-.22-.11-.2-.24-.39-.4-.55.9-.25,1.74-.67,2.47-1.26h-.1c-.91,0-1.22.02-1.3.02-.11,0-.12-.01-.12-.12,0-.07.02-.2.02-.55v-.42c0-.37-.02-.48-.02-.55,0-.11.01-.12.12-.12.08,0,.39.02,1.3.02h1.88,0Zm-2.5-.4c-1.04,0-1.38.02-1.45.02-.11,0-.12-.01-.12-.13v-.5c0-.11.01-.12.12-.12.07,0,.41.02,1.45.02h.98v-.44h-.5c-.95,0-1.27.02-1.33.02-.12,0-.13,0-.13-.12v-.52c0-.11.01-.12.13-.12.06,0,.38.02,1.33.02h.5c0-.21-.02-.43-.06-.64.37.01.73.04.99.08.14.02.18.05.18.11,0,.06-.03.11-.06.16-.03.09-.05.19-.04.29h.66c.96,0,1.28-.02,1.34-.02.11,0,.12,0,.12.12v.52c0,.11-.01.12-.12.12-.06,0-.38-.02-1.34-.02h-.66v.44h1.14c1.03,0,1.37-.02,1.44-.02.11,0,.12.01.12.12v.5c0,.12-.01.13-.12.13-.06,0-.41-.02-1.44-.02h-3.13Zm2.91,1.03h-2.73v.49h2.73v-.49Zm-.61,1.09c.22.21.47.4.73.56.23-.17.45-.35.66-.54-.15-.01-.5-.02-1.19-.02h-.19Z"/><path id="_パス_66" class="cls-1" d="m220.86,26.01c0,.5.01.96.01,1.31,0,.55-.07.87-.35,1.08-.42.23-.89.32-1.36.25-.2.03-.38-.11-.41-.31,0,0,0,0,0-.01-.05-.28-.15-.55-.3-.79.34.05.69.08,1.04.08.24,0,.34-.04.34-.35v-3.32h-4.21v1.27c0,1.06.02,1.58.02,1.65,0,.11-.01.12-.12.12h-.65c-.11,0-.12-.01-.12-.12v-.46h-1.79v.91c0,.11-.01.12-.12.12h-.68c-.12,0-.13-.01-.13-.12,0-.07.02-.62.02-1.72v-3.16c0-.68-.01-1.06-.06-1.55.24.01.69.03.92.05.11.01.14.08.14.12,0,.06-.02.12-.04.18-.06.34-.08.69-.06,1.04v3.13h.42v-4.93c0-.52-.01-1.05-.06-1.57.3.01.68.03.94.07.11.01.16.07.16.13-.02.1-.04.19-.07.28-.05.36-.06.72-.04,1.08v4.94h.44v-2.99c.02-.51,0-1.03-.07-1.54.3,0,.6.03.9.07.1.02.15.07.15.11-.01.09-.03.17-.06.26-.06.33-.07.67-.06,1v.65h4.48c1.04,0,1.4-.02,1.46-.02.1,0,.11.01.11.12v.79c0,.11-.01.12-.11.12-.04,0-.25-.01-.69-.01v2.06h0Zm-1.68-5.25c.54.66,1.32,1.07,2.18,1.15-.17.19-.31.41-.39.65-.09.22-.11.29-.2.29-.09,0-.17-.03-.25-.07-.85-.25-1.58-.8-2.06-1.55-.42.71-1.07,1.24-1.84,1.52-.08.04-.16.07-.25.08-.09,0-.14-.08-.24-.27-.1-.21-.25-.4-.43-.55.79-.12,1.5-.57,1.94-1.24h-.2c-.96,0-1.28.02-1.34.02-.12,0-.13-.01-.13-.12v-.65c0-.12.01-.13.13-.13.06,0,.38.02,1.34.02h.46c.06-.37.07-.74.03-1.11.39.02.67.04,1,.09.12.02.19.05.19.12,0,.05-.02.11-.04.15-.11.18-.17.38-.17.6l-.02.16h.83c.96,0,1.29-.02,1.35-.02.12,0,.13.01.13.11v.67c0,.11-.01.12-.13.12-.06,0-.39-.02-1.35-.02h-.54Zm-.12,5.15c0,.97.02,1.18.02,1.24,0,.12-.01.13-.12.13h-.67c-.11,0-.12-.01-.12-.13v-.16h-1.02v.5c0,.11-.01.12-.13.12h-.69c-.1,0-.11-.01-.11-.12,0-.07.02-.28.02-1.47v-.57c0-.57-.02-.81-.02-.89,0-.11.01-.12.11-.12.08,0,.27.02.89.02h.87c.61,0,.8-.02.88-.02.11,0,.12,0,.12.12,0,.07-.02.3-.02.73v.63h0Zm-1.91-.64v.92h1.02v-.92h-1.02Z"/><path id="_パス_67" class="cls-1" d="m230.5,22.34c.1.55.15,1.1.15,1.66.04,1.12-.3,2.23-.97,3.13-.64.78-1.62,1.2-2.63,1.13-1.53.04-2.79-1.17-2.83-2.7,0-.11,0-.23.01-.34.02-1.15.37-2.27,1-3.24.19-.29.4-.55.65-.79-.36.05-.74.09-1.21.17-.19.03-.35.11-.43.11-.09-.01-.16-.08-.19-.16-.13-.36-.22-.73-.29-1.1.37.05.74.05,1.11.02.48-.04.95-.1,1.42-.18.27-.02.52-.1.76-.23.05-.04.11-.07.17-.09.06,0,.12.04.15.09.18.17.33.36.45.57.05.07.09.16.1.25,0,.09-.06.15-.17.22-.39.25-.74.57-1.03.94-.82.89-1.29,2.04-1.33,3.25,0,1.39.69,2.01,1.62,2.01.78.05,1.52-.33,1.94-.99.5-.9.73-1.92.67-2.95,0-.54-.01-1.08-.06-1.62-.02-.23-.06-.43-.08-.56s-.06-.27-.12-.45-.06-.24.11-.29c.27-.08.54-.15.81-.2.09-.02.14.04.16.12.21.56.45,1.1.73,1.62.47.9,1.07,1.72,1.78,2.46.04.04.06.09.06.14,0,.06-.03.12-.07.17-.18.24-.38.47-.59.68-.03.03-.07.05-.12.05-.08,0-.15-.06-.17-.13-.62-.86-1.12-1.8-1.49-2.79l-.06.02h0Z"/><path id="_パス_68" class="cls-1" d="m237.2,23.34c.67-.4,1.44-.61,2.22-.62,1.33-.11,2.49.88,2.6,2.21,0,.08,0,.17,0,.25,0,1.76-1.54,2.93-4.2,3.34-.22.04-.31.05-.42-.15-.18-.33-.44-.61-.75-.82,2.62-.34,4.06-1.18,4.06-2.5,0-.89-.66-1.33-1.56-1.33-1.23.05-2.4.54-3.3,1.39-.38.33-.73.69-1.06,1.07-.04.06-.1.1-.17.12-.06,0-.11-.03-.14-.08-.23-.2-.44-.42-.63-.66-.04-.04-.06-.08-.08-.13,0-.05.04-.1.09-.13.79-.73,1.33-1.29,1.98-1.97.62-.67,1.44-1.6,2.5-2.86-.75.15-1.35.28-2.07.43-.14.04-.28.09-.42.14-.07.04-.15.07-.23.07-.07,0-.15-.07-.22-.2-.18-.37-.32-.75-.42-1.15.48,0,.95-.02,1.43-.07.66-.08,1.5-.2,2.09-.3.21-.01.41-.08.58-.2.06-.05.13-.07.2-.08.07,0,.14.04.19.09.28.2.52.45.72.73.05.05.08.12.08.2-.02.13-.1.25-.23.3-.15.1-.29.22-.42.35-.84.89-1.62,1.66-2.48,2.52l.04.04h0Z"/><path id="_パス_69" class="cls-1" d="m250.24,22.4c.02-.25.02-.49-.01-.74.44.09.86.25,1.26.46.1.05.14.17.09.27,0,0,0,.02-.01.02-.07.13-.13.27-.17.42-.09.46-.19.93-.3,1.4.59.3,1.15.65,1.69,1.04.11.07.1.12.06.23-.14.32-.29.63-.47.93-.03.05-.06.08-.1.08-.05,0-.1-.04-.13-.08-.44-.39-.91-.73-1.42-1.02-.45,1.13-1.21,2.12-2.19,2.85-.1.07-.15.12-.22.12-.06,0-.12-.03-.16-.08-.27-.22-.6-.37-.94-.44,1.11-.69,1.96-1.72,2.43-2.93-.68-.33-1.4-.55-2.14-.66-.31.79-.76,1.52-1.32,2.16-.35.39-.86.61-1.39.6-.72,0-1.3-.59-1.3-1.32,0-.06,0-.11.01-.17,0-1.34,1.39-2.39,3.19-2.39.36-.9.63-1.66.9-2.57-.59.07-1.14.13-1.49.17-.17.02-.33.06-.49.12-.06.03-.13.04-.19.04-.08,0-.15-.05-.17-.12-.14-.38-.25-.78-.31-1.18.31.06.63.08.95.07.56,0,1.12-.06,1.68-.14.19-.02.37-.08.53-.18.04-.03.09-.04.14-.04.05,0,.11.01.15.04.27.17.52.37.74.6.06.04.09.11.1.18,0,.07-.04.12-.11.18-.14.16-.24.36-.29.56-.28.74-.58,1.58-.91,2.36.72.09,1.42.28,2.1.54.11-.46.18-.93.23-1.4h0Zm-5.72,3.02c0,.35.12.5.38.5.26-.04.49-.19.63-.41.31-.41.57-.85.79-1.32-1.1.04-1.8.62-1.8,1.23h0Z"/><path id="_パス_70" class="cls-1" d="m255.75,20.08c.04-.35.04-.7-.02-1.05.44.04.87.11,1.3.23.14.04.22.11.22.2,0,.06-.04.12-.07.17-.09.12-.15.26-.19.4-.06.29-.1.51-.15.89.68-.1,1.36-.23,2.04-.4.15-.04.2-.03.23.11.05.26.07.53.07.8,0,.12-.03.15-.13.17-.93.21-1.52.32-2.43.45-.15.9-.3,1.62-.5,2.38.86-.75,1.97-1.16,3.11-1.15,1.21-.12,2.29.76,2.41,1.97,0,.02,0,.05,0,.07.03.9-.45,1.74-1.23,2.19-.85.47-1.79.77-2.76.87-.26.05-.53.07-.8.07-.11,0-.19-.05-.27-.26-.13-.3-.33-.56-.58-.77,1.06,0,2.12-.2,3.11-.6.83-.35,1.23-.84,1.23-1.53,0-.56-.41-1.03-1.23-1.03-1.1-.01-2.15.48-2.85,1.34-.1.14-.2.27-.3.41-.08.13-.11.17-.2.16-.28-.04-.55-.12-.81-.24-.17-.07-.24-.12-.24-.22,0-.07.02-.15.04-.22.06-.18.1-.35.14-.51.24-.95.39-1.75.57-2.84-.58.04-1.27.1-1.82.1-.1,0-.18-.06-.2-.15-.03-.13-.11-.59-.15-.94.84,0,1.52-.03,2.35-.1.06-.38.1-.74.13-1h-.01Z"/><path id="_パス_74" class="cls-1" d="m5.25,7c.14-.18.24-.39.31-.6.32.14.63.29.92.46.09.05.13.11.13.18,0,.08-.05.15-.13.18-.12.07-.22.17-.29.29-.49.66-1.08,1.23-1.75,1.69-.13.09-.2.14-.26.14-.08,0-.13-.06-.23-.23-.14-.23-.33-.42-.56-.57.71-.39,1.34-.92,1.85-1.55h0Zm-.15-4.73c-.98,0-1.3.01-1.37.01-.12,0-.13-.01-.13-.11v-.83c0-.11.01-.12.13-.12.06,0,.39.02,1.37.02h2.57v-.19c.02-.33,0-.66-.08-.99.4,0,.76.02,1.16.05.1.01.16.04.16.11-.01.08-.04.16-.08.23-.04.2-.05.41-.04.61v.17h2.71c.97,0,1.3-.02,1.37-.02.11,0,.12.01.12.12v.83c0,.1-.01.11-.12.11-.06,0-.4-.01-1.37-.01h-6.41,0Zm4.88.75c1.04,0,1.41-.02,1.48-.02.11,0,.12.01.12.12,0,.06-.02.29-.02.87v1.17c0,.57.02.81.02.87,0,.11-.01.12-.12.12-.08,0-.44-.02-1.48-.02h-1.09v1.09c0,.49.03.95.03,1.35.06.35-.07.71-.34.95-.24.19-.54.26-1.55.26-.32.01-.34.02-.42-.32-.05-.28-.17-.55-.33-.78.33.04.66.06.99.06.38,0,.48-.12.48-.39v-2.22h-1.2c-1.03,0-1.41.02-1.47.02-.12,0-.13-.01-.13-.12,0-.07.02-.3.02-.87v-1.17c0-.58-.02-.8-.02-.87,0-.11.01-.12.13-.12.06,0,.44.02,1.47.02h3.43Zm.46.98h-4.37v1.16h4.37v-1.16Zm.24,2.5c.13-.07.15-.06.22.03.61.81,1.41,1.47,2.32,1.9-.23.19-.42.42-.56.69-.11.17-.15.25-.23.25-.09-.02-.18-.06-.25-.13-.87-.58-1.62-1.32-2.2-2.18-.06-.1-.03-.12.08-.19l.62-.37Z"/><path id="_パス_75" class="cls-1" d="m17.67,2.22c.14-.25.27-.48.4-.74.15-.29.27-.59.34-.9.31.14.59.32.86.53.1.07.14.12.14.18,0,.07-.05.13-.12.16-.16.13-.29.31-.36.51-.26.5-.55.98-.88,1.44.63,0,.91-.01.95-.01.12,0,.13,0,.13.11v.72c0,.11-.01.12-.13.12-.05,0-.39-.02-1.37-.02h-.33c-.27.3-.56.59-.86.86h1.04c.61,0,.9-.02.97-.02.12,0,.13.01.13.13,0,.06-.02.38-.02,1.47v1.09c0,1.51.02,1.8.02,1.87,0,.1-.01.11-.13.11h-.78c-.11,0-.12-.01-.12-.11v-.38h-1.79v.45c0,.11,0,.12-.12.12h-.81c-.11,0-.12-.01-.12-.12,0-.06.02-.39.02-1.87v-1.43c-.16.12-.33.23-.51.33-.06.05-.13.08-.2.09-.08,0-.14-.06-.2-.24-.08-.21-.21-.4-.37-.56.92-.48,1.77-1.08,2.53-1.8h-.8c-.98,0-1.31.02-1.38.02-.12,0-.13-.01-.13-.12v-.72c0-.11.01-.11.13-.11.06,0,.4.01,1.38.01h.41v-1.06h-.26c-.76,0-1.01.02-1.07.02-.11,0-.12-.01-.12-.11v-.71c0-.11.01-.12.12-.12.06,0,.31.02,1.07.02h.26v-.04c.01-.45-.01-.9-.08-1.34.39.01.7.04,1.06.07.11.01.17.06.17.12,0,.08-.03.16-.06.23-.06.13-.05.29-.05.9v.06c.6,0,.85-.02.91-.02.11,0,.12.01.12.12v.69h0Zm-1.89,3.82v.75h1.79v-.75h-1.79Zm1.79,2.4v-.82h-1.79v.82h1.79Zm-.92-5.04h.22c.27-.33.52-.68.73-1.04h-.03c-.06,0-.31-.02-.91-.02v1.06Zm5.6-2.84c.09,0,.19,0,.28-.03.05-.02.11-.03.16-.03.09,0,.17.04.45.32.23.26.26.36.26.44,0,.08-.04.15-.11.19-.1.11-.18.25-.22.4-.31.83-.61,1.56-.98,2.33.83.57,1.32,1.51,1.31,2.52,0,1.12-.63,1.71-1.89,1.83-.18.04-.35-.08-.39-.26,0-.02,0-.04,0-.06-.02-.26-.12-.51-.29-.71,1.01.02,1.5-.25,1.5-.88,0-.68-.25-1.2-1.39-2.26.44-.91.81-1.85,1.11-2.82h-1.46v6.03c0,1.44.02,2.19.02,2.25,0,.11-.01.12-.12.12h-.86c-.12,0-.13-.01-.13-.12,0-.06.02-.77.02-2.24V2.92c0-1.47-.02-2.19-.02-2.27,0-.11.01-.12.13-.12.06,0,.36.02.95.02h1.67Z"/><path id="_パス_76" class="cls-1" d="m25.94,3.48c0,.81-.01,1.53-.06,2.2.68-.74,1.22-1.59,1.58-2.53.11-.25.19-.52.24-.8.31.09.61.2.9.34.11.05.16.1.16.18s-.03.11-.12.18-.14.15-.25.42-.24.56-.37.83v4.11c0,.86.02,1.28.02,1.33,0,.11-.01.12-.12.12h-.83c-.11,0-.12-.01-.12-.12,0-.06.02-.48.02-1.33v-.92c0-.45,0-1.03.01-1.57-.17.25-.36.49-.56.71-.06.07-.12.12-.16.12s-.09-.04-.13-.13c-.08-.22-.18-.42-.31-.61l-.1.81c-.13.95-.41,1.86-.83,2.72-.07.15-.12.23-.18.23s-.12-.05-.22-.17c-.2-.24-.44-.44-.7-.61.46-.79.75-1.66.86-2.57.13-1.04.18-2.09.16-3.14,0-1.39-.02-2.01-.02-2.07,0-.11.01-.12.12-.12.06,0,.42.02,1.44.02h2.14v-.2c0-.29-.02-.58-.07-.87.41,0,.78.03,1.14.06.11.01.18.05.18.11,0,.07-.03.14-.07.2-.06.15-.08.3-.07.46v.23h2.41c1.02,0,1.37-.02,1.44-.02.1,0,.11.01.11.12v.76c0,.12-.01.13-.11.13-.07,0-.42-.02-1.44-.02h-6.1v1.4Zm4.12,1.48c-.95,0-1.27.02-1.33.02-.11,0-.12-.01-.12-.13v-.75c0-.11.01-.12.12-.12.06,0,.39.02,1.33.02h1.34v-.21c.01-.46-.01-.93-.09-1.39.37,0,.74.04,1.11.09.1.01.16.06.16.12,0,.08-.03.16-.07.23-.06.31-.08.62-.05.94v.24c.77,0,1.06-.02,1.12-.02.11,0,.12.01.12.12v.75c0,.12-.01.13-.12.13-.05,0-.34-.01-1.12-.02v2.03c0,.65.03,1.18.03,1.66.05.33-.09.66-.36.85-.22.18-.65.26-1.68.26-.21.01-.39-.14-.41-.34-.05-.26-.14-.51-.28-.74.42.03.9.04,1.23.04.3,0,.41-.09.41-.34v-3.41h-1.34Zm-.02,2.56s-.08.06-.13.07c-.03,0-.05-.03-.09-.09-.25-.54-.58-1.03-.97-1.48-.09-.09-.07-.12.04-.19l.57-.37c.11-.06.13-.07.2.01.41.42.76.9,1.04,1.41.05.1.04.14-.07.22l-.6.42Z"/><path id="_パス_77" class="cls-1" d="m40.55,1.75c-.18.27-.38.53-.6.77-.11.12-.17.18-.23.18s-.12-.06-.25-.19c-.16-.15-.34-.27-.54-.36.13-.13.25-.26.36-.39-.06,0-.34-.02-1.18-.02.11.18.2.37.29.55.04.1.03.12-.1.15l-.72.16c-.15.03-.17.03-.22-.1-.08-.26-.19-.52-.31-.76h-.77c-.23.33-.5.64-.8.91-.12.12-.18.17-.24.17s-.12-.06-.24-.19c-.16-.16-.33-.31-.53-.43.57-.47,1.04-1.06,1.37-1.72.09-.16.15-.32.19-.49.3.03.7.1.95.15.11.02.16.06.16.14,0,.06-.04.11-.09.15-.08.08-.14.17-.18.27l-.1.18h1.25c.9,0,1.19-.02,1.26-.02.12,0,.13.01.13.12v.63c.27-.34.49-.71.66-1.11.08-.16.13-.33.17-.51.3.03.6.08.9.15.12.03.17.05.17.14s-.03.1-.09.15c-.07.07-.13.16-.16.26l-.07.18h1.58c1.09,0,1.47-.02,1.54-.02.1,0,.11.01.11.12v.67c0,.11-.01.12-.11.12-.06,0-.45-.02-1.54-.02h-.17c.11.17.2.36.3.55.04.1.03.13-.11.16l-.7.16c-.15.03-.17.03-.22-.09-.09-.27-.2-.53-.33-.78h-.81,0Zm-3.52,1.97c-1.04,0-1.4.02-1.46.02-.11,0-.12-.01-.12-.12v-.69c0-.11.01-.12.12-.12.06,0,.42.02,1.46.02h4.4c1.11,0,1.66-.02,1.71-.02.12,0,.13.01.13.12,0,.06-.02.29-.02.81v.7c0,.53.02.75.02.82,0,.11-.01.12-.13.12-.05,0-.6-.02-1.71-.02h-1.49v.74h2.37c1.06,0,1.44-.02,1.51-.02.11,0,.14.02.13.13-.04.31-.06.62-.1.95-.01.52-.13,1.03-.36,1.51-.28.41-.77.63-1.27.56-.18,0-.37,0-.62-.02-.3-.02-.32-.04-.39-.38-.05-.25-.13-.5-.25-.73.35.07.71.1,1.06.11.28,0,.45-.02.55-.2.11-.33.17-.67.17-1.02h-2.78l.02.99c.01,1.04.06,1.61.06,1.8,0,.12-.01.13-.13.13h-.91c-.11,0-.12-.01-.12-.13,0-.2.02-.73.01-1.79v-.44c-.96.97-2.14,1.68-3.44,2.06-.08.03-.17.05-.26.06-.09,0-.13-.06-.23-.26-.12-.24-.28-.47-.46-.67,1.35-.28,2.62-.89,3.69-1.76h-1.86l-.11.3c-.03.09-.22.11-.58.07-.52-.05-.6-.05-.54-.18.25-.63.46-1.28.61-1.94.06-.22.1-.43.13-.66.01-.12.02-.14.13-.14.06,0,.43.02,1.46.02h1.41v-.74h-1.83,0Zm1.85,2.38v-.74h-2.05l-.2.74h2.26Zm1.03-2.38v.74h2.25v-.74h-2.25Z"/><path id="_パス_78" class="cls-1" d="m47.17,5.35c.12-.34.21-.69.26-1.04.39.09.78.22,1.15.38.11.05.16.1.16.18,0,.07-.04.13-.09.17-.1.14-.18.3-.23.46-.47,1.45-1.3,2.76-2.41,3.81-.12.12-.17.18-.24.18s-.12-.06-.24-.2c-.21-.22-.46-.42-.72-.58,1.09-.87,1.9-2.03,2.34-3.35h0Zm-.56-2.03c-.99,0-1.32.02-1.39.02-.11,0-.12,0-.12-.11v-.94c0-.1.01-.11.12-.11.06,0,.4.02,1.39.02h2.48v-.83c.01-.38-.01-.76-.07-1.13.4.01.8.04,1.19.1.11.01.18.06.18.15,0,.08-.03.16-.06.23-.06.24-.08.48-.06.72v.77h2.66c.98,0,1.31-.02,1.38-.02.11,0,.12.01.12.11v.94c0,.11-.01.11-.12.11-.06,0-.4-.02-1.38-.02h-6.31Zm5.04,1.07c.16-.04.18-.02.22.07.51,1.64,1.49,3.1,2.82,4.18-.32.17-.61.4-.85.67-.11.14-.16.2-.23.2s-.11-.05-.22-.17c-1.23-1.29-2.13-2.86-2.61-4.57-.03-.12-.02-.14.14-.18l.73-.2Z"/><path id="_パス_79" class="cls-1" d="m57.99,7.62c.18.44.55.77,1,.9.65.16,1.32.22,1.99.19,1.39,0,2.99-.05,4.6-.22-.15.21-.24.46-.27.72-.01.21-.19.37-.4.37-1.37.07-2.65.11-3.76.11-.86.05-1.71-.05-2.54-.29-.47-.2-.86-.53-1.13-.97-.31.33-.65.63-1,.91-.08.07-.16.14-.23.23-.05.07-.1.11-.15.11s-.12-.05-.16-.14c-.17-.32-.31-.65-.44-.99.22-.1.43-.22.63-.36.29-.2.56-.42.81-.67v-2.4h-.44c-.56,0-.7.02-.75.02-.12,0-.13-.01-.13-.13v-.82c0-.11.01-.12.13-.12.05,0,.19.02.75.02h.6c.56,0,.73-.02.78-.02.11,0,.12.01.12.12,0,.06-.02.38-.02,1.04v2.37h0Zm-.54-4.9s-.09.07-.14.07c-.03,0-.06-.02-.1-.07-.37-.61-.81-1.18-1.32-1.68-.09-.07-.06-.1.05-.18l.55-.4c.13-.09.15-.1.24-.02.52.48.97,1.01,1.35,1.6.05.09.05.12-.06.22l-.57.46Zm1.9-1.55c-.66,0-.87.02-.94.02-.11,0-.12-.01-.12-.12v-.57c0-.11.01-.12.12-.12.06,0,.28.02.94.02h1.1c.52,0,.7-.02.76-.02.12,0,.13.01.13.12,0,.06-.02.25-.02.69v.45c0,.43.02.62.02.69,0,.1-.01.11-.13.11-.06,0-.25-.02-.76-.02h-1.09v.27c0,.25.02.32.06.37.07.06.19.07.55.07.39,0,.52-.02.6-.1s.06-.23.07-.48c.23.11.47.2.71.26.2.05.22.06.17.34-.01.18-.09.35-.23.48-.19.17-.55.2-1.37.2s-1.13-.03-1.3-.17c-.2-.16-.26-.37-.26-.82v-.58c0-.23-.02-.36-.02-.43,0-.11.01-.12.13-.12.06,0,.26.02.7.02h1.16v-.57h-1Zm.65,5.73c-1.05,0-1.42.02-1.48.02-.11,0-.12-.01-.12-.13v-.58c0-.11.01-.12.12-.12.06,0,.43.02,1.48.02h.14v-.68c-.88,0-1.2.02-1.26.02-.12,0-.13-.01-.13-.13v-.58c0-.11.01-.12.13-.12.05,0,.38.02,1.26.02,0-.23-.03-.46-.06-.69.39.02.61.03.98.07.1.01.17.05.17.11s-.02.09-.06.16c-.05.11-.07.23-.05.34h1.37c0-.23-.02-.46-.06-.69.39.02.62.03.98.07.11.01.17.05.17.12s-.02.09-.06.16c-.05.1-.07.21-.05.32v.02c.85-.01,1.16-.03,1.23-.03.12,0,.13.01.13.12v.58c0,.12-.01.13-.13.13-.06,0-.38-.01-1.23-.02v.68h.19c1.05,0,1.42-.02,1.48-.02.11,0,.12.01.12.12v.58c0,.12-.01.13-.12.13-.06,0-.43-.02-1.48-.02h-.56c.67.39,1.4.65,2.16.78-.15.17-.28.36-.39.56-.1.19-.16.27-.27.27-.08-.01-.17-.03-.25-.06-.72-.23-1.4-.57-2.02-1-.09-.06-.06-.09.03-.18l.37-.37h-2.09c.19.12.38.24.55.37.11.07.15.11.15.16s-.05.1-.14.12-.22.14-.34.2c-.42.26-.86.48-1.32.65-.08.04-.17.06-.26.07-.1,0-.16-.07-.3-.24-.14-.17-.31-.32-.5-.45.54-.14,1.06-.34,1.56-.6.15-.08.29-.18.42-.29h-.44,0Zm2.47-.78v-.68h-1.37v.68h1.37Zm.42-4.95c-.67,0-.86.02-.92.02-.12,0-.13-.01-.13-.12v-.57c0-.11.01-.12.13-.12.06,0,.26.02.92.02h1.14c.5,0,.7-.02.76-.02.11,0,.12.01.12.12,0,.06-.02.25-.02.69v.45c0,.43.02.62.02.69,0,.1-.01.11-.12.11-.06,0-.26-.02-.76-.02h-1.09v.28c0,.25.01.3.06.36s.18.07.58.07c.33,0,.52-.02.58-.09s.1-.23.11-.49c.23.12.47.2.72.25.25.04.25.07.2.37-.01.18-.09.34-.23.46-.2.18-.61.22-1.47.22s-1.18-.03-1.35-.17c-.18-.16-.24-.37-.24-.82v-.58c0-.23-.02-.36-.02-.43,0-.11.01-.12.12-.12.07,0,.26.02.72.02h1.16v-.57h-1Z"/><path id="_パス_80" class="cls-1" d="m67.8,7.8c-.98,0-1.31.02-1.38.02-.12,0-.13-.01-.13-.12v-.73c0-.11.01-.12.13-.12.06,0,.4.02,1.38.02h2.61v-.66h-1.14c-1.04,0-1.41.02-1.47.02-.11,0-.12-.01-.12-.12v-.67c0-.11.01-.12.12-.12.06,0,.43.02,1.47.02h1.14v-.67c-.42.04-.83.09-1.26.11-.19.01-.22-.01-.27-.16-.04-.12-.09-.27-.15-.41-.55.55-1.19,1-1.88,1.35-.08.05-.17.09-.27.11-.07,0-.11-.06-.17-.18-.13-.24-.29-.46-.48-.65,1.02-.4,1.92-1.05,2.6-1.9h-.78c-.98,0-1.31.02-1.38.02-.11,0-.12-.01-.12-.12v-.73c0-.11.01-.12.12-.12.06,0,.4.02,1.38.02h6.37c.98,0,1.31-.02,1.38-.02.11,0,.12.01.12.12v.73c0,.11-.01.12-.12.12-.06,0-.4-.02-1.38-.02h-.86c.76.83,1.72,1.45,2.78,1.81-.18.2-.32.42-.43.67-.09.18-.12.26-.19.26-.09-.02-.17-.06-.25-.11-1.24-.59-2.31-1.49-3.1-2.62h-2.3c-.22.35-.48.68-.76.99.83-.02,1.67-.11,2.48-.28.21-.05.4-.12.6-.2.19.16.4.37.63.6.06.05.09.11.11.18,0,.06-.05.11-.16.11-.13,0-.25.01-.38.04-.23.04-.48.1-.76.14v.81h1.06c1.03,0,1.39-.02,1.45-.02.11,0,.12.01.12.12v.67c0,.11-.01.12-.12.12-.06,0-.42-.02-1.45-.02h-1.06v.66h2.54c.99,0,1.32-.02,1.39-.02.11,0,.12.01.12.12v.73c0,.11-.01.12-.12.12-.06,0-.4-.02-1.39-.02h-2.54c0,.44.02.81.02,1.07.05.3-.08.6-.32.77-.52.22-1.09.3-1.66.23-.32.01-.34.01-.42-.32-.06-.25-.15-.49-.28-.72.39.04.79.06,1.18.05.26,0,.37-.11.37-.34v-.74h-2.62Zm.45-7.52c.13-.05.16-.03.23.05.26.36.49.73.69,1.13.05.11.05.12-.1.17l-.72.24c-.14.05-.17.04-.22-.07-.17-.39-.37-.77-.61-1.12-.06-.1-.05-.12.07-.16l.66-.24h0Zm2.5-.24c.13-.04.16-.02.22.07.22.4.4.82.55,1.25.02.1.01.13-.12.17l-.73.2c-.16.03-.18.02-.22-.1-.12-.43-.3-.85-.52-1.25-.05-.11-.02-.12.11-.16l.71-.2Zm2.33.66c.09-.18.15-.37.2-.57.35.07.7.16,1.04.27.09.03.14.09.14.15s-.06.13-.14.19c-.09.08-.17.17-.23.28-.16.28-.29.49-.46.75-.14.2-.18.2-.39.14-.26-.08-.53-.13-.8-.16.24-.33.45-.68.63-1.05h0Z"/><path id="_パス_81" class="cls-1" d="m78.21,8.28h6.26c1.04,0,1.41-.02,1.47-.02.11,0,.12.01.12.12v.86c0,.11-.01.12-.12.12-.06,0-.43-.02-1.47-.02h-6.26v.46c0,.11-.01.12-.13.12h-.91c-.11,0-.12-.01-.12-.12,0-.06.02-.8.02-2.26V2.89c0-1.47-.02-2.19-.02-2.26,0-.12.01-.13.12-.13.06,0,.43.02,1.44.02h5.78c1,0,1.34-.02,1.41-.02.12,0,.13.01.13.13v.85c0,.11-.01.12-.13.12-.06,0-.41-.02-1.41-.02h-6.18v6.7Zm1.65-5.58c.1-.1.11-.11.2-.04.71.45,1.42.95,2.14,1.51.31-.42.57-.87.81-1.33.14-.27.24-.57.3-.87.36.1.7.24,1.03.41.11.05.16.1.16.18s-.05.13-.13.19c-.12.15-.22.32-.3.49-.29.57-.63,1.11-1.01,1.62.65.53,1.28,1.09,1.92,1.68.05.04.07.07.07.11s-.02.07-.09.14l-.6.65s-.07.07-.12.07c-.04,0-.07-.02-.1-.05-.6-.62-1.22-1.19-1.83-1.73-.77.81-1.67,1.48-2.66,2.01-.08.05-.17.09-.26.11-.07,0-.13-.07-.24-.24-.15-.23-.35-.43-.58-.58,1.08-.5,2.06-1.18,2.89-2.02-.7-.56-1.41-1.09-2.14-1.59-.05-.03-.07-.06-.07-.09s.03-.07.09-.13l.48-.49h0Z"/><path id="_パス_82" class="cls-1" d="m88.65,2.7c-.97,0-1.3.02-1.37.02-.11,0-.12-.01-.12-.12v-.85c0-.12.01-.13.12-.13.06,0,.4.02,1.37.02h2.58v-.17c.01-.46-.02-.92-.09-1.38.39.01.85.03,1.23.07.1.01.17.06.17.12,0,.08-.03.16-.07.23-.06.28-.08.57-.06.85v.28h2.74c.97,0,1.3-.02,1.37-.02.11,0,.12.01.12.13v.85c0,.11-.01.12-.12.12-.06,0-.4-.02-1.37-.02h-2.74v1.33h1.57c.11,0,.21,0,.31-.04.04-.02.09-.04.14-.04.07,0,.16.06.43.33.25.24.33.37.33.46s-.05.12-.15.19c-.11.08-.2.18-.26.29-.53.86-1.2,1.63-1.97,2.29,1.25.64,2.6,1.05,4,1.22-.19.27-.35.56-.46.86-.07.22-.11.28-.23.28-.08,0-.16-.01-.24-.03-1.44-.28-2.82-.82-4.07-1.59-1.21.73-2.52,1.26-3.89,1.58-.08.03-.16.04-.24.04-.11,0-.14-.07-.22-.28-.11-.27-.26-.53-.44-.76,1.35-.23,2.66-.67,3.88-1.29-.74-.7-1.33-1.55-1.74-2.49-.73.01-1.01.02-1.06.02-.11,0-.12-.01-.12-.12v-.83c0-.11.01-.12.12-.12.06,0,.42.02,1.46.02h1.67v-1.32h-2.58Zm1.75,2.35c.37.7.88,1.32,1.48,1.83.64-.51,1.18-1.13,1.59-1.83h-3.07Z"/><path id="_パス_83" class="cls-1" d="m98.96,4.99c-.98,0-1.31.02-1.38.02-.1,0-.11-.01-.11-.12v-.77c0-.11.01-.12.11-.12.06,0,.4.02,1.38.02h1.56c.16-.4.29-.81.4-1.23.04-.18.07-.36.09-.54.32.06.63.13.94.22.1.03.16.06.16.14,0,.07-.03.13-.09.17-.06.07-.11.16-.14.25-.1.34-.23.67-.37.99.83,0,1.15-.02,1.22-.02.11,0,.12.01.12.12v.77c0,.11-.01.12-.12.12-.06,0-.4-.02-1.37-.02h-2.4Zm.19-2.89c-.95,0-1.26.02-1.32.02-.11,0-.12-.01-.12-.12v-.75c0-.12.01-.13.12-.13.06,0,.38.02,1.32.02h.48v-.19c.01-.3-.01-.6-.06-.89.39.01.72.04,1.09.07.11.01.17.05.17.1,0,.08-.03.15-.07.22-.04.17-.06.34-.04.52v.18h.55c.94,0,1.25-.02,1.31-.02.11,0,.12.01.12.13v.75c0,.11-.01.12-.12.12-.06,0-.38-.02-1.31-.02h-2.11Zm-.91,7.69c-.11,0-.12-.01-.12-.11,0-.07.02-.34.02-1.82v-.77c0-.83-.02-1.13-.02-1.2,0-.11.01-.12.12-.12.07,0,.36.02,1.19.02h1.55c.83,0,1.13-.02,1.19-.02.12,0,.13.01.13.12,0,.06-.02.37-.02,1.05v.89c0,1.47.02,1.74.02,1.81,0,.12-.01.13-.13.13h-.83c-.11,0-.12-.01-.12-.13v-.5h-2.04v.54c0,.1-.01.11-.12.11h-.83.02Zm.69-5.91c-.16.04-.17.02-.19-.11-.06-.4-.16-.8-.3-1.18-.04-.12-.02-.12.12-.16l.6-.16c.13-.03.16-.02.2.09.15.38.26.78.34,1.18.02.12,0,.12-.13.16l-.64.18Zm.26,4.32h2.04v-1.47h-2.04v1.47Zm6.83-7.65c.09,0,.18,0,.27-.03.05-.02.11-.03.16-.03.09,0,.17.04.45.32.23.26.26.36.26.44,0,.08-.04.15-.1.19-.07.05-.13.15-.23.4-.31.83-.61,1.56-.98,2.33.83.57,1.32,1.51,1.31,2.52,0,1.12-.63,1.71-1.89,1.83-.18.03-.35-.08-.38-.26,0-.02,0-.04,0-.06-.03-.26-.14-.51-.3-.71,1.01.02,1.49-.25,1.49-.88,0-.68-.25-1.2-1.39-2.26.44-.91.81-1.85,1.11-2.82h-1.51v6.04c0,1.44.02,2.19.02,2.25,0,.11-.01.12-.12.12h-.86c-.12,0-.13-.01-.13-.12,0-.06.02-.77.02-2.24V2.91c0-1.47-.02-2.19-.02-2.27,0-.11.01-.12.13-.12.06,0,.36.02.95.02h1.73Z"/><path id="_パス_84" class="cls-1" d="m109.53,5.93c-.95,0-1.29.02-1.35.02-.1,0-.11-.01-.11-.12v-.79c0-.11.01-.12.11-.12.06,0,.4.02,1.35.02h.32V1.83c0-.78-.02-1.15-.02-1.22,0-.11.01-.12.12-.12.06,0,.44.02,1.48.02h3.59c1.04,0,1.4-.02,1.46-.02.12,0,.13.01.13.12v.78c0,.1-.01.11-.13.11-.06,0-.42-.02-1.46-.02h-4.03v.61h3.58c1,0,1.33-.02,1.4-.02.11,0,.12.01.12.13v.62c0,.11-.01.12-.12.12-.06,0-.4-.02-1.4-.02h-3.58v.6h3.58c1,0,1.32-.02,1.39-.02.12,0,.13.01.13.13v.61c0,.11-.01.12-.13.12-.06,0-.39-.02-1.39-.02h-3.58v.62h5.16c.95,0,1.28-.02,1.34-.02.12,0,.13.01.13.12v.8c0,.11-.01.12-.13.12-.06,0-.39-.02-1.34-.02h-3.03c.28.52.67.98,1.13,1.35.39-.26.75-.56,1.1-.88.14-.13.26-.27.34-.44.34.22.6.37.86.57.07.05.11.1.11.16s-.05.1-.13.11c-.14.05-.27.13-.38.23-.35.28-.72.54-1.1.78.88.46,1.83.78,2.82.92-.19.22-.35.47-.46.74-.07.2-.28.31-.48.26-2.14-.42-3.96-1.83-4.88-3.81h-1.05v2.3c.65-.15,1.3-.31,2.01-.52-.03.22-.05.45-.04.68.01.21-.13.4-.33.44-1.18.36-2.37.66-3.43.88-.13.02-.26.07-.38.14-.04.04-.1.06-.16.06-.04,0-.09-.04-.13-.14-.11-.3-.23-.74-.3-1.04.39-.03.77-.09,1.15-.16l.48-.1v-2.55h-.33Z"/><g id="_グループ_1"><path id="_パス_92" class="cls-1" d="m210.19,43.4c-.24.15-.26.18-.15.33.68.9,1.28,1.79,1.86,2.7-1.81.2-3.76.38-5.63.53.88-1.9,1.68-3.93,2.34-5.68.1-.32.26-.62.48-.88.09-.08.15-.2.15-.33,0-.15-.15-.24-.35-.31-.62-.18-1.24-.31-1.95-.48-.11.65-.27,1.29-.49,1.92-.67,2.02-1.46,3.99-2.36,5.92-.16,0-.35.02-.51.02-.73.04-1.39.06-2.08.04.1.66.25,1.3.44,1.94.06.18.15.29.27.29.11,0,.22-.05.31-.12.21-.12.45-.19.69-.2,3.22-.27,6.54-.64,9.61-1.1.29.55.59,1.1.86,1.66.06.11.09.15.16.15.08-.01.15-.04.22-.09l1.37-.79c.26-.15.26-.18.16-.35-1.12-2.06-2.42-4.02-3.89-5.85-.07-.07-.11-.11-.15-.11-.08.02-.15.05-.22.09l-1.15.69Zm-.42-9.06c-.22.11-.26.13-.18.33,1.32,2.98,3.36,5.57,5.96,7.55.18.15.29.24.38.24.11,0,.2-.13.35-.4.26-.51.61-.98,1.02-1.37-2.64-1.58-4.71-3.94-5.94-6.76-.09-.18-.13-.2-.36-.09l-1.22.51Zm-9.76,6.63c.42.32.76.73,1.02,1.19.16.27.24.4.35.4.09,0,.22-.09.42-.26,2.3-1.78,4.14-4.09,5.37-6.72.09-.22.23-.42.42-.57.1-.05.17-.16.16-.27,0-.13-.07-.22-.27-.31-.58-.26-1.19-.48-1.81-.64-.08.41-.21.81-.38,1.19-1.13,2.47-2.97,4.55-5.28,6Zm28.23-2.41c.11,2.46.53,4.9,1.26,7.25.91,2.7,2.19,4,3.58,4.02,1.08.02,1.85-.97,2.21-3.31q.07-.57-.46-.86c-.43-.22-.83-.5-1.19-.82-.11,1.66-.33,2.67-.82,2.67-.55,0-1.12-1.06-1.64-2.7-.63-2.03-.98-4.13-1.04-6.25h2.17c1.66,0,2.23.04,2.34.04.18,0,.2-.02.2-.22v-1.44c0-.2-.02-.22-.2-.22-.11,0-.68.04-2.34.04h-2.24v-.8c-.06-.62-.03-1.24.09-1.84.06-.12.1-.25.11-.38,0-.11-.11-.2-.29-.22-.62-.07-1.33-.09-1.99-.11.11.87.16,1.74.15,2.61,0,.26.02.51.02.75h-6.56c-1.66,0-2.23-.04-2.34-.04-.18,0-.18.02-.18.22v1.44c0,.2,0,.22.18.22.11,0,.68-.04,2.34-.04h6.65Zm-2.98,4.06c1.53,0,2.05.04,2.16.04.2,0,.22-.02.22-.18v-1.37c0-.2-.02-.22-.22-.22-.11,0-.62.04-2.16.04h-3.23c-1.55,0-2.07-.04-2.17-.04-.18,0-.2.02-.2.22v1.37c0,.16.02.18.2.18.11,0,.62-.04,2.17-.04h.62v4.02l-1.75.33c-.58.12-1.16.2-1.75.22.15.64.33,1.41.48,1.85.06.16.15.24.26.24.12-.01.23-.06.33-.13.24-.13.5-.23.77-.27,1.97-.42,4.71-1.17,6.54-1.77q.55-.16.55-.77c0-.36.02-.82.06-1.15-1.1.38-2.36.73-3.56,1.02v-3.58h.71Zm5.88-8.39c-.18.13-.22.18-.07.33.55.51,1.03,1.09,1.43,1.74.06.09.11.15.16.15.09-.02.17-.05.24-.11l.86-.58c.22-.15.24-.22.13-.36-.45-.63-.97-1.19-1.57-1.68-.07-.07-.13-.11-.18-.11s-.11.04-.22.11l-.77.53Zm18.14,4.02v-1.74c-.04-.54.01-1.08.15-1.61.04-.1.07-.22.07-.33,0-.15-.07-.24-.33-.29-.71-.15-1.42-.25-2.14-.31.14.83.2,1.66.16,2.5l-.02,1.79h-3.93v-1.33c-.07-.59-.03-1.18.13-1.75.06-.12.09-.25.11-.38,0-.13-.07-.22-.27-.26-.74-.14-1.48-.24-2.23-.29.17.89.24,1.79.22,2.69v1.33h-.55c-1.41,0-2.59-.04-3.36-.09.01.59.05,1.18.13,1.77.02.24.07.35.22.35.57-.04,2.03-.09,3.01-.09h.55v.69c0,1.15-.04,2.05-.09,3-.02.2.09.24.33.26.52.04,1.05.04,1.57,0,.2-.02.33-.06.31-.26-.06-.97-.06-1.95-.06-3.03v-.66h3.89c.08,1.62-.3,3.23-1.08,4.66-.93,1.5-2.34,2.43-4.93,3.23.58.25,1.1.62,1.52,1.1.15.15.24.2.35.2.18-.02.35-.08.51-.16,1.77-.63,3.28-1.83,4.31-3.4.97-1.71,1.46-3.66,1.41-5.63h.75c.9,0,2.01.02,2.63.02.26.02.29-.06.31-.29.04-.48.04-.96,0-1.44-.02-.2-.04-.31-.26-.29-.84.04-1.86.06-2.76.06h-.64Zm15.49.86c.75-.73,1.47-1.5,2.14-2.3.32-.38.69-.71,1.1-1,.14-.08.24-.23.26-.4,0-.11-.05-.21-.15-.27-.64-.48-1.32-.9-2.03-1.28-.25.7-.64,1.34-1.15,1.88-1.18,1.39-2.48,2.67-3.89,3.82-1.77,1.47-3.7,2.72-5.76,3.73.57.29,1.1.65,1.57,1.08.1.11.24.18.38.18.1,0,.19-.02.27-.07,1.78-1,3.47-2.18,5.02-3.51v4.26c0,1.24-.06,2.43-.07,3.75-.02.22.06.29.26.29.61.04,1.22.04,1.83,0,.2,0,.29-.07.27-.31-.04-1.46-.06-2.54-.06-3.8v-6.05Zm13.69-2.54c-.06-.58-.02-1.16.13-1.72.08-.13.13-.27.15-.42,0-.15-.09-.26-.35-.31-.75-.16-1.52-.26-2.28-.29.15.89.21,1.8.18,2.7v8.99c0,1.17-.02,2.25-.07,3.6,0,.22.09.27.35.27.54.04,1.08.04,1.63,0,.26,0,.35-.06.33-.27-.04-1.32-.07-2.39-.07-3.58v-4.04c1.7.56,3.31,1.35,4.81,2.34.05.06.12.09.2.09.09,0,.16-.07.24-.2.31-.51.57-1.04.79-1.59.09-.24,0-.36-.2-.48-1.83-1.06-3.78-1.9-5.81-2.48v-2.61Z"/></g></g></svg>