<svg xmlns="http://www.w3.org/2000/svg" width="317.662" height="69.477" viewBox="0 0 317.662 69.477">
  <g id="グループ_3" data-name="グループ 3" transform="translate(-37.371 253.396)">
    <path id="パス_59" data-name="パス 59" d="M18.194,198.006c-6.6,1.657-10.8,3.188-14.564,4.463a5.233,5.233,0,0,1-1.284.467,1.27,1.27,0,0,1-.885-.85A31.769,31.769,0,0,1,0,198.6c.974-.255,1.372-.382,2.3-.68a21.947,21.947,0,0,0,4.25-2.507A143.77,143.77,0,0,0,19.167,184.28c-2.7.722-5.09,1.147-7.879,1.657-.665.127-1.018.17-1.682.34a4.787,4.787,0,0,1-1.239.425c-.4,0-.752-.382-1.062-.935a23.96,23.96,0,0,1-1.594-4.208,30.265,30.265,0,0,0,4.383.085c2.966-.212,6.2-.722,10.093-1.275a5.973,5.973,0,0,0,2.346-.722,1.457,1.457,0,0,1,.841-.3c.4,0,.665.213,1.2.637a14.434,14.434,0,0,1,2.169,2.125,1.886,1.886,0,0,1,.532,1.19c0,.425-.266.722-.8.977a10.559,10.559,0,0,0-1.815,1.275c-4.6,3.91-8.366,7.054-13.414,10.71l.089.127a178.93,178.93,0,0,1,21.337-4.675c.576-.085.752.213.841.68A17.746,17.746,0,0,1,34,195.84c.044.425-.222.552-.709.6a32.163,32.163,0,0,0-8.234,1.36c-5.135,1.7-7.57,4.717-7.57,7.777,0,4.08,4.648,5.312,11.067,5.312.443,0,.709.212.665.765-.089,1.062-.443,2.8-.576,3.57-.089.68-.354.935-.974.935a26.387,26.387,0,0,1-2.922-.255c-8.322-.807-11.953-4.463-11.953-9.6a9.874,9.874,0,0,1,5.4-8.2v-.085Z" transform="translate(37.371 -400.074)" fill="#fff"/>
    <path id="パス_60" data-name="パス 60" d="M329.215,219.039c-1.018,7.224-2.877,13.854-5.533,18.316-1.9,3.188-4.205,4.887-7.526,4.887-3.9,0-7.836-3.995-7.836-10.922a15.373,15.373,0,0,1,5-11.05c3.718-3.57,8.411-5.44,14.387-5.44,10.625,0,16.866,6.29,16.866,14.746,0,7.9-4.648,12.877-13.634,15.47-.929.255-1.328.085-1.9-.765a9.257,9.257,0,0,0-3.1-2.677c7.482-1.7,13.369-4.675,13.369-12.707a9.84,9.84,0,0,0-9.916-9.86h-.177Zm-12.7,4.123a11.988,11.988,0,0,0-3.453,7.862c0,3.91,1.638,6.077,3.01,6.077,1.151,0,2.125-.552,3.32-2.592a47.135,47.135,0,0,0,4.693-15.215A13.513,13.513,0,0,0,316.51,223.162Z" transform="translate(-234.03 -431.305)" fill="#fff"/>
    <path id="パス_61" data-name="パス 61" d="M657.4,184.533a13.954,13.954,0,0,0-2.213-3.443,36.135,36.135,0,0,1,5.267-.68c1.2,0,1.505.3,1.505.892a5.36,5.36,0,0,0,.044,1.19,17.79,17.79,0,0,0,.709,2.125c.532,1.275.929,2.294,1.505,3.443a70.439,70.439,0,0,0,9.253-2.634c.443-.212.576-.17.841.3A17.926,17.926,0,0,1,675.418,189c.133.425-.044.637-.354.722a72.753,72.753,0,0,1-8.81,2.464,48.5,48.5,0,0,0,6.773,8.966,12.306,12.306,0,0,0,1.151.935c.266.212.443.34.443.552a1.308,1.308,0,0,1-.266.722,16.876,16.876,0,0,1-1.727,2.762c-.354.467-.576.637-.885.637-.222,0-.354-.085-.709-.34a14.743,14.743,0,0,0-1.815-1.105,20.928,20.928,0,0,0-9.385-2.167c-4.6,0-7.393,1.317-7.393,3.995,0,3.188,4.028,4.5,10.978,4.5a45.617,45.617,0,0,0,7.083-.6,25.117,25.117,0,0,1-.929,4.547c-.133.425-.31.51-.841.6a41.283,41.283,0,0,1-4.914.3c-10.448,0-16.069-3.188-16.069-8.8,0-4.845,4.338-8.244,11.643-8.244a23.452,23.452,0,0,1,7.879,1.147,27.431,27.431,0,0,1-5.711-7.522c-2.789.467-5.356.807-8.544,1.062-1.195.085-3.232.212-4.338.212-.4,0-.576-.255-.709-.765a31.92,31.92,0,0,1-1.018-3.825c2.257.085,4.072.042,5.533-.043a63.286,63.286,0,0,0,6.994-.807c-.753-1.53-1.372-2.762-2.081-4.378Z" transform="translate(-532.112 -401.007)" fill="#fff"/>
    <path id="パス_62" data-name="パス 62" d="M931.638,185.386a10.62,10.62,0,0,0-1.549-2.719,32.625,32.625,0,0,1,5.356-.467c.62,0,.974.34.974.765,0,.255-.089.552-.089.807a7.271,7.271,0,0,0,.177,1.275c.31,1.105.443,1.487.709,2.21a71.347,71.347,0,0,0,9.031-2.252c.4-.17.62-.127.753.212.266.807.576,2,.752,2.847a.652.652,0,0,1-.532.765c-2.966.892-5.666,1.53-8.677,2.167.4,1.062.974,2.38,1.55,3.57a53.57,53.57,0,0,0,8.056-2.21c.443-.213.665-.127.8.255a15.514,15.514,0,0,1,.8,2.8c.089.382.089.6-.354.765a56.312,56.312,0,0,1-7.482,2.082,31.865,31.865,0,0,0,5.8,7.352c.443.382.443.552.222,1.02a12.289,12.289,0,0,1-1.815,2.634c-.266.3-.443.425-.709.425a1.206,1.206,0,0,1-.62-.255,11.333,11.333,0,0,0-2.611-1.36,22.347,22.347,0,0,0-8.322-1.36c-4.161,0-6.6,1.232-6.6,3.229,0,2.763,3.762,3.655,10.536,3.655,1.638,0,3.276-.17,4.87-.255.443,0,.576.212.532.552a26.835,26.835,0,0,1-.885,3.868c-.133.425-.31.6-.929.637q-1.527.128-3.187.127c-10.182,0-15.582-2.762-15.582-7.989,0-4.547,4.072-7.394,10.978-7.394a21.294,21.294,0,0,1,7.615,1.062,49.484,49.484,0,0,1-3.674-5.015,108.766,108.766,0,0,1-12.129,1.275.7.7,0,0,1-.8-.6,20.6,20.6,0,0,1-.8-3.484,80.4,80.4,0,0,0,11.909-1.062c-.443-.892-1.107-2.337-1.683-3.528a79.841,79.841,0,0,1-10.756,1.02c-.532,0-.8-.17-.885-.6-.133-.467-.443-2.04-.709-3.4a81.232,81.232,0,0,0,11.022-.68c-.354-.977-.62-1.7-1.062-2.762Z" transform="translate(-773.945 -402.583)" fill="#fff"/>
    <path id="パス_63" data-name="パス 63" d="M1202.27,295.377c-2.746,0-3.621.08-3.86.08-.438,0-.478-.04-.478-.438v-2.905c0-.4.04-.438.478-.438.239,0,1.114.08,3.86.08h5.253c2.189,0,3.1-.08,3.343-.08.438,0,.478.04.478.438,0,.239-.079,1.313-.079,3.621v4.139c0,2.308.079,3.343.079,3.582,0,.4-.04.438-.478.438-.239,0-1.154-.08-3.343-.08h-4.656c-.2,1.592-.4,3.1-.677,4.616h5.054c2.189,0,2.825-.08,3.064-.08.4,0,.478.08.478.517-.079.955-.079,1.91-.159,2.825-.4,6.049-1.273,9.909-1.91,11.421-.836,1.95-2.268,2.9-5.134,2.9-.756,0-1.393,0-2.069-.04-.8-.04-.875-.119-1.114-1.353a13.116,13.116,0,0,0-.875-2.825,30.529,30.529,0,0,0,3.581.239c1.035,0,1.512-.239,1.87-.875.6-1.074,1.194-3.263,1.632-9.272h-5.094l-.4,1.831q-.08.517-2.069.279-1.95-.279-1.87-.8a81.827,81.827,0,0,0,1.791-9.909,12.271,12.271,0,0,0,.159-2.467c0-.438.159-.557.557-.557.239,0,1.313.08,3.144.08h4.417v-4.974h-4.974Zm23.479,13.013c.477-.2.557-.2.756.2a92.466,92.466,0,0,1,6.049,14.883c.08.478.04.517-.478.756l-2.945,1.234c-.478.2-.557.2-.677-.239l-.955-3.343c-4.935.955-9.909,1.831-14.167,2.308a3.67,3.67,0,0,0-1.313.4,1.689,1.689,0,0,1-.756.239c-.239,0-.438-.159-.557-.557a34.506,34.506,0,0,1-.955-4.059c1.035,0,1.95-.04,2.945-.119a174.265,174.265,0,0,0,5.492-24.116A28.446,28.446,0,0,0,1218.7,291a34.826,34.826,0,0,1,4.338.875c.438.119.756.318.756.637a1.482,1.482,0,0,1-.279.8,4.859,4.859,0,0,0-.716,2.069,240.639,240.639,0,0,1-5.73,24.314c2.905-.358,6.089-.836,9.232-1.393a87.632,87.632,0,0,0-3.462-8.158c-.2-.4-.159-.478.4-.716Z" transform="translate(-1017.978 -510.57)" fill="#fff"/>
    <path id="パス_64" data-name="パス 64" d="M1421.22,312.357a6.051,6.051,0,0,0,3.3,3.343c1.393.557,3.86.756,7.322.756,5.133,0,11.182-.318,17.112-.915a7.548,7.548,0,0,0-1.074,3.144c-.159,1.273-.2,1.273-1.472,1.353-5.054.239-9.789.358-13.928.358s-7.641-.239-9.272-1.074a10.6,10.6,0,0,1-4.139-3.621c-1.234,1.194-2.746,2.507-4.019,3.542a2.9,2.9,0,0,0-.8.8.612.612,0,0,1-1.154-.119,34.824,34.824,0,0,1-1.631-3.741,18.057,18.057,0,0,0,2.348-1.234,22.1,22.1,0,0,0,3.5-2.587v-8.795h-1.95c-2.149,0-2.706.08-2.9.08-.438,0-.478-.04-.478-.478V300.14c0-.4.04-.438.478-.438.2,0,.756.08,2.9.08h2.507c2.109,0,2.746-.08,2.985-.08.4,0,.438.04.438.438,0,.239-.08,1.353-.08,3.78Zm-5.85-26.264c.239-.159.358-.239.478-.239a.744.744,0,0,1,.4.2,30.244,30.244,0,0,1,4.974,5.929c.239.318.2.4-.239.716l-2.268,1.91c-.239.2-.358.279-.478.279-.159,0-.239-.119-.358-.318a31.013,31.013,0,0,0-4.855-6.208c-.318-.279-.239-.4.2-.716Zm13.092,7.123c-4.139,0-5.492.08-5.73.08-.4,0-.438-.04-.438-.478v-2.587c0-.438.04-.478.438-.478.239,0,1.592.08,5.73.08h.438a15.791,15.791,0,0,0-2.069-3.661c-.279-.358-.159-.517.358-.677l2.706-.716c.478-.119.557-.08.836.159a14.411,14.411,0,0,1,2.03,3.383c.2.4.04.517-.358.677l-2.348.836h6.287a25.583,25.583,0,0,0,1.552-3.144,11.442,11.442,0,0,0,.677-2.069,35.8,35.8,0,0,1,3.82.876c.318.119.517.279.517.557s-.159.438-.4.637a2.3,2.3,0,0,0-.716.8c-.438.716-.915,1.512-1.512,2.348h1.273c3.86,0,5.213-.08,5.452-.08.438,0,.478.04.478.478v2.587c0,.438-.04.478-.478.478-.239,0-1.592-.08-5.452-.08H1436.3a25.022,25.022,0,0,1-1.034,2.308h3.78c3.542,0,4.815-.08,5.014-.08.438,0,.478.04.478.438,0,.239-.08,1.472-.08,4.338v9.471c0,2.825.08,3.9.08,4.139,0,.438-.04.477-.478.477-.2,0-1.472-.08-5.014-.08h-8.516c-3.542,0-4.815.08-5.054.08-.438,0-.478-.04-.478-.477,0-.239.079-1.313.079-4.139V300.22c0-2.865-.079-4.1-.079-4.338,0-.4.04-.438.478-.438.239,0,1.512.08,5.054.08h.8a23.262,23.262,0,0,0,.915-2.308Zm.438,7.641h11.74v-2.268H1428.9Zm11.74,5.054v-2.229H1428.9v2.229Zm0,2.786H1428.9v2.388h11.74Z" transform="translate(-1193.513 -505.344)" fill="#fff"/>
    <path id="パス_65" data-name="パス 65" d="M1196.664,206.448c-.121,0-.134-.013-.134-.134,0-.085.024-.906.024-4.69v-2.393c0-2.417-.024-3.264-.024-3.336,0-.134.013-.145.134-.145.084,0,.471.024,1.6.024h6.756c1.123,0,1.51-.024,1.583-.024.134,0,.145.013.145.145,0,.073-.024.919-.024,2.912v2.816c0,3.771.024,4.6.024,4.677,0,.121-.011.134-.145.134h-.967c-.121,0-.134-.013-.134-.134v-.484h-7.723v.5c0,.121-.013.134-.134.134h-.978Zm1.112-1.705h7.723v-7.868h-7.723Zm4.907-4.435c1.015,0,1.365-.024,1.438-.024.121,0,.132.013.132.134,0,.073-.024.2-.024.617v.471a4.491,4.491,0,0,0,.013.495,1.737,1.737,0,0,0,.132-.218,8.167,8.167,0,0,1,.7.471.2.2,0,0,1,.1.156c0,.073-.048.121-.134.145a1.1,1.1,0,0,0-.29.2c-.218.169-.435.327-.677.5a8.671,8.671,0,0,0,1.185.422,2.555,2.555,0,0,0-.435.591c-.108.193-.158.277-.255.277a.8.8,0,0,1-.277-.1,6.73,6.73,0,0,1-2.272-1.583c.013.761.035,1.426.035,1.547s-.013.132-.145.132h-.8c-.121,0-.134-.011-.134-.132s.013-.725.024-1.426a6.731,6.731,0,0,1-2.139,1.413.848.848,0,0,1-.255.084c-.084,0-.134-.073-.229-.242a2.731,2.731,0,0,0-.447-.617,7.665,7.665,0,0,0,2.756-1.4h-.108c-1.016,0-1.365.024-1.451.024-.121,0-.132-.013-.132-.134,0-.084.024-.218.024-.616v-.471c0-.411-.024-.532-.024-.617,0-.121.011-.134.132-.134.085,0,.435.024,1.451.024h2.1Zm-2.791-.448c-1.16,0-1.536.024-1.62.024-.121,0-.134-.013-.134-.145v-.556c0-.121.013-.134.134-.134.084,0,.459.024,1.62.024h1.1v-.495h-.556c-1.064,0-1.413.024-1.486.024-.132,0-.145-.011-.145-.132v-.58c0-.121.013-.132.145-.132.073,0,.422.024,1.486.024h.556a6.222,6.222,0,0,0-.061-.712c.411.013.811.048,1.1.085.156.024.2.061.2.121a.408.408,0,0,1-.073.181.854.854,0,0,0-.048.326h.738c1.075,0,1.426-.024,1.5-.024.121,0,.132.011.132.132v.58c0,.121-.011.132-.132.132-.073,0-.422-.024-1.5-.024h-.738v.495h1.27c1.147,0,1.534-.024,1.607-.024.121,0,.134.013.134.134v.556c0,.134-.013.145-.134.145-.072,0-.459-.024-1.607-.024Zm3.251,1.147H1200.1v.545h3.046Zm-.677,1.22a5.265,5.265,0,0,0,.811.629,6.963,6.963,0,0,0,.736-.6c-.169-.013-.556-.024-1.329-.024Z" transform="translate(-934.226 -414.946)" fill="#fff"/>
    <path id="パス_66" data-name="パス 66" d="M1279.329,201.491c0,.556.013,1.075.013,1.463,0,.616-.084.967-.387,1.209a2.467,2.467,0,0,1-1.523.279.407.407,0,0,1-.459-.363,2.462,2.462,0,0,0-.338-.883,7.725,7.725,0,0,0,1.16.085c.266,0,.375-.048.375-.387v-3.71h-4.7V200.6c0,1.185.024,1.765.024,1.837,0,.121-.013.134-.134.134h-.725c-.121,0-.134-.013-.134-.134v-.508h-1.994v1.015c0,.121-.013.134-.134.134h-.761c-.134,0-.145-.013-.145-.134,0-.073.024-.69.024-1.921v-3.53c0-.761-.013-1.185-.061-1.728.266.013.774.037,1.028.061.121.013.156.085.156.134a1.19,1.19,0,0,1-.048.206,4.693,4.693,0,0,0-.061,1.16v3.492h.471v-5.5a15.855,15.855,0,0,0-.073-1.753c.339.013.761.037,1.051.073.121.013.181.073.181.145a1.651,1.651,0,0,1-.084.314,6.884,6.884,0,0,0-.048,1.209v5.512h.495v-3.336a10.725,10.725,0,0,0-.084-1.716,8.28,8.28,0,0,1,1,.073c.108.024.169.073.169.121a2.337,2.337,0,0,1-.061.29,5.043,5.043,0,0,0-.061,1.112v.725h5c1.161,0,1.559-.024,1.631-.024.109,0,.121.013.121.134v.882c0,.121-.011.134-.121.134-.048,0-.277-.013-.774-.013v2.3Zm-1.873-5.862a3.529,3.529,0,0,0,2.429,1.281,2.068,2.068,0,0,0-.435.725c-.1.242-.121.326-.229.326a.913.913,0,0,1-.277-.073,4.052,4.052,0,0,1-2.3-1.728,3.894,3.894,0,0,1-2.055,1.692.673.673,0,0,1-.277.085c-.1,0-.158-.085-.266-.3a1.748,1.748,0,0,0-.484-.617,3.166,3.166,0,0,0,2.163-1.389h-.229c-1.075,0-1.426.024-1.5.024-.134,0-.145-.013-.145-.134V194.8c0-.134.013-.145.145-.145.073,0,.422.024,1.5.024h.519a4.912,4.912,0,0,0,.037-1.244c.435.024.749.048,1.112.1.134.024.217.061.217.134a.337.337,0,0,1-.048.169,1.321,1.321,0,0,0-.193.664l-.024.181h.93c1.075,0,1.438-.024,1.512-.024.132,0,.145.013.145.121v.749c0,.121-.013.134-.145.134-.073,0-.435-.024-1.512-.024h-.591Zm-.134,5.754c0,1.088.024,1.317.024,1.389,0,.132-.013.145-.134.145h-.749c-.121,0-.134-.013-.134-.145v-.181h-1.136v.556c0,.121-.013.134-.145.134h-.773c-.108,0-.121-.013-.121-.134,0-.072.024-.314.024-1.644v-.64c0-.641-.024-.906-.024-.991,0-.121.013-.132.121-.132.085,0,.3.024.991.024h.967c.677,0,.895-.024.98-.024.121,0,.134.011.134.132,0,.073-.024.338-.024.811v.7Zm-2.127-.712V201.7h1.136v-1.028Z" transform="translate(-995.377 -413)" fill="#fff"/>
    <path id="パス_67" data-name="パス 67" d="M1358.42,202.743a11.472,11.472,0,0,1,.169,1.849,5.517,5.517,0,0,1-1.088,3.492,3.464,3.464,0,0,1-2.936,1.257,3.086,3.086,0,0,1-3.143-3.4,6.789,6.789,0,0,1,1.112-3.613,5.015,5.015,0,0,1,.725-.882c-.4.061-.822.1-1.354.193-.206.035-.387.121-.484.121a.246.246,0,0,1-.206-.181,8.16,8.16,0,0,1-.326-1.233,6.062,6.062,0,0,0,1.244.024,15.152,15.152,0,0,0,1.583-.206,2.074,2.074,0,0,0,.846-.253.4.4,0,0,1,.193-.1.245.245,0,0,1,.169.1,3.093,3.093,0,0,1,.508.64.594.594,0,0,1,.11.277c0,.1-.061.169-.194.242a4.514,4.514,0,0,0-1.147,1.052,5.658,5.658,0,0,0-1.486,3.626c0,1.547.774,2.248,1.813,2.248a2.367,2.367,0,0,0,2.163-1.1,6.1,6.1,0,0,0,.75-3.288,16.517,16.517,0,0,0-.073-1.813c-.024-.253-.061-.484-.085-.629s-.073-.3-.132-.5-.061-.266.121-.327a7.218,7.218,0,0,1,.906-.229c.1-.024.158.048.181.132a14.743,14.743,0,0,0,.811,1.813,12.188,12.188,0,0,0,1.982,2.743.235.235,0,0,1,.073.158.376.376,0,0,1-.084.193,5.61,5.61,0,0,1-.664.761.188.188,0,0,1-.134.061.227.227,0,0,1-.193-.145,13.521,13.521,0,0,1-1.668-3.119l-.061.024Z" transform="translate(-1063.709 -418.36)" fill="#fff"/>
    <path id="パス_68" data-name="パス 68" d="M1424.2,200.4a4.9,4.9,0,0,1,2.477-.688,2.693,2.693,0,0,1,2.912,2.743c0,1.969-1.716,3.275-4.69,3.723-.242.048-.35.061-.47-.169a2.63,2.63,0,0,0-.833-.919c2.925-.374,4.532-1.317,4.532-2.791,0-.991-.738-1.486-1.74-1.486a5.738,5.738,0,0,0-3.686,1.547,12.509,12.509,0,0,0-1.185,1.2.318.318,0,0,1-.193.134.223.223,0,0,1-.156-.085,5.848,5.848,0,0,1-.7-.737.322.322,0,0,1-.085-.145.2.2,0,0,1,.1-.145c.883-.811,1.486-1.438,2.211-2.2.69-.749,1.607-1.789,2.791-3.191-.833.169-1.51.314-2.308.483a4.121,4.121,0,0,0-.471.158.524.524,0,0,1-.255.084c-.084,0-.169-.073-.242-.229a6.877,6.877,0,0,1-.471-1.281,13.9,13.9,0,0,0,1.6-.073c.738-.085,1.679-.218,2.332-.338a1.386,1.386,0,0,0,.653-.218.352.352,0,0,1,.218-.085.346.346,0,0,1,.218.1,3.608,3.608,0,0,1,.809.811.328.328,0,0,1,.086.218.413.413,0,0,1-.255.338,2.687,2.687,0,0,0-.471.387c-.943.991-1.813,1.849-2.767,2.816l.048.048Z" transform="translate(-1122 -414.896)" fill="#fff"/>
    <path id="パス_69" data-name="パス 69" d="M1495.228,200.526a3.748,3.748,0,0,0-.013-.822,5.215,5.215,0,0,1,1.4.519.228.228,0,0,1,.084.327,2.081,2.081,0,0,0-.193.471c-.1.508-.218,1.04-.338,1.558a14.073,14.073,0,0,1,1.885,1.16c.121.072.108.132.073.253a10.418,10.418,0,0,1-.521,1.04c-.036.061-.073.085-.108.085a.226.226,0,0,1-.145-.085,9.835,9.835,0,0,0-1.584-1.136,7.43,7.43,0,0,1-2.442,3.178c-.108.084-.169.132-.242.132a.324.324,0,0,1-.181-.085,2.476,2.476,0,0,0-1.051-.495,6.673,6.673,0,0,0,2.708-3.275,8.143,8.143,0,0,0-2.393-.737,8.4,8.4,0,0,1-1.475,2.417,1.979,1.979,0,0,1-1.547.664,1.461,1.461,0,0,1-1.438-1.655c0-1.5,1.547-2.671,3.565-2.671.4-1,.7-1.849,1-2.865-.664.073-1.27.145-1.668.193a2.664,2.664,0,0,0-.545.132.639.639,0,0,1-.218.048.2.2,0,0,1-.193-.134,7.391,7.391,0,0,1-.35-1.317,4.462,4.462,0,0,0,1.064.073,13.706,13.706,0,0,0,1.873-.156,1.381,1.381,0,0,0,.592-.206.274.274,0,0,1,.158-.048.271.271,0,0,1,.169.048,4.01,4.01,0,0,1,.822.664.287.287,0,0,1,.108.206c0,.074-.048.132-.121.206a1.646,1.646,0,0,0-.326.629c-.314.822-.652,1.765-1.015,2.635a10,10,0,0,1,2.345.6,11.987,11.987,0,0,0,.253-1.558Zm-6.382,3.372c0,.387.132.556.422.556a.972.972,0,0,0,.7-.459,8.242,8.242,0,0,0,.882-1.475c-1.233.048-2.006.69-2.006,1.378Z" transform="translate(-1178.479 -416.07)" fill="#fff"/>
    <path id="パス_70" data-name="パス 70" d="M1558.167,196.262a3.984,3.984,0,0,0-.024-1.172,7.938,7.938,0,0,1,1.45.253c.158.048.242.121.242.218a.4.4,0,0,1-.084.193,1.269,1.269,0,0,0-.206.446c-.061.327-.108.569-.169.991a22.124,22.124,0,0,0,2.272-.448c.169-.048.229-.035.255.121a5.479,5.479,0,0,1,.084.894c0,.132-.035.169-.145.193-1.04.23-1.692.363-2.708.5-.169,1-.339,1.813-.556,2.659a5.227,5.227,0,0,1,3.468-1.281,2.453,2.453,0,0,1,2.695,2.284,2.711,2.711,0,0,1-1.378,2.442,8.075,8.075,0,0,1-3.081.967,5.6,5.6,0,0,1-.894.084c-.121,0-.206-.061-.3-.29a2.311,2.311,0,0,0-.653-.857,9.447,9.447,0,0,0,3.468-.664c.93-.387,1.378-.943,1.378-1.7,0-.629-.459-1.147-1.378-1.147a4.018,4.018,0,0,0-3.178,1.5c-.108.156-.229.3-.338.459-.085.145-.121.193-.229.181a3.36,3.36,0,0,1-.906-.266c-.193-.084-.266-.132-.266-.242a.852.852,0,0,1,.048-.242c.061-.2.109-.387.158-.567.266-1.064.435-1.958.64-3.167-.653.048-1.413.11-2.031.11a.206.206,0,0,1-.229-.169c-.035-.145-.121-.653-.169-1.051.943,0,1.692-.035,2.622-.11.061-.422.108-.822.145-1.112Z" transform="translate(-1235.259 -414.392)" fill="#fff"/>
    <path id="パス_71" data-name="パス 71" d="M9.318,10.711c-.116,0-.128-.012-.128-.128,0-.07.023-.687.023-3.8V4.634c0-2.166-.023-2.806-.023-2.887,0-.116.012-.128.128-.128.081,0,.489.023,1.618.023h.757A7.645,7.645,0,0,0,12.124.547,2.716,2.716,0,0,0,12.252,0c.4.035.908.116,1.246.175.1.023.163.093.163.151a.236.236,0,0,1-.093.163.8.8,0,0,0-.175.279,9.126,9.126,0,0,1-.407.873h2.27c1.129,0,1.537-.023,1.618-.023.116,0,.128.012.128.128,0,.07-.023.722-.023,2.573V6.776c0,3.109.023,3.726.023,3.784,0,.116-.012.128-.128.128H15.838c-.116,0-.128-.012-.128-.128v-.524H10.459v.547c0,.116-.012.128-.128.128Zm1.141-6.683H15.71V2.759H10.459Zm5.251,2.4v-1.3H10.459v1.3Zm0,2.492v-1.4H10.459v1.4Z" transform="translate(31.798 -253.397)" fill="#fff"/>
    <path id="パス_72" data-name="パス 72" d="M60.357,11.94c.978-.21,2.037-.477,3.109-.8a5.789,5.789,0,0,0-.081.757c-.023.384-.023.373-.373.489-1.4.442-2.818.792-4.087,1.059a1.157,1.157,0,0,0-.384.116.45.45,0,0,1-.233.093c-.093,0-.151-.082-.175-.186-.093-.349-.163-.745-.233-1.141a8.6,8.6,0,0,0,1.211-.14V5.9c0-1.292-.023-1.968-.023-2.049,0-.116.012-.128.128-.128.07,0,.64.023,1.746.023h4.191c1.188,0,1.77-.023,1.84-.023.1,0,.116.012.116.128,0,.07-.023.373-.023,1.013V5.932c0,.652.023.955.023,1.025,0,.116-.012.128-.116.128-.07,0-.652-.023-1.84-.023H64.106A13.437,13.437,0,0,0,64.28,8.4l1.758-.047c1.083-.035,1.5-.07,1.618-.07s.128.012.128.128l.023.9c0,.116-.012.128-.128.128s-.547,0-1.618.023l-1.525.047a6.6,6.6,0,0,0,.442,1.164c.477,1.025,1.129,1.572,1.549,1.572.291,0,.477-.407.547-1.525a3.287,3.287,0,0,0,.722.489.453.453,0,0,1,.291.524c-.221,1.327-.7,1.886-1.479,1.886-.827,0-1.863-.675-2.631-2.166a10.092,10.092,0,0,1-.7-1.909l-2.922.07ZM65.875,4.8H60.357V6h5.519ZM60.357,7.061V8.505l2.678-.07c-.07-.431-.128-.885-.175-1.374Z" transform="translate(-7.46 -256.395)" fill="#fff"/>
    <path id="パス_73" data-name="パス 73" d="M122.086,4.31c1.071,0,1.444-.023,1.514-.023.128,0,.14.012.14.128,0,.07-.023.326-.023.92V6.464c0,.617.023.873.023.943,0,.116-.012.128-.14.128-.07,0-.431-.023-1.385-.023V9.457c0,.21.035.279.151.338a2.4,2.4,0,0,0,.943.093,2.016,2.016,0,0,0,1.06-.163c.2-.14.279-.4.3-1.129a2.875,2.875,0,0,0,.85.373.336.336,0,0,1,.279.384,1.728,1.728,0,0,1-.5,1.269c-.279.244-.768.373-2.107.373a4.137,4.137,0,0,1-1.828-.233c-.256-.151-.384-.361-.384-.92V7.512H120.1c-.221,2-1,3.12-3.621,3.6a1.663,1.663,0,0,1-.268.035c-.1,0-.14-.07-.233-.279a2.839,2.839,0,0,0-.524-.792c2.34-.21,3.26-.908,3.423-2.561-.827.012-1.153.023-1.211.023-.128,0-.14-.012-.14-.128,0-.082.023-.326.023-.943V5.335c0-.594-.023-.85-.023-.92,0-.116.012-.128.14-.128.07,0,.442.023,1.514.023h2.911Zm-3.993-1.781h1.863V1.772A7.836,7.836,0,0,0,119.874.48c.419.012.838.035,1.246.081.1.012.175.07.175.116a.546.546,0,0,1-.07.244,2.349,2.349,0,0,0-.07.827v.78h.827a9.573,9.573,0,0,0,.64-1.222,3.107,3.107,0,0,0,.2-.629,10.478,10.478,0,0,1,1.153.268c.1.035.175.081.175.163a.272.272,0,0,1-.128.2,1.067,1.067,0,0,0-.21.256c-.2.338-.4.675-.605.966h.687c1.071,0,1.455-.023,1.537-.023.116,0,.128.012.128.128,0,.07-.023.279-.023.582v.512c0,1.025.023,1.211.023,1.281,0,.116-.012.128-.128.128h-.943c-.116,0-.128-.012-.128-.128V3.519h-7.44V5c0,.128-.012.14-.128.14h-.943c-.116,0-.128-.012-.128-.14,0-.07.023-.244.023-1.269V3.321c0-.407-.023-.617-.023-.687,0-.116.012-.128.128-.128.081,0,.466.023,1.537.023h.407a6.54,6.54,0,0,0-.733-1.327c-.07-.1-.058-.14.07-.186l.815-.291c.14-.047.163-.047.244.058a7.3,7.3,0,0,1,.734,1.281c.047.116.047.14-.093.2l-.734.268Zm4.436,2.759h-3.8V6.523h3.8Z" transform="translate(-53.843 -253.784)" fill="#fff"/>
    <path id="パス_74" data-name="パス 74" d="M175.893,8.17a2.178,2.178,0,0,0,.338-.652,10.035,10.035,0,0,1,1,.5c.093.058.14.116.14.2a.227.227,0,0,1-.14.2.964.964,0,0,0-.314.314,7.949,7.949,0,0,1-1.9,1.828c-.14.093-.221.151-.279.151-.082,0-.14-.07-.245-.245a2.044,2.044,0,0,0-.605-.617,6.96,6.96,0,0,0,2-1.677Zm-.163-5.123c-1.059,0-1.409.012-1.479.012-.128,0-.14-.012-.14-.116V2.034c0-.116.012-.128.14-.128.07,0,.419.023,1.479.023h2.783v-.2A4.422,4.422,0,0,0,178.431.66c.431,0,.827.023,1.257.058.1.012.175.047.175.116a.673.673,0,0,1-.081.244,2.866,2.866,0,0,0-.047.664v.186h2.934c1.048,0,1.409-.023,1.479-.023.116,0,.128.012.128.128v.908c0,.1-.012.116-.128.116-.07,0-.431-.012-1.479-.012H175.73Zm5.286.815c1.129,0,1.525-.023,1.607-.023.116,0,.128.012.128.128,0,.07-.023.314-.023.943V6.179c0,.617.023.873.023.943,0,.116-.012.128-.128.128-.082,0-.477-.023-1.607-.023h-1.176V8.4c0,.536.035,1.036.035,1.467a1.131,1.131,0,0,1-.373,1.025c-.256.21-.582.279-1.677.279-.349.012-.373.023-.454-.349a2.162,2.162,0,0,0-.361-.85,9.145,9.145,0,0,0,1.071.07c.407,0,.524-.128.524-.419v-2.4h-1.3c-1.118,0-1.525.023-1.6.023-.128,0-.14-.012-.14-.128,0-.081.023-.326.023-.943V4.91c0-.629-.023-.862-.023-.943,0-.116.012-.128.14-.128.07,0,.477.023,1.6.023h3.714Zm.5,1.059h-4.727V6.179h4.727Zm.256,2.7c.14-.081.163-.07.233.035a6.8,6.8,0,0,0,2.515,2.061,2.458,2.458,0,0,0-.605.745c-.116.186-.163.268-.245.268a.574.574,0,0,1-.268-.14,8.87,8.87,0,0,1-2.387-2.363c-.07-.1-.035-.128.081-.21Z" transform="translate(-100.943 -253.929)" fill="#fff"/>
    <path id="パス_75" data-name="パス 75" d="M234.7,2.892c.151-.268.291-.524.431-.8a4.475,4.475,0,0,0,.373-.978,4.928,4.928,0,0,1,.931.57c.1.081.151.128.151.2a.224.224,0,0,1-.128.175,1.224,1.224,0,0,0-.384.547,12.1,12.1,0,0,1-.955,1.56c.687,0,.99-.012,1.036-.012.128,0,.14,0,.14.116v.78c0,.116-.012.128-.14.128-.058,0-.419-.023-1.479-.023h-.361a11.712,11.712,0,0,1-.931.931h1.129c.664,0,.978-.023,1.048-.023.128,0,.14.012.14.14,0,.07-.023.407-.023,1.6V8.969c0,1.63.023,1.944.023,2.026,0,.1-.012.116-.14.116h-.85c-.116,0-.128-.012-.128-.116v-.407h-1.933v.489c0,.116,0,.128-.128.128h-.873c-.116,0-.128-.012-.128-.128,0-.07.023-.419.023-2.026V7.5c-.175.128-.361.244-.547.361a.473.473,0,0,1-.221.093c-.082,0-.151-.07-.221-.256a1.761,1.761,0,0,0-.4-.605A11.922,11.922,0,0,0,232.9,5.151h-.885c-1.059,0-1.42.023-1.49.023-.128,0-.14-.012-.14-.128v-.78c0-.116.012-.116.14-.116.07,0,.431.012,1.49.012h.442V3.008h-.279c-.827,0-1.094.023-1.164.023-.116,0-.128-.012-.128-.116V2.147c0-.116.012-.128.128-.128.07,0,.338.023,1.164.023h.279V2A8,8,0,0,0,232.372.54c.419.012.757.047,1.153.081.116.012.186.07.186.128a.593.593,0,0,1-.07.244c-.07.14-.058.314-.058.978v.07c.652,0,.92-.023.99-.023.116,0,.128.012.128.128v.745Zm-2.049,4.133V7.84h1.933V7.025Zm1.933,2.6V8.737h-1.933v.885Zm-1-5.46h.233a8.532,8.532,0,0,0,.792-1.129h-.035c-.07,0-.338-.023-.99-.023Zm6.066-3.074a.833.833,0,0,0,.3-.035.516.516,0,0,1,.175-.035c.093,0,.186.047.489.349.245.279.279.384.279.477a.26.26,0,0,1-.116.21,1.065,1.065,0,0,0-.233.431c-.338.9-.664,1.688-1.06,2.526a3.266,3.266,0,0,1,1.42,2.724c0,1.211-.687,1.851-2.049,1.979a.359.359,0,0,1-.431-.349,1.423,1.423,0,0,0-.314-.768c1.094.023,1.618-.268,1.618-.955,0-.733-.268-1.3-1.5-2.445a22.758,22.758,0,0,0,1.2-3.05h-1.583v6.52c0,1.56.023,2.375.023,2.433,0,.116-.012.128-.128.128h-.931c-.128,0-.14-.012-.14-.128,0-.07.023-.838.023-2.422V3.649c0-1.6-.023-2.375-.023-2.457,0-.116.012-.128.14-.128.07,0,.384.023,1.036.023h1.8Z" transform="translate(-146.294 -253.832)" fill="#fff"/>
    <path id="パス_76" data-name="パス 76" d="M290.232,4.314c0,.873-.012,1.653-.07,2.387a8.678,8.678,0,0,0,1.712-2.736,3.827,3.827,0,0,0,.256-.862,5.92,5.92,0,0,1,.978.373c.116.058.175.1.175.2s-.035.116-.128.2-.151.163-.268.454-.256.605-.4.9V9.67c0,.931.023,1.385.023,1.444,0,.116-.012.128-.128.128h-.9c-.116,0-.128-.012-.128-.128,0-.07.023-.512.023-1.444V8.68c0-.489,0-1.118.012-1.7a9.761,9.761,0,0,1-.605.768c-.07.081-.128.128-.175.128s-.093-.047-.14-.14a3.2,3.2,0,0,0-.338-.664l-.1.873a9.556,9.556,0,0,1-.9,2.946c-.082.163-.128.244-.2.244s-.128-.058-.233-.186a3.652,3.652,0,0,0-.757-.664,7.211,7.211,0,0,0,.931-2.783,24.486,24.486,0,0,0,.175-3.4c0-1.5-.023-2.177-.023-2.247,0-.116.012-.128.128-.128.07,0,.454.023,1.56.023h2.317v-.21A4.586,4.586,0,0,0,292.956.6c.442,0,.85.035,1.234.07.116.012.2.058.2.116a.431.431,0,0,1-.082.221,1.143,1.143,0,0,0-.081.5v.244h2.608c1.106,0,1.479-.023,1.56-.023.1,0,.116.012.116.128v.827c0,.128-.012.14-.116.14-.082,0-.454-.023-1.56-.023h-6.6Zm4.459,1.607c-1.025,0-1.374.023-1.444.023-.116,0-.128-.012-.128-.14V4.989c0-.116.012-.128.128-.128.07,0,.419.023,1.444.023h1.455V4.652a8.22,8.22,0,0,0-.093-1.5,10.2,10.2,0,0,1,1.2.093c.1.012.175.07.175.128a.609.609,0,0,1-.081.244,4.028,4.028,0,0,0-.058,1.013v.256c.838,0,1.153-.023,1.211-.023.116,0,.128.012.128.128V5.8c0,.128-.012.14-.128.14-.058,0-.373-.012-1.211-.023v2.2c0,.7.035,1.281.035,1.793a.95.95,0,0,1-.384.92c-.233.2-.7.279-1.816.279a.418.418,0,0,1-.442-.373,2.411,2.411,0,0,0-.3-.8c.454.035.978.047,1.327.047.326,0,.442-.093.442-.373V5.921Zm-.023,2.771a.479.479,0,0,1-.14.082c-.035,0-.058-.035-.093-.093a7.1,7.1,0,0,0-1.048-1.607c-.093-.093-.081-.128.047-.21l.617-.4c.116-.07.14-.081.221.012A7.4,7.4,0,0,1,295.4,8c.058.1.047.151-.081.233Z" transform="translate(-192.87 -253.881)" fill="#fff"/>
    <path id="パス_77" data-name="パス 77" d="M353.966,2.2a6.816,6.816,0,0,1-.652.838c-.116.128-.186.2-.244.2s-.128-.07-.268-.21a2.278,2.278,0,0,0-.582-.384q.21-.21.384-.419c-.07,0-.373-.023-1.281-.023q.175.3.314.594c.047.1.035.128-.1.163l-.78.175c-.163.035-.186.035-.233-.1a5.6,5.6,0,0,0-.338-.827h-.838a6.541,6.541,0,0,1-.862.99c-.128.128-.2.186-.256.186s-.128-.07-.256-.21a3.042,3.042,0,0,0-.57-.466A5.719,5.719,0,0,0,348.879.836a2.235,2.235,0,0,0,.21-.536c.326.035.757.1,1.025.163.116.023.175.07.175.151a.236.236,0,0,1-.093.163.944.944,0,0,0-.2.291l-.1.2h1.351c.978,0,1.292-.023,1.362-.023.128,0,.14.012.14.128v.687a5.172,5.172,0,0,0,.71-1.2,2.727,2.727,0,0,0,.186-.547,8.523,8.523,0,0,1,.978.163c.128.035.186.058.186.151s-.035.1-.093.163a.678.678,0,0,0-.175.279l-.082.2h1.712c1.176,0,1.6-.023,1.665-.023.1,0,.116.012.116.128v.722c0,.116-.012.128-.116.128-.07,0-.489-.023-1.665-.023h-.186c.116.186.221.384.326.594.047.1.035.14-.116.175l-.757.175c-.163.035-.186.035-.233-.093a6.9,6.9,0,0,0-.361-.85h-.873Zm-3.807,2.131c-1.129,0-1.514.023-1.583.023-.116,0-.128-.012-.128-.128V3.478c0-.116.012-.128.128-.128.07,0,.454.023,1.583.023h4.762c1.2,0,1.793-.023,1.851-.023.128,0,.14.012.14.128,0,.07-.023.314-.023.873v.757c0,.57.023.815.023.885,0,.116-.012.128-.14.128-.058,0-.652-.023-1.851-.023H353.3l.012.8h2.55c1.153,0,1.56-.023,1.63-.023.116,0,.151.023.14.14-.047.338-.07.675-.1,1.036a4.045,4.045,0,0,1-.384,1.63,1.411,1.411,0,0,1-1.374.605c-.2,0-.4,0-.675-.023-.326-.023-.349-.047-.419-.407a3.333,3.333,0,0,0-.268-.792,6.955,6.955,0,0,0,1.153.116c.3,0,.489-.023.594-.221a3.813,3.813,0,0,0,.186-1.106h-3.015l.023,1.071c.012,1.129.07,1.746.07,1.944,0,.128-.012.14-.14.14H352.3c-.116,0-.128-.012-.128-.14,0-.221.023-.792.012-1.933l-.012-.477a8.7,8.7,0,0,1-3.714,2.235,1.363,1.363,0,0,1-.279.07c-.093,0-.14-.07-.245-.279a3.384,3.384,0,0,0-.5-.722,9.27,9.27,0,0,0,3.993-1.909h-2.014l-.116.326q-.047.14-.629.081c-.559-.058-.64-.058-.582-.2a14.077,14.077,0,0,0,.664-2.1,5.1,5.1,0,0,0,.14-.71c.012-.128.023-.151.14-.151.07,0,.466.023,1.583.023h1.525l-.012-.8h-1.968Zm2,2.573-.012-.8h-2.212l-.221.8Zm1.118-2.573.012.8h2.422v-.8Z" transform="translate(-240.784 -253.639)" fill="#fff"/>
    <path id="パス_78" data-name="パス 78" d="M407.6,7.21a5.339,5.339,0,0,0,.279-1.129,7.82,7.82,0,0,1,1.246.407c.117.058.175.1.175.2a.312.312,0,0,1-.093.186,1.484,1.484,0,0,0-.244.5,9.778,9.778,0,0,1-2.608,4.122c-.128.128-.186.2-.256.2s-.128-.07-.256-.221a3.927,3.927,0,0,0-.78-.629A7.819,7.819,0,0,0,407.6,7.21Zm-.605-2.2c-1.071,0-1.432.023-1.5.023-.116,0-.128,0-.128-.116V3.9c0-.1.012-.116.128-.116.07,0,.431.023,1.5.023h2.689V2.9A6.246,6.246,0,0,0,409.6,1.68a11.842,11.842,0,0,1,1.292.1c.116.012.2.07.2.163a.592.592,0,0,1-.07.244,2.63,2.63,0,0,0-.07.78v.838h2.876c1.059,0,1.42-.023,1.49-.023.117,0,.128.012.128.116V4.917c0,.116-.012.116-.128.116-.07,0-.431-.023-1.49-.023Zm5.46,1.164c.175-.047.2-.023.233.081a9.473,9.473,0,0,0,3.05,4.529,3.282,3.282,0,0,0-.92.722c-.116.151-.175.221-.245.221s-.117-.058-.233-.186a11.777,11.777,0,0,1-2.829-4.948c-.035-.128-.023-.151.151-.2Z" transform="translate(-287.255 -254.751)" fill="#fff"/>
    <path id="パス_79" data-name="パス 79" d="M467.329,10.3a1.7,1.7,0,0,0,1.083.978,7.721,7.721,0,0,0,2.154.21c1.5,0,3.237-.058,4.983-.233a1.641,1.641,0,0,0-.291.78.423.423,0,0,1-.431.4c-1.479.081-2.864.116-4.075.116A8.169,8.169,0,0,1,468,12.228a2.617,2.617,0,0,1-1.223-1.048,11.674,11.674,0,0,1-1.083.99,1.6,1.6,0,0,0-.245.245c-.058.081-.1.116-.163.116s-.128-.058-.175-.151a9.649,9.649,0,0,1-.477-1.071,4.242,4.242,0,0,0,.687-.384,6.242,6.242,0,0,0,.873-.722v-2.6h-.477c-.605,0-.757.023-.815.023-.128,0-.14-.012-.14-.14V6.6c0-.116.012-.128.14-.128.058,0,.21.023.815.023h.652c.605,0,.792-.023.85-.023.116,0,.128.012.128.128,0,.07-.023.407-.023,1.129V10.3Zm-.582-5.309a.273.273,0,0,1-.151.081c-.035,0-.07-.023-.1-.081a8.821,8.821,0,0,0-1.432-1.816c-.093-.081-.07-.1.058-.2l.594-.431c.14-.093.163-.1.256-.023a9.316,9.316,0,0,1,1.467,1.735c.058.093.058.128-.07.233Zm2.061-1.677c-.71,0-.943.023-1.013.023-.116,0-.128-.012-.128-.128V2.588c0-.116.012-.128.128-.128.07,0,.3.023,1.013.023H470c.559,0,.757-.023.827-.023.128,0,.14.012.14.128,0,.07-.023.268-.023.745v.489c0,.466.023.675.023.745,0,.1-.012.116-.14.116-.07,0-.268-.023-.827-.023H468.82v.291c0,.268.023.349.07.4.081.07.21.082.594.082.419,0,.559-.023.64-.1s.07-.244.082-.524a3.933,3.933,0,0,0,.768.279c.221.058.233.07.186.373a.821.821,0,0,1-.244.524c-.21.186-.594.221-1.479.221s-1.223-.035-1.409-.186c-.221-.175-.279-.4-.279-.885V4.5c0-.244-.023-.384-.023-.466,0-.116.012-.128.14-.128.07,0,.279.023.757.023h1.257V3.31h-1.071Zm.7,6.206c-1.141,0-1.537.023-1.607.023-.116,0-.128-.012-.128-.14V8.77c0-.116.012-.128.128-.128.07,0,.466.023,1.607.023h.151V7.932c-.955,0-1.3.023-1.362.023-.128,0-.14-.012-.14-.14V7.187c0-.116.012-.128.14-.128.058,0,.408.023,1.362.023a6.048,6.048,0,0,0-.07-.745c.419.023.664.035,1.06.082.1.012.186.058.186.116s-.023.093-.07.175a.721.721,0,0,0-.058.373h1.479a3.153,3.153,0,0,0-.07-.745c.419.023.675.035,1.06.082.116.012.186.058.186.128s-.023.093-.07.175a.631.631,0,0,0-.058.349v.023c.92-.012,1.257-.035,1.327-.035.128,0,.14.012.14.128v.629c0,.128-.012.14-.14.14-.07,0-.408-.012-1.327-.023v.733h.209c1.141,0,1.537-.023,1.607-.023.116,0,.128.012.128.128V9.4c0,.128-.012.14-.128.14-.07,0-.466-.023-1.607-.023h-.605a7.116,7.116,0,0,0,2.34.85,2.68,2.68,0,0,0-.419.605c-.1.21-.175.291-.291.291a1.3,1.3,0,0,1-.268-.07,8.163,8.163,0,0,1-2.189-1.083c-.093-.07-.07-.093.035-.2l.4-.4h-2.259c.209.128.407.256.594.4.116.081.163.116.163.175s-.058.1-.151.128-.233.151-.373.221a7.461,7.461,0,0,1-1.432.7.968.968,0,0,1-.279.081c-.1,0-.175-.081-.326-.256a2.679,2.679,0,0,0-.536-.489,8.613,8.613,0,0,0,1.688-.64,2.664,2.664,0,0,0,.454-.314h-.477Zm2.678-.85V7.932h-1.479v.733Zm.454-5.356c-.722,0-.931.023-1,.023-.128,0-.14-.012-.14-.128V2.588c0-.116.012-.128.14-.128.07,0,.279.023,1,.023h1.234c.547,0,.757-.023.827-.023.116,0,.128.012.128.128,0,.07-.023.268-.023.745v.489c0,.466.023.675.023.745,0,.1-.012.116-.128.116-.07,0-.28-.023-.827-.023H472.7v.3c0,.268.012.326.07.384s.2.082.629.082c.361,0,.559-.023.629-.093s.1-.244.116-.536a2.942,2.942,0,0,0,.78.268c.268.047.268.082.221.4a.727.727,0,0,1-.245.5c-.221.2-.664.233-1.595.233s-1.281-.035-1.467-.186c-.2-.175-.256-.4-.256-.885V4.5c0-.244-.023-.384-.023-.466,0-.116.012-.128.128-.128.081,0,.279.023.78.023h1.258V3.31h-1.083Z" transform="translate(-335.274 -255.38)" fill="#fff"/>
    <path id="パス_80" data-name="パス 80" d="M524.876,8.839c-1.06,0-1.42.023-1.49.023-.128,0-.14-.012-.14-.128V7.943c0-.116.012-.128.14-.128.07,0,.431.023,1.49.023h2.829v-.71h-1.234c-1.129,0-1.525.023-1.6.023-.117,0-.128-.012-.128-.128V6.3c0-.116.012-.128.128-.128.07,0,.466.023,1.6.023h1.234V5.475c-.454.047-.908.093-1.362.116-.21.012-.233-.012-.291-.175-.047-.128-.093-.291-.163-.442a8.177,8.177,0,0,1-2.038,1.467.744.744,0,0,1-.291.116c-.081,0-.116-.07-.186-.2a2.721,2.721,0,0,0-.524-.7A6.76,6.76,0,0,0,525.667,3.6h-.85c-1.059,0-1.42.023-1.49.023-.116,0-.128-.012-.128-.128V2.7c0-.116.012-.128.128-.128.07,0,.431.023,1.49.023h6.893c1.06,0,1.421-.023,1.49-.023.116,0,.128.012.128.128V3.5c0,.116-.012.128-.128.128-.07,0-.431-.023-1.49-.023h-.931a7.042,7.042,0,0,0,3.015,1.956,2.85,2.85,0,0,0-.466.722c-.093.2-.128.279-.21.279a.974.974,0,0,1-.268-.116A8.626,8.626,0,0,1,529.5,3.6h-2.492a7.483,7.483,0,0,1-.827,1.071,15.421,15.421,0,0,0,2.69-.3,3.21,3.21,0,0,0,.64-.221c.209.175.431.4.687.652a.328.328,0,0,1,.116.2c0,.07-.058.116-.175.116a1.751,1.751,0,0,0-.407.047c-.245.047-.524.1-.827.151V6.2h1.153c1.118,0,1.5-.023,1.572-.023.116,0,.128.012.128.128v.722c0,.116-.012.128-.128.128-.07,0-.454-.023-1.572-.023H528.9v.71h2.748c1.071,0,1.432-.023,1.5-.023.116,0,.128.012.128.128v.792c0,.116-.012.128-.128.128-.07,0-.431-.023-1.5-.023H528.9c0,.477.023.873.023,1.164a.874.874,0,0,1-.349.838,3.453,3.453,0,0,1-1.793.244c-.349.012-.373.012-.454-.349a3.121,3.121,0,0,0-.3-.78,11.14,11.14,0,0,0,1.281.058c.279,0,.4-.116.4-.373v-.8h-2.829ZM525.365.7c.14-.058.175-.035.245.058a8.393,8.393,0,0,1,.745,1.222c.058.116.058.128-.1.186l-.78.256c-.151.058-.186.047-.233-.081a6.713,6.713,0,0,0-.664-1.211c-.07-.1-.058-.128.082-.175l.71-.256Zm2.713-.256c.14-.047.175-.023.233.081a8.216,8.216,0,0,1,.594,1.351c.023.1.012.14-.128.186l-.792.221c-.175.035-.2.023-.233-.1a6.527,6.527,0,0,0-.559-1.351c-.058-.116-.023-.128.117-.175Zm2.527.71a3.524,3.524,0,0,0,.221-.617,8.914,8.914,0,0,1,1.129.291c.093.035.151.093.151.163s-.07.14-.151.21a1.112,1.112,0,0,0-.245.3c-.174.3-.314.536-.5.815-.151.221-.2.221-.419.151a5.383,5.383,0,0,0-.862-.175A7.544,7.544,0,0,0,530.6,1.155Z" transform="translate(-382.188 -253.737)" fill="#fff"/>
    <path id="パス_81" data-name="パス 81" d="M586.137,11.538h6.776c1.129,0,1.525-.023,1.595-.023.116,0,.128.012.128.128v.931c0,.116-.012.128-.128.128-.07,0-.466-.023-1.595-.023h-6.776v.5c0,.116-.012.128-.14.128h-.99c-.116,0-.128-.012-.128-.128,0-.07.023-.862.023-2.445V5.7c0-1.6-.023-2.375-.023-2.445,0-.128.012-.14.128-.14.07,0,.466.023,1.56.023h6.264c1.083,0,1.455-.023,1.525-.023.128,0,.14.012.14.14v.92c0,.116-.012.128-.14.128-.07,0-.443-.023-1.525-.023h-6.695ZM587.919,5.5c.1-.1.116-.116.221-.047.768.489,1.537,1.036,2.317,1.63a10.09,10.09,0,0,0,.873-1.444,3.5,3.5,0,0,0,.326-.943,6.57,6.57,0,0,1,1.118.442c.116.058.175.1.175.2s-.058.14-.14.21a2.312,2.312,0,0,0-.326.536,13.327,13.327,0,0,1-1.094,1.758c.7.57,1.385,1.176,2.084,1.816.058.047.081.081.081.116s-.023.081-.093.151l-.64.7a.181.181,0,0,1-.128.081.123.123,0,0,1-.1-.058c-.652-.675-1.316-1.292-1.979-1.874a11.518,11.518,0,0,1-2.876,2.177.777.777,0,0,1-.279.116c-.081,0-.14-.082-.256-.256a2.308,2.308,0,0,0-.629-.629A10.757,10.757,0,0,0,589.7,7.987c-.757-.605-1.525-1.176-2.317-1.723-.058-.035-.082-.07-.082-.093s.035-.082.093-.14l.524-.536Z" transform="translate(-432.182 -255.911)" fill="#fff"/>
    <path id="パス_82" data-name="パス 82" d="M642.308,3.658c-1.048,0-1.409.023-1.479.023-.116,0-.128-.012-.128-.128v-.92c0-.128.012-.14.128-.14.07,0,.431.023,1.479.023H645.1V2.33a8.313,8.313,0,0,0-.093-1.49c.419.012.92.035,1.327.081.1.012.186.07.186.128a.607.607,0,0,1-.081.244,3.349,3.349,0,0,0-.07.92v.3h2.969c1.048,0,1.409-.023,1.479-.023.116,0,.128.012.128.14v.92c0,.116-.012.128-.128.128-.07,0-.431-.023-1.479-.023h-2.969V5.1h1.7a.943.943,0,0,0,.338-.047.379.379,0,0,1,.151-.047c.081,0,.175.07.466.361.268.256.361.4.361.5s-.058.128-.163.21a.949.949,0,0,0-.279.314,10.617,10.617,0,0,1-2.131,2.48,12.756,12.756,0,0,0,4.331,1.316,4.16,4.16,0,0,0-.5.931c-.081.233-.116.3-.244.3a1.421,1.421,0,0,1-.256-.035,13.132,13.132,0,0,1-4.413-1.723,14.753,14.753,0,0,1-4.215,1.711.917.917,0,0,1-.256.047c-.117,0-.152-.082-.233-.3a3.22,3.22,0,0,0-.477-.827,14.8,14.8,0,0,0,4.2-1.4,8.2,8.2,0,0,1-1.886-2.689c-.792.012-1.095.023-1.153.023-.117,0-.128-.012-.128-.128v-.9c0-.116.012-.128.128-.128.07,0,.454.023,1.583.023h1.8V3.658h-2.794Zm1.9,2.55a6.66,6.66,0,0,0,1.607,1.979,7.286,7.286,0,0,0,1.723-1.979Z" transform="translate(-477.049 -254.074)" fill="#fff"/>
    <path id="パス_83" data-name="パス 83" d="M700.457,5.944c-1.059,0-1.42.023-1.49.023-.1,0-.116-.012-.116-.128V5c0-.116.012-.128.116-.128.07,0,.431.023,1.49.023h1.688a11.407,11.407,0,0,0,.431-1.327,3.383,3.383,0,0,0,.093-.582,9.84,9.84,0,0,1,1.013.233c.1.035.175.07.175.151a.263.263,0,0,1-.093.186.757.757,0,0,0-.151.268,10.534,10.534,0,0,1-.4,1.071c.908,0,1.246-.023,1.316-.023.116,0,.128.012.128.128v.838c0,.116-.012.128-.128.128-.07,0-.431-.023-1.479-.023Zm.21-3.132c-1.025,0-1.362.023-1.432.023-.116,0-.128-.012-.128-.128V1.892c0-.128.012-.14.128-.14.07,0,.408.023,1.432.023h.524v-.21A4.482,4.482,0,0,0,701.12.6c.419.012.78.047,1.176.081.116.012.186.058.186.1a.511.511,0,0,1-.081.233,1.669,1.669,0,0,0-.047.559v.2h.594c1.013,0,1.35-.023,1.42-.023.116,0,.128.012.128.14v.815c0,.116-.012.128-.128.128-.07,0-.407-.023-1.42-.023Zm-.99,8.325c-.116,0-.128-.012-.128-.116,0-.082.023-.373.023-1.968V8.214c0-.908-.023-1.222-.023-1.3,0-.116.012-.128.128-.128.082,0,.384.023,1.292.023h1.677c.908,0,1.222-.023,1.292-.023.128,0,.14.012.14.128,0,.07-.023.4-.023,1.141v.966c0,1.6.023,1.886.023,1.956,0,.128-.012.14-.14.14h-.9c-.117,0-.128-.012-.128-.14v-.536H700.7v.582c0,.1-.011.116-.128.116h-.9Zm.745-6.4c-.175.047-.186.023-.209-.116a6.456,6.456,0,0,0-.326-1.281c-.047-.128-.023-.128.128-.175l.641-.175c.14-.035.175-.023.221.093a7.543,7.543,0,0,1,.373,1.281c.023.128,0,.128-.14.175Zm.279,4.68h2.212v-1.6H700.7Zm7.393-8.278a.8.8,0,0,0,.291-.035.516.516,0,0,1,.175-.035c.093,0,.186.047.489.349.244.279.279.384.279.477a.283.283,0,0,1-.1.21c-.082.058-.14.163-.245.431-.338.9-.664,1.688-1.06,2.526a3.266,3.266,0,0,1,1.42,2.724c0,1.211-.687,1.851-2.049,1.979a.353.353,0,0,1-.419-.349,1.567,1.567,0,0,0-.326-.768c1.094.023,1.618-.268,1.618-.955,0-.733-.268-1.3-1.5-2.445a22.778,22.778,0,0,0,1.2-3.05h-1.63v6.52c0,1.56.023,2.375.023,2.433,0,.116-.012.128-.128.128H705.2c-.128,0-.14-.012-.14-.128,0-.07.023-.838.023-2.422V3.7c0-1.6-.023-2.375-.023-2.457,0-.116.012-.128.14-.128.07,0,.384.023,1.036.023h1.863Z" transform="translate(-524.036 -253.881)" fill="#fff"/>
    <path id="パス_84" data-name="パス 84" d="M759.533,8.951c-1.036,0-1.4.023-1.467.023-.1,0-.117-.012-.117-.128V7.985c0-.116.012-.128.117-.128.07,0,.431.023,1.467.023h.349V4.5c0-.85-.023-1.246-.023-1.316,0-.116.012-.128.128-.128.07,0,.477.023,1.607.023h3.889c1.129,0,1.514-.023,1.583-.023.128,0,.14.012.14.128v.85c0,.1-.012.116-.14.116-.07,0-.454-.023-1.583-.023h-4.366v.652h3.877c1.083,0,1.444-.023,1.514-.023.116,0,.128.012.128.14v.675c0,.116-.012.128-.128.128-.07,0-.431-.023-1.514-.023h-3.877v.64h3.877c1.083,0,1.432-.023,1.5-.023.128,0,.14.012.14.14v.675c0,.116-.012.128-.14.128-.07,0-.419-.023-1.5-.023h-3.877V7.88h5.589c1.036,0,1.385-.023,1.455-.023.128,0,.14.012.14.128v.862c0,.116-.012.128-.14.128-.07,0-.419-.023-1.455-.023h-3.283a4.957,4.957,0,0,0,1.222,1.467,9.633,9.633,0,0,0,1.188-.955,1.7,1.7,0,0,0,.373-.477c.372.233.64.4.931.617.082.058.117.1.117.175s-.058.1-.14.116a1.165,1.165,0,0,0-.408.245,12.742,12.742,0,0,1-1.187.85,9.69,9.69,0,0,0,3.05,1,2.964,2.964,0,0,0-.5.8.431.431,0,0,1-.524.279,7.39,7.39,0,0,1-5.286-4.122h-1.141v2.492c.7-.163,1.409-.338,2.177-.559a4.869,4.869,0,0,0-.047.733.455.455,0,0,1-.361.477c-1.281.384-2.561.71-3.714.955a.992.992,0,0,0-.407.151.257.257,0,0,1-.175.07c-.046,0-.093-.047-.14-.151-.116-.326-.245-.8-.326-1.129a11.473,11.473,0,0,0,1.246-.175l.512-.1V8.951h-.349Z" transform="translate(-571.668 -255.863)" fill="#fff"/>
    <path id="パス_85" data-name="パス 85" d="M4.053,86.17a2.178,2.178,0,0,0,.338-.652,10.033,10.033,0,0,1,1,.5c.093.058.14.116.14.2a.227.227,0,0,1-.14.2.965.965,0,0,0-.314.314,7.948,7.948,0,0,1-1.9,1.828c-.14.093-.221.151-.279.151-.082,0-.14-.07-.244-.245a2.044,2.044,0,0,0-.605-.617A6.96,6.96,0,0,0,4.053,86.17ZM3.89,81.047c-1.059,0-1.409.012-1.479.012-.128,0-.14-.012-.14-.116v-.908c0-.116.012-.128.14-.128.07,0,.419.023,1.479.023H6.672v-.2a4.422,4.422,0,0,0-.081-1.071c.431,0,.827.023,1.257.058.1.012.175.047.175.116a.674.674,0,0,1-.081.244,2.869,2.869,0,0,0-.047.664v.186h2.934c1.048,0,1.409-.023,1.479-.023.116,0,.128.012.128.128v.908c0,.1-.012.116-.128.116-.07,0-.431-.012-1.479-.012Zm5.286.815c1.129,0,1.525-.023,1.607-.023.116,0,.128.012.128.128,0,.07-.023.314-.023.943v1.269c0,.617.023.873.023.943,0,.116-.012.128-.128.128-.082,0-.477-.023-1.607-.023H8V86.4c0,.536.035,1.036.035,1.467a1.131,1.131,0,0,1-.373,1.025c-.256.21-.582.279-1.677.279-.349.012-.373.023-.454-.349a2.161,2.161,0,0,0-.361-.85,9.145,9.145,0,0,0,1.071.07c.407,0,.524-.128.524-.419v-2.4h-1.3c-1.118,0-1.525.023-1.6.023-.128,0-.14-.012-.14-.128,0-.081.023-.326.023-.943V82.91c0-.629-.023-.862-.023-.943,0-.116.012-.128.14-.128.07,0,.477.023,1.6.023H9.175Zm.5,1.06H4.949v1.257H9.676Zm.256,2.7c.14-.082.163-.07.233.035a6.8,6.8,0,0,0,2.515,2.061,2.457,2.457,0,0,0-.605.745c-.116.186-.163.268-.244.268a.575.575,0,0,1-.268-.14,8.87,8.87,0,0,1-2.387-2.363c-.07-.1-.035-.128.081-.21Z" transform="translate(37.552 -316.793)" fill="#fff"/>
    <path id="パス_86" data-name="パス 86" d="M62.861,80.892c.151-.268.291-.524.431-.8a4.475,4.475,0,0,0,.373-.978,4.926,4.926,0,0,1,.931.571c.1.081.151.128.151.2a.224.224,0,0,1-.128.175,1.223,1.223,0,0,0-.384.547,12.108,12.108,0,0,1-.955,1.56c.687,0,.99-.012,1.036-.012.128,0,.14,0,.14.116v.78c0,.116-.012.128-.14.128-.058,0-.419-.023-1.479-.023h-.361a11.721,11.721,0,0,1-.931.931h1.129c.664,0,.978-.023,1.048-.023.128,0,.14.012.14.14,0,.07-.023.408-.023,1.6v1.176c0,1.63.023,1.944.023,2.026,0,.1-.012.116-.14.116h-.85c-.116,0-.128-.012-.128-.116v-.407H60.812v.489c0,.116,0,.128-.128.128H59.81c-.116,0-.128-.012-.128-.128,0-.07.023-.419.023-2.026V85.5c-.175.128-.361.244-.547.361a.473.473,0,0,1-.221.093c-.081,0-.151-.07-.221-.256a1.761,1.761,0,0,0-.4-.605,11.92,11.92,0,0,0,2.736-1.944h-.885c-1.059,0-1.42.023-1.49.023-.128,0-.14-.012-.14-.128v-.78c0-.116.012-.116.14-.116.07,0,.431.012,1.49.012h.442V81.008h-.279c-.827,0-1.094.023-1.164.023-.116,0-.128-.012-.128-.116v-.768c0-.116.012-.128.128-.128.07,0,.338.023,1.164.023h.279V80a8,8,0,0,0-.082-1.455c.419.012.757.047,1.153.081.116.012.186.07.186.128a.593.593,0,0,1-.07.244c-.07.14-.058.314-.058.978v.07c.652,0,.92-.023.99-.023.116,0,.128.012.128.128Zm-2.049,4.133v.815h1.933v-.815Zm1.933,2.6v-.885H60.812v.885Zm-1-5.46h.233a8.536,8.536,0,0,0,.792-1.129h-.035c-.07,0-.338-.023-.99-.023Zm6.066-3.074a.833.833,0,0,0,.3-.035.516.516,0,0,1,.175-.035c.093,0,.186.047.489.349.244.279.279.384.279.477a.26.26,0,0,1-.116.21,1.065,1.065,0,0,0-.233.431c-.338.9-.664,1.688-1.059,2.526a3.266,3.266,0,0,1,1.42,2.724c0,1.211-.687,1.851-2.049,1.979a.359.359,0,0,1-.431-.349,1.423,1.423,0,0,0-.314-.768c1.094.023,1.618-.268,1.618-.955,0-.733-.268-1.3-1.5-2.445a22.762,22.762,0,0,0,1.2-3.05H66v6.52c0,1.56.023,2.375.023,2.433,0,.116-.012.128-.128.128h-.931c-.128,0-.14-.012-.14-.128,0-.07.023-.838.023-2.422v-5.03c0-1.6-.023-2.375-.023-2.457,0-.116.012-.128.14-.128.07,0,.384.023,1.036.023Z" transform="translate(-7.799 -316.696)" fill="#fff"/>
    <path id="パス_87" data-name="パス 87" d="M118.392,82.314c0,.873-.012,1.653-.07,2.387a8.679,8.679,0,0,0,1.711-2.736,3.827,3.827,0,0,0,.256-.862,5.919,5.919,0,0,1,.978.373c.116.058.175.1.175.2s-.035.116-.128.2-.151.163-.268.454-.256.605-.4.9V87.67c0,.931.023,1.385.023,1.444,0,.116-.012.128-.128.128h-.9c-.116,0-.128-.012-.128-.128,0-.07.023-.512.023-1.444v-.99c0-.489,0-1.118.012-1.7a9.763,9.763,0,0,1-.605.768c-.07.082-.128.128-.175.128s-.093-.047-.14-.14a3.2,3.2,0,0,0-.338-.664l-.1.873a9.556,9.556,0,0,1-.9,2.946c-.081.163-.128.244-.2.244s-.128-.058-.233-.186a3.653,3.653,0,0,0-.757-.664,7.21,7.21,0,0,0,.931-2.783,24.489,24.489,0,0,0,.175-3.4c0-1.5-.023-2.177-.023-2.247,0-.116.012-.128.128-.128.07,0,.454.023,1.56.023H121.2v-.21a4.588,4.588,0,0,0-.082-.943c.442,0,.85.035,1.234.07.116.012.2.058.2.116a.431.431,0,0,1-.081.221,1.143,1.143,0,0,0-.081.5v.244h2.608c1.106,0,1.479-.023,1.56-.023.1,0,.116.012.116.128v.827c0,.128-.012.14-.116.14-.082,0-.454-.023-1.56-.023h-6.6Zm4.459,1.607c-1.025,0-1.374.023-1.444.023-.116,0-.128-.012-.128-.14v-.815c0-.116.012-.128.128-.128.07,0,.419.023,1.444.023h1.455v-.233a8.221,8.221,0,0,0-.093-1.5,10.2,10.2,0,0,1,1.2.093c.1.012.175.07.175.128a.608.608,0,0,1-.082.244,4.027,4.027,0,0,0-.058,1.013v.256c.838,0,1.153-.023,1.211-.023.116,0,.128.012.128.128V83.8c0,.128-.012.14-.128.14-.058,0-.373-.012-1.211-.023v2.2c0,.7.035,1.281.035,1.793a.95.95,0,0,1-.384.92c-.233.2-.7.279-1.816.279a.418.418,0,0,1-.442-.373,2.41,2.41,0,0,0-.3-.8c.454.035.978.047,1.327.047.326,0,.442-.093.442-.373V83.921h-1.455Zm-.023,2.771a.479.479,0,0,1-.14.081c-.035,0-.058-.035-.093-.093a7.1,7.1,0,0,0-1.048-1.607c-.093-.093-.081-.128.047-.21l.617-.4c.116-.07.14-.082.221.012A7.4,7.4,0,0,1,123.561,86c.058.1.047.151-.082.233Z" transform="translate(-54.375 -316.745)" fill="#fff"/>
    <path id="パス_88" data-name="パス 88" d="M177.849,80.407c.885,0,1.176-.023,1.246-.023.116,0,.128.012.128.128v.827c0,.128-.012.14-.128.14-.07,0-.361-.023-1.246-.023h-.885c-.9,0-1.176.023-1.246.023-.116,0-.128-.012-.128-.14v-.827c0-.116.012-.128.128-.128.07,0,.349.023,1.246.023Zm1.071,6.613c0,1.351.023,1.607.023,1.677,0,.116-.012.128-.128.128h-.78c-.116,0-.128-.012-.128-.128v-.256h-.862v.466c0,.116-.012.128-.128.128h-.792c-.128,0-.14-.012-.14-.128,0-.07.023-.338.023-1.746v-.745c0-.734-.023-1.025-.023-1.094,0-.116.012-.128.14-.128.07,0,.314.023,1.059.023h.559c.745,0,.99-.023,1.071-.023.116,0,.128.012.128.128,0,.07-.023.349-.023.9Zm-1.129-8.208c.745,0,.978-.023,1.048-.023.128,0,.14.012.14.128v.768c0,.116-.012.128-.14.128-.07,0-.3-.023-1.048-.023h-.605c-.757,0-.99.023-1.059.023-.116,0-.128-.012-.128-.128v-.768c0-.116.012-.128.128-.128.07,0,.3.023,1.059.023Zm-.093,3.248c.7,0,.908-.023.978-.023.128,0,.14.012.14.128v.757c0,.116-.012.128-.14.128-.07,0-.279-.023-.978-.023h-.466c-.71,0-.92.023-.99.023-.116,0-.128-.012-.128-.128v-.757c0-.116.012-.128.128-.128.07,0,.279.023.99.023Zm0,1.572c.7,0,.908-.023.978-.023.128,0,.14.012.14.128v.745c0,.116-.012.128-.14.128-.07,0-.279-.023-.978-.023h-.466c-.71,0-.92.023-.99.023-.116,0-.128-.012-.128-.128v-.745c0-.116.012-.128.128-.128.07,0,.279.023.99.023Zm-.652,2.55v1.292h.862V86.182Zm7.056-.745a5.176,5.176,0,0,0,.268,1.036,3.475,3.475,0,0,0,.279-.326,3.651,3.651,0,0,0,.349-.582,4.827,4.827,0,0,1,.687.4c.1.07.14.116.14.186s-.047.116-.14.163a2.067,2.067,0,0,0-.349.361c-.175.21-.349.419-.559.629.279.466.5.617.664.617s.279-.268.373-1.048a3.146,3.146,0,0,0,.454.314c.279.151.3.163.245.512-.151.908-.466,1.222-.99,1.222a1.8,1.8,0,0,1-1.49-.978,6.835,6.835,0,0,1-1.327.757.839.839,0,0,1-.279.093c-.082,0-.128-.081-.244-.279a2.467,2.467,0,0,0-.384-.489,5.588,5.588,0,0,0,1.793-.862,6.309,6.309,0,0,1-.477-1.711l-1.362.023v.536l1.013-.2a5.205,5.205,0,0,0-.082.64c-.012.21-.012.233-.2.268l-.734.14c.012.326.035.629.035.931,0,.582-.082.815-.314.955a2.191,2.191,0,0,1-1.176.21.384.384,0,0,1-.431-.349,2.729,2.729,0,0,0-.221-.617,5.087,5.087,0,0,0,.745.058c.326,0,.4-.093.4-.4v-.617l-.745.1a1.352,1.352,0,0,0-.419.1.382.382,0,0,1-.163.07c-.058,0-.1-.035-.128-.163-.058-.256-.116-.594-.151-.85a6.548,6.548,0,0,0,.9-.058c.233-.023.466-.047.71-.081v-.675c-.9.012-1.234.035-1.351.035s-.116-.012-.116-.128l-.012-.617c0-.116.012-.116.128-.116s.466.012,1.351,0V84.18l-.71.1a.254.254,0,0,1-.314-.175,2.537,2.537,0,0,0-.256-.559,12.684,12.684,0,0,0,2.107-.373,1.668,1.668,0,0,0,.454-.186,4,4,0,0,1,.559.512.2.2,0,0,1,.07.151c0,.07-.07.1-.163.116a2.313,2.313,0,0,0-.349.07c-.14.047-.279.093-.431.128v.664l1.257-.012-.035-.768a4.081,4.081,0,0,0-.093-.768,6.962,6.962,0,0,1,.943.07c.163.023.256.058.256.151a.639.639,0,0,1-.058.2,1.758,1.758,0,0,0-.035.547c0,.2.012.384.023.559l.594-.012c1.059-.023,1.467-.047,1.583-.047s.116.012.116.128l.012.617c0,.1-.012.116-.116.116s-.536,0-1.6.012Zm-3.074-2.561c-1.118,0-1.514.023-1.583.023-.1,0-.116-.012-.116-.128v-.617c0-.116.012-.128.116-.128.07,0,.466.023,1.583.023h1.083v-.524h-.536c-1.036,0-1.374.023-1.444.023-.128,0-.14-.012-.14-.128v-.582c0-.1.012-.116.14-.116.07,0,.407.023,1.444.023h.536v-.512h-.792c-1.094,0-1.467.023-1.548.023-.116,0-.128-.012-.128-.128v-.605c0-.116.012-.128.128-.128.07,0,.408.023,1.281.023a5.768,5.768,0,0,0-.442-.722c-.07-.1-.035-.128.116-.175l.629-.163c.14-.035.163-.035.233.058a5.979,5.979,0,0,1,.594,1h.978a5.651,5.651,0,0,0,.361-.617,2,2,0,0,0,.186-.5c.361.058.687.116,1.013.2.1.035.163.07.163.128,0,.081-.035.116-.1.163a.692.692,0,0,0-.2.21c-.1.14-.186.279-.291.419h.058c1.094,0,1.479-.023,1.548-.023.116,0,.128.012.128.128v.605c0,.116-.012.128-.128.128-.07,0-.454-.023-1.548-.023h-1.164v.512h.78c1.036,0,1.374-.023,1.444-.023.116,0,.128.012.128.116v.582c0,.116-.012.128-.128.128-.07,0-.408-.023-1.444-.023h-.78v.524h1.385c1.118,0,1.514-.023,1.583-.023.116,0,.116.012.116.128v.617c0,.116,0,.128-.116.128-.07,0-.466-.023-1.583-.023h-3.539Zm3.761.221c.116-.058.14-.081.245-.012a4.149,4.149,0,0,1,.862.745c.081.081.081.116-.035.2l-.489.338c-.058.047-.093.07-.128.07s-.047-.023-.093-.081a5.135,5.135,0,0,0-.8-.792c-.1-.07-.093-.116.023-.186Z" transform="translate(-102.313 -316.503)" fill="#fff"/>
    <path id="パス_89" data-name="パス 89" d="M238.23,81.722a13.617,13.617,0,0,1-2.107,1.257.763.763,0,0,1-.279.1c-.082,0-.116-.082-.21-.291a2.723,2.723,0,0,0-.524-.768,9.718,9.718,0,0,0,4.471-3.388,3.471,3.471,0,0,0,.407-.757,8.921,8.921,0,0,1,1.257.244c.14.035.21.082.21.163a.192.192,0,0,1-.116.186.992.992,0,0,0-.163.1,10.485,10.485,0,0,0,4.925,3.33,3.459,3.459,0,0,0-.5.873c-.082.21-.116.291-.2.291a.8.8,0,0,1-.268-.093,12.824,12.824,0,0,1-2.224-1.234v.862c0,.116-.012.128-.128.128-.07,0-.384-.023-1.316-.023h-1.793c-.931,0-1.246.023-1.316.023-.116,0-.128-.012-.128-.128v-.885Zm-.745,3.155c-1.094,0-1.467.023-1.537.023-.128,0-.14-.012-.14-.128V83.9c0-.116.012-.128.14-.128.07,0,.442.023,1.537.023h6.206c1.094,0,1.467-.023,1.537-.023.128,0,.14.012.14.128v.873c0,.116-.012.128-.14.128-.07,0-.442-.023-1.537-.023h-3.6a21.8,21.8,0,0,1-1.036,2.189c1.211-.07,2.48-.175,3.586-.291-.268-.326-.536-.652-.85-.99-.082-.093-.07-.14.07-.21l.745-.384c.128-.07.163-.058.245.023a20.544,20.544,0,0,1,2.166,2.7c.058.093.058.14-.058.221l-.8.524c-.07.047-.1.07-.14.07s-.058-.023-.093-.081c-.2-.326-.4-.629-.582-.908-1.933.245-4.308.442-6.287.594a1.034,1.034,0,0,0-.419.1.294.294,0,0,1-.2.07c-.081,0-.14-.058-.163-.163-.1-.384-.175-.792-.245-1.2a9.233,9.233,0,0,0,1.269,0c.116,0,.244-.012.373-.012a18.8,18.8,0,0,0,1.025-2.259Zm3.982-3.248c.78,0,1.129-.012,1.257-.023a10.607,10.607,0,0,1-2.2-2.131,10.864,10.864,0,0,1-2.131,2.131c.1.012.431.023,1.281.023Z" transform="translate(-150.283 -316.165)" fill="#fff"/>
    <path id="パス_90" data-name="パス 90" d="M296.529,80.407c.885,0,1.176-.023,1.246-.023.116,0,.128.012.128.128v.827c0,.128-.012.14-.128.14-.07,0-.361-.023-1.246-.023h-.885c-.9,0-1.176.023-1.246.023-.116,0-.128-.012-.128-.14v-.827c0-.116.012-.128.128-.128.07,0,.349.023,1.246.023ZM297.6,87.02c0,1.351.023,1.607.023,1.677,0,.116-.012.128-.128.128h-.78c-.116,0-.128-.012-.128-.128v-.256h-.862v.466c0,.116-.012.128-.128.128h-.792c-.128,0-.14-.012-.14-.128,0-.07.023-.338.023-1.746v-.745c0-.734-.023-1.025-.023-1.094,0-.116.012-.128.14-.128.07,0,.314.023,1.059.023h.559c.745,0,.99-.023,1.071-.023.116,0,.128.012.128.128,0,.07-.023.349-.023.9Zm-1.129-8.208c.745,0,.978-.023,1.048-.023.128,0,.14.012.14.128v.768c0,.116-.012.128-.14.128-.07,0-.3-.023-1.048-.023h-.605c-.757,0-.99.023-1.059.023-.116,0-.128-.012-.128-.128v-.768c0-.116.012-.128.128-.128.07,0,.3.023,1.059.023Zm-.093,3.248c.7,0,.908-.023.978-.023.128,0,.14.012.14.128v.757c0,.116-.012.128-.14.128-.07,0-.279-.023-.978-.023h-.466c-.71,0-.92.023-.99.023-.116,0-.128-.012-.128-.128v-.757c0-.116.012-.128.128-.128.07,0,.279.023.99.023Zm0,1.572c.7,0,.908-.023.978-.023.128,0,.14.012.14.128v.745c0,.116-.012.128-.14.128-.07,0-.279-.023-.978-.023h-.466c-.71,0-.92.023-.99.023-.116,0-.128-.012-.128-.128v-.745c0-.116.012-.128.128-.128.07,0,.279.023.99.023Zm-.652,2.55v1.292h.862V86.182Zm7.056-.745a5.173,5.173,0,0,0,.268,1.036,3.474,3.474,0,0,0,.279-.326,3.649,3.649,0,0,0,.349-.582,4.827,4.827,0,0,1,.687.4c.1.07.14.116.14.186s-.047.116-.14.163a2.066,2.066,0,0,0-.349.361c-.175.21-.349.419-.559.629.279.466.5.617.664.617s.279-.268.373-1.048a3.144,3.144,0,0,0,.454.314c.279.151.3.163.245.512-.151.908-.466,1.222-.99,1.222a1.8,1.8,0,0,1-1.49-.978,6.834,6.834,0,0,1-1.327.757.839.839,0,0,1-.279.093c-.082,0-.128-.081-.245-.279a2.463,2.463,0,0,0-.384-.489,5.587,5.587,0,0,0,1.793-.862,6.312,6.312,0,0,1-.477-1.711l-1.362.023v.536l1.013-.2a5.2,5.2,0,0,0-.082.64c-.012.21-.012.233-.2.268l-.734.14c.012.326.035.629.035.931,0,.582-.082.815-.314.955a2.192,2.192,0,0,1-1.176.21.384.384,0,0,1-.431-.349,2.733,2.733,0,0,0-.221-.617,5.086,5.086,0,0,0,.745.058c.326,0,.4-.093.4-.4v-.617l-.745.1a1.352,1.352,0,0,0-.419.1.382.382,0,0,1-.163.07c-.058,0-.1-.035-.128-.163-.058-.256-.116-.594-.151-.85a6.548,6.548,0,0,0,.9-.058c.233-.023.466-.047.71-.081v-.675c-.9.012-1.234.035-1.351.035S298,85.507,298,85.39l-.012-.617c0-.116.012-.116.128-.116s.466.012,1.351,0V84.18l-.71.1a.253.253,0,0,1-.314-.175,2.54,2.54,0,0,0-.256-.559,12.682,12.682,0,0,0,2.107-.373,1.668,1.668,0,0,0,.454-.186,4,4,0,0,1,.559.512.205.205,0,0,1,.07.151c0,.07-.07.1-.163.116a2.314,2.314,0,0,0-.349.07c-.14.047-.279.093-.431.128v.664l1.257-.012-.035-.768a4.081,4.081,0,0,0-.093-.768,6.961,6.961,0,0,1,.943.07c.163.023.256.058.256.151a.64.64,0,0,1-.058.2,1.756,1.756,0,0,0-.035.547c0,.2.012.384.023.559l.594-.012c1.06-.023,1.467-.047,1.583-.047s.116.012.116.128l.012.617c0,.1-.012.116-.116.116s-.536,0-1.6.012Zm-3.074-2.561c-1.118,0-1.514.023-1.583.023-.1,0-.116-.012-.116-.128v-.617c0-.116.012-.128.116-.128.07,0,.466.023,1.583.023h1.083v-.524h-.536c-1.036,0-1.374.023-1.444.023-.128,0-.14-.012-.14-.128v-.582c0-.1.012-.116.14-.116.07,0,.407.023,1.444.023h.536v-.512H300c-1.094,0-1.467.023-1.548.023-.116,0-.128-.012-.128-.128v-.605c0-.116.012-.128.128-.128.07,0,.408.023,1.281.023a5.778,5.778,0,0,0-.442-.722c-.07-.1-.035-.128.116-.175l.629-.163c.14-.035.163-.035.233.058a5.985,5.985,0,0,1,.594,1h.978a5.641,5.641,0,0,0,.361-.617,2,2,0,0,0,.186-.5c.361.058.687.116,1.013.2.1.035.163.07.163.128,0,.081-.035.116-.1.163a.692.692,0,0,0-.2.21c-.1.14-.186.279-.291.419h.058c1.094,0,1.479-.023,1.548-.023.116,0,.128.012.128.128v.605c0,.116-.012.128-.128.128-.07,0-.454-.023-1.548-.023h-1.164v.512h.78c1.036,0,1.374-.023,1.444-.023.116,0,.128.012.128.116v.582c0,.116-.012.128-.128.128-.07,0-.407-.023-1.444-.023h-.78v.524h1.385c1.118,0,1.514-.023,1.583-.023.116,0,.116.012.116.128v.617c0,.116,0,.128-.116.128-.07,0-.466-.023-1.583-.023h-3.539Zm3.761.221c.116-.058.14-.081.245-.012a4.148,4.148,0,0,1,.862.745c.082.081.082.116-.035.2l-.489.338c-.058.047-.093.07-.128.07s-.047-.023-.093-.081a5.139,5.139,0,0,0-.8-.792c-.1-.07-.093-.116.023-.186Z" transform="translate(-197.963 -316.503)" fill="#fff"/>
    <path id="パス_91" data-name="パス 91" d="M358.288,88.74a5.723,5.723,0,0,1,.9.524c.116.081.151.116.151.186s-.07.14-.186.163a1.975,1.975,0,0,0-.454.21,9.672,9.672,0,0,1-2.6,1,1.665,1.665,0,0,1-.244.047c-.128,0-.163-.082-.279-.314a3.319,3.319,0,0,0-.536-.733,8.657,8.657,0,0,0,2.6-.722,2.265,2.265,0,0,0,.582-.361h-.279c-1.141,0-1.548.023-1.618.023-.128,0-.14-.012-.14-.128,0-.07.023-.419.023-1.223V84.991c0-.815-.023-1.164-.023-1.234,0-.116.012-.128.14-.128.07,0,.477.023,1.618.023h4.494c1.141,0,1.549-.023,1.618-.023.116,0,.128.012.128.128,0,.07-.023.419-.023,1.234v2.422c0,.8.023,1.164.023,1.222,0,.116-.012.128-.128.128-.07,0-.477-.023-1.618-.023Zm3.563-8.2c1.106,0,1.49-.023,1.56-.023.116,0,.128.012.128.128,0,.07-.023.268-.023.78v.757c0,.5.023.7.023.768,0,.116-.012.128-.128.128-.07,0-.454-.023-1.56-.023h-3.318c-1.106,0-1.479.023-1.56.023-.116,0-.128-.012-.128-.128,0-.081.023-.268.023-.768v-.757c0-.512-.023-.71-.023-.78,0-.116.012-.128.128-.128.081,0,.454.023,1.56.023ZM357.4,85.107h5.554v-.57H357.4Zm5.554,1.351v-.582H357.4v.582Zm0,.78H357.4v.605h5.554Zm-.652-5.786h-4.226v.733h4.226Zm-.408,7.382a.251.251,0,0,1,.151-.07.232.232,0,0,1,.093.035,8.433,8.433,0,0,0,3.2,1.025,3.91,3.91,0,0,0-.57.71c-.14.221-.186.3-.3.3a1.667,1.667,0,0,1-.245-.047,9.407,9.407,0,0,1-3.085-1.292c-.047-.035-.07-.058-.07-.093s.035-.07.116-.116Z" transform="translate(-246.941 -318.292)" fill="#fff"/>
    <g id="グループ_1" data-name="グループ 1" transform="translate(260.679 -203.279)">
      <path id="パス_92" data-name="パス 92" d="M12.2-12.921c-.265.163-.286.2-.163.367.755,1,1.428,2,2.081,3.019-2.019.224-4.2.428-6.283.592.979-2.121,1.877-4.386,2.611-6.344a3.071,3.071,0,0,1,.53-.979.5.5,0,0,0,.163-.367c0-.163-.163-.265-.388-.347-.694-.2-1.387-.347-2.183-.53a12.767,12.767,0,0,1-.551,2.142A60.356,60.356,0,0,1,5.39-8.759c-.184,0-.388.02-.571.02C4-8.7,3.268-8.678,2.493-8.7a15.816,15.816,0,0,0,.49,2.162c.061.2.163.326.306.326a.551.551,0,0,0,.347-.143,1.667,1.667,0,0,1,.775-.224C8-6.883,11.713-7.291,15.14-7.8c.326.612.653,1.224.959,1.856.061.122.1.163.184.163a.565.565,0,0,0,.245-.1l1.53-.877c.286-.163.286-.2.184-.388A44.258,44.258,0,0,0,13.9-13.675c-.082-.082-.122-.122-.163-.122a.682.682,0,0,0-.245.1Zm-.469-10.118c-.245.122-.286.143-.2.367a21.5,21.5,0,0,0,6.65,8.425c.2.163.326.265.428.265.122,0,.224-.143.388-.449a5.536,5.536,0,0,1,1.142-1.53,16.438,16.438,0,0,1-6.63-7.547c-.1-.2-.143-.224-.408-.1ZM.841-15.634a4.467,4.467,0,0,1,1.142,1.326c.184.306.265.449.388.449.1,0,.245-.1.469-.286a20.438,20.438,0,0,0,6-7.507,1.557,1.557,0,0,1,.469-.632.34.34,0,0,0,.184-.306c0-.143-.082-.245-.306-.347a12.849,12.849,0,0,0-2.019-.714,5.949,5.949,0,0,1-.428,1.326A15.537,15.537,0,0,1,.841-15.634Zm31.516-2.693a32.06,32.06,0,0,0,1.408,8.1c1.02,3.019,2.448,4.467,4,4.488,1.2.02,2.06-1.081,2.468-3.692.082-.632.082-.632-.51-.959a6.6,6.6,0,0,1-1.326-.918c-.122,1.856-.367,2.978-.918,2.978-.612,0-1.244-1.183-1.836-3.019a25.8,25.8,0,0,1-1.163-6.976h2.427c1.856,0,2.489.041,2.611.041.2,0,.224-.02.224-.245v-1.611c0-.224-.02-.245-.224-.245-.122,0-.755.041-2.611.041H34.4v-.9a6.887,6.887,0,0,1,.1-2.06,1.318,1.318,0,0,0,.122-.428c0-.122-.122-.224-.326-.245-.694-.082-1.489-.1-2.223-.122a19.443,19.443,0,0,1,.163,2.917c0,.286.02.571.02.836H24.932c-1.856,0-2.489-.041-2.611-.041-.2,0-.2.02-.2.245v1.611c0,.224,0,.245.2.245.122,0,.755-.041,2.611-.041ZM29.032-13.8c1.713,0,2.285.041,2.407.041.224,0,.245-.02.245-.2v-1.53c0-.224-.02-.245-.245-.245-.122,0-.694.041-2.407.041H25.421c-1.734,0-2.305-.041-2.427-.041-.2,0-.224.02-.224.245v1.53c0,.184.02.2.224.2.122,0,.694-.041,2.427-.041h.694V-9.31l-1.958.367A11.171,11.171,0,0,1,22.2-8.7c.163.714.367,1.571.53,2.06.061.184.163.265.286.265a.76.76,0,0,0,.367-.143,2.729,2.729,0,0,1,.857-.306c2.2-.469,5.263-1.306,7.3-1.979.612-.184.612-.184.612-.857,0-.408.02-.918.061-1.285-1.224.428-2.631.816-3.978,1.142v-4ZM35.6-23.161c-.2.143-.245.2-.082.367a9.084,9.084,0,0,1,1.591,1.938c.061.1.122.163.184.163a.566.566,0,0,0,.265-.122l.959-.653c.245-.163.265-.245.143-.408a9.62,9.62,0,0,0-1.754-1.877c-.082-.082-.143-.122-.2-.122s-.122.041-.245.122Zm20.256,4.488v-1.938a5.617,5.617,0,0,1,.163-1.8,1.092,1.092,0,0,0,.082-.367c0-.163-.082-.265-.367-.326a18.96,18.96,0,0,0-2.387-.347,13.561,13.561,0,0,1,.184,2.795l-.02,2H49.125v-1.489a5.11,5.11,0,0,1,.143-1.958,1.386,1.386,0,0,0,.122-.428c0-.143-.082-.245-.306-.286A19.8,19.8,0,0,0,46.6-23.14a14.178,14.178,0,0,1,.245,3v1.489h-.612c-1.571,0-2.9-.041-3.753-.1a18.3,18.3,0,0,0,.143,1.979c.02.265.082.388.245.388.632-.041,2.264-.1,3.366-.1h.612v.775c0,1.285-.041,2.285-.1,3.345-.02.224.1.265.367.286a12.586,12.586,0,0,0,1.754,0c.224-.02.367-.061.347-.286-.061-1.081-.061-2.183-.061-3.386v-.734H53.49a9.87,9.87,0,0,1-1.2,5.2c-1.04,1.673-2.611,2.713-5.508,3.611a4.708,4.708,0,0,1,1.693,1.224c.163.163.265.224.388.224a1.711,1.711,0,0,0,.571-.184,9.61,9.61,0,0,0,4.814-3.794,12.132,12.132,0,0,0,1.571-6.283h.836c1,0,2.244.02,2.937.02.286.02.326-.061.347-.326a10.624,10.624,0,0,0,0-1.611c-.02-.224-.041-.347-.286-.326-.938.041-2.081.061-3.08.061Zm17.3.959a32.289,32.289,0,0,0,2.387-2.57,6.721,6.721,0,0,1,1.224-1.122.584.584,0,0,0,.286-.449.361.361,0,0,0-.163-.306,18.148,18.148,0,0,0-2.264-1.428,5.912,5.912,0,0,1-1.285,2.1,33.1,33.1,0,0,1-4.345,4.263,32.745,32.745,0,0,1-6.426,4.182,7.635,7.635,0,0,1,1.754,1.2.569.569,0,0,0,.428.2.576.576,0,0,0,.306-.082,35.29,35.29,0,0,0,5.61-3.917v4.753c0,1.387-.061,2.713-.082,4.182-.02.245.061.326.286.326a17.015,17.015,0,0,0,2.04,0c.224,0,.326-.082.306-.347-.041-1.632-.061-2.835-.061-4.243Zm15.29-2.835a5.313,5.313,0,0,1,.143-1.917,1.073,1.073,0,0,0,.163-.469c0-.163-.1-.286-.388-.347a15.057,15.057,0,0,0-2.55-.326,15.565,15.565,0,0,1,.2,3.019v10.036c0,1.306-.02,2.509-.082,4.019,0,.245.1.306.388.306a13.48,13.48,0,0,0,1.815,0c.286,0,.388-.061.367-.306-.041-1.469-.082-2.672-.082-4v-4.508a22.592,22.592,0,0,1,5.365,2.611.313.313,0,0,0,.224.1c.1,0,.184-.082.265-.224a11.99,11.99,0,0,0,.877-1.775c.1-.265,0-.408-.224-.53a28.774,28.774,0,0,0-6.487-2.774Z" transform="translate(-0.841 24.099)" fill="#fff"/>
    </g>
  </g>
</svg>
