<?xml version="1.0" encoding="UTF-8"?><svg id="_レイヤー_1" xmlns="http://www.w3.org/2000/svg" width="317.66" height="36.81" viewBox="0 0 317.66 36.81"><defs><style>.cls-1{fill:#fff;stroke-width:0px;}</style></defs><g id="_グループ_3"><path id="_パス_59" class="cls-1" d="m18.19,18.66c-6.6,1.66-10.8,3.19-14.56,4.46-.41.21-.84.37-1.28.47-.42-.11-.76-.43-.88-.85-.56-1.13-1.04-2.3-1.46-3.49.97-.26,1.37-.38,2.3-.68,1.51-.67,2.93-1.51,4.25-2.51,4.42-3.46,8.63-7.18,12.62-11.13-2.7.72-5.09,1.15-7.88,1.66-.66.13-1.02.17-1.68.34-.39.2-.81.34-1.24.43-.4,0-.75-.38-1.06-.93-.66-1.35-1.2-2.76-1.59-4.21,1.46.13,2.92.16,4.38.09,2.97-.21,6.2-.72,10.09-1.27.82-.08,1.62-.32,2.35-.72.24-.19.54-.29.84-.3.4,0,.67.21,1.2.64.8.63,1.52,1.34,2.17,2.12.31.32.5.74.53,1.19,0,.43-.27.72-.8.98-.65.36-1.26.79-1.82,1.27-4.6,3.91-8.37,7.05-13.41,10.71l.09.13c7.01-1.99,14.14-3.55,21.34-4.68.58-.09.75.21.84.68.27,1.13.44,2.28.49,3.45.04.43-.22.55-.71.6-2.79.09-5.56.55-8.23,1.36-5.14,1.7-7.57,4.72-7.57,7.78,0,4.08,4.65,5.31,11.07,5.31.44,0,.71.21.67.76-.09,1.06-.44,2.8-.58,3.57-.09.68-.35.93-.97.93-.98-.03-1.95-.12-2.92-.26-8.32-.81-11.95-4.46-11.95-9.6.22-3.5,2.27-6.62,5.4-8.2v-.09h0Z"/><path id="_パス_60" class="cls-1" d="m57.81,8.46c-1.02,7.22-2.88,13.85-5.53,18.32-1.9,3.19-4.2,4.89-7.53,4.89-3.9,0-7.84-3.99-7.84-10.92.08-4.21,1.89-8.21,5-11.05,3.72-3.57,8.41-5.44,14.39-5.44,10.62,0,16.87,6.29,16.87,14.75,0,7.9-4.65,12.88-13.63,15.47-.93.26-1.33.09-1.9-.76-.82-1.11-1.88-2.03-3.1-2.68,7.48-1.7,13.37-4.68,13.37-12.71.01-5.43-4.39-9.85-9.82-9.86-.03,0-.06,0-.1,0h-.18,0Zm-12.7,4.12c-2.08,2.1-3.31,4.9-3.45,7.86,0,3.91,1.64,6.08,3.01,6.08,1.15,0,2.12-.55,3.32-2.59,2.42-4.77,4-9.91,4.69-15.21-2.88.44-5.53,1.8-7.57,3.87h0Z"/><path id="_パス_61" class="cls-1" d="m87.92,4.25c-.56-1.25-1.31-2.41-2.21-3.44,1.74-.36,3.5-.58,5.27-.68,1.2,0,1.51.3,1.51.89-.03.4-.01.8.04,1.19.19.72.43,1.43.71,2.12.53,1.27.93,2.29,1.51,3.44,3.14-.67,6.23-1.55,9.25-2.63.44-.21.58-.17.84.3.47,1.05.84,2.15,1.11,3.27.13.43-.04.64-.35.72-2.88,1.01-5.82,1.83-8.81,2.46,1.9,3.24,4.18,6.25,6.77,8.97.36.33.75.65,1.15.93.27.21.44.34.44.55-.01.26-.11.51-.27.72-.49.97-1.06,1.9-1.73,2.76-.35.47-.58.64-.89.64-.22,0-.35-.09-.71-.34-.58-.41-1.18-.78-1.82-1.1-2.92-1.44-6.13-2.18-9.39-2.17-4.6,0-7.39,1.32-7.39,3.99,0,3.19,4.03,4.5,10.98,4.5,2.37-.02,4.74-.22,7.08-.6-.17,1.54-.48,3.06-.93,4.55-.13.43-.31.51-.84.6-1.63.2-3.27.3-4.91.3-10.45,0-16.07-3.19-16.07-8.8,0-4.85,4.34-8.24,11.64-8.24,2.67-.07,5.34.32,7.88,1.15-2.32-2.16-4.26-4.7-5.71-7.52-2.79.47-5.36.81-8.54,1.06-1.2.09-3.23.21-4.34.21-.4,0-.58-.26-.71-.76-.42-1.25-.76-2.53-1.02-3.82,2.26.09,4.07.04,5.53-.04,2.34-.14,4.68-.41,6.99-.81-.75-1.53-1.37-2.76-2.08-4.38h0Z"/><path id="_パス_62" class="cls-1" d="m120.32,3.53c-.38-.98-.9-1.89-1.55-2.72,1.77-.3,3.56-.46,5.36-.47.62,0,.97.34.97.76,0,.26-.09.55-.09.81.02.43.08.86.18,1.27.31,1.1.44,1.49.71,2.21,3.06-.55,6.07-1.31,9.03-2.25.4-.17.62-.13.75.21.27.81.58,2,.75,2.85.07.35-.16.7-.52.76,0,0,0,0-.01,0-2.97.89-5.67,1.53-8.68,2.17.4,1.06.97,2.38,1.55,3.57,2.74-.53,5.43-1.26,8.06-2.21.44-.21.66-.13.8.26.35.91.62,1.84.8,2.8.09.38.09.6-.35.76-2.44.87-4.94,1.56-7.48,2.08,1.56,2.72,3.52,5.2,5.8,7.35.44.38.44.55.22,1.02-.49.95-1.1,1.84-1.82,2.63-.27.3-.44.43-.71.43-.23-.02-.44-.11-.62-.26-.81-.56-1.69-1.02-2.61-1.36-2.66-.98-5.49-1.44-8.32-1.36-4.16,0-6.6,1.23-6.6,3.23,0,2.76,3.76,3.65,10.54,3.65,1.64,0,3.28-.17,4.87-.26.44,0,.58.21.53.55-.2,1.31-.49,2.6-.89,3.87-.13.43-.31.6-.93.64-1.02.09-2.08.13-3.19.13-10.18,0-15.58-2.76-15.58-7.99,0-4.55,4.07-7.39,10.98-7.39,2.58-.11,5.16.25,7.61,1.06-1.33-1.59-2.56-3.27-3.67-5.01-4.02.65-8.07,1.08-12.13,1.27-.38.06-.74-.2-.8-.59,0,0,0,0,0-.01-.37-1.14-.63-2.3-.8-3.48,3.99-.06,7.97-.41,11.91-1.06-.44-.89-1.11-2.34-1.68-3.53-3.56.58-7.15.92-10.76,1.02-.53,0-.8-.17-.89-.6-.13-.47-.44-2.04-.71-3.4,3.69.02,7.37-.2,11.02-.68-.35-.98-.62-1.7-1.06-2.76v.02Z"/><path id="_パス_63" class="cls-1" d="m146.92,5.53c-2.75,0-3.62.08-3.86.08-.44,0-.48-.04-.48-.44v-2.9c0-.4.04-.44.48-.44.24,0,1.11.08,3.86.08h5.25c2.19,0,3.1-.08,3.34-.08.44,0,.48.04.48.44,0,.24-.08,1.31-.08,3.62v4.14c0,2.31.08,3.34.08,3.58,0,.4-.04.44-.48.44-.24,0-1.15-.08-3.34-.08h-4.66c-.2,1.59-.4,3.1-.68,4.62h5.05c2.19,0,2.82-.08,3.06-.08.4,0,.48.08.48.52-.08.95-.08,1.91-.16,2.83-.4,6.05-1.27,9.91-1.91,11.42-.84,1.95-2.27,2.9-5.13,2.9-.76,0-1.39,0-2.07-.04-.8-.04-.88-.12-1.11-1.35-.18-.97-.48-1.92-.88-2.83,1.19.15,2.38.23,3.58.24,1.04,0,1.51-.24,1.87-.88.6-1.07,1.19-3.26,1.63-9.27h-5.09l-.4,1.83c-.05.34-.74.44-2.07.28-1.3-.19-1.92-.45-1.87-.8.8-3.26,1.4-6.57,1.79-9.91.14-.81.19-1.64.16-2.47,0-.44.16-.56.56-.56.24,0,1.31.08,3.14.08h4.42v-4.97h-4.97,0Zm23.48,13.01c.48-.2.56-.2.76.2,2.44,4.78,4.47,9.76,6.05,14.88.08.48.04.52-.48.76l-2.94,1.23c-.48.2-.56.2-.68-.24l-.95-3.34c-4.94.95-9.91,1.83-14.17,2.31-.46.05-.9.19-1.31.4-.23.14-.49.22-.76.24-.24,0-.44-.16-.56-.56-.4-1.33-.72-2.69-.95-4.06,1.04,0,1.95-.04,2.94-.12,2.4-7.9,4.23-15.96,5.49-24.12.32-1.64.49-3.31.51-4.98,1.46.2,2.91.49,4.34.88.44.12.76.32.76.64-.01.29-.11.57-.28.8-.39.63-.64,1.33-.72,2.07-1.49,8.2-3.4,16.31-5.73,24.31,2.91-.36,6.09-.84,9.23-1.39-1.02-2.78-2.17-5.5-3.46-8.16-.2-.4-.16-.48.4-.72l2.51-1.04Z"/><path id="_パス_64" class="cls-1" d="m190.34,27.74c.6,1.51,1.79,2.72,3.3,3.34,1.39.56,3.86.76,7.32.76,5.13,0,11.18-.32,17.11-.92-.59.96-.95,2.03-1.07,3.14-.16,1.27-.2,1.27-1.47,1.35-5.05.24-9.79.36-13.93.36s-7.64-.24-9.27-1.07c-1.67-.82-3.1-2.07-4.14-3.62-1.23,1.19-2.75,2.51-4.02,3.54-.32.21-.59.48-.8.8-.14.31-.5.44-.81.3-.17-.08-.3-.24-.34-.42-.62-1.21-1.16-2.46-1.63-3.74.81-.35,1.6-.77,2.35-1.23,1.25-.75,2.42-1.61,3.5-2.59v-8.8h-1.95c-2.15,0-2.71.08-2.9.08-.44,0-.48-.04-.48-.48v-3.03c0-.4.04-.44.48-.44.2,0,.76.08,2.9.08h2.51c2.11,0,2.75-.08,2.98-.08.4,0,.44.04.44.44,0,.24-.08,1.35-.08,3.78v8.44Zm-5.85-26.26c.24-.16.36-.24.48-.24.15.02.29.09.4.2,1.91,1.76,3.58,3.75,4.97,5.93.24.32.2.4-.24.72l-2.27,1.91c-.24.2-.36.28-.48.28-.16,0-.24-.12-.36-.32-1.35-2.27-2.98-4.35-4.85-6.21-.32-.28-.24-.4.2-.72l2.15-1.55Zm13.09,7.12c-4.14,0-5.49.08-5.73.08-.4,0-.44-.04-.44-.48v-2.59c0-.44.04-.48.44-.48.24,0,1.59.08,5.73.08h.44c-.52-1.31-1.22-2.54-2.07-3.66-.28-.36-.16-.52.36-.68l2.71-.72c.48-.12.56-.08.84.16.83,1.03,1.51,2.17,2.03,3.38.2.4.04.52-.36.68l-2.35.84h6.29c.59-1.01,1.11-2.06,1.55-3.14.29-.67.52-1.36.68-2.07,1.29.22,2.56.51,3.82.88.32.12.52.28.52.56s-.16.44-.4.64c-.3.21-.54.48-.72.8-.44.72-.92,1.51-1.51,2.35h1.27c3.86,0,5.21-.08,5.45-.08.44,0,.48.04.48.48v2.59c0,.44-.04.48-.48.48-.24,0-1.59-.08-5.45-.08h-5.25c-.31.79-.65,1.56-1.03,2.31h3.78c3.54,0,4.81-.08,5.01-.08.44,0,.48.04.48.44,0,.24-.08,1.47-.08,4.34v9.47c0,2.83.08,3.9.08,4.14,0,.44-.04.48-.48.48-.2,0-1.47-.08-5.01-.08h-8.52c-3.54,0-4.81.08-5.05.08-.44,0-.48-.04-.48-.48,0-.24.08-1.31.08-4.14v-9.48c0-2.86-.08-4.1-.08-4.34,0-.4.04-.44.48-.44.24,0,1.51.08,5.05.08h.8c.35-.75.65-1.52.92-2.31h-3.78Zm.44,7.64h11.74v-2.27h-11.74v2.27Zm11.74,5.05v-2.23h-11.74v2.23h11.74Zm0,2.79h-11.74v2.39h11.74v-2.39Z"/><path id="_パス_65" class="cls-1" d="m225.07,12.23c-.12,0-.13-.01-.13-.13,0-.09.02-.91.02-4.69v-2.39c0-2.42-.02-3.26-.02-3.34,0-.13.01-.15.13-.15.08,0,.47.02,1.6.02h6.76c1.12,0,1.51-.02,1.58-.02.13,0,.15.01.15.15,0,.07-.02.92-.02,2.91v2.82c0,3.77.02,4.6.02,4.68,0,.12-.01.13-.15.13h-.97c-.12,0-.13-.01-.13-.13v-.48h-7.72v.5c0,.12-.01.13-.13.13h-.98Zm1.11-1.71h7.72V2.66h-7.72v7.87Zm4.91-4.43c1.02,0,1.36-.02,1.44-.02.12,0,.13.01.13.13,0,.07-.02.2-.02.62v.47c0,.17,0,.33.01.49.05-.07.09-.14.13-.22.24.14.47.3.7.47.06.03.09.09.1.16,0,.07-.05.12-.13.15-.11.05-.2.12-.29.2-.22.17-.44.33-.68.5.38.17.78.31,1.19.42-.17.18-.32.37-.44.59-.11.19-.16.28-.26.28-.1-.02-.19-.05-.28-.1-.86-.36-1.63-.9-2.27-1.58.01.76.04,1.43.04,1.55s-.01.13-.15.13h-.8c-.12,0-.13-.01-.13-.13s.01-.73.02-1.43c-.62.6-1.34,1.08-2.14,1.41-.08.04-.17.07-.26.08-.08,0-.13-.07-.23-.24-.12-.23-.27-.43-.45-.62,1-.27,1.94-.75,2.76-1.4h-.11c-1.02,0-1.36.02-1.45.02-.12,0-.13-.01-.13-.13,0-.08.02-.22.02-.62v-.47c0-.41-.02-.53-.02-.62,0-.12.01-.13.13-.13.08,0,.44.02,1.45.02h2.11Zm-2.79-.45c-1.16,0-1.54.02-1.62.02-.12,0-.13-.01-.13-.15v-.56c0-.12.01-.13.13-.13.08,0,.46.02,1.62.02h1.1v-.49h-.56c-1.06,0-1.41.02-1.49.02-.13,0-.15-.01-.15-.13v-.58c0-.12.01-.13.15-.13.07,0,.42.02,1.49.02h.56c0-.24-.03-.48-.06-.71.41.01.81.05,1.1.09.16.02.2.06.2.12,0,.07-.03.13-.07.18-.04.1-.05.22-.05.33h.74c1.07,0,1.43-.02,1.5-.02.12,0,.13.01.13.13v.58c0,.12-.01.13-.13.13-.07,0-.42-.02-1.5-.02h-.74v.49h1.27c1.15,0,1.53-.02,1.61-.02.12,0,.13.01.13.13v.56c0,.13-.01.15-.13.15-.07,0-.46-.02-1.61-.02h-3.49Zm3.25,1.15h-3.04v.54h3.05v-.54Zm-.68,1.22c.25.24.52.45.81.63.26-.18.5-.38.74-.6-.17-.01-.56-.02-1.33-.02h-.22Z"/><path id="_パス_66" class="cls-1" d="m246.58,9.22c0,.56.01,1.07.01,1.46,0,.62-.08.97-.39,1.21-.46.25-1,.35-1.52.28-.22.03-.43-.13-.46-.35,0,0,0,0,0-.01-.05-.31-.17-.61-.34-.88.38.06.77.09,1.16.09.27,0,.38-.05.38-.39v-3.71h-4.7v1.42c0,1.18.02,1.76.02,1.84,0,.12-.01.13-.13.13h-.72c-.12,0-.13-.01-.13-.13v-.51h-1.99v1.01c0,.12-.01.13-.13.13h-.76c-.13,0-.15-.01-.15-.13,0-.07.02-.69.02-1.92v-3.53c0-.76-.01-1.18-.06-1.73.27.01.77.04,1.03.06.12.01.16.09.16.13,0,.07-.03.14-.05.21-.07.38-.09.77-.06,1.16v3.49h.47V3.05c0-.59-.02-1.17-.07-1.75.34.01.76.04,1.05.07.12.01.18.07.18.15-.02.11-.05.21-.08.31-.05.4-.07.81-.05,1.21v5.51h.49v-3.34c.02-.57-.01-1.15-.08-1.72.33,0,.67.03,1,.07.11.02.17.07.17.12-.01.1-.03.19-.06.29-.06.37-.08.74-.06,1.11v.73h5c1.16,0,1.56-.02,1.63-.02.11,0,.12.01.12.13v.88c0,.12-.01.13-.12.13-.05,0-.28-.01-.77-.01v2.3h.01Zm-1.87-5.86c.6.74,1.48,1.2,2.43,1.28-.19.21-.34.46-.44.73-.1.24-.12.33-.23.33-.1,0-.19-.03-.28-.07-.95-.28-1.77-.89-2.3-1.73-.46.79-1.19,1.39-2.06,1.69-.09.05-.18.08-.28.09-.1,0-.16-.09-.27-.3-.11-.24-.28-.45-.48-.62.89-.14,1.67-.64,2.16-1.39h-.23c-1.07,0-1.43.02-1.5.02-.13,0-.15-.01-.15-.13v-.72c0-.13.01-.15.15-.15.07,0,.42.02,1.5.02h.52c.07-.41.08-.83.04-1.24.44.02.75.05,1.11.1.13.02.22.06.22.13,0,.06-.02.12-.05.17-.12.2-.19.43-.19.66l-.02.18h.93c1.07,0,1.44-.02,1.51-.02.13,0,.15.01.15.12v.75c0,.12-.01.13-.15.13-.07,0-.44-.02-1.51-.02h-.59,0Zm-.13,5.75c0,1.09.02,1.32.02,1.39,0,.13-.01.15-.13.15h-.75c-.12,0-.13-.01-.13-.15v-.18h-1.14v.56c0,.12-.01.13-.15.13h-.77c-.11,0-.12-.01-.12-.13,0-.07.02-.31.02-1.64v-.64c0-.64-.02-.91-.02-.99,0-.12.01-.13.12-.13.08,0,.3.02.99.02h.97c.68,0,.9-.02.98-.02.12,0,.13.01.13.13,0,.07-.02.34-.02.81v.7h0Zm-2.13-.71v1.03h1.14v-1.03h-1.14Z"/><path id="_パス_67" class="cls-1" d="m257.34,5.11c.11.61.16,1.23.17,1.85.04,1.25-.34,2.49-1.09,3.49-.72.87-1.81,1.34-2.94,1.26-1.7.04-3.12-1.31-3.16-3.01,0-.13,0-.26.02-.39.02-1.29.41-2.54,1.11-3.61.21-.32.45-.62.72-.88-.4.06-.82.1-1.35.19-.21.04-.39.12-.48.12-.1-.01-.18-.08-.21-.18-.14-.4-.25-.81-.33-1.23.41.05.83.06,1.24.02.53-.04,1.06-.11,1.58-.21.3-.02.59-.11.85-.25.05-.05.12-.09.19-.1.07,0,.13.04.17.1.2.19.37.41.51.64.06.08.1.18.11.28,0,.1-.06.17-.19.24-.44.28-.83.64-1.15,1.05-.91.99-1.44,2.28-1.49,3.63,0,1.55.77,2.25,1.81,2.25.87.06,1.7-.36,2.16-1.1.55-1,.81-2.14.75-3.29,0-.61-.02-1.21-.07-1.81-.02-.25-.06-.48-.08-.63s-.07-.3-.13-.5-.06-.27.12-.33c.3-.1.6-.17.91-.23.1-.02.16.05.18.13.23.62.5,1.23.81,1.81.53,1,1.2,1.93,1.98,2.74.04.04.07.1.07.16,0,.07-.04.14-.08.19-.2.27-.42.53-.66.76-.03.04-.08.06-.13.06-.09,0-.16-.06-.19-.15-.69-.96-1.25-2.01-1.67-3.12l-.06.02h0Z"/><path id="_パス_68" class="cls-1" d="m264.83,6.23c.75-.45,1.6-.68,2.48-.69,1.48-.12,2.78.98,2.9,2.46,0,.09.01.19,0,.28,0,1.97-1.72,3.27-4.69,3.72-.24.05-.35.06-.47-.17-.2-.37-.49-.68-.83-.92,2.93-.37,4.53-1.32,4.53-2.79,0-.99-.74-1.49-1.74-1.49-1.37.06-2.68.61-3.69,1.55-.42.37-.82.77-1.19,1.2-.04.07-.11.12-.19.13-.06,0-.12-.04-.16-.09-.25-.22-.49-.47-.7-.74-.04-.04-.07-.09-.08-.15,0-.06.05-.11.1-.15.88-.81,1.49-1.44,2.21-2.2.69-.75,1.61-1.79,2.79-3.19-.83.17-1.51.31-2.31.48-.16.04-.32.1-.47.16-.08.05-.16.08-.26.08-.08,0-.17-.07-.24-.23-.2-.41-.36-.84-.47-1.28.53,0,1.07-.02,1.6-.07.74-.09,1.68-.22,2.33-.34.23-.02.46-.09.65-.22.06-.05.14-.08.22-.09.08,0,.16.04.22.1.31.23.58.5.81.81.05.06.09.14.09.22-.02.15-.11.28-.26.34-.17.11-.33.24-.47.39-.94.99-1.81,1.85-2.77,2.82l.05.05h0Z"/><path id="_パス_69" class="cls-1" d="m279.38,5.18c.03-.27.02-.55-.01-.82.49.1.96.28,1.4.52.11.06.15.2.1.31,0,0,0,.01-.01.02-.08.15-.15.31-.19.47-.1.51-.22,1.04-.34,1.56.66.34,1.29.72,1.89,1.16.12.07.11.13.07.25-.15.36-.33.7-.52,1.04-.04.06-.07.09-.11.09-.06,0-.11-.04-.15-.09-.49-.43-1.02-.81-1.58-1.14-.51,1.26-1.35,2.36-2.44,3.18-.11.08-.17.13-.24.13-.07,0-.13-.04-.18-.09-.31-.25-.67-.42-1.05-.49,1.24-.77,2.19-1.92,2.71-3.27-.75-.37-1.56-.62-2.39-.74-.35.88-.85,1.7-1.47,2.42-.39.44-.96.68-1.55.66-.81,0-1.46-.66-1.45-1.47,0-.06,0-.12.01-.18,0-1.5,1.55-2.67,3.56-2.67.4-1,.7-1.85,1-2.87-.66.07-1.27.15-1.67.19-.19.02-.37.07-.55.13-.07.03-.14.04-.22.05-.09,0-.16-.05-.19-.13-.16-.43-.27-.87-.35-1.32.35.07.71.09,1.06.07.63,0,1.25-.06,1.87-.16.21-.02.41-.09.59-.21.05-.03.1-.05.16-.05.06,0,.12.01.17.05.3.18.58.41.82.66.06.05.1.13.11.21,0,.07-.05.13-.12.21-.15.18-.26.4-.33.63-.31.82-.65,1.76-1.02,2.63.8.1,1.59.31,2.34.6.12-.51.2-1.03.25-1.56h0Zm-6.38,3.37c0,.39.13.56.42.56.29-.04.55-.21.7-.46.34-.46.64-.95.88-1.48-1.23.05-2.01.69-2.01,1.38h0Z"/><path id="_パス_70" class="cls-1" d="m285.54,2.6c.05-.39.04-.78-.02-1.17.49.04.98.12,1.45.25.16.05.24.12.24.22-.01.07-.04.14-.08.19-.1.13-.17.29-.21.45-.06.33-.11.57-.17.99.76-.11,1.52-.26,2.27-.45.17-.05.23-.04.26.12.05.3.08.59.08.89,0,.13-.04.17-.15.19-1.04.23-1.69.36-2.71.5-.17,1-.34,1.81-.56,2.66.96-.84,2.19-1.29,3.47-1.28,1.35-.14,2.55.85,2.69,2.19,0,.03,0,.06,0,.09.03,1.01-.5,1.95-1.38,2.44-.95.53-2,.86-3.08.97-.3.05-.59.08-.89.08-.12,0-.21-.06-.3-.29-.15-.33-.37-.63-.65-.86,1.19,0,2.36-.23,3.47-.66.93-.39,1.38-.94,1.38-1.7,0-.63-.46-1.15-1.38-1.15-1.23-.01-2.41.54-3.18,1.5-.11.16-.23.3-.34.46-.08.15-.12.19-.23.18-.31-.05-.62-.14-.91-.27-.19-.08-.27-.13-.27-.24,0-.08.02-.16.05-.24.06-.2.11-.39.16-.57.27-1.06.44-1.96.64-3.17-.65.05-1.41.11-2.03.11-.11.01-.21-.06-.23-.17-.04-.15-.12-.65-.17-1.05.94,0,1.69-.04,2.62-.11.06-.42.11-.82.15-1.11h0Z"/><g id="_グループ_1"><path id="_パス_92" class="cls-1" d="m234.67,28.63c-.27.16-.29.2-.16.37.76,1,1.43,2,2.08,3.02-2.02.22-4.2.43-6.28.59.98-2.12,1.88-4.39,2.61-6.34.12-.36.3-.69.53-.98.1-.09.16-.23.16-.37,0-.16-.16-.26-.39-.35-.69-.2-1.39-.35-2.18-.53-.12.73-.31,1.45-.55,2.14-.74,2.25-1.62,4.46-2.63,6.61-.18,0-.39.02-.57.02-.82.04-1.55.06-2.33.04.11.73.28,1.45.49,2.16.06.2.16.33.31.33.13,0,.25-.06.35-.14.24-.14.5-.21.78-.22,3.59-.3,7.3-.71,10.73-1.22.33.61.65,1.22.96,1.86.06.12.1.16.18.16.09-.01.17-.05.25-.1l1.53-.88c.29-.16.29-.2.18-.39-1.25-2.3-2.7-4.49-4.34-6.53-.08-.08-.12-.12-.16-.12-.09.02-.17.05-.24.1l-1.29.78Zm-.47-10.12c-.24.12-.29.14-.2.37,1.47,3.33,3.76,6.22,6.65,8.43.2.16.33.27.43.27.12,0,.22-.14.39-.45.29-.57.68-1.09,1.14-1.53-2.94-1.76-5.26-4.4-6.63-7.55-.1-.2-.14-.22-.41-.1l-1.37.57Zm-10.89,7.4c.46.36.85.81,1.14,1.33.18.31.27.45.39.45.1,0,.25-.1.47-.29,2.57-1.99,4.63-4.56,6-7.51.1-.25.26-.46.47-.63.11-.06.19-.18.18-.31,0-.14-.08-.25-.31-.35-.65-.29-1.33-.53-2.02-.71-.09.46-.23.9-.43,1.33-1.27,2.76-3.32,5.09-5.9,6.69Zm31.52-2.69c.12,2.75.59,5.47,1.41,8.1,1.02,3.02,2.45,4.47,4,4.49,1.2.02,2.06-1.08,2.47-3.69q.08-.63-.51-.96c-.48-.25-.92-.56-1.33-.92-.12,1.86-.37,2.98-.92,2.98-.61,0-1.24-1.18-1.84-3.02-.71-2.26-1.1-4.61-1.16-6.98h2.43c1.86,0,2.49.04,2.61.04.2,0,.22-.02.22-.25v-1.61c0-.22-.02-.25-.22-.25-.12,0-.76.04-2.61.04h-2.51v-.9c-.07-.69-.04-1.38.1-2.06.06-.13.11-.28.12-.43,0-.12-.12-.22-.33-.25-.69-.08-1.49-.1-2.22-.12.13.97.18,1.94.16,2.92,0,.29.02.57.02.84h-7.32c-1.86,0-2.49-.04-2.61-.04-.2,0-.2.02-.2.25v1.61c0,.22,0,.25.2.25.12,0,.75-.04,2.61-.04h7.43Zm-3.33,4.53c1.71,0,2.28.04,2.41.04.22,0,.25-.02.25-.2v-1.53c0-.22-.02-.24-.25-.24-.12,0-.69.04-2.41.04h-3.61c-1.73,0-2.31-.04-2.43-.04-.2,0-.22.02-.22.24v1.53c0,.18.02.2.22.2.12,0,.69-.04,2.43-.04h.69v4.49l-1.96.37c-.64.14-1.3.22-1.96.24.16.71.37,1.57.53,2.06.06.18.16.26.29.26.13-.01.26-.06.37-.14.27-.15.56-.25.86-.31,2.2-.47,5.26-1.31,7.3-1.98q.61-.18.61-.86c0-.41.02-.92.06-1.28-1.22.43-2.63.82-3.98,1.14v-4h.8Zm6.57-9.36c-.2.14-.24.2-.08.37.62.57,1.15,1.22,1.59,1.94.06.1.12.16.18.16.1-.02.19-.06.26-.12l.96-.65c.24-.16.26-.25.14-.41-.5-.7-1.09-1.33-1.75-1.88-.08-.08-.14-.12-.2-.12s-.12.04-.24.12l-.86.59Zm20.26,4.49v-1.94c-.04-.6.01-1.21.16-1.8.05-.12.08-.24.08-.37,0-.16-.08-.26-.37-.33-.79-.17-1.58-.28-2.39-.35.16.92.22,1.86.18,2.8l-.02,2h-4.39v-1.49c-.08-.66-.03-1.32.14-1.96.06-.14.1-.28.12-.43,0-.14-.08-.25-.31-.29-.82-.16-1.65-.27-2.48-.32.19.99.27,1.99.24,3v1.49h-.61c-1.57,0-2.9-.04-3.75-.1.01.66.06,1.32.14,1.98.02.26.08.39.24.39.63-.04,2.26-.1,3.37-.1h.61v.77c0,1.28-.04,2.28-.1,3.35-.02.22.1.27.37.29.58.04,1.17.04,1.75,0,.22-.02.37-.06.35-.29-.06-1.08-.06-2.18-.06-3.39v-.73h4.34c.09,1.81-.33,3.61-1.2,5.2-1.04,1.67-2.61,2.71-5.51,3.61.65.28,1.23.69,1.69,1.22.16.16.26.22.39.22.2-.03.39-.09.57-.18,1.98-.71,3.67-2.04,4.81-3.79,1.08-1.91,1.63-4.09,1.57-6.28h.84c1,0,2.24.02,2.94.02.29.02.33-.06.35-.33.04-.54.04-1.07,0-1.61-.02-.22-.04-.35-.29-.33-.94.04-2.08.06-3.08.06h-.72Zm17.3.96c.84-.81,1.64-1.67,2.39-2.57.36-.42.77-.8,1.22-1.12.16-.09.27-.26.29-.45,0-.12-.06-.24-.16-.31-.72-.53-1.48-1.01-2.26-1.43-.28.78-.71,1.5-1.29,2.1-1.31,1.55-2.77,2.98-4.35,4.26-1.97,1.64-4.13,3.04-6.43,4.18.64.32,1.23.72,1.75,1.2.11.13.26.2.43.2.11,0,.21-.03.31-.08,1.99-1.12,3.87-2.43,5.61-3.92v4.75c0,1.39-.06,2.71-.08,4.18-.02.24.06.33.29.33.68.04,1.36.04,2.04,0,.22,0,.33-.08.31-.35-.04-1.63-.06-2.84-.06-4.24v-6.74Zm15.29-2.83c-.07-.64-.02-1.29.14-1.92.09-.14.15-.3.16-.47,0-.16-.1-.29-.39-.35-.84-.18-1.69-.29-2.55-.33.16,1,.23,2.01.2,3.02v10.04c0,1.31-.02,2.51-.08,4.02,0,.24.1.31.39.31.6.04,1.21.04,1.82,0,.29,0,.39-.06.37-.31-.04-1.47-.08-2.67-.08-4v-4.51c1.9.63,3.7,1.51,5.36,2.61.06.06.14.1.22.1.1,0,.18-.08.26-.22.34-.57.63-1.16.88-1.77.1-.27,0-.41-.22-.53-2.04-1.19-4.22-2.12-6.49-2.77v-2.92Z"/></g></g></svg>