<?xml version="1.0" encoding="UTF-8"?><svg id="_レイヤー_1" xmlns="http://www.w3.org/2000/svg" width="284.53" height="32.96" viewBox="0 0 284.53 32.96"><defs><style>.cls-1{fill:#004097;}.cls-1,.cls-2{stroke-width:0px;}.cls-2{fill:#004098;}</style></defs><g id="_グループ_2"><path id="_パス_59" class="cls-1" d="m16.3,16.71c-5.91,1.48-9.67,2.85-13.05,4-.36.19-.75.33-1.15.42-.38-.1-.68-.39-.79-.76-.5-1.01-.94-2.06-1.31-3.12.87-.23,1.23-.34,2.06-.61,1.35-.6,2.63-1.36,3.81-2.25,3.96-3.1,7.73-6.43,11.3-9.97-2.42.65-4.56,1.03-7.06,1.48-.6.11-.91.15-1.51.3-.35.18-.72.31-1.11.38-.36,0-.67-.34-.95-.84-.59-1.21-1.07-2.47-1.43-3.77,1.3.12,2.62.15,3.92.08,2.66-.19,5.55-.65,9.04-1.14.74-.07,1.45-.29,2.1-.65.22-.17.48-.26.75-.27.36,0,.6.19,1.07.57.71.56,1.36,1.2,1.94,1.9.28.29.45.67.48,1.07,0,.38-.24.65-.71.88-.58.32-1.13.71-1.63,1.14-4.12,3.5-7.49,6.32-12.01,9.59l.08.11c6.28-1.78,12.66-3.18,19.11-4.19.52-.08.67.19.75.61.25,1.01.39,2.04.44,3.08.04.38-.2.49-.64.53-2.5.08-4.98.49-7.38,1.22-4.6,1.52-6.78,4.23-6.78,6.97,0,3.65,4.16,4.76,9.91,4.76.4,0,.64.19.6.68-.08.95-.4,2.51-.52,3.2-.08.61-.32.84-.87.84-.88-.03-1.75-.1-2.62-.23-7.45-.72-10.71-4-10.71-8.6.19-3.13,2.03-5.93,4.84-7.35v-.08h0Z"/><path id="_パス_60" class="cls-1" d="m51.78,7.58c-.91,6.47-2.58,12.41-4.96,16.4-1.7,2.85-3.77,4.38-6.74,4.38-3.49,0-7.02-3.58-7.02-9.78.07-3.77,1.69-7.35,4.48-9.9,3.46-3.29,8.11-5.05,12.89-4.87,9.52,0,15.11,5.63,15.11,13.21,0,7.08-4.16,11.53-12.21,13.86-.83.23-1.19.08-1.7-.68-.73-1-1.68-1.82-2.78-2.4,6.7-1.52,11.98-4.19,11.98-11.38.01-4.87-3.93-8.82-8.79-8.83-.03,0-.06,0-.09,0h-.16,0Zm-11.38,3.69c-1.87,1.88-2.97,4.39-3.09,7.04,0,3.5,1.47,5.44,2.7,5.44,1.03,0,1.9-.49,2.97-2.32,2.16-4.27,3.58-8.88,4.2-13.63-2.57.4-4.95,1.61-6.78,3.47Z"/><path id="_パス_61" class="cls-1" d="m78.75,3.81c-.51-1.12-1.17-2.16-1.98-3.08,1.56-.32,3.13-.52,4.72-.61,1.07,0,1.35.27,1.35.8-.03.36-.01.71.04,1.07.17.65.38,1.28.64,1.9.48,1.14.83,2.05,1.35,3.08,2.81-.6,5.58-1.39,8.29-2.36.4-.19.52-.15.75.27.42.94.76,1.92.99,2.93.12.38-.04.57-.32.65-2.58.9-5.22,1.64-7.89,2.21,1.7,2.9,3.74,5.6,6.07,8.03.33.3.67.58,1.03.84.24.19.4.3.4.49-.01.23-.1.46-.24.65-.43.87-.95,1.7-1.55,2.47-.32.42-.52.57-.79.57-.2,0-.32-.08-.64-.3-.52-.37-1.06-.7-1.63-.99-2.61-1.29-5.49-1.96-8.41-1.94-4.12,0-6.62,1.18-6.62,3.58,0,2.85,3.61,4.04,9.83,4.04,2.13-.01,4.25-.19,6.34-.53-.15,1.38-.43,2.74-.83,4.07-.12.38-.28.46-.75.53-1.46.18-2.93.26-4.4.27-9.36,0-14.39-2.85-14.39-7.88,0-4.34,3.89-7.38,10.43-7.38,2.39-.06,4.78.28,7.06,1.03-2.08-1.93-3.81-4.21-5.11-6.74-2.5.42-4.8.72-7.65.95-1.07.08-2.9.19-3.89.19-.36,0-.52-.23-.64-.68-.37-1.12-.68-2.27-.91-3.43,2.02.08,3.65.04,4.96-.04,2.1-.12,4.19-.37,6.27-.72-.67-1.37-1.23-2.47-1.86-3.92h0Z"/><path id="_パス_62" class="cls-1" d="m107.77,3.16c-.34-.88-.81-1.7-1.39-2.44,1.59-.27,3.19-.41,4.8-.42.56,0,.87.3.87.68,0,.23-.08.49-.08.72.02.38.07.77.16,1.14.28.99.4,1.33.64,1.98,2.74-.5,5.44-1.17,8.09-2.02.36-.15.56-.11.67.19.24.72.52,1.79.67,2.55.06.32-.15.62-.46.68,0,0,0,0-.01,0-2.66.8-5.08,1.37-7.77,1.94.36.95.87,2.13,1.39,3.2,2.45-.47,4.87-1.13,7.22-1.98.4-.19.6-.11.71.23.32.81.55,1.65.71,2.51.08.34.08.53-.32.68-2.19.78-4.43,1.4-6.7,1.87,1.4,2.44,3.15,4.66,5.19,6.59.4.34.4.49.2.91-.44.85-.98,1.65-1.63,2.36-.24.27-.4.38-.64.38-.2-.02-.4-.1-.56-.23-.72-.51-1.51-.92-2.34-1.22-2.38-.88-4.91-1.29-7.45-1.22-3.73,0-5.91,1.1-5.91,2.89,0,2.47,3.37,3.27,9.44,3.27,1.47,0,2.93-.15,4.36-.23.4,0,.52.19.48.49-.18,1.17-.44,2.33-.79,3.46-.12.38-.28.53-.83.57-.91.08-1.86.11-2.85.11-9.12,0-13.96-2.47-13.96-7.16,0-4.07,3.65-6.62,9.83-6.62,2.31-.1,4.62.22,6.82.95-1.19-1.43-2.29-2.93-3.29-4.49-3.6.58-7.22.96-10.86,1.14-.34.05-.66-.19-.71-.53,0,0,0,0,0,0-.33-1.02-.57-2.06-.71-3.12,3.57-.05,7.14-.37,10.67-.95-.4-.8-.99-2.09-1.51-3.16-3.19.52-6.41.83-9.63.91-.48,0-.71-.15-.79-.53-.12-.42-.4-1.83-.64-3.04,3.3.02,6.6-.18,9.87-.61-.32-.88-.56-1.52-.95-2.47h0Z"/><path id="_パス_63" class="cls-1" d="m131.6,4.96c-2.46,0-3.24.07-3.46.07-.39,0-.43-.04-.43-.39v-2.6c0-.36.04-.39.43-.39.21,0,1,.07,3.46.07h4.7c1.96,0,2.78-.07,2.99-.07.39,0,.43.04.43.39,0,.21-.07,1.18-.07,3.24v3.71c0,2.07.07,2.99.07,3.21,0,.36-.04.39-.43.39-.21,0-1.03-.07-2.99-.07h-4.17c-.18,1.43-.36,2.78-.61,4.14h4.53c1.96,0,2.53-.07,2.74-.07.36,0,.43.07.43.46-.07.86-.07,1.71-.14,2.53-.36,5.42-1.14,8.88-1.71,10.23-.75,1.75-2.03,2.6-4.6,2.6-.68,0-1.25,0-1.85-.04-.71-.04-.78-.11-1-1.21-.17-.87-.43-1.72-.78-2.53,1.06.13,2.14.21,3.21.21.93,0,1.35-.21,1.68-.78.54-.96,1.07-2.92,1.46-8.3h-4.56l-.36,1.64c-.05.31-.67.39-1.85.25-1.16-.17-1.72-.4-1.68-.71.72-2.92,1.25-5.89,1.6-8.88.12-.73.17-1.47.14-2.21,0-.39.14-.5.5-.5.21,0,1.18.07,2.82.07h3.96v-4.45h-4.45,0Zm21.03,11.65c.43-.18.5-.18.68.18,2.19,4.28,4,8.74,5.42,13.33.07.43.04.46-.43.68l-2.64,1.1c-.43.18-.5.18-.61-.21l-.85-2.99c-4.42.86-8.88,1.64-12.69,2.07-.41.04-.81.16-1.18.36-.21.12-.44.2-.68.21-.21,0-.39-.14-.5-.5-.36-1.19-.64-2.41-.85-3.64.93,0,1.75-.04,2.64-.11,2.15-7.07,3.79-14.29,4.92-21.6.28-1.47.44-2.96.46-4.45,1.31.18,2.61.44,3.89.78.39.11.68.29.68.57-.01.26-.1.5-.25.71-.35.56-.57,1.2-.64,1.85-1.33,7.35-3.04,14.62-5.13,21.79,2.6-.32,5.45-.75,8.27-1.25-.91-2.49-1.94-4.93-3.1-7.31-.18-.36-.14-.43.36-.64l2.24-.93Z"/><path id="_パス_64" class="cls-1" d="m170.48,24.85c.54,1.36,1.61,2.44,2.96,2.99,1.25.5,3.46.68,6.56.68,4.6,0,10.02-.29,15.33-.82-.53.86-.85,1.82-.96,2.82-.14,1.14-.18,1.14-1.32,1.21-4.53.21-8.77.32-12.47.32s-6.84-.21-8.3-.96c-1.5-.74-2.78-1.86-3.71-3.24-1.1,1.07-2.46,2.25-3.6,3.17-.28.19-.52.43-.71.71-.12.28-.45.4-.73.27-.16-.07-.27-.21-.31-.38-.55-1.09-1.04-2.21-1.46-3.35.73-.31,1.43-.68,2.1-1.1,1.12-.67,2.17-1.44,3.14-2.32v-7.88h-1.75c-1.93,0-2.42.07-2.6.07-.39,0-.43-.04-.43-.43v-2.71c0-.36.04-.39.43-.39.18,0,.68.07,2.6.07h2.25c1.89,0,2.46-.07,2.67-.07.36,0,.39.04.39.39,0,.21-.07,1.21-.07,3.39v7.55Zm-5.24-23.52c.21-.14.32-.21.43-.21.13.02.26.08.36.18,1.71,1.57,3.2,3.36,4.45,5.31.21.29.18.36-.21.64l-2.03,1.71c-.21.18-.32.25-.43.25-.14,0-.21-.11-.32-.29-1.21-2.03-2.67-3.9-4.35-5.56-.29-.25-.21-.36.18-.64l1.93-1.39Zm11.73,6.38c-3.71,0-4.92.07-5.13.07-.36,0-.39-.04-.39-.43v-2.32c0-.39.04-.43.39-.43.21,0,1.43.07,5.13.07h.39c-.47-1.17-1.09-2.27-1.85-3.28-.25-.32-.14-.46.32-.61l2.42-.64c.43-.11.5-.07.75.14.74.92,1.35,1.94,1.82,3.03.18.36.04.46-.32.61l-2.1.75h5.63c.53-.91.99-1.85,1.39-2.82.26-.6.46-1.22.61-1.85,1.15.2,2.3.46,3.42.78.29.11.46.25.46.5s-.14.39-.36.57c-.27.18-.49.43-.64.71-.39.64-.82,1.35-1.35,2.1h1.14c3.46,0,4.67-.07,4.88-.07.39,0,.43.04.43.43v2.32c0,.39-.04.43-.43.43-.21,0-1.43-.07-4.88-.07h-4.7c-.27.7-.58,1.39-.93,2.07h3.39c3.17,0,4.31-.07,4.49-.07.39,0,.43.04.43.39,0,.21-.07,1.32-.07,3.89v8.48c0,2.53.07,3.49.07,3.71,0,.39-.04.43-.43.43-.18,0-1.32-.07-4.49-.07h-7.63c-3.17,0-4.31.07-4.53.07-.39,0-.43-.04-.43-.43,0-.21.07-1.18.07-3.71v-8.48c0-2.57-.07-3.67-.07-3.89,0-.36.04-.39.43-.39.21,0,1.35.07,4.53.07h.71c.31-.67.58-1.36.82-2.07h-3.39Zm.39,6.84h10.52v-2.03h-10.52v2.03Zm10.52,4.53v-2h-10.52v2h10.52Zm0,2.49h-10.52v2.14h10.52v-2.14Z"/><path id="_パス_65" class="cls-1" d="m201.59,10.95c-.11,0-.12-.01-.12-.12,0-.08.02-.81.02-4.2v-2.14c0-2.16-.02-2.92-.02-2.99,0-.12.01-.13.12-.13.07,0,.42.02,1.43.02h6.05c1.01,0,1.35-.02,1.42-.02.12,0,.13.01.13.13,0,.07-.02.82-.02,2.61v2.52c0,3.38.02,4.12.02,4.19,0,.11-.01.12-.13.12h-.87c-.11,0-.12-.01-.12-.12v-.43h-6.92v.45c0,.11-.01.12-.12.12h-.88,0Zm1-1.53h6.92V2.38h-6.92v7.05Zm4.4-3.97c.91,0,1.22-.02,1.29-.02.11,0,.12.01.12.12,0,.07-.02.18-.02.55v.42c0,.15,0,.3.01.44.04-.06.08-.13.12-.2.22.13.43.27.63.42.05.03.08.08.09.14,0,.07-.04.11-.12.13-.1.05-.18.11-.26.18-.19.15-.39.29-.61.45.34.15.7.28,1.06.38-.15.16-.29.34-.39.53-.1.17-.14.25-.23.25-.09-.01-.17-.04-.25-.09-.77-.33-1.46-.81-2.04-1.42.01.68.03,1.28.03,1.39s-.01.12-.13.12h-.71c-.11,0-.12,0-.12-.12s.01-.65.02-1.28c-.55.54-1.2.97-1.92,1.27-.07.04-.15.06-.23.07-.07,0-.12-.07-.2-.22-.11-.2-.24-.39-.4-.55.9-.25,1.74-.67,2.47-1.26h-.1c-.91,0-1.22.02-1.3.02-.11,0-.12-.01-.12-.12,0-.07.02-.2.02-.55v-.42c0-.37-.02-.48-.02-.55,0-.11.01-.12.12-.12.08,0,.39.02,1.3.02h1.88,0Zm-2.5-.4c-1.04,0-1.38.02-1.45.02-.11,0-.12-.01-.12-.13v-.5c0-.11.01-.12.12-.12.07,0,.41.02,1.45.02h.98v-.44h-.5c-.95,0-1.27.02-1.33.02-.12,0-.13,0-.13-.12v-.52c0-.11.01-.12.13-.12.06,0,.38.02,1.33.02h.5c0-.21-.02-.43-.06-.64.37.01.73.04.99.08.14.02.18.05.18.11,0,.06-.03.11-.06.16-.03.09-.05.19-.04.29h.66c.96,0,1.28-.02,1.34-.02.11,0,.12,0,.12.12v.52c0,.11-.01.12-.12.12-.06,0-.38-.02-1.34-.02h-.66v.44h1.14c1.03,0,1.37-.02,1.44-.02.11,0,.12.01.12.12v.5c0,.12-.01.13-.12.13-.06,0-.41-.02-1.44-.02h-3.13Zm2.91,1.03h-2.73v.49h2.73v-.49Zm-.61,1.09c.22.21.47.4.73.56.23-.17.45-.35.66-.54-.15-.01-.5-.02-1.19-.02h-.19Z"/><path id="_パス_66" class="cls-1" d="m220.86,8.26c0,.5.01.96.01,1.31,0,.55-.07.87-.35,1.08-.42.23-.89.32-1.36.25-.2.03-.38-.11-.41-.31,0,0,0,0,0-.01-.05-.28-.15-.55-.3-.79.34.05.69.08,1.04.08.24,0,.34-.04.34-.35v-3.32h-4.21v1.27c0,1.06.02,1.58.02,1.65,0,.11-.01.12-.12.12h-.65c-.11,0-.12-.01-.12-.12v-.46h-1.79v.91c0,.11-.01.12-.12.12h-.68c-.12,0-.13-.01-.13-.12,0-.07.02-.62.02-1.72v-3.16c0-.68-.01-1.06-.06-1.55.24.01.69.03.92.05.11.01.14.08.14.12,0,.06-.02.12-.04.18-.06.34-.08.69-.06,1.04v3.13h.42V2.73c0-.52-.01-1.05-.06-1.57.3.01.68.03.94.07.11.01.16.07.16.13-.02.1-.04.19-.07.28-.05.36-.06.72-.04,1.08v4.94h.44v-2.99c.02-.51,0-1.03-.07-1.54.3,0,.6.03.9.07.1.02.15.07.15.11-.01.09-.03.17-.06.26-.06.33-.07.67-.06,1v.65h4.48c1.04,0,1.4-.02,1.46-.02.1,0,.11.01.11.12v.79c0,.11-.01.12-.11.12-.04,0-.25-.01-.69-.01v2.06h0Zm-1.68-5.25c.54.66,1.32,1.07,2.18,1.15-.17.19-.31.41-.39.65-.09.22-.11.29-.2.29-.09,0-.17-.03-.25-.07-.85-.25-1.58-.8-2.06-1.55-.42.71-1.07,1.24-1.84,1.52-.08.04-.16.07-.25.08-.09,0-.14-.08-.24-.27-.1-.21-.25-.4-.43-.55.79-.12,1.5-.57,1.94-1.24h-.2c-.96,0-1.28.02-1.34.02-.12,0-.13-.01-.13-.12v-.65c0-.12.01-.13.13-.13.06,0,.38.02,1.34.02h.46c.06-.37.07-.74.03-1.11.39.02.67.04,1,.09.12.02.19.05.19.12,0,.05-.02.11-.04.15-.11.18-.17.38-.17.6l-.02.16h.83c.96,0,1.29-.02,1.35-.02.12,0,.13.01.13.11v.67c0,.11-.01.12-.13.12-.06,0-.39-.02-1.35-.02h-.54Zm-.12,5.15c0,.97.02,1.18.02,1.24,0,.12-.01.13-.12.13h-.67c-.11,0-.12-.01-.12-.13v-.16h-1.02v.5c0,.11-.01.12-.13.12h-.69c-.1,0-.11-.01-.11-.12,0-.07.02-.28.02-1.47v-.57c0-.57-.02-.81-.02-.89,0-.11.01-.12.11-.12.08,0,.27.02.89.02h.87c.61,0,.8-.02.88-.02.11,0,.12,0,.12.12,0,.07-.02.3-.02.73v.63h0Zm-1.91-.64v.92h1.02v-.92h-1.02Z"/><path id="_パス_67" class="cls-1" d="m230.5,4.58c.1.55.15,1.1.15,1.66.04,1.12-.3,2.23-.97,3.13-.64.78-1.62,1.2-2.63,1.13-1.53.04-2.79-1.17-2.83-2.7,0-.11,0-.23.01-.34.02-1.15.37-2.27,1-3.24.19-.29.4-.55.65-.79-.36.05-.74.09-1.21.17-.19.03-.35.11-.43.11-.09-.01-.16-.08-.19-.16-.13-.36-.22-.73-.29-1.1.37.05.74.05,1.11.02.48-.04.95-.1,1.42-.18.27-.02.52-.1.76-.23.05-.04.11-.07.17-.09.06,0,.12.04.15.09.18.17.33.36.45.57.05.07.09.16.1.25,0,.09-.06.15-.17.22-.39.25-.74.57-1.03.94-.82.89-1.29,2.04-1.33,3.25,0,1.39.69,2.01,1.62,2.01.78.05,1.52-.33,1.94-.99.5-.9.73-1.92.67-2.95,0-.54-.01-1.08-.06-1.62-.02-.23-.06-.43-.08-.56s-.06-.27-.12-.45-.06-.24.11-.29c.27-.08.54-.15.81-.2.09-.02.14.04.16.12.21.56.45,1.1.73,1.62.47.9,1.07,1.72,1.78,2.46.04.04.06.09.06.14,0,.06-.03.12-.07.17-.18.24-.38.47-.59.68-.03.03-.07.05-.12.05-.08,0-.15-.06-.17-.13-.62-.86-1.12-1.8-1.49-2.79l-.06.02h0Z"/><path id="_パス_68" class="cls-1" d="m237.2,5.58c.67-.4,1.44-.61,2.22-.62,1.33-.11,2.49.88,2.6,2.21,0,.08,0,.17,0,.25,0,1.76-1.54,2.93-4.2,3.34-.22.04-.31.05-.42-.15-.18-.33-.44-.61-.75-.82,2.62-.34,4.06-1.18,4.06-2.5,0-.89-.66-1.33-1.56-1.33-1.23.05-2.4.54-3.3,1.39-.38.33-.73.69-1.06,1.07-.04.06-.1.1-.17.12-.06,0-.11-.03-.14-.08-.23-.2-.44-.42-.63-.66-.04-.04-.06-.08-.08-.13,0-.05.04-.1.09-.13.79-.73,1.33-1.29,1.98-1.97.62-.67,1.44-1.6,2.5-2.86-.75.15-1.35.28-2.07.43-.14.04-.28.09-.42.14-.07.04-.15.07-.23.07-.07,0-.15-.07-.22-.2-.18-.37-.32-.75-.42-1.15.48,0,.95-.02,1.43-.07.66-.08,1.5-.2,2.09-.3.21-.01.41-.08.58-.2.06-.05.13-.07.2-.08.07,0,.14.04.19.09.28.2.52.45.72.73.05.05.08.12.08.2-.02.13-.1.25-.23.3-.15.1-.29.22-.42.35-.84.89-1.62,1.66-2.48,2.52l.04.04h0Z"/><path id="_パス_69" class="cls-1" d="m250.24,4.64c.02-.25.02-.49-.01-.74.44.09.86.25,1.26.46.1.05.14.17.09.27,0,0,0,.02-.01.02-.07.13-.13.27-.17.42-.09.46-.19.93-.3,1.4.59.3,1.15.65,1.69,1.04.11.07.1.12.06.23-.14.32-.29.63-.47.93-.03.05-.06.08-.1.08-.05,0-.1-.04-.13-.08-.44-.39-.91-.73-1.42-1.02-.45,1.13-1.21,2.12-2.19,2.85-.1.07-.15.12-.22.12-.06,0-.12-.03-.16-.08-.27-.22-.6-.37-.94-.44,1.11-.69,1.96-1.72,2.43-2.93-.68-.33-1.4-.55-2.14-.66-.31.79-.76,1.52-1.32,2.16-.35.39-.86.61-1.39.6-.72,0-1.3-.59-1.3-1.32,0-.06,0-.11.01-.17,0-1.34,1.39-2.39,3.19-2.39.36-.9.63-1.66.9-2.57-.59.07-1.14.13-1.49.17-.17.02-.33.06-.49.12-.06.03-.13.04-.19.04-.08,0-.15-.05-.17-.12-.14-.38-.25-.78-.31-1.18.31.06.63.08.95.07.56,0,1.12-.06,1.68-.14.19-.02.37-.08.53-.18.04-.03.09-.04.14-.04.05,0,.11.01.15.04.27.17.52.37.74.6.06.04.09.11.1.18,0,.07-.04.12-.11.18-.14.16-.24.36-.29.56-.28.74-.58,1.58-.91,2.36.72.09,1.42.28,2.1.54.11-.46.18-.93.23-1.4h0Zm-5.72,3.02c0,.35.12.5.38.5.26-.04.49-.19.63-.41.31-.41.57-.85.79-1.32-1.1.04-1.8.62-1.8,1.23h0Z"/><path id="_パス_70" class="cls-1" d="m255.75,2.33c.04-.35.04-.7-.02-1.05.44.04.87.11,1.3.23.14.04.22.11.22.2,0,.06-.04.12-.07.17-.09.12-.15.26-.19.4-.06.29-.1.51-.15.89.68-.1,1.36-.23,2.04-.4.15-.04.2-.03.23.11.05.26.07.53.07.8,0,.12-.03.15-.13.17-.93.21-1.52.32-2.43.45-.15.9-.3,1.62-.5,2.38.86-.75,1.97-1.16,3.11-1.15,1.21-.12,2.29.76,2.41,1.97,0,.02,0,.05,0,.07.03.9-.45,1.74-1.23,2.19-.85.47-1.79.77-2.76.87-.26.05-.53.07-.8.07-.11,0-.19-.05-.27-.26-.13-.3-.33-.56-.58-.77,1.06,0,2.12-.2,3.11-.6.83-.35,1.23-.84,1.23-1.53,0-.56-.41-1.03-1.23-1.03-1.1-.01-2.15.48-2.85,1.34-.1.14-.2.27-.3.41-.08.13-.11.17-.2.16-.28-.04-.55-.12-.81-.24-.17-.07-.24-.12-.24-.22,0-.07.02-.15.04-.22.06-.18.1-.35.14-.51.24-.95.39-1.75.57-2.84-.58.04-1.27.1-1.82.1-.1,0-.18-.06-.2-.15-.03-.13-.11-.59-.15-.94.84,0,1.52-.03,2.35-.1.06-.38.1-.74.13-1h-.01Z"/><g id="_グループ_1"><path id="_パス_92" class="cls-2" d="m210.19,25.64c-.24.15-.26.18-.15.33.68.9,1.28,1.79,1.86,2.7-1.81.2-3.76.38-5.63.53.88-1.9,1.68-3.93,2.34-5.68.1-.32.26-.62.48-.88.09-.08.15-.2.15-.33,0-.15-.15-.24-.35-.31-.62-.18-1.24-.31-1.95-.48-.11.65-.27,1.29-.49,1.92-.67,2.02-1.46,3.99-2.36,5.92-.16,0-.35.02-.51.02-.73.04-1.39.06-2.08.04.1.66.25,1.3.44,1.94.06.18.15.29.27.29.11,0,.22-.05.31-.12.21-.12.45-.19.69-.2,3.22-.27,6.54-.64,9.61-1.1.29.55.59,1.1.86,1.66.06.11.09.15.16.15.08-.01.15-.04.22-.09l1.37-.79c.26-.15.26-.18.16-.35-1.12-2.06-2.42-4.02-3.89-5.85-.07-.07-.11-.11-.15-.11-.08.02-.15.05-.22.09l-1.15.69Zm-.42-9.06c-.22.11-.26.13-.18.33,1.32,2.98,3.36,5.57,5.96,7.55.18.15.29.24.38.24.11,0,.2-.13.35-.4.26-.51.61-.98,1.02-1.37-2.64-1.58-4.71-3.94-5.94-6.76-.09-.18-.13-.2-.36-.09l-1.22.51Zm-9.76,6.63c.42.32.76.73,1.02,1.19.16.27.24.4.35.4.09,0,.22-.09.42-.26,2.3-1.78,4.14-4.09,5.37-6.72.09-.22.23-.42.42-.57.1-.05.17-.16.16-.27,0-.13-.07-.22-.27-.31-.58-.26-1.19-.48-1.81-.64-.08.41-.21.81-.38,1.19-1.13,2.47-2.97,4.55-5.28,6Zm28.23-2.41c.11,2.46.53,4.9,1.26,7.25.91,2.7,2.19,4,3.58,4.02,1.08.02,1.85-.97,2.21-3.31q.07-.57-.46-.86c-.43-.22-.83-.5-1.19-.82-.11,1.66-.33,2.67-.82,2.67-.55,0-1.12-1.06-1.64-2.7-.63-2.03-.98-4.13-1.04-6.25h2.17c1.66,0,2.23.04,2.34.04.18,0,.2-.02.2-.22v-1.44c0-.2-.02-.22-.2-.22-.11,0-.68.04-2.34.04h-2.24v-.8c-.06-.62-.03-1.24.09-1.84.06-.12.1-.25.11-.38,0-.11-.11-.2-.29-.22-.62-.07-1.33-.09-1.99-.11.11.87.16,1.74.15,2.61,0,.26.02.51.02.75h-6.56c-1.66,0-2.23-.04-2.34-.04-.18,0-.18.02-.18.22v1.44c0,.2,0,.22.18.22.11,0,.68-.04,2.34-.04h6.65Zm-2.98,4.06c1.53,0,2.05.04,2.16.04.2,0,.22-.02.22-.18v-1.37c0-.2-.02-.22-.22-.22-.11,0-.62.04-2.16.04h-3.23c-1.55,0-2.07-.04-2.17-.04-.18,0-.2.02-.2.22v1.37c0,.16.02.18.2.18.11,0,.62-.04,2.17-.04h.62v4.02l-1.75.33c-.58.12-1.16.2-1.75.22.15.64.33,1.41.48,1.85.06.16.15.24.26.24.12-.01.23-.06.33-.13.24-.13.5-.23.77-.27,1.97-.42,4.71-1.17,6.54-1.77q.55-.16.55-.77c0-.36.02-.82.06-1.15-1.1.38-2.36.73-3.56,1.02v-3.58h.71Zm5.88-8.39c-.18.13-.22.18-.07.33.55.51,1.03,1.09,1.43,1.74.06.09.11.15.16.15.09-.02.17-.05.24-.11l.86-.58c.22-.15.24-.22.13-.36-.45-.63-.97-1.19-1.57-1.68-.07-.07-.13-.11-.18-.11s-.11.04-.22.11l-.77.53Zm18.14,4.02v-1.74c-.04-.54.01-1.08.15-1.61.04-.1.07-.22.07-.33,0-.15-.07-.24-.33-.29-.71-.15-1.42-.25-2.14-.31.14.83.2,1.66.16,2.5l-.02,1.79h-3.93v-1.33c-.07-.59-.03-1.18.13-1.75.06-.12.09-.25.11-.38,0-.13-.07-.22-.27-.26-.74-.14-1.48-.24-2.23-.29.17.89.24,1.79.22,2.69v1.33h-.55c-1.41,0-2.59-.04-3.36-.09.01.59.05,1.18.13,1.77.02.24.07.35.22.35.57-.04,2.03-.09,3.01-.09h.55v.69c0,1.15-.04,2.05-.09,3-.02.2.09.24.33.26.52.04,1.05.04,1.57,0,.2-.02.33-.06.31-.26-.06-.97-.06-1.95-.06-3.03v-.66h3.89c.08,1.62-.3,3.23-1.08,4.66-.93,1.5-2.34,2.43-4.93,3.23.58.25,1.1.62,1.52,1.1.15.15.24.2.35.2.18-.02.35-.08.51-.16,1.77-.63,3.28-1.83,4.31-3.4.97-1.71,1.46-3.66,1.41-5.63h.75c.9,0,2.01.02,2.63.02.26.02.29-.06.31-.29.04-.48.04-.96,0-1.44-.02-.2-.04-.31-.26-.29-.84.04-1.86.06-2.76.06h-.64Zm15.49.86c.75-.73,1.47-1.5,2.14-2.3.32-.38.69-.71,1.1-1,.14-.08.24-.23.26-.4,0-.11-.05-.21-.15-.27-.64-.48-1.32-.9-2.03-1.28-.25.7-.64,1.34-1.15,1.88-1.18,1.39-2.48,2.67-3.89,3.82-1.77,1.47-3.7,2.72-5.76,3.73.57.29,1.1.65,1.57,1.08.1.11.24.18.38.18.1,0,.19-.02.27-.07,1.78-1,3.47-2.18,5.02-3.51v4.26c0,1.24-.06,2.43-.07,3.75-.02.22.06.29.26.29.61.04,1.22.04,1.83,0,.2,0,.29-.07.27-.31-.04-1.46-.06-2.54-.06-3.8v-6.05Zm13.69-2.54c-.06-.58-.02-1.16.13-1.72.08-.13.13-.27.15-.42,0-.15-.09-.26-.35-.31-.75-.16-1.52-.26-2.28-.29.15.89.21,1.8.18,2.7v8.99c0,1.17-.02,2.25-.07,3.6,0,.22.09.27.35.27.54.04,1.08.04,1.63,0,.26,0,.35-.06.33-.27-.04-1.32-.07-2.39-.07-3.58v-4.04c1.7.56,3.31,1.35,4.81,2.34.05.06.12.09.2.09.09,0,.16-.07.24-.2.31-.51.57-1.04.79-1.59.09-.24,0-.36-.2-.48-1.83-1.06-3.78-1.9-5.81-2.48v-2.61Z"/></g></g></svg>