<?xml version="1.0" encoding="UTF-8"?><svg id="_レイヤー_1" xmlns="http://www.w3.org/2000/svg" width="284.53" height="51.17" viewBox="0 0 284.53 51.17"><defs><style>.cls-1{fill:#004097;}.cls-1,.cls-2{stroke-width:0px;}.cls-2{fill:#004098;}</style></defs><path id="_パス_59" class="cls-1" d="m16.3,34.91c-5.91,1.48-9.67,2.85-13.05,4-.36.19-.75.33-1.15.42-.38-.1-.68-.39-.79-.76-.5-1.01-.94-2.06-1.31-3.12.87-.23,1.23-.34,2.06-.61,1.35-.6,2.63-1.36,3.81-2.25,3.96-3.1,7.73-6.43,11.3-9.97-2.42.65-4.56,1.03-7.06,1.48-.6.11-.91.15-1.51.3-.35.18-.72.31-1.11.38-.36,0-.67-.34-.95-.84-.59-1.21-1.07-2.47-1.43-3.77,1.3.12,2.62.15,3.92.08,2.66-.19,5.55-.65,9.04-1.14.74-.07,1.45-.29,2.1-.65.22-.17.48-.26.75-.27.36,0,.6.19,1.07.57.71.56,1.36,1.2,1.94,1.9.28.29.45.67.48,1.07,0,.38-.24.65-.71.88-.58.32-1.13.71-1.63,1.14-4.12,3.5-7.49,6.32-12.01,9.59l.08.11c6.28-1.78,12.66-3.18,19.11-4.19.52-.08.67.19.75.61.25,1.01.39,2.04.44,3.08.04.38-.2.49-.64.53-2.5.08-4.98.49-7.38,1.22-4.6,1.52-6.78,4.23-6.78,6.97,0,3.65,4.16,4.76,9.91,4.76.4,0,.64.19.6.68-.08.95-.4,2.51-.52,3.2-.08.61-.32.84-.87.84-.88-.03-1.75-.1-2.62-.23-7.45-.72-10.71-4-10.71-8.6.19-3.13,2.03-5.93,4.84-7.35v-.08h0Z"/><path id="_パス_60" class="cls-1" d="m51.78,25.78c-.91,6.47-2.58,12.41-4.96,16.4-1.7,2.85-3.77,4.38-6.74,4.38-3.49,0-7.02-3.58-7.02-9.78.07-3.77,1.69-7.35,4.48-9.9,3.46-3.29,8.11-5.05,12.89-4.87,9.52,0,15.11,5.63,15.11,13.21,0,7.08-4.16,11.53-12.21,13.86-.83.23-1.19.08-1.7-.68-.73-1-1.68-1.82-2.78-2.4,6.7-1.52,11.98-4.19,11.98-11.38.01-4.87-3.93-8.82-8.79-8.83-.03,0-.06,0-.09,0h-.16,0Zm-11.38,3.69c-1.87,1.88-2.97,4.39-3.09,7.04,0,3.5,1.47,5.44,2.7,5.44,1.03,0,1.9-.49,2.97-2.32,2.16-4.27,3.58-8.88,4.2-13.63-2.57.4-4.95,1.61-6.78,3.47Z"/><path id="_パス_61" class="cls-1" d="m78.75,22.01c-.51-1.12-1.17-2.16-1.98-3.08,1.56-.32,3.13-.52,4.72-.61,1.07,0,1.35.27,1.35.8-.03.36-.01.71.04,1.07.17.65.38,1.28.64,1.9.48,1.14.83,2.05,1.35,3.08,2.81-.6,5.58-1.39,8.29-2.36.4-.19.52-.15.75.27.42.94.76,1.92.99,2.93.12.38-.04.57-.32.65-2.58.9-5.22,1.64-7.89,2.21,1.7,2.9,3.74,5.6,6.07,8.03.33.3.67.58,1.03.84.24.19.4.3.4.49-.01.23-.1.46-.24.65-.43.87-.95,1.7-1.55,2.47-.32.42-.52.57-.79.57-.2,0-.32-.08-.64-.3-.52-.37-1.06-.7-1.63-.99-2.61-1.29-5.49-1.96-8.41-1.94-4.12,0-6.62,1.18-6.62,3.58,0,2.85,3.61,4.04,9.83,4.04,2.13-.01,4.25-.19,6.34-.53-.15,1.38-.43,2.74-.83,4.07-.12.38-.28.46-.75.53-1.46.18-2.93.26-4.4.27-9.36,0-14.39-2.85-14.39-7.88,0-4.34,3.89-7.38,10.43-7.38,2.39-.06,4.78.28,7.06,1.03-2.08-1.93-3.81-4.21-5.11-6.74-2.5.42-4.8.72-7.65.95-1.07.08-2.9.19-3.89.19-.36,0-.52-.23-.64-.68-.37-1.12-.68-2.27-.91-3.43,2.02.08,3.65.04,4.96-.04,2.1-.12,4.19-.37,6.27-.72-.67-1.37-1.23-2.47-1.86-3.92h0Z"/><path id="_パス_62" class="cls-1" d="m107.77,21.36c-.34-.88-.81-1.7-1.39-2.44,1.59-.27,3.19-.41,4.8-.42.56,0,.87.3.87.68,0,.23-.08.49-.08.72.02.38.07.77.16,1.14.28.99.4,1.33.64,1.98,2.74-.5,5.44-1.17,8.09-2.02.36-.15.56-.11.67.19.24.72.52,1.79.67,2.55.06.32-.15.62-.46.68,0,0,0,0-.01,0-2.66.8-5.08,1.37-7.77,1.94.36.95.87,2.13,1.39,3.2,2.45-.47,4.87-1.13,7.22-1.98.4-.19.6-.11.71.23.32.81.55,1.65.71,2.51.08.34.08.53-.32.68-2.19.78-4.43,1.4-6.7,1.87,1.4,2.44,3.15,4.66,5.19,6.59.4.34.4.49.2.91-.44.85-.98,1.65-1.63,2.36-.24.27-.4.38-.64.38-.2-.02-.4-.1-.56-.23-.72-.51-1.51-.92-2.34-1.22-2.38-.88-4.91-1.29-7.45-1.22-3.73,0-5.91,1.1-5.91,2.89,0,2.47,3.37,3.27,9.44,3.27,1.47,0,2.93-.15,4.36-.23.4,0,.52.19.48.49-.18,1.17-.44,2.33-.79,3.46-.12.38-.28.53-.83.57-.91.08-1.86.11-2.85.11-9.12,0-13.96-2.47-13.96-7.16,0-4.07,3.65-6.62,9.83-6.62,2.31-.1,4.62.22,6.82.95-1.19-1.43-2.29-2.93-3.29-4.49-3.6.58-7.22.96-10.86,1.14-.34.05-.66-.19-.71-.53,0,0,0,0,0,0-.33-1.02-.57-2.06-.71-3.12,3.57-.05,7.14-.37,10.67-.95-.4-.8-.99-2.09-1.51-3.16-3.19.52-6.41.83-9.63.91-.48,0-.71-.15-.79-.53-.12-.42-.4-1.83-.64-3.04,3.3.02,6.6-.18,9.87-.61-.32-.88-.56-1.52-.95-2.47h0Z"/><path id="_パス_63" class="cls-1" d="m131.6,23.16c-2.46,0-3.24.07-3.46.07-.39,0-.43-.04-.43-.39v-2.6c0-.36.04-.39.43-.39.21,0,1,.07,3.46.07h4.7c1.96,0,2.78-.07,2.99-.07.39,0,.43.04.43.39,0,.21-.07,1.18-.07,3.24v3.71c0,2.07.07,2.99.07,3.21,0,.36-.04.39-.43.39-.21,0-1.03-.07-2.99-.07h-4.17c-.18,1.43-.36,2.78-.61,4.14h4.53c1.96,0,2.53-.07,2.74-.07.36,0,.43.07.43.46-.07.86-.07,1.71-.14,2.53-.36,5.42-1.14,8.88-1.71,10.23-.75,1.75-2.03,2.6-4.6,2.6-.68,0-1.25,0-1.85-.04-.71-.04-.78-.11-1-1.21-.17-.87-.43-1.72-.78-2.53,1.06.13,2.14.21,3.21.21.93,0,1.35-.21,1.68-.78.54-.96,1.07-2.92,1.46-8.3h-4.56l-.36,1.64c-.05.31-.67.39-1.85.25-1.16-.17-1.72-.4-1.68-.71.72-2.92,1.25-5.89,1.6-8.88.12-.73.17-1.47.14-2.21,0-.39.14-.5.5-.5.21,0,1.18.07,2.82.07h3.96v-4.45h-4.45,0Zm21.03,11.65c.43-.18.5-.18.68.18,2.19,4.28,4,8.74,5.42,13.33.07.43.04.46-.43.68l-2.64,1.1c-.43.18-.5.18-.61-.21l-.85-2.99c-4.42.86-8.88,1.64-12.69,2.07-.41.04-.81.16-1.18.36-.21.12-.44.2-.68.21-.21,0-.39-.14-.5-.5-.36-1.19-.64-2.41-.85-3.64.93,0,1.75-.04,2.64-.11,2.15-7.07,3.79-14.29,4.92-21.6.28-1.47.44-2.96.46-4.45,1.31.18,2.61.44,3.89.78.39.11.68.29.68.57-.01.26-.1.5-.25.71-.35.56-.57,1.2-.64,1.85-1.33,7.35-3.04,14.62-5.13,21.79,2.6-.32,5.45-.75,8.27-1.25-.91-2.49-1.94-4.93-3.1-7.31-.18-.36-.14-.43.36-.64l2.24-.93Z"/><path id="_パス_64" class="cls-1" d="m170.48,43.05c.54,1.36,1.61,2.44,2.96,2.99,1.25.5,3.46.68,6.56.68,4.6,0,10.02-.29,15.33-.82-.53.86-.85,1.82-.96,2.82-.14,1.14-.18,1.14-1.32,1.21-4.53.21-8.77.32-12.47.32s-6.84-.21-8.3-.96c-1.5-.74-2.78-1.86-3.71-3.24-1.1,1.07-2.46,2.25-3.6,3.17-.28.19-.52.43-.71.71-.12.28-.45.4-.73.27-.16-.07-.27-.21-.31-.38-.55-1.09-1.04-2.21-1.46-3.35.73-.31,1.43-.68,2.1-1.1,1.12-.67,2.17-1.44,3.14-2.32v-7.88h-1.75c-1.93,0-2.42.07-2.6.07-.39,0-.43-.04-.43-.43v-2.71c0-.36.04-.39.43-.39.18,0,.68.07,2.6.07h2.25c1.89,0,2.46-.07,2.67-.07.36,0,.39.04.39.39,0,.21-.07,1.21-.07,3.39v7.55Zm-5.24-23.52c.21-.14.32-.21.43-.21.13.02.26.08.36.18,1.71,1.57,3.2,3.36,4.45,5.31.21.29.18.36-.21.64l-2.03,1.71c-.21.18-.32.25-.43.25-.14,0-.21-.11-.32-.29-1.21-2.03-2.67-3.9-4.35-5.56-.29-.25-.21-.36.18-.64l1.93-1.39Zm11.73,6.38c-3.71,0-4.92.07-5.13.07-.36,0-.39-.04-.39-.43v-2.32c0-.39.04-.43.39-.43.21,0,1.43.07,5.13.07h.39c-.47-1.17-1.09-2.27-1.85-3.28-.25-.32-.14-.46.32-.61l2.42-.64c.43-.11.5-.07.75.14.74.92,1.35,1.94,1.82,3.03.18.36.04.46-.32.61l-2.1.75h5.63c.53-.91.99-1.85,1.39-2.82.26-.6.46-1.22.61-1.85,1.15.2,2.3.46,3.42.78.29.11.46.25.46.5s-.14.39-.36.57c-.27.18-.49.43-.64.71-.39.64-.82,1.35-1.35,2.1h1.14c3.46,0,4.67-.07,4.88-.07.39,0,.43.04.43.43v2.32c0,.39-.04.43-.43.43-.21,0-1.43-.07-4.88-.07h-4.7c-.27.7-.58,1.39-.93,2.07h3.39c3.17,0,4.31-.07,4.49-.07.39,0,.43.04.43.39,0,.21-.07,1.32-.07,3.89v8.48c0,2.53.07,3.49.07,3.71,0,.39-.04.43-.43.43-.18,0-1.32-.07-4.49-.07h-7.63c-3.17,0-4.31.07-4.53.07-.39,0-.43-.04-.43-.43,0-.21.07-1.18.07-3.71v-8.48c0-2.57-.07-3.67-.07-3.89,0-.36.04-.39.43-.39.21,0,1.35.07,4.53.07h.71c.31-.67.58-1.36.82-2.07h-3.39Zm.39,6.84h10.52v-2.03h-10.52v2.03Zm10.52,4.53v-2h-10.52v2h10.52Zm0,2.49h-10.52v2.14h10.52v-2.14Z"/><path id="_パス_65" class="cls-1" d="m201.59,29.15c-.11,0-.12-.01-.12-.12,0-.08.02-.81.02-4.2v-2.14c0-2.16-.02-2.92-.02-2.99,0-.12.01-.13.12-.13.07,0,.42.02,1.43.02h6.05c1.01,0,1.35-.02,1.42-.02.12,0,.13.01.13.13,0,.07-.02.82-.02,2.61v2.52c0,3.38.02,4.12.02,4.19,0,.11-.01.12-.13.12h-.87c-.11,0-.12-.01-.12-.12v-.43h-6.92v.45c0,.11-.01.12-.12.12h-.88,0Zm1-1.53h6.92v-7.05h-6.92v7.05Zm4.4-3.97c.91,0,1.22-.02,1.29-.02.11,0,.12.01.12.12,0,.07-.02.18-.02.55v.42c0,.15,0,.3.01.44.04-.06.08-.13.12-.2.22.13.43.27.63.42.05.03.08.08.09.14,0,.07-.04.11-.12.13-.1.05-.18.11-.26.18-.19.15-.39.29-.61.45.34.15.7.28,1.06.38-.15.16-.29.34-.39.53-.1.17-.14.25-.23.25-.09-.01-.17-.04-.25-.09-.77-.33-1.46-.81-2.04-1.42.01.68.03,1.28.03,1.39s-.01.12-.13.12h-.71c-.11,0-.12,0-.12-.12s.01-.65.02-1.28c-.55.54-1.2.97-1.92,1.27-.07.04-.15.06-.23.07-.07,0-.12-.07-.2-.22-.11-.2-.24-.39-.4-.55.9-.25,1.74-.67,2.47-1.26h-.1c-.91,0-1.22.02-1.3.02-.11,0-.12-.01-.12-.12,0-.07.02-.2.02-.55v-.42c0-.37-.02-.48-.02-.55,0-.11.01-.12.12-.12.08,0,.39.02,1.3.02h1.88,0Zm-2.5-.4c-1.04,0-1.38.02-1.45.02-.11,0-.12-.01-.12-.13v-.5c0-.11.01-.12.12-.12.07,0,.41.02,1.45.02h.98v-.44h-.5c-.95,0-1.27.02-1.33.02-.12,0-.13,0-.13-.12v-.52c0-.11.01-.12.13-.12.06,0,.38.02,1.33.02h.5c0-.21-.02-.43-.06-.64.37.01.73.04.99.08.14.02.18.05.18.11,0,.06-.03.11-.06.16-.03.09-.05.19-.04.29h.66c.96,0,1.28-.02,1.34-.02.11,0,.12,0,.12.12v.52c0,.11-.01.12-.12.12-.06,0-.38-.02-1.34-.02h-.66v.44h1.14c1.03,0,1.37-.02,1.44-.02.11,0,.12.01.12.12v.5c0,.12-.01.13-.12.13-.06,0-.41-.02-1.44-.02h-3.13Zm2.91,1.03h-2.73v.49h2.73v-.49Zm-.61,1.09c.22.21.47.4.73.56.23-.17.45-.35.66-.54-.15-.01-.5-.02-1.19-.02h-.19Z"/><path id="_パス_66" class="cls-1" d="m220.86,26.46c0,.5.01.96.01,1.31,0,.55-.07.87-.35,1.08-.42.23-.89.32-1.36.25-.2.03-.38-.11-.41-.31,0,0,0,0,0-.01-.05-.28-.15-.55-.3-.79.34.05.69.08,1.04.08.24,0,.34-.04.34-.35v-3.32h-4.21v1.27c0,1.06.02,1.58.02,1.65,0,.11-.01.12-.12.12h-.65c-.11,0-.12-.01-.12-.12v-.46h-1.79v.91c0,.11-.01.12-.12.12h-.68c-.12,0-.13-.01-.13-.12,0-.07.02-.62.02-1.72v-3.16c0-.68-.01-1.06-.06-1.55.24.01.69.03.92.05.11.01.14.08.14.12,0,.06-.02.12-.04.18-.06.34-.08.69-.06,1.04v3.13h.42v-4.93c0-.52-.01-1.05-.06-1.57.3.01.68.03.94.07.11.01.16.07.16.13-.02.1-.04.19-.07.28-.05.36-.06.72-.04,1.08v4.94h.44v-2.99c.02-.51,0-1.03-.07-1.54.3,0,.6.03.9.07.1.02.15.07.15.11-.01.09-.03.17-.06.26-.06.33-.07.67-.06,1v.65h4.48c1.04,0,1.4-.02,1.46-.02.1,0,.11.01.11.12v.79c0,.11-.01.12-.11.12-.04,0-.25-.01-.69-.01v2.06h0Zm-1.68-5.25c.54.66,1.32,1.07,2.18,1.15-.17.19-.31.41-.39.65-.09.22-.11.29-.2.29-.09,0-.17-.03-.25-.07-.85-.25-1.58-.8-2.06-1.55-.42.71-1.07,1.24-1.84,1.52-.08.04-.16.07-.25.08-.09,0-.14-.08-.24-.27-.1-.21-.25-.4-.43-.55.79-.12,1.5-.57,1.94-1.24h-.2c-.96,0-1.28.02-1.34.02-.12,0-.13-.01-.13-.12v-.65c0-.12.01-.13.13-.13.06,0,.38.02,1.34.02h.46c.06-.37.07-.74.03-1.11.39.02.67.04,1,.09.12.02.19.05.19.12,0,.05-.02.11-.04.15-.11.18-.17.38-.17.6l-.02.16h.83c.96,0,1.29-.02,1.35-.02.12,0,.13.01.13.11v.67c0,.11-.01.12-.13.12-.06,0-.39-.02-1.35-.02h-.54Zm-.12,5.15c0,.97.02,1.18.02,1.24,0,.12-.01.13-.12.13h-.67c-.11,0-.12-.01-.12-.13v-.16h-1.02v.5c0,.11-.01.12-.13.12h-.69c-.1,0-.11-.01-.11-.12,0-.07.02-.28.02-1.47v-.57c0-.57-.02-.81-.02-.89,0-.11.01-.12.11-.12.08,0,.27.02.89.02h.87c.61,0,.8-.02.88-.02.11,0,.12,0,.12.12,0,.07-.02.3-.02.73v.63h0Zm-1.91-.64v.92h1.02v-.92h-1.02Z"/><path id="_パス_67" class="cls-1" d="m230.5,22.78c.1.55.15,1.1.15,1.66.04,1.12-.3,2.23-.97,3.13-.64.78-1.62,1.2-2.63,1.13-1.53.04-2.79-1.17-2.83-2.7,0-.11,0-.23.01-.34.02-1.15.37-2.27,1-3.24.19-.29.4-.55.65-.79-.36.05-.74.09-1.21.17-.19.03-.35.11-.43.11-.09-.01-.16-.08-.19-.16-.13-.36-.22-.73-.29-1.1.37.05.74.05,1.11.02.48-.04.95-.1,1.42-.18.27-.02.52-.1.76-.23.05-.04.11-.07.17-.09.06,0,.12.04.15.09.18.17.33.36.45.57.05.07.09.16.1.25,0,.09-.06.15-.17.22-.39.25-.74.57-1.03.94-.82.89-1.29,2.04-1.33,3.25,0,1.39.69,2.01,1.62,2.01.78.05,1.52-.33,1.94-.99.5-.9.73-1.92.67-2.95,0-.54-.01-1.08-.06-1.62-.02-.23-.06-.43-.08-.56s-.06-.27-.12-.45-.06-.24.11-.29c.27-.08.54-.15.81-.2.09-.02.14.04.16.12.21.56.45,1.1.73,1.62.47.9,1.07,1.72,1.78,2.46.04.04.06.09.06.14,0,.06-.03.12-.07.17-.18.24-.38.47-.59.68-.03.03-.07.05-.12.05-.08,0-.15-.06-.17-.13-.62-.86-1.12-1.8-1.49-2.79l-.06.02h0Z"/><path id="_パス_68" class="cls-1" d="m237.2,23.78c.67-.4,1.44-.61,2.22-.62,1.33-.11,2.49.88,2.6,2.21,0,.08,0,.17,0,.25,0,1.76-1.54,2.93-4.2,3.34-.22.04-.31.05-.42-.15-.18-.33-.44-.61-.75-.82,2.62-.34,4.06-1.18,4.06-2.5,0-.89-.66-1.33-1.56-1.33-1.23.05-2.4.54-3.3,1.39-.38.33-.73.69-1.06,1.07-.04.06-.1.1-.17.12-.06,0-.11-.03-.14-.08-.23-.2-.44-.42-.63-.66-.04-.04-.06-.08-.08-.13,0-.05.04-.1.09-.13.79-.73,1.33-1.29,1.98-1.97.62-.67,1.44-1.6,2.5-2.86-.75.15-1.35.28-2.07.43-.14.04-.28.09-.42.14-.07.04-.15.07-.23.07-.07,0-.15-.07-.22-.2-.18-.37-.32-.75-.42-1.15.48,0,.95-.02,1.43-.07.66-.08,1.5-.2,2.09-.3.21-.01.41-.08.58-.2.06-.05.13-.07.2-.08.07,0,.14.04.19.09.28.2.52.45.72.73.05.05.08.12.08.2-.02.13-.1.25-.23.3-.15.1-.29.22-.42.35-.84.89-1.62,1.66-2.48,2.52l.04.04h0Z"/><path id="_パス_69" class="cls-1" d="m250.24,22.84c.02-.25.02-.49-.01-.74.44.09.86.25,1.26.46.1.05.14.17.09.27,0,0,0,.02-.01.02-.07.13-.13.27-.17.42-.09.46-.19.93-.3,1.4.59.3,1.15.65,1.69,1.04.11.07.1.12.06.23-.14.32-.29.63-.47.93-.03.05-.06.08-.1.08-.05,0-.1-.04-.13-.08-.44-.39-.91-.73-1.42-1.02-.45,1.13-1.21,2.12-2.19,2.85-.1.07-.15.12-.22.12-.06,0-.12-.03-.16-.08-.27-.22-.6-.37-.94-.44,1.11-.69,1.96-1.72,2.43-2.93-.68-.33-1.4-.55-2.14-.66-.31.79-.76,1.52-1.32,2.16-.35.39-.86.61-1.39.6-.72,0-1.3-.59-1.3-1.32,0-.06,0-.11.01-.17,0-1.34,1.39-2.39,3.19-2.39.36-.9.63-1.66.9-2.57-.59.07-1.14.13-1.49.17-.17.02-.33.06-.49.12-.06.03-.13.04-.19.04-.08,0-.15-.05-.17-.12-.14-.38-.25-.78-.31-1.18.31.06.63.08.95.07.56,0,1.12-.06,1.68-.14.19-.02.37-.08.53-.18.04-.03.09-.04.14-.04.05,0,.11.01.15.04.27.17.52.37.74.6.06.04.09.11.1.18,0,.07-.04.12-.11.18-.14.16-.24.36-.29.56-.28.74-.58,1.58-.91,2.36.72.09,1.42.28,2.1.54.11-.46.18-.93.23-1.4h0Zm-5.72,3.02c0,.35.12.5.38.5.26-.04.49-.19.63-.41.31-.41.57-.85.79-1.32-1.1.04-1.8.62-1.8,1.23h0Z"/><path id="_パス_70" class="cls-1" d="m255.75,20.52c.04-.35.04-.7-.02-1.05.44.04.87.11,1.3.23.14.04.22.11.22.2,0,.06-.04.12-.07.17-.09.12-.15.26-.19.4-.06.29-.1.51-.15.89.68-.1,1.36-.23,2.04-.4.15-.04.2-.03.23.11.05.26.07.53.07.8,0,.12-.03.15-.13.17-.93.21-1.52.32-2.43.45-.15.9-.3,1.62-.5,2.38.86-.75,1.97-1.16,3.11-1.15,1.21-.12,2.29.76,2.41,1.97,0,.02,0,.05,0,.07.03.9-.45,1.74-1.23,2.19-.85.47-1.79.77-2.76.87-.26.05-.53.07-.8.07-.11,0-.19-.05-.27-.26-.13-.3-.33-.56-.58-.77,1.06,0,2.12-.2,3.11-.6.83-.35,1.23-.84,1.23-1.53,0-.56-.41-1.03-1.23-1.03-1.1-.01-2.15.48-2.85,1.34-.1.14-.2.27-.3.41-.08.13-.11.17-.2.16-.28-.04-.55-.12-.81-.24-.17-.07-.24-.12-.24-.22,0-.07.02-.15.04-.22.06-.18.1-.35.14-.51.24-.95.39-1.75.57-2.84-.58.04-1.27.1-1.82.1-.1,0-.18-.06-.2-.15-.03-.13-.11-.59-.15-.94.84,0,1.52-.03,2.35-.1.06-.38.1-.74.13-1h-.01Z"/><g id="_グループ_1"><path id="_パス_92" class="cls-2" d="m210.19,43.84c-.24.15-.26.18-.15.33.68.9,1.28,1.79,1.86,2.7-1.81.2-3.76.38-5.63.53.88-1.9,1.68-3.93,2.34-5.68.1-.32.26-.62.48-.88.09-.08.15-.2.15-.33,0-.15-.15-.24-.35-.31-.62-.18-1.24-.31-1.95-.48-.11.65-.27,1.29-.49,1.92-.67,2.02-1.46,3.99-2.36,5.92-.16,0-.35.02-.51.02-.73.04-1.39.06-2.08.04.1.66.25,1.3.44,1.94.06.18.15.29.27.29.11,0,.22-.05.31-.12.21-.12.45-.19.69-.2,3.22-.27,6.54-.64,9.61-1.1.29.55.59,1.1.86,1.66.06.11.09.15.16.15.08-.01.15-.04.22-.09l1.37-.79c.26-.15.26-.18.16-.35-1.12-2.06-2.42-4.02-3.89-5.85-.07-.07-.11-.11-.15-.11-.08.02-.15.05-.22.09l-1.15.69Zm-.42-9.06c-.22.11-.26.13-.18.33,1.32,2.98,3.36,5.57,5.96,7.55.18.15.29.24.38.24.11,0,.2-.13.35-.4.26-.51.61-.98,1.02-1.37-2.64-1.58-4.71-3.94-5.94-6.76-.09-.18-.13-.2-.36-.09l-1.22.51Zm-9.76,6.63c.42.32.76.73,1.02,1.19.16.27.24.4.35.4.09,0,.22-.09.42-.26,2.3-1.78,4.14-4.09,5.37-6.72.09-.22.23-.42.42-.57.1-.05.17-.16.16-.27,0-.13-.07-.22-.27-.31-.58-.26-1.19-.48-1.81-.64-.08.41-.21.81-.38,1.19-1.13,2.47-2.97,4.55-5.28,6Zm28.23-2.41c.11,2.46.53,4.9,1.26,7.25.91,2.7,2.19,4,3.58,4.02,1.08.02,1.85-.97,2.21-3.31q.07-.57-.46-.86c-.43-.22-.83-.5-1.19-.82-.11,1.66-.33,2.67-.82,2.67-.55,0-1.12-1.06-1.64-2.7-.63-2.03-.98-4.13-1.04-6.25h2.17c1.66,0,2.23.04,2.34.04.18,0,.2-.02.2-.22v-1.44c0-.2-.02-.22-.2-.22-.11,0-.68.04-2.34.04h-2.24v-.8c-.06-.62-.03-1.24.09-1.84.06-.12.1-.25.11-.38,0-.11-.11-.2-.29-.22-.62-.07-1.33-.09-1.99-.11.11.87.16,1.74.15,2.61,0,.26.02.51.02.75h-6.56c-1.66,0-2.23-.04-2.34-.04-.18,0-.18.02-.18.22v1.44c0,.2,0,.22.18.22.11,0,.68-.04,2.34-.04h6.65Zm-2.98,4.06c1.53,0,2.05.04,2.16.04.2,0,.22-.02.22-.18v-1.37c0-.2-.02-.22-.22-.22-.11,0-.62.04-2.16.04h-3.23c-1.55,0-2.07-.04-2.17-.04-.18,0-.2.02-.2.22v1.37c0,.16.02.18.2.18.11,0,.62-.04,2.17-.04h.62v4.02l-1.75.33c-.58.12-1.16.2-1.75.22.15.64.33,1.41.48,1.85.06.16.15.24.26.24.12-.01.23-.06.33-.13.24-.13.5-.23.77-.27,1.97-.42,4.71-1.17,6.54-1.77q.55-.16.55-.77c0-.36.02-.82.06-1.15-1.1.38-2.36.73-3.56,1.02v-3.58h.71Zm5.88-8.39c-.18.13-.22.18-.07.33.55.51,1.03,1.09,1.43,1.74.06.09.11.15.16.15.09-.02.17-.05.24-.11l.86-.58c.22-.15.24-.22.13-.36-.45-.63-.97-1.19-1.57-1.68-.07-.07-.13-.11-.18-.11s-.11.04-.22.11l-.77.53Zm18.14,4.02v-1.74c-.04-.54.01-1.08.15-1.61.04-.1.07-.22.07-.33,0-.15-.07-.24-.33-.29-.71-.15-1.42-.25-2.14-.31.14.83.2,1.66.16,2.5l-.02,1.79h-3.93v-1.33c-.07-.59-.03-1.18.13-1.75.06-.12.09-.25.11-.38,0-.13-.07-.22-.27-.26-.74-.14-1.48-.24-2.23-.29.17.89.24,1.79.22,2.69v1.33h-.55c-1.41,0-2.59-.04-3.36-.09.01.59.05,1.18.13,1.77.02.24.07.35.22.35.57-.04,2.03-.09,3.01-.09h.55v.69c0,1.15-.04,2.05-.09,3-.02.2.09.24.33.26.52.04,1.05.04,1.57,0,.2-.02.33-.06.31-.26-.06-.97-.06-1.95-.06-3.03v-.66h3.89c.08,1.62-.3,3.23-1.08,4.66-.93,1.5-2.34,2.43-4.93,3.23.58.25,1.1.62,1.52,1.1.15.15.24.2.35.2.18-.02.35-.08.51-.16,1.77-.63,3.28-1.83,4.31-3.4.97-1.71,1.46-3.66,1.41-5.63h.75c.9,0,2.01.02,2.63.02.26.02.29-.06.31-.29.04-.48.04-.96,0-1.44-.02-.2-.04-.31-.26-.29-.84.04-1.86.06-2.76.06h-.64Zm15.49.86c.75-.73,1.47-1.5,2.14-2.3.32-.38.69-.71,1.1-1,.14-.08.24-.23.26-.4,0-.11-.05-.21-.15-.27-.64-.48-1.32-.9-2.03-1.28-.25.7-.64,1.34-1.15,1.88-1.18,1.39-2.48,2.67-3.89,3.82-1.77,1.47-3.7,2.72-5.76,3.73.57.29,1.1.65,1.57,1.08.1.11.24.18.38.18.1,0,.19-.02.27-.07,1.78-1,3.47-2.18,5.02-3.51v4.26c0,1.24-.06,2.43-.07,3.75-.02.22.06.29.26.29.61.04,1.22.04,1.83,0,.2,0,.29-.07.27-.31-.04-1.46-.06-2.54-.06-3.8v-6.05Zm13.69-2.54c-.06-.58-.02-1.16.13-1.72.08-.13.13-.27.15-.42,0-.15-.09-.26-.35-.31-.75-.16-1.52-.26-2.28-.29.15.89.21,1.8.18,2.7v8.99c0,1.17-.02,2.25-.07,3.6,0,.22.09.27.35.27.54.04,1.08.04,1.63,0,.26,0,.35-.06.33-.27-.04-1.32-.07-2.39-.07-3.58v-4.04c1.7.56,3.31,1.35,4.81,2.34.05.06.12.09.2.09.09,0,.16-.07.24-.2.31-.51.57-1.04.79-1.59.09-.24,0-.36-.2-.48-1.83-1.06-3.78-1.9-5.81-2.48v-2.61Z"/></g><path class="cls-1" d="m10.78,9.29c.13.1.18.17.18.28,0,.08-.08.15-.21.22-.1.06-.24.15-.35.28-.76.81-1.67,1.58-3.03,2.33-.15.08-.25.13-.32.13-.1,0-.15-.08-.27-.28-.21-.35-.41-.57-.67-.81,1.44-.62,2.48-1.37,3.26-2.23.14-.14.29-.36.42-.59.39.24.73.48.98.67Zm-2.66-3.88c-1.23,0-1.65.03-1.74.03-.13,0-.14-.01-.14-.15v-.95c0-.14.01-.15.14-.15.07,0,.43.03,1.36.03v-1.62c0-.76-.03-1.08-.03-1.18,0-.14.01-.15.17-.15.08,0,.57.03,1.95.03h1.27l.24-.53c.08-.2.15-.42.21-.74.46.06.99.14,1.41.22.11.03.18.1.18.18s-.07.14-.15.21-.14.18-.2.29l-.18.36h2.59c1.36,0,1.85-.03,1.95-.03.14,0,.15.01.15.15,0,.08-.03.42-.03,1.18v1.62c.98,0,1.36-.03,1.44-.03.13,0,.14.01.14.15v.95c0,.14-.01.15-.14.15-.08,0-.5-.03-1.74-.03h-2.63l.77.36c.14.08.21.15.21.21,0,.13-.07.18-.18.22-.11.04-.25.13-.48.32l-.25.21c.2.5.43.97.7,1.4.59-.39,1.19-.9,1.69-1.39.17-.17.31-.34.45-.56.39.28.7.52,1.01.78.07.07.15.15.15.21,0,.08-.07.15-.18.2-.14.04-.25.1-.49.29-.53.46-1.26,1.01-1.9,1.44.83.97,1.86,1.69,3.15,2.21-.22.25-.45.57-.63.94-.11.24-.17.34-.27.34-.07,0-.17-.04-.32-.11-1.96-1.05-3.53-2.89-4.31-5.14l-.27.15v3.64c0,1.13.03,1.57.03,1.64,0,.14-.01.15-.15.15h-1.2c-.14,0-.15-.01-.15-.15,0-.08.03-.5.03-1.64v-2.91c-.36.17-.74.31-1.12.43-.17.06-.27.1-.34.1-.11,0-.17-.08-.32-.32-.17-.24-.38-.46-.63-.64,1.79-.56,3.14-1.15,4.09-1.91.21-.15.39-.28.57-.49h-4.4c.36.17.84.39,1.02.53.13.08.17.13.17.21,0,.11-.08.15-.17.21-.14.08-.24.18-.43.36-.76.73-1.54,1.37-2.59,1.95-.17.1-.27.15-.35.15-.1,0-.15-.1-.28-.31-.21-.31-.48-.57-.66-.73,1.15-.49,2.1-1.15,2.8-1.83.13-.13.32-.34.45-.55h-1.44Zm2.37-1.2v-1.81h-1.33v1.81h1.33Zm2.68,0v-1.81h-1.36v1.81h1.36Zm1.32-1.81v1.81h1.39v-1.81h-1.39Z"/><path class="cls-1" d="m22.47,2.59c1.06,0,1.41-.03,1.5-.03.14,0,.15.01.15.15v.99c0,.15-.01.17-.15.17-.08,0-.43-.03-1.5-.03h-1.06c-1.08,0-1.42.03-1.5.03-.14,0-.15-.01-.15-.17v-.99c0-.14.01-.15.15-.15.08,0,.42.03,1.5.03h1.06Zm1.29,7.96c0,1.62.03,1.93.03,2.02,0,.14-.01.15-.15.15h-.94c-.14,0-.15-.01-.15-.15v-.31h-1.04v.56c0,.14-.01.15-.15.15h-.95c-.15,0-.17-.01-.17-.15,0-.08.03-.41.03-2.1v-.9c0-.88-.03-1.23-.03-1.32,0-.14.01-.15.17-.15.08,0,.38.03,1.27.03h.67c.9,0,1.19-.03,1.29-.03.14,0,.15.01.15.15,0,.08-.03.42-.03,1.08v.97Zm-1.36-9.88c.9,0,1.18-.03,1.26-.03.15,0,.17.01.17.15v.92c0,.14-.01.15-.17.15-.08,0-.36-.03-1.26-.03h-.73c-.91,0-1.19.03-1.27.03-.14,0-.15-.01-.15-.15v-.92c0-.14.01-.15.15-.15.08,0,.36.03,1.27.03h.73Zm-.11,3.91c.84,0,1.09-.03,1.18-.03.15,0,.17.01.17.15v.91c0,.14-.01.15-.17.15-.08,0-.34-.03-1.18-.03h-.56c-.85,0-1.11.03-1.19.03-.14,0-.15-.01-.15-.15v-.91c0-.14.01-.15.15-.15.08,0,.34.03,1.19.03h.56Zm0,1.89c.84,0,1.09-.03,1.18-.03.15,0,.17.01.17.15v.9c0,.14-.01.15-.17.15-.08,0-.34-.03-1.18-.03h-.56c-.85,0-1.11.03-1.19.03-.14,0-.15-.01-.15-.15v-.9c0-.14.01-.15.15-.15.08,0,.34.03,1.19.03h.56Zm-.78,3.07v1.55h1.04v-1.55h-1.04Zm8.49-.9c.07.46.18.87.32,1.25.13-.13.24-.27.34-.39.14-.18.28-.42.42-.7.29.14.59.31.83.48.13.08.17.14.17.22,0,.1-.06.14-.17.2-.1.04-.22.22-.42.43-.21.25-.42.5-.67.76.34.56.6.74.8.74s.34-.32.45-1.26c.13.11.39.29.55.38.34.18.36.2.29.62-.18,1.09-.56,1.47-1.19,1.47-.67,0-1.25-.36-1.79-1.18-.46.34-.98.64-1.6.91-.17.07-.25.11-.34.11-.1,0-.15-.1-.29-.34-.14-.24-.31-.43-.46-.59.85-.24,1.58-.62,2.16-1.04-.27-.6-.46-1.26-.57-2.06l-1.64.03v.64l1.22-.24c-.04.15-.07.48-.1.77-.01.25-.01.28-.24.32l-.88.17c.01.39.04.76.04,1.12,0,.7-.1.98-.38,1.15-.28.17-.59.24-1.42.25q-.43.01-.52-.42c-.06-.25-.17-.56-.27-.74.28.04.59.07.9.07.39,0,.48-.11.48-.48v-.74l-.9.13c-.28.04-.43.08-.5.13-.07.04-.14.08-.2.08-.07,0-.13-.04-.15-.2-.07-.31-.14-.71-.18-1.02.42,0,.77-.03,1.08-.07.28-.03.56-.06.85-.1v-.81c-1.08.01-1.48.04-1.62.04-.13,0-.14-.01-.14-.15v-.74c-.01-.14,0-.14.14-.14.13,0,.56.01,1.62,0v-.57l-.85.13q-.29.04-.38-.21c-.08-.25-.21-.53-.31-.67,1.08-.11,1.81-.25,2.54-.45.24-.07.39-.13.55-.22.24.17.5.43.67.62.06.06.08.11.08.18,0,.08-.08.13-.2.14-.13.01-.27.04-.42.08-.17.06-.34.11-.52.15v.8h1.51s-.04-.94-.04-.94c-.01-.32-.04-.63-.11-.92.41,0,.85.04,1.13.08.2.03.31.07.31.18,0,.08-.04.15-.07.24-.06.14-.04.35-.04.66,0,.24.01.46.03.67h.71c1.27-.04,1.76-.07,1.9-.07s.14.01.14.15v.74c.01.13,0,.14-.13.14-.14,0-.64,0-1.92.01h-.6Zm-3.7-3.08c-1.34,0-1.82.03-1.91.03-.13,0-.14-.01-.14-.15v-.74c0-.14.01-.15.14-.15.08,0,.56.03,1.91.03h1.3v-.63h-.64c-1.25,0-1.65.03-1.74.03-.15,0-.17-.01-.17-.15v-.7c0-.13.01-.14.17-.14.08,0,.49.03,1.74.03h.64v-.62h-.95c-1.32,0-1.77.03-1.86.03-.14,0-.15-.01-.15-.15v-.73c0-.14.01-.15.15-.15.08,0,.49.03,1.54.03-.14-.27-.31-.56-.53-.87-.08-.13-.04-.15.14-.21l.76-.2c.17-.04.2-.04.28.07.25.35.52.77.71,1.2h1.18c.17-.25.31-.49.43-.74.11-.21.17-.38.22-.6.43.07.83.14,1.22.24.13.04.2.08.2.15,0,.1-.04.14-.13.2-.07.04-.17.14-.24.25-.13.17-.22.34-.35.5h.07c1.32,0,1.78-.03,1.86-.03.14,0,.15.01.15.15v.73c0,.14-.01.15-.15.15-.08,0-.55-.03-1.86-.03h-1.4v.62h.94c1.25,0,1.65-.03,1.74-.03.14,0,.15.01.15.14v.7c0,.14-.01.15-.15.15-.08,0-.49-.03-1.74-.03h-.94v.63h1.67c1.34,0,1.82-.03,1.91-.03.14,0,.14.01.14.15v.74c0,.14,0,.15-.14.15-.08,0-.56-.03-1.91-.03h-4.26Zm4.52.27c.14-.07.17-.1.29-.01.35.22.7.52,1.04.9.1.1.1.14-.04.24l-.59.41c-.07.06-.11.08-.15.08-.03,0-.06-.03-.11-.1-.29-.36-.64-.7-.97-.95-.13-.08-.11-.14.03-.22l.5-.34Z"/><path class="cls-1" d="m37.13.59c.14,0,.22-.01.28-.04.06-.03.1-.04.18-.04.1,0,.21.06.53.41.29.34.34.48.34.56s-.04.17-.13.25c-.11.1-.2.24-.27.55-.32,1.09-.62,1.78-1.08,2.77,1.09,1.37,1.21,2.19,1.21,3.19,0,1.11-.53,1.85-1.82,1.96q-.43.03-.48-.41c-.04-.35-.13-.63-.29-.84.88.04,1.26-.25,1.26-.98,0-.69-.18-1.47-1.25-2.83.55-1.19.9-2.09,1.19-3.26h-1.4v7.93c0,1.92.03,2.93.03,3.01,0,.13-.01.14-.15.14h-1.11c-.14,0-.15-.01-.15-.14,0-.08.03-1.05.03-3V3.75c0-1.98-.03-2.94-.03-3.04,0-.14.01-.15.15-.15.1,0,.43.03,1.12.03h1.83Zm4.24,6.96c-.07,2.7-.91,4.37-3.17,5.31-.17.07-.27.11-.34.11-.1,0-.15-.07-.31-.28-.22-.31-.53-.6-.81-.8,2.27-.59,3.17-1.79,3.21-4.34-1.02.01-1.41.03-1.48.03-.14,0-.15-.01-.15-.15v-.99c0-.15.01-.17.15-.17.08,0,.53.03,1.86.03h3.73c1.32,0,1.78-.03,1.86-.03.14,0,.15.01.15.17v.99c0,.14-.01.15-.15.15-.08,0-.55-.03-1.86-.03h-.39v3.39c0,.29,0,.38.11.46.08.07.25.08.55.08.38,0,.48-.04.57-.17.14-.2.15-.49.18-1.48.34.18.62.29.94.35.36.07.36.1.35.46-.07,1.16-.25,1.57-.66,1.83-.38.27-.87.32-1.67.32-.7,0-1.18-.06-1.39-.21-.27-.18-.41-.45-.41-1.15v-3.89h-.88Zm-.11-2.4c-1.06,0-1.41.03-1.5.03-.14,0-.15-.01-.15-.15v-.67h-1.04c-.15,0-.17-.01-.17-.15,0-.1.03-.27.03-1.32v-.39c0-.41-.03-.6-.03-.7,0-.13.01-.14.17-.14.08,0,.56.03,1.88.03h.85v-.14c0-.6-.01-.92-.1-1.36.52.01.99.06,1.47.11.14.01.22.07.22.13,0,.11-.03.18-.07.27-.07.15-.08.34-.08.83v.17h1.19c1.32,0,1.79-.03,1.88-.03.15,0,.17.01.17.14,0,.08-.03.29-.03.6v.49c0,1.05.03,1.22.03,1.32,0,.14-.01.15-.17.15h-1.04v.67c0,.14-.01.15-.15.15-.08,0-.43-.03-1.48-.03h-1.88Zm-1.47-1.25c.11,0,.48.03,1.47.03h1.88c.94,0,1.32-.01,1.44-.03v-1.02h-4.79v1.02Z"/><path class="cls-1" d="m49.77,2.59c1.06,0,1.41-.03,1.5-.03.14,0,.15.01.15.15v.99c0,.15-.01.17-.15.17-.08,0-.43-.03-1.5-.03h-1.06c-1.08,0-1.42.03-1.5.03-.14,0-.15-.01-.15-.17v-.99c0-.14.01-.15.15-.15.08,0,.42.03,1.5.03h1.06Zm1.29,7.96c0,1.62.03,1.93.03,2.02,0,.14-.01.15-.15.15h-.94c-.14,0-.15-.01-.15-.15v-.31h-1.04v.56c0,.14-.01.15-.15.15h-.95c-.15,0-.17-.01-.17-.15,0-.08.03-.41.03-2.1v-.9c0-.88-.03-1.23-.03-1.32,0-.14.01-.15.17-.15.08,0,.38.03,1.27.03h.67c.9,0,1.19-.03,1.29-.03.14,0,.15.01.15.15,0,.08-.03.42-.03,1.08v.97Zm-1.36-9.88c.9,0,1.18-.03,1.26-.03.15,0,.17.01.17.15v.92c0,.14-.01.15-.17.15-.08,0-.36-.03-1.26-.03h-.73c-.91,0-1.19.03-1.27.03-.14,0-.15-.01-.15-.15v-.92c0-.14.01-.15.15-.15.08,0,.36.03,1.27.03h.73Zm-.11,3.91c.84,0,1.09-.03,1.18-.03.15,0,.17.01.17.15v.91c0,.14-.01.15-.17.15-.08,0-.34-.03-1.18-.03h-.56c-.85,0-1.11.03-1.19.03-.14,0-.15-.01-.15-.15v-.91c0-.14.01-.15.15-.15.08,0,.34.03,1.19.03h.56Zm0,1.89c.84,0,1.09-.03,1.18-.03.15,0,.17.01.17.15v.9c0,.14-.01.15-.17.15-.08,0-.34-.03-1.18-.03h-.56c-.85,0-1.11.03-1.19.03-.14,0-.15-.01-.15-.15v-.9c0-.14.01-.15.15-.15.08,0,.34.03,1.19.03h.56Zm-.78,3.07v1.55h1.04v-1.55h-1.04Zm8.49-.9c.07.46.18.87.32,1.25.13-.13.24-.27.34-.39.14-.18.28-.42.42-.7.29.14.59.31.83.48.13.08.17.14.17.22,0,.1-.06.14-.17.2-.1.04-.22.22-.42.43-.21.25-.42.5-.67.76.34.56.6.74.8.74s.34-.32.45-1.26c.13.11.39.29.55.38.34.18.36.2.29.62-.18,1.09-.56,1.47-1.19,1.47-.67,0-1.25-.36-1.79-1.18-.46.34-.98.64-1.6.91-.17.07-.25.11-.34.11-.1,0-.15-.1-.29-.34-.14-.24-.31-.43-.46-.59.85-.24,1.58-.62,2.16-1.04-.27-.6-.46-1.26-.57-2.06l-1.64.03v.64l1.22-.24c-.04.15-.07.48-.1.77-.01.25-.01.28-.24.32l-.88.17c.01.39.04.76.04,1.12,0,.7-.1.98-.38,1.15-.28.17-.59.24-1.42.25q-.43.01-.52-.42c-.06-.25-.17-.56-.27-.74.28.04.59.07.9.07.39,0,.48-.11.48-.48v-.74l-.9.13c-.28.04-.43.08-.5.13-.07.04-.14.08-.2.08-.07,0-.13-.04-.15-.2-.07-.31-.14-.71-.18-1.02.42,0,.77-.03,1.08-.07.28-.03.56-.06.85-.1v-.81c-1.08.01-1.48.04-1.62.04-.13,0-.14-.01-.14-.15v-.74c-.01-.14,0-.14.14-.14.13,0,.56.01,1.62,0v-.57l-.85.13q-.29.04-.38-.21c-.08-.25-.21-.53-.31-.67,1.08-.11,1.81-.25,2.54-.45.24-.07.39-.13.55-.22.24.17.5.43.67.62.06.06.08.11.08.18,0,.08-.08.13-.2.14-.13.01-.27.04-.42.08-.17.06-.34.11-.52.15v.8h1.51s-.04-.94-.04-.94c-.01-.32-.04-.63-.11-.92.41,0,.85.04,1.13.08.2.03.31.07.31.18,0,.08-.04.15-.07.24-.06.14-.04.35-.04.66,0,.24.01.46.03.67h.71c1.27-.04,1.76-.07,1.9-.07s.14.01.14.15v.74c.01.13,0,.14-.13.14-.14,0-.64,0-1.92.01h-.6Zm-3.7-3.08c-1.34,0-1.82.03-1.9.03-.13,0-.14-.01-.14-.15v-.74c0-.14.01-.15.14-.15.08,0,.56.03,1.9.03h1.3v-.63h-.64c-1.25,0-1.65.03-1.74.03-.15,0-.17-.01-.17-.15v-.7c0-.13.01-.14.17-.14.08,0,.49.03,1.74.03h.64v-.62h-.95c-1.32,0-1.77.03-1.86.03-.14,0-.15-.01-.15-.15v-.73c0-.14.01-.15.15-.15.08,0,.49.03,1.54.03-.14-.27-.31-.56-.53-.87-.08-.13-.04-.15.14-.21l.76-.2c.17-.04.2-.04.28.07.25.35.52.77.71,1.2h1.18c.17-.25.31-.49.43-.74.11-.21.17-.38.22-.6.43.07.83.14,1.22.24.13.04.2.08.2.15,0,.1-.04.14-.13.2-.07.04-.17.14-.24.25-.13.17-.22.34-.35.5h.07c1.32,0,1.78-.03,1.86-.03.14,0,.15.01.15.15v.73c0,.14-.01.15-.15.15-.08,0-.55-.03-1.86-.03h-1.4v.62h.94c1.25,0,1.65-.03,1.74-.03.14,0,.15.01.15.14v.7c0,.14-.01.15-.15.15-.08,0-.49-.03-1.74-.03h-.94v.63h1.67c1.34,0,1.82-.03,1.9-.03.14,0,.14.01.14.15v.74c0,.14,0,.15-.14.15-.08,0-.56-.03-1.9-.03h-4.26Zm4.52.27c.14-.07.17-.1.29-.01.35.22.7.52,1.04.9.1.1.1.14-.04.24l-.59.41c-.07.06-.11.08-.15.08-.03,0-.06-.03-.11-.1-.29-.36-.64-.7-.97-.95-.13-.08-.11-.14.03-.22l.5-.34Z"/><path class="cls-1" d="m64.89,10.46c.46.21.81.45,1.08.63.14.1.18.14.18.22,0,.1-.08.17-.22.2-.14.03-.28.11-.55.25-.73.43-1.9.92-3.12,1.2-.14.03-.22.06-.29.06-.15,0-.2-.1-.34-.38-.17-.32-.43-.67-.64-.88,1.2-.15,2.37-.49,3.12-.87.2-.08.5-.25.7-.43h-.34c-1.37,0-1.86.03-1.95.03-.15,0-.17-.01-.17-.15,0-.08.03-.5.03-1.47v-2.91c0-.98-.03-1.4-.03-1.48,0-.14.01-.15.17-.15.08,0,.57.03,1.95.03h5.41c1.37,0,1.86-.03,1.95-.03.14,0,.15.01.15.15,0,.08-.03.5-.03,1.48v2.91c0,.97.03,1.4.03,1.47,0,.14-.01.15-.15.15-.08,0-.57-.03-1.95-.03h-4.99Zm4.29-9.86c1.33,0,1.79-.03,1.88-.03.14,0,.15.01.15.15,0,.08-.03.32-.03.94v.91c0,.6.03.84.03.92,0,.14-.01.15-.15.15-.08,0-.55-.03-1.88-.03h-3.99c-1.33,0-1.78.03-1.88.03-.14,0-.15-.01-.15-.15,0-.1.03-.32.03-.92v-.91c0-.62-.03-.85-.03-.94,0-.14.01-.15.15-.15.1,0,.55.03,1.88.03h3.99Zm-5.35,5.49h6.68v-.69h-6.68v.69Zm6.68,1.62v-.7h-6.68v.7h6.68Zm0,.94h-6.68v.73h6.68v-.73Zm-.78-6.96h-5.08v.88h5.08v-.88Zm-.49,8.88c.07-.06.13-.08.18-.08.03,0,.06.01.11.04,1.05.62,2.34,1.04,3.85,1.23-.24.22-.49.55-.69.85-.17.27-.22.36-.36.36-.07,0-.15-.03-.29-.06-1.4-.32-2.72-.88-3.71-1.55-.06-.04-.08-.07-.08-.11s.04-.08.14-.14l.85-.55Z"/><path class="cls-1" d="m75.67,7.68c0-.52,0-1.18.01-1.82-.22.32-.46.63-.71.94-.11.13-.2.2-.25.2-.07,0-.11-.07-.15-.24-.11-.48-.27-.87-.45-1.19,1.16-1.37,1.85-2.77,2.42-4.48.1-.34.18-.64.22-.99.5.13.88.24,1.29.39.15.06.22.11.22.21s-.06.15-.14.24c-.11.11-.15.22-.28.59-.24.7-.5,1.37-.81,2.02v7.16c0,1.37.03,2.06.03,2.13,0,.14-.01.15-.17.15h-1.09c-.15,0-.17-.01-.17-.15,0-.08.03-.76.03-2.13v-3.01Zm2.16-3.42c0-.85-.03-1.27-.1-1.82.55.01.88.04,1.34.1.14.01.24.08.24.17,0,.1-.04.2-.08.31-.07.17-.1.42-.1,1.23v4.44c0,1.23.03,1.83.03,1.92,0,.14-.01.15-.15.15h-1.05c-.14,0-.15-.01-.15-.15,0-.1.03-.69.03-1.92v-4.43Zm3.36.14c.39.1.7.22,1.01.34.13.06.2.1.2.2s-.06.14-.14.21c-.1.07-.13.15-.25.43h2.28c1.44,0,1.96-.03,2.04-.03.14,0,.15.01.15.17v.92c0,.14-.01.15-.15.15-.08,0-.6-.03-2.04-.03h-.35c-.01.48-.04.91-.1,1.33h1.32c1.3,0,1.75-.03,1.83-.03.14,0,.15.01.15.15v.94c0,.14-.01.15-.15.15-.08,0-.53-.03-1.83-.03h-1.01c.66,1.05,1.74,1.81,3.35,2.23-.2.28-.34.56-.46.94-.08.27-.13.38-.24.38-.07,0-.17-.04-.32-.1-1.44-.62-2.49-1.44-3.19-2.65-.62,1.23-1.71,2.13-3.61,2.75-.15.04-.25.08-.32.08-.13,0-.17-.1-.28-.36-.13-.32-.32-.62-.5-.84,2.12-.55,3.15-1.23,3.63-2.42h-.66c-1.32,0-1.75.03-1.83.03-.14,0-.15-.01-.15-.15v-.94c0-.14.01-.15.15-.15.08,0,.52.03,1.83.03h.97c.06-.39.07-.84.07-1.33h-1.23c-.2.29-.41.56-.64.83-.14.17-.21.24-.28.24-.08,0-.15-.07-.31-.22-.25-.24-.49-.39-.74-.53.66-.66,1.08-1.26,1.36-1.85.11-.27.22-.53.28-.83-.87.01-1.2.03-1.27.03-.15,0-.17-.01-.17-.15v-.97c0-.14.01-.15.17-.15.08,0,.52.03,1.82.03h2.49l.17-1.23h-2.23c-1.11,0-1.47.03-1.55.03-.14,0-.15-.01-.15-.15v-.97c0-.15.01-.17.15-.17.08,0,.45.03,1.55.03h2.06c1.11,0,1.47-.03,1.56-.03.14,0,.2.06.17.2-.1.52-.15.99-.21,1.5l-.1.8c1.09,0,1.5-.03,1.58-.03.13,0,.14.01.14.15v.97c0,.14-.01.15-.14.15-.08,0-.53-.03-1.85-.03h-3.99Z"/><path class="cls-1" d="m93.01,5.97s-.04.04-.07.06c-.1.04-.24.18-.34.34-.2.29-.35.55-.59.84.29.27.62.52.98.77-.17.14-.43.45-.57.7-.11.2-.17.31-.25.31-.06,0-.14-.08-.28-.22-.32-.28-.6-.6-.84-.94v3.42c0,1.05.03,1.55.03,1.62,0,.14-.01.15-.17.15h-1.11c-.14,0-.15-.01-.15-.15,0-.08.03-.57.03-1.62v-3.42c-.32.36-.66.71-1.02,1.05-.11.11-.2.17-.27.17s-.11-.07-.15-.24c-.1-.43-.27-.85-.41-1.08,1.29-1.05,2.28-2.47,2.98-4.09h-1.12c-.92,0-1.22.03-1.3.03-.15,0-.17-.01-.17-.15v-1.04c0-.14.01-.15.17-.15.08,0,.38.03,1.29.03v-.55c0-.59-.01-1.09-.11-1.61.53.01.97.04,1.46.1.14.03.22.07.22.15,0,.11-.04.2-.08.29-.08.17-.11.46-.11.99v.62h.35c.13,0,.2-.03.25-.07.06-.03.1-.04.15-.04.1,0,.22.08.48.36.27.25.35.38.35.52,0,.15-.06.21-.17.28-.11.06-.21.2-.32.49-.32.71-.69,1.4-1.09,2.07v.2c.08.11.17.22.27.34.21-.29.35-.55.49-.8.08-.17.15-.34.22-.55.32.17.63.34.9.55l.08.08c-.01-1.04-.03-1.54-.03-1.62,0-.14.01-.15.15-.15.08,0,.53.03,1.82.03h.88v-1.09h-1.22c-1.34,0-1.81.03-1.89.03-.14,0-.15-.01-.15-.15v-.99c0-.13.01-.14.15-.14.08,0,.55.03,1.89.03h1.22c-.01-.64-.04-1.08-.11-1.54.53.01.94.04,1.43.1.14.01.22.07.22.15,0,.1-.04.17-.08.28-.06.14-.08.39-.08,1.01h1.62c-.27-.41-.55-.71-.8-.95-.1-.1-.08-.14.07-.22l.63-.34c.08-.04.13-.07.17-.07.06,0,.08.03.15.08.29.28.57.57.85.92.1.13.08.17-.06.25l-.57.32c.9,0,1.25-.03,1.3-.03.15,0,.17.01.17.14v.99c0,.14-.01.15-.17.15-.07,0-.53-.03-1.88-.03h-1.5v1.09h1.05c1.27,0,1.72-.03,1.82-.03.14,0,.15.01.15.15,0,.08-.03.73-.03,2.02v3.15c0,.83.04,1.75.04,2.19,0,.52-.07.81-.34,1.05-.22.21-.66.27-1.44.27q-.43.01-.49-.32c-.06-.42-.17-.78-.36-1.05.34.03.64.04.87.04.27,0,.38-.08.38-.39v-1.36h-1.68v1.02c0,1.23.03,1.83.03,1.92,0,.13-.01.14-.15.14h-1.06c-.14,0-.15-.01-.15-.14,0-.1.03-.69.03-1.92v-1.02h-1.53v1.21c0,1.19.03,1.76.03,1.85,0,.13-.01.14-.15.14h-1.08c-.14,0-.15-.01-.15-.14,0-.1.03-.66.03-1.9v-4.92Zm2.86.35v-1.12h-1.53v1.12h1.53Zm0,2.28v-1.15h-1.53v1.15h1.53Zm1.32-3.4v1.12h1.68v-1.12h-1.68Zm1.68,3.4v-1.15h-1.68v1.15h1.68Z"/></svg>