<svg xmlns="http://www.w3.org/2000/svg" width="284.526" height="59.115" viewBox="0 0 284.526 59.115">
  <g id="グループ_2" data-name="グループ 2" transform="translate(-37.371 249.92)">
    <path id="パス_59" data-name="パス 59" d="M16.3,196.06c-5.907,1.484-9.674,2.855-13.045,4a4.687,4.687,0,0,1-1.15.418,1.138,1.138,0,0,1-.793-.761A28.454,28.454,0,0,1,0,196.593c.872-.228,1.229-.342,2.061-.609a19.657,19.657,0,0,0,3.806-2.246,128.772,128.772,0,0,0,11.3-9.972c-2.419.647-4.559,1.027-7.057,1.484-.6.114-.912.152-1.507.3a4.287,4.287,0,0,1-1.11.381c-.357,0-.674-.342-.951-.838a21.461,21.461,0,0,1-1.428-3.769,27.11,27.11,0,0,0,3.925.076c2.657-.19,5.551-.647,9.04-1.142a5.35,5.35,0,0,0,2.1-.647,1.3,1.3,0,0,1,.753-.266c.357,0,.6.191,1.07.571a12.929,12.929,0,0,1,1.942,1.9,1.689,1.689,0,0,1,.476,1.066c0,.381-.238.647-.713.875a9.458,9.458,0,0,0-1.626,1.142c-4.124,3.5-7.494,6.318-12.014,9.593l.079.114a160.265,160.265,0,0,1,19.111-4.187c.516-.076.674.191.753.609a15.9,15.9,0,0,1,.437,3.083c.04.381-.2.494-.635.533a28.807,28.807,0,0,0-7.375,1.218c-4.6,1.523-6.78,4.225-6.78,6.966,0,3.654,4.164,4.758,9.912,4.758.4,0,.635.19.6.685-.079.951-.4,2.512-.516,3.2-.079.609-.317.838-.872.838a23.635,23.635,0,0,1-2.617-.228c-7.454-.723-10.706-4-10.706-8.6a8.844,8.844,0,0,1,4.837-7.347v-.076Z" transform="translate(37.371 -403.119)" fill="#004097"/>
    <path id="パス_60" data-name="パス 60" d="M327.036,218.6c-.912,6.471-2.577,12.409-4.956,16.405-1.705,2.855-3.767,4.377-6.741,4.377-3.489,0-7.019-3.578-7.019-9.782a13.769,13.769,0,0,1,4.48-9.9,17.739,17.739,0,0,1,12.886-4.872c9.516,0,15.107,5.634,15.107,13.208,0,7.08-4.164,11.534-12.212,13.856-.832.228-1.189.076-1.705-.685a8.291,8.291,0,0,0-2.776-2.4c6.7-1.523,11.975-4.187,11.975-11.382a8.813,8.813,0,0,0-8.882-8.831h-.159Zm-11.38,3.693a10.738,10.738,0,0,0-3.093,7.042c0,3.5,1.467,5.443,2.7,5.443,1.031,0,1.9-.494,2.974-2.322a42.218,42.218,0,0,0,4.2-13.628A12.1,12.1,0,0,0,315.656,222.293Z" transform="translate(-237.881 -434.794)" fill="#004097"/>
    <path id="パス_61" data-name="パス 61" d="M656.31,184.1a12.5,12.5,0,0,0-1.982-3.084,32.365,32.365,0,0,1,4.718-.609c1.07,0,1.348.266,1.348.8a4.8,4.8,0,0,0,.04,1.066,15.943,15.943,0,0,0,.635,1.9c.476,1.142.832,2.055,1.348,3.083a63.091,63.091,0,0,0,8.287-2.36c.4-.19.516-.152.753.266a16.053,16.053,0,0,1,.991,2.931c.119.381-.04.571-.317.647a65.163,65.163,0,0,1-7.891,2.207,43.446,43.446,0,0,0,6.066,8.031,11.013,11.013,0,0,0,1.031.838c.238.19.4.3.4.494a1.172,1.172,0,0,1-.238.647,15.117,15.117,0,0,1-1.547,2.474c-.317.418-.516.571-.793.571-.2,0-.317-.076-.635-.3a13.21,13.21,0,0,0-1.626-.99,18.744,18.744,0,0,0-8.406-1.941c-4.124,0-6.622,1.18-6.622,3.578,0,2.855,3.608,4.035,9.833,4.035a40.859,40.859,0,0,0,6.344-.533,22.5,22.5,0,0,1-.832,4.072c-.119.381-.278.457-.753.533a36.978,36.978,0,0,1-4.4.266c-9.358,0-14.393-2.855-14.393-7.879,0-4.339,3.886-7.384,10.428-7.384a21.006,21.006,0,0,1,7.057,1.027,24.571,24.571,0,0,1-5.115-6.738c-2.5.418-4.8.723-7.652.951-1.07.076-2.895.19-3.886.19-.357,0-.516-.228-.635-.685a28.593,28.593,0,0,1-.912-3.426c2.022.076,3.648.038,4.956-.039a56.684,56.684,0,0,0,6.265-.723c-.675-1.371-1.229-2.474-1.864-3.921Z" transform="translate(-540.192 -404.066)" fill="#004097"/>
    <path id="パス_62" data-name="パス 62" d="M930.6,185.054a9.513,9.513,0,0,0-1.388-2.436,29.219,29.219,0,0,1,4.8-.418c.556,0,.872.3.872.685,0,.228-.079.494-.079.723a6.51,6.51,0,0,0,.159,1.142c.278.99.4,1.332.635,1.98a63.908,63.908,0,0,0,8.089-2.017c.357-.152.556-.114.675.19.238.723.516,1.789.674,2.55a.584.584,0,0,1-.476.685c-2.657.8-5.075,1.371-7.772,1.941.357.951.872,2.132,1.388,3.2a47.984,47.984,0,0,0,7.216-1.98c.4-.191.6-.114.713.228a13.891,13.891,0,0,1,.713,2.512c.079.342.079.533-.317.685a50.432,50.432,0,0,1-6.7,1.865,28.539,28.539,0,0,0,5.194,6.585c.4.342.4.494.2.914a11.008,11.008,0,0,1-1.626,2.36c-.238.266-.4.381-.635.381a1.08,1.08,0,0,1-.556-.228,10.151,10.151,0,0,0-2.339-1.218,20.016,20.016,0,0,0-7.454-1.218c-3.727,0-5.907,1.1-5.907,2.893,0,2.474,3.37,3.273,9.437,3.273,1.467,0,2.934-.152,4.362-.228.4,0,.516.19.476.494a24.038,24.038,0,0,1-.793,3.464c-.119.381-.278.533-.832.571q-1.368.114-2.855.114c-9.12,0-13.957-2.474-13.957-7.156,0-4.072,3.648-6.623,9.833-6.623a19.073,19.073,0,0,1,6.82.951,44.311,44.311,0,0,1-3.291-4.492,97.419,97.419,0,0,1-10.864,1.142.627.627,0,0,1-.713-.533,18.457,18.457,0,0,1-.713-3.121,72.014,72.014,0,0,0,10.666-.951c-.4-.8-.991-2.094-1.507-3.16a71.512,71.512,0,0,1-9.634.914c-.476,0-.713-.152-.793-.533-.119-.418-.4-1.828-.635-3.045a72.759,72.759,0,0,0,9.873-.609c-.317-.875-.556-1.523-.951-2.474Z" transform="translate(-785.457 -405.664)" fill="#004097"/>
    <path id="パス_63" data-name="パス 63" d="M1201.738,294.921c-2.459,0-3.244.071-3.457.071-.392,0-.428-.036-.428-.392V292c0-.356.036-.392.428-.392.214,0,1,.071,3.457.071h4.705c1.96,0,2.78-.071,2.994-.071.392,0,.428.036.428.392,0,.214-.071,1.176-.071,3.244v3.707c0,2.067.071,2.994.071,3.208,0,.356-.036.392-.428.392-.214,0-1.034-.071-2.994-.071h-4.17c-.178,1.426-.356,2.78-.606,4.135h4.527c1.96,0,2.531-.071,2.745-.071.357,0,.428.071.428.463-.071.855-.071,1.711-.143,2.531-.356,5.418-1.141,8.875-1.711,10.23-.748,1.747-2.032,2.6-4.6,2.6-.677,0-1.247,0-1.853-.036-.713-.036-.784-.107-1-1.212a11.748,11.748,0,0,0-.784-2.531,27.345,27.345,0,0,0,3.208.214c.927,0,1.354-.214,1.675-.784.535-.962,1.069-2.923,1.461-8.3h-4.562l-.356,1.64q-.071.463-1.853.249-1.746-.25-1.675-.713a73.27,73.27,0,0,0,1.6-8.875,10.984,10.984,0,0,0,.143-2.21c0-.392.143-.5.5-.5.214,0,1.176.071,2.816.071h3.956v-4.455h-4.455Zm21.03,11.655c.428-.178.5-.178.677.178a82.831,82.831,0,0,1,5.418,13.331c.071.428.036.463-.428.677l-2.638,1.1c-.428.178-.5.178-.606-.214l-.855-2.994c-4.42.855-8.875,1.64-12.689,2.067a3.287,3.287,0,0,0-1.176.356,1.512,1.512,0,0,1-.677.214c-.214,0-.392-.143-.5-.5a30.9,30.9,0,0,1-.855-3.636c.927,0,1.746-.036,2.637-.107a156.1,156.1,0,0,0,4.919-21.6,25.479,25.479,0,0,0,.463-4.455,31.191,31.191,0,0,1,3.885.784c.392.107.677.285.677.57a1.327,1.327,0,0,1-.25.713,4.353,4.353,0,0,0-.642,1.854A215.533,215.533,0,0,1,1215,316.7c2.6-.321,5.453-.749,8.269-1.247a78.483,78.483,0,0,0-3.1-7.307c-.178-.356-.142-.428.356-.642Z" transform="translate(-1032.772 -513.736)" fill="#004097"/>
    <path id="パス_64" data-name="パス 64" d="M1420.2,309.464a5.42,5.42,0,0,0,2.958,2.994c1.247.5,3.457.677,6.558.677,4.6,0,10.016-.285,15.327-.82a6.761,6.761,0,0,0-.962,2.816c-.143,1.141-.178,1.141-1.319,1.212-4.527.214-8.768.321-12.475.321s-6.844-.214-8.3-.962a9.494,9.494,0,0,1-3.707-3.244c-1.1,1.069-2.459,2.246-3.6,3.172a2.6,2.6,0,0,0-.713.713.548.548,0,0,1-1.034-.107,31.2,31.2,0,0,1-1.461-3.35,16.173,16.173,0,0,0,2.1-1.1,19.8,19.8,0,0,0,3.136-2.317v-7.877h-1.747c-1.925,0-2.424.071-2.6.071-.392,0-.428-.036-.428-.428v-2.709c0-.356.035-.392.428-.392.178,0,.677.071,2.6.071h2.246c1.889,0,2.459-.071,2.673-.071.356,0,.392.036.392.392,0,.214-.071,1.212-.071,3.386Zm-5.24-23.525c.214-.143.321-.214.428-.214a.666.666,0,0,1,.356.178,27.09,27.09,0,0,1,4.455,5.311c.214.285.178.356-.214.642l-2.032,1.711c-.214.178-.321.25-.428.25-.143,0-.214-.107-.321-.285a27.773,27.773,0,0,0-4.348-5.56c-.285-.25-.214-.356.178-.642Zm11.727,6.38c-3.707,0-4.919.071-5.133.071-.356,0-.392-.036-.392-.428v-2.317c0-.392.036-.428.392-.428.214,0,1.426.071,5.133.071h.392a14.145,14.145,0,0,0-1.853-3.279c-.25-.321-.143-.463.321-.606l2.424-.642c.428-.107.5-.071.749.143a12.908,12.908,0,0,1,1.818,3.03c.178.356.036.463-.321.606l-2.1.748h5.632a22.914,22.914,0,0,0,1.39-2.816,10.256,10.256,0,0,0,.606-1.853,32.079,32.079,0,0,1,3.422.784c.285.107.463.25.463.5s-.142.392-.356.57a2.056,2.056,0,0,0-.642.713c-.392.642-.82,1.354-1.354,2.1h1.141c3.458,0,4.669-.071,4.883-.071.392,0,.428.036.428.428v2.317c0,.392-.036.428-.428.428-.214,0-1.426-.071-4.883-.071h-4.705a22.409,22.409,0,0,1-.927,2.067h3.386c3.172,0,4.313-.071,4.491-.071.392,0,.428.036.428.392,0,.214-.071,1.319-.071,3.885v8.483c0,2.531.071,3.493.071,3.707,0,.392-.036.428-.428.428-.178,0-1.319-.071-4.491-.071h-7.628c-3.172,0-4.313.071-4.527.071-.392,0-.428-.036-.428-.428,0-.214.071-1.176.071-3.707v-8.483c0-2.566-.071-3.671-.071-3.885,0-.356.036-.392.428-.392.214,0,1.354.071,4.527.071h.713a20.813,20.813,0,0,0,.82-2.067Zm.392,6.844H1437.6v-2.032h-10.515Zm10.515,4.527v-2h-10.515v2Zm0,2.495h-10.515v2.139H1437.6Z" transform="translate(-1212.35 -508.389)" fill="#004097"/>
    <path id="パス_65" data-name="パス 65" d="M1196.65,205.332c-.108,0-.12-.012-.12-.12,0-.077.021-.811.021-4.2v-2.144c0-2.165-.021-2.923-.021-2.988,0-.12.011-.13.12-.13.075,0,.422.022,1.429.022h6.051c1.006,0,1.353-.022,1.417-.022.12,0,.13.012.13.13,0,.065-.022.823-.022,2.608v2.522c0,3.378.022,4.124.022,4.189,0,.108-.01.12-.13.12h-.866c-.108,0-.12-.012-.12-.12v-.433h-6.917v.445c0,.108-.011.12-.12.12h-.876Zm1-1.527h6.917v-7.047h-6.917Zm4.4-3.973c.909,0,1.223-.022,1.288-.022.108,0,.118.012.118.12,0,.065-.022.183-.022.553v.422a4.016,4.016,0,0,0,.012.443,1.556,1.556,0,0,0,.118-.195,7.313,7.313,0,0,1,.628.421.183.183,0,0,1,.087.14c0,.065-.043.108-.12.13a.981.981,0,0,0-.26.183c-.195.152-.39.293-.606.445a7.762,7.762,0,0,0,1.061.378,2.287,2.287,0,0,0-.39.53c-.1.173-.141.248-.228.248a.716.716,0,0,1-.248-.087,6.028,6.028,0,0,1-2.035-1.418c.011.681.032,1.277.032,1.386s-.012.118-.13.118h-.715c-.108,0-.12-.01-.12-.118s.011-.65.022-1.278a6.029,6.029,0,0,1-1.916,1.266.758.758,0,0,1-.228.075c-.075,0-.12-.065-.2-.217a2.445,2.445,0,0,0-.4-.553,6.865,6.865,0,0,0,2.468-1.256h-.1c-.91,0-1.223.022-1.3.022-.108,0-.118-.012-.118-.12,0-.075.022-.195.022-.551v-.421c0-.368-.022-.476-.022-.553,0-.108.01-.12.118-.12.076,0,.39.022,1.3.022h1.884Zm-2.5-.4c-1.039,0-1.376.022-1.451.022-.108,0-.12-.012-.12-.13v-.5c0-.108.011-.12.12-.12.075,0,.411.022,1.451.022h.984v-.443h-.5c-.953,0-1.266.022-1.331.022-.119,0-.13-.01-.13-.118v-.52c0-.108.012-.118.13-.118.065,0,.378.022,1.331.022h.5a5.578,5.578,0,0,0-.055-.638c.368.012.726.043.986.077.14.022.183.055.183.108a.364.364,0,0,1-.065.162.767.767,0,0,0-.043.292h.661c.963,0,1.278-.022,1.343-.022.108,0,.118.01.118.118v.52c0,.108-.01.118-.118.118-.065,0-.378-.022-1.343-.022h-.661v.443h1.138c1.028,0,1.374-.022,1.439-.022.108,0,.12.012.12.12v.5c0,.12-.012.13-.12.13-.065,0-.411-.022-1.439-.022Zm2.911,1.028h-2.728v.488h2.728Zm-.606,1.093a4.714,4.714,0,0,0,.726.563,6.235,6.235,0,0,0,.66-.541c-.151-.012-.5-.022-1.191-.022Z" transform="translate(-957.69 -418.151)" fill="#004097"/>
    <path id="パス_66" data-name="パス 66" d="M1278.3,200.65c0,.5.012.963.012,1.311,0,.551-.075.866-.346,1.083a2.21,2.21,0,0,1-1.364.25.364.364,0,0,1-.411-.325,2.207,2.207,0,0,0-.3-.791,6.917,6.917,0,0,0,1.039.077c.238,0,.336-.043.336-.346v-3.323h-4.211v1.266c0,1.061.022,1.581.022,1.646,0,.108-.012.12-.12.12h-.65c-.108,0-.12-.012-.12-.12v-.455h-1.786v.909c0,.108-.012.12-.12.12h-.681c-.12,0-.13-.012-.13-.12,0-.065.022-.618.022-1.721v-3.161c0-.681-.012-1.061-.055-1.547.238.012.693.033.921.055.108.012.14.077.14.12a1.065,1.065,0,0,1-.043.185,4.2,4.2,0,0,0-.055,1.039v3.128h.422v-4.925a14.2,14.2,0,0,0-.065-1.571c.3.012.681.033.941.065.108.012.162.065.162.13a1.485,1.485,0,0,1-.075.281,6.156,6.156,0,0,0-.043,1.083v4.937h.443V197.06a9.61,9.61,0,0,0-.075-1.537,7.418,7.418,0,0,1,.9.065c.1.022.152.065.152.108a2.1,2.1,0,0,1-.055.26,4.511,4.511,0,0,0-.055,1v.65h4.482c1.039,0,1.4-.022,1.461-.022.1,0,.108.012.108.12v.79c0,.108-.01.12-.108.12-.043,0-.248-.012-.693-.012v2.057Zm-1.677-5.25a3.161,3.161,0,0,0,2.175,1.148,1.853,1.853,0,0,0-.39.65c-.087.217-.108.292-.205.292a.818.818,0,0,1-.248-.065,3.629,3.629,0,0,1-2.057-1.547,3.489,3.489,0,0,1-1.841,1.516.6.6,0,0,1-.248.077c-.087,0-.141-.077-.238-.271a1.566,1.566,0,0,0-.433-.553,2.836,2.836,0,0,0,1.937-1.244h-.205c-.963,0-1.278.022-1.343.022-.12,0-.13-.012-.13-.12v-.65c0-.12.012-.13.13-.13.065,0,.378.022,1.343.022h.465a4.4,4.4,0,0,0,.033-1.114c.39.022.671.043,1,.087.12.022.195.055.195.12a.3.3,0,0,1-.043.152,1.182,1.182,0,0,0-.173.595l-.022.162h.833c.963,0,1.288-.022,1.354-.022.118,0,.13.012.13.108v.671c0,.108-.012.12-.13.12-.065,0-.39-.022-1.354-.022h-.53Zm-.12,5.153c0,.974.022,1.179.022,1.244,0,.118-.011.13-.12.13h-.671c-.108,0-.12-.012-.12-.13v-.162h-1.018v.5c0,.108-.011.12-.13.12h-.693c-.1,0-.108-.012-.108-.12,0-.065.022-.281.022-1.472v-.573c0-.575-.022-.811-.022-.888,0-.108.011-.118.108-.118.076,0,.271.022.888.022h.866c.606,0,.8-.022.878-.022.108,0,.12.01.12.118,0,.065-.022.3-.022.726v.628Zm-1.905-.638v.921h1.018v-.921Z" transform="translate(-1020.066 -416.166)" fill="#004097"/>
    <path id="パス_67" data-name="パス 67" d="M1357.634,202.439a10.273,10.273,0,0,1,.152,1.656,4.941,4.941,0,0,1-.974,3.128,3.1,3.1,0,0,1-2.63,1.126,2.764,2.764,0,0,1-2.815-3.042,6.081,6.081,0,0,1,1-3.236,4.485,4.485,0,0,1,.65-.79c-.357.055-.736.087-1.213.173-.185.032-.346.108-.433.108a.22.22,0,0,1-.185-.162,7.321,7.321,0,0,1-.292-1.1,5.429,5.429,0,0,0,1.114.022,13.568,13.568,0,0,0,1.417-.185,1.858,1.858,0,0,0,.758-.227.356.356,0,0,1,.173-.087.219.219,0,0,1,.152.087,2.769,2.769,0,0,1,.455.573.532.532,0,0,1,.1.248c0,.087-.055.152-.173.217a4.045,4.045,0,0,0-1.028.943,5.068,5.068,0,0,0-1.331,3.248c0,1.386.693,2.014,1.624,2.014a2.121,2.121,0,0,0,1.937-.986,5.468,5.468,0,0,0,.671-2.945,14.788,14.788,0,0,0-.065-1.624c-.022-.227-.055-.433-.077-.563s-.065-.271-.118-.445-.055-.238.108-.293a6.465,6.465,0,0,1,.811-.2c.087-.022.141.043.162.118a13.207,13.207,0,0,0,.726,1.624,10.916,10.916,0,0,0,1.776,2.457.211.211,0,0,1,.065.141.337.337,0,0,1-.075.173,5.021,5.021,0,0,1-.595.681.168.168,0,0,1-.12.055.2.2,0,0,1-.173-.13,12.111,12.111,0,0,1-1.494-2.793l-.055.022Z" transform="translate(-1089.767 -421.633)" fill="#004097"/>
    <path id="パス_68" data-name="パス 68" d="M1423.8,199.911a4.391,4.391,0,0,1,2.219-.616,2.412,2.412,0,0,1,2.608,2.457c0,1.764-1.537,2.933-4.2,3.335-.216.043-.313.055-.421-.152a2.354,2.354,0,0,0-.746-.823c2.62-.335,4.059-1.179,4.059-2.5,0-.888-.661-1.331-1.559-1.331a5.139,5.139,0,0,0-3.3,1.386,11.2,11.2,0,0,0-1.061,1.071.285.285,0,0,1-.173.12.2.2,0,0,1-.14-.077,5.235,5.235,0,0,1-.628-.66.288.288,0,0,1-.076-.13.183.183,0,0,1,.087-.13c.791-.726,1.331-1.288,1.98-1.97.618-.671,1.439-1.6,2.5-2.858-.746.152-1.352.282-2.067.433a3.691,3.691,0,0,0-.422.141.469.469,0,0,1-.228.075c-.075,0-.152-.065-.216-.2a6.162,6.162,0,0,1-.422-1.148,12.45,12.45,0,0,0,1.429-.065c.661-.077,1.5-.195,2.089-.3a1.242,1.242,0,0,0,.584-.195.316.316,0,0,1,.2-.076.31.31,0,0,1,.195.087,3.232,3.232,0,0,1,.725.726.294.294,0,0,1,.077.195.37.37,0,0,1-.228.3,2.407,2.407,0,0,0-.422.346c-.844.888-1.624,1.656-2.479,2.522l.043.043Z" transform="translate(-1149.226 -418.1)" fill="#004097"/>
    <path id="パス_69" data-name="パス 69" d="M1494.444,200.168a3.349,3.349,0,0,0-.012-.736,4.671,4.671,0,0,1,1.256.465.2.2,0,0,1,.075.293,1.859,1.859,0,0,0-.173.422c-.087.455-.195.931-.3,1.4a12.6,12.6,0,0,1,1.689,1.039c.108.065.1.118.065.227a9.34,9.34,0,0,1-.466.931c-.032.055-.065.077-.1.077a.2.2,0,0,1-.13-.077,8.81,8.81,0,0,0-1.419-1.018,6.655,6.655,0,0,1-2.187,2.847c-.1.075-.152.118-.217.118a.29.29,0,0,1-.162-.077,2.218,2.218,0,0,0-.941-.443,5.976,5.976,0,0,0,2.425-2.933,7.291,7.291,0,0,0-2.144-.66,7.528,7.528,0,0,1-1.321,2.165,1.772,1.772,0,0,1-1.386.595,1.308,1.308,0,0,1-1.288-1.482c0-1.342,1.386-2.392,3.193-2.392.357-.9.628-1.656.9-2.567-.595.065-1.137.13-1.494.173a2.385,2.385,0,0,0-.488.118.572.572,0,0,1-.195.043.175.175,0,0,1-.173-.12,6.62,6.62,0,0,1-.313-1.179,4,4,0,0,0,.953.065,12.276,12.276,0,0,0,1.677-.14,1.236,1.236,0,0,0,.53-.185.246.246,0,0,1,.142-.043.242.242,0,0,1,.151.043,3.592,3.592,0,0,1,.736.595.257.257,0,0,1,.1.185c0,.066-.043.118-.108.185a1.475,1.475,0,0,0-.292.563c-.281.736-.584,1.581-.909,2.36a8.957,8.957,0,0,1,2.1.541,10.74,10.74,0,0,0,.227-1.4Zm-5.716,3.02c0,.346.118.5.378.5a.87.87,0,0,0,.628-.411,7.386,7.386,0,0,0,.79-1.321c-1.1.043-1.8.618-1.8,1.234Z" transform="translate(-1206.837 -419.297)" fill="#004097"/>
    <path id="パス_70" data-name="パス 70" d="M1557.878,196.139a3.566,3.566,0,0,0-.021-1.049,7.113,7.113,0,0,1,1.3.227c.141.043.217.108.217.195a.359.359,0,0,1-.075.173,1.137,1.137,0,0,0-.185.4c-.055.293-.1.51-.151.888a19.818,19.818,0,0,0,2.035-.4c.151-.043.2-.032.228.108a4.9,4.9,0,0,1,.075.8c0,.118-.032.152-.13.173-.931.206-1.516.325-2.425.445-.152.9-.3,1.624-.5,2.382a4.682,4.682,0,0,1,3.106-1.148,2.2,2.2,0,0,1,2.414,2.045,2.429,2.429,0,0,1-1.234,2.187,7.234,7.234,0,0,1-2.76.866,5.015,5.015,0,0,1-.8.075c-.108,0-.185-.055-.271-.26a2.071,2.071,0,0,0-.585-.768,8.461,8.461,0,0,0,3.106-.595c.833-.346,1.234-.844,1.234-1.526,0-.563-.411-1.028-1.234-1.028a3.6,3.6,0,0,0-2.847,1.342c-.1.14-.2.271-.3.411-.077.13-.108.173-.2.162a3.011,3.011,0,0,1-.811-.238c-.173-.075-.238-.118-.238-.217a.765.765,0,0,1,.043-.217c.055-.183.1-.346.141-.508.238-.953.39-1.754.573-2.837-.585.043-1.266.1-1.819.1a.184.184,0,0,1-.2-.152c-.032-.13-.108-.585-.151-.941.844,0,1.516-.032,2.349-.1.055-.378.1-.736.13-1Z" transform="translate(-1264.755 -417.586)" fill="#004097"/>
    <path id="パス_71" data-name="パス 71" d="M9.289,8.31c-.09,0-.1-.009-.1-.1,0-.054.018-.533.018-2.945V3.595c0-1.68-.018-2.177-.018-2.24,0-.09.009-.1.1-.1.063,0,.379.018,1.255.018h.587a5.931,5.931,0,0,0,.334-.849,2.107,2.107,0,0,0,.1-.425c.307.027.7.09.966.135.081.018.126.072.126.117a.183.183,0,0,1-.072.126A.621.621,0,0,0,12.451.6a7.08,7.08,0,0,1-.316.677H13.9c.876,0,1.192-.018,1.255-.018.09,0,.1.009.1.1,0,.054-.018.56-.018,2V5.257c0,2.412.018,2.89.018,2.936,0,.09-.009.1-.1.1h-.8c-.09,0-.1-.009-.1-.1V7.786H10.175V8.21c0,.09-.009.1-.1.1Zm.885-5.185h4.074V2.141H10.175Zm4.074,1.861V3.974H10.175V4.986Zm0,1.933V5.835H10.175V6.919Z" transform="translate(31.254 -249.92)" fill="#004097"/>
    <path id="パス_72" data-name="パス 72" d="M59.806,10.1c.759-.163,1.581-.37,2.412-.623a4.491,4.491,0,0,0-.063.587c-.018.3-.018.289-.289.379-1.084.343-2.186.614-3.17.822a.9.9,0,0,0-.3.09.349.349,0,0,1-.181.072c-.072,0-.117-.063-.135-.145-.072-.271-.126-.578-.181-.885a6.672,6.672,0,0,0,.939-.108V5.409c0-1-.018-1.526-.018-1.59,0-.09.009-.1.1-.1.054,0,.5.018,1.355.018h3.252c.921,0,1.373-.018,1.427-.018.081,0,.09.009.09.1,0,.054-.018.289-.018.786v.831c0,.506.018.741.018.795,0,.09-.009.1-.09.1-.054,0-.506-.018-1.427-.018h-.813a10.426,10.426,0,0,0,.135,1.039l1.364-.036c.84-.027,1.165-.054,1.255-.054s.1.009.1.1l.018.7c0,.09-.009.1-.1.1s-.425,0-1.256.018l-1.183.036a5.123,5.123,0,0,0,.343.9c.37.795.876,1.219,1.2,1.219.226,0,.37-.316.425-1.183a2.55,2.55,0,0,0,.56.379.352.352,0,0,1,.226.406c-.172,1.03-.542,1.463-1.147,1.463-.641,0-1.445-.524-2.041-1.68a7.829,7.829,0,0,1-.542-1.481l-2.267.054ZM64.087,4.56H59.806v.93h4.281ZM59.806,6.312v1.12l2.077-.054c-.054-.334-.1-.686-.135-1.066Z" transform="translate(-10.123 -253.08)" fill="#004097"/>
    <path id="パス_73" data-name="パス 73" d="M120.6,3.452c.831,0,1.12-.018,1.174-.018.1,0,.108.009.108.1,0,.054-.018.253-.018.714v.876c0,.479.018.677.018.732,0,.09-.009.1-.108.1-.054,0-.334-.018-1.075-.018V7.444c0,.163.027.217.117.262a1.865,1.865,0,0,0,.732.072,1.564,1.564,0,0,0,.822-.126c.154-.108.217-.307.235-.876a2.23,2.23,0,0,0,.659.289.26.26,0,0,1,.217.3,1.34,1.34,0,0,1-.388.985c-.217.19-.6.289-1.635.289a3.209,3.209,0,0,1-1.418-.181c-.2-.117-.3-.28-.3-.714V5.936h-.686c-.172,1.554-.777,2.421-2.809,2.791a1.29,1.29,0,0,1-.208.027c-.081,0-.108-.054-.181-.217a2.2,2.2,0,0,0-.406-.614c1.815-.163,2.529-.7,2.656-1.987-.641.009-.894.018-.939.018-.1,0-.108-.009-.108-.1,0-.063.018-.253.018-.732V4.246c0-.461-.018-.659-.018-.714,0-.09.009-.1.108-.1.054,0,.343.018,1.174.018H120.6ZM117.5,2.07h1.445V1.483a6.079,6.079,0,0,0-.063-1c.325.009.65.027.966.063.081.009.135.054.135.09a.423.423,0,0,1-.054.19,1.822,1.822,0,0,0-.054.641V2.07h.641a7.427,7.427,0,0,0,.5-.948,2.41,2.41,0,0,0,.154-.488,8.128,8.128,0,0,1,.894.208c.081.027.135.063.135.126a.211.211,0,0,1-.1.154.828.828,0,0,0-.163.2c-.154.262-.307.524-.47.75H122c.831,0,1.129-.018,1.192-.018.09,0,.1.009.1.1,0,.054-.018.217-.018.452V3c0,.795.018.939.018.994,0,.09-.009.1-.1.1h-.732c-.09,0-.1-.009-.1-.1V2.837h-5.772V3.985c0,.1-.009.108-.1.108h-.732c-.09,0-.1-.009-.1-.108,0-.054.018-.19.018-.985V2.684c0-.316-.018-.479-.018-.533,0-.09.009-.1.1-.1.063,0,.361.018,1.192.018h.316a5.074,5.074,0,0,0-.569-1.03c-.054-.081-.045-.108.054-.145l.632-.226c.108-.036.126-.036.19.045a5.667,5.667,0,0,1,.569.994c.036.09.036.108-.072.154l-.569.208Zm3.441,2.141H118v.957h2.945Z" transform="translate(-59.01 -250.327)" fill="#004097"/>
    <path id="パス_74" data-name="パス 74" d="M175.444,6.486a1.69,1.69,0,0,0,.262-.506,7.786,7.786,0,0,1,.777.388c.072.045.108.09.108.154a.176.176,0,0,1-.108.154.748.748,0,0,0-.244.244,6.166,6.166,0,0,1-1.472,1.418c-.108.072-.172.117-.217.117-.063,0-.108-.054-.19-.19a1.586,1.586,0,0,0-.47-.479,5.4,5.4,0,0,0,1.554-1.3Zm-.126-3.974c-.822,0-1.093.009-1.147.009-.1,0-.108-.009-.108-.09v-.7c0-.09.009-.1.108-.1.054,0,.325.018,1.147.018h2.159V1.491a3.43,3.43,0,0,0-.063-.831c.334,0,.641.018.975.045.081.009.136.036.136.09a.523.523,0,0,1-.063.19,2.224,2.224,0,0,0-.036.515v.145H180.7c.813,0,1.093-.018,1.147-.018.09,0,.1.009.1.1v.7c0,.081-.009.09-.1.09-.054,0-.334-.009-1.147-.009h-5.383Zm4.1.632c.876,0,1.183-.018,1.246-.018.09,0,.1.009.1.1,0,.054-.018.244-.018.732v.985c0,.479.018.677.018.732,0,.09-.009.1-.1.1-.063,0-.37-.018-1.246-.018h-.912v.912c0,.415.027.8.027,1.138a.877.877,0,0,1-.289.795c-.2.163-.452.217-1.3.217-.271.009-.289.018-.352-.271a1.677,1.677,0,0,0-.28-.659,7.094,7.094,0,0,0,.831.054c.316,0,.406-.1.406-.325V5.754h-1.012c-.867,0-1.183.018-1.237.018-.1,0-.108-.009-.108-.1,0-.063.018-.253.018-.732V3.957c0-.488-.018-.668-.018-.732,0-.09.009-.1.108-.1.054,0,.37.018,1.237.018h2.881Zm.388.822h-3.667v.975h3.667Zm.2,2.1c.108-.063.126-.054.181.027a5.277,5.277,0,0,0,1.951,1.6,1.906,1.906,0,0,0-.47.578c-.09.145-.126.208-.19.208a.446.446,0,0,1-.208-.108,6.881,6.881,0,0,1-1.852-1.834c-.054-.081-.027-.1.063-.163Z" transform="translate(-108.652 -250.48)" fill="#004097"/>
    <path id="パス_75" data-name="パス 75" d="M233.683,2.365c.117-.208.226-.406.334-.623a3.472,3.472,0,0,0,.289-.759,3.823,3.823,0,0,1,.723.443c.081.063.117.1.117.154a.174.174,0,0,1-.1.135.949.949,0,0,0-.3.425,9.392,9.392,0,0,1-.741,1.21c.533,0,.768-.009.8-.009.1,0,.108,0,.108.09v.605c0,.09-.009.1-.108.1-.045,0-.325-.018-1.147-.018h-.28a9.087,9.087,0,0,1-.723.723h.876c.515,0,.759-.018.813-.018.1,0,.108.009.108.108,0,.054-.018.316-.018,1.237v.912c0,1.265.018,1.508.018,1.572,0,.081-.009.09-.108.09h-.659c-.09,0-.1-.009-.1-.09V8.335h-1.5v.379c0,.09,0,.1-.1.1h-.677c-.09,0-.1-.009-.1-.1,0-.054.018-.325.018-1.572v-1.2c-.135.1-.28.19-.425.28a.367.367,0,0,1-.172.072c-.063,0-.117-.054-.172-.2a1.367,1.367,0,0,0-.307-.47,9.248,9.248,0,0,0,2.123-1.508H231.6c-.822,0-1.1.018-1.156.018-.1,0-.108-.009-.108-.1V3.43c0-.09.009-.09.108-.09.054,0,.334.009,1.156.009h.343V2.455h-.217c-.641,0-.849.018-.9.018-.09,0-.1-.009-.1-.09v-.6c0-.09.009-.1.1-.1.054,0,.262.018.9.018h.217V1.669A6.2,6.2,0,0,0,231.876.54c.325.009.587.036.894.063.09.009.145.054.145.1a.46.46,0,0,1-.054.19c-.054.108-.045.244-.045.759v.054c.506,0,.714-.018.768-.018.09,0,.1.009.1.1v.578Zm-1.59,3.206V6.2h1.5V5.571Zm1.5,2.014V6.9h-1.5v.686Zm-.777-4.236H233a6.621,6.621,0,0,0,.614-.876h-.027c-.054,0-.262-.018-.768-.018ZM237.521.965a.646.646,0,0,0,.235-.027.4.4,0,0,1,.135-.027c.072,0,.145.036.379.271.19.217.217.3.217.37a.2.2,0,0,1-.09.163.826.826,0,0,0-.181.334c-.262.7-.515,1.31-.822,1.96a2.534,2.534,0,0,1,1.1,2.114c0,.939-.533,1.436-1.59,1.535a.279.279,0,0,1-.334-.271,1.1,1.1,0,0,0-.244-.6c.849.018,1.256-.208,1.256-.741,0-.569-.208-1.012-1.165-1.9a17.657,17.657,0,0,0,.93-2.366h-1.228V6.845c0,1.21.018,1.843.018,1.888,0,.09-.009.1-.1.1h-.723c-.1,0-.108-.009-.108-.1,0-.054.018-.65.018-1.879v-3.9c0-1.237-.018-1.843-.018-1.906,0-.09.009-.1.108-.1.054,0,.3.018.8.018h1.4Z" transform="translate(-156.451 -250.378)" fill="#004097"/>
    <path id="パス_76" data-name="パス 76" d="M289.72,3.481c0,.677-.009,1.283-.054,1.852a6.733,6.733,0,0,0,1.328-2.123,2.969,2.969,0,0,0,.2-.668,4.592,4.592,0,0,1,.759.289c.09.045.136.081.136.154s-.027.09-.1.154-.117.126-.208.352-.2.47-.307.7v3.45c0,.723.018,1.075.018,1.12,0,.09-.009.1-.1.1h-.7c-.09,0-.1-.009-.1-.1,0-.054.018-.4.018-1.12V6.868c0-.379,0-.867.009-1.319a7.572,7.572,0,0,1-.47.6c-.054.063-.1.1-.135.1s-.072-.036-.108-.108a2.483,2.483,0,0,0-.262-.515l-.081.677a7.414,7.414,0,0,1-.7,2.285c-.063.126-.1.19-.154.19s-.1-.045-.181-.145a2.833,2.833,0,0,0-.587-.515,5.594,5.594,0,0,0,.723-2.159,18.994,18.994,0,0,0,.135-2.637c0-1.165-.018-1.689-.018-1.743,0-.09.009-.1.1-.1.054,0,.352.018,1.21.018h1.8V1.332A3.558,3.558,0,0,0,291.834.6c.343,0,.659.027.957.054.09.009.154.045.154.09a.334.334,0,0,1-.063.172.886.886,0,0,0-.063.388v.19h2.023c.858,0,1.147-.018,1.21-.018.081,0,.09.009.09.1v.641c0,.1-.009.108-.09.108-.063,0-.352-.018-1.21-.018H289.72Zm3.459,1.246c-.795,0-1.066.018-1.12.018-.09,0-.1-.009-.1-.108V4.005c0-.09.009-.1.1-.1.054,0,.325.018,1.12.018h1.129V3.743a6.381,6.381,0,0,0-.072-1.165,7.911,7.911,0,0,1,.93.072c.081.009.135.054.135.1a.472.472,0,0,1-.063.19,3.124,3.124,0,0,0-.045.786v.2c.65,0,.894-.018.939-.018.09,0,.1.009.1.1v.632c0,.1-.009.108-.1.108-.045,0-.289-.009-.939-.018V6.435c0,.542.027.994.027,1.391a.737.737,0,0,1-.3.714c-.181.154-.542.217-1.409.217a.324.324,0,0,1-.343-.289,1.87,1.87,0,0,0-.235-.623c.352.027.759.036,1.03.036.253,0,.343-.072.343-.289V4.728Zm-.018,2.15a.371.371,0,0,1-.108.063c-.027,0-.045-.027-.072-.072a5.507,5.507,0,0,0-.813-1.246c-.072-.072-.063-.1.036-.163l.479-.307c.09-.054.108-.063.172.009a5.741,5.741,0,0,1,.876,1.183c.045.081.036.117-.063.181Z" transform="translate(-205.542 -250.429)" fill="#004097"/>
    <path id="パス_77" data-name="パス 77" d="M352.494,1.772a5.289,5.289,0,0,1-.506.65c-.09.1-.144.154-.19.154s-.1-.054-.208-.163a1.767,1.767,0,0,0-.452-.3q.163-.163.3-.325c-.054,0-.289-.018-.994-.018q.135.23.244.461c.036.081.027.1-.081.126L350,2.495c-.126.027-.145.027-.181-.081a4.342,4.342,0,0,0-.262-.641h-.65a5.076,5.076,0,0,1-.668.768c-.1.1-.154.145-.2.145s-.1-.054-.2-.163a2.359,2.359,0,0,0-.443-.361A4.437,4.437,0,0,0,348.547.715,1.734,1.734,0,0,0,348.71.3c.253.027.587.081.795.126.09.018.135.054.135.117a.183.183,0,0,1-.072.126.731.731,0,0,0-.154.226l-.081.154h1.048c.759,0,1-.018,1.057-.018.1,0,.108.009.108.1v.533a4.012,4.012,0,0,0,.551-.93,2.117,2.117,0,0,0,.145-.425A6.614,6.614,0,0,1,353,.435c.1.027.145.045.145.117s-.027.081-.072.126a.526.526,0,0,0-.136.217l-.063.154H354.2c.912,0,1.237-.018,1.292-.018.081,0,.09.009.09.1v.56c0,.09-.009.1-.09.1-.054,0-.379-.018-1.292-.018h-.145c.09.145.172.3.253.461.036.081.027.108-.09.135l-.587.135c-.126.027-.145.027-.181-.072a5.355,5.355,0,0,0-.28-.659h-.677Zm-2.954,1.653c-.876,0-1.174.018-1.228.018-.09,0-.1-.009-.1-.1V2.766c0-.09.009-.1.1-.1.054,0,.352.018,1.228.018h3.694c.93,0,1.391-.018,1.436-.018.1,0,.108.009.108.1,0,.054-.018.244-.018.677V4.03c0,.443.018.632.018.686,0,.09-.009.1-.108.1-.045,0-.506-.018-1.436-.018h-1.255l.009.623h1.978c.894,0,1.21-.018,1.265-.018.09,0,.117.018.108.108-.036.262-.054.524-.081.8a3.138,3.138,0,0,1-.3,1.265,1.094,1.094,0,0,1-1.066.47c-.154,0-.307,0-.524-.018-.253-.018-.271-.036-.325-.316a2.587,2.587,0,0,0-.208-.614,5.4,5.4,0,0,0,.894.09c.235,0,.379-.018.461-.172a2.959,2.959,0,0,0,.145-.858H352l.018.831c.009.876.054,1.355.054,1.508,0,.1-.009.108-.108.108H351.2c-.09,0-.1-.009-.1-.108,0-.172.018-.614.009-1.5l-.009-.37a6.751,6.751,0,0,1-2.881,1.734,1.057,1.057,0,0,1-.217.054c-.072,0-.108-.054-.19-.217a2.626,2.626,0,0,0-.388-.56,7.192,7.192,0,0,0,3.1-1.481h-1.563l-.09.253q-.036.108-.488.063c-.434-.045-.5-.045-.452-.154a10.928,10.928,0,0,0,.515-1.626,3.957,3.957,0,0,0,.108-.551c.009-.1.018-.117.108-.117.054,0,.361.018,1.228.018h1.183l-.009-.623h-1.526Zm1.554,2-.009-.623h-1.716l-.172.623Zm.867-2,.009.623h1.879V3.425Z" transform="translate(-256.042 -250.174)" fill="#004097"/>
    <path id="パス_78" data-name="パス 78" d="M407.029,5.97a4.142,4.142,0,0,0,.217-.876,6.069,6.069,0,0,1,.966.316c.09.045.136.081.136.154a.242.242,0,0,1-.072.145,1.151,1.151,0,0,0-.19.388,7.585,7.585,0,0,1-2.023,3.2c-.1.1-.144.154-.2.154s-.1-.054-.2-.172a3.047,3.047,0,0,0-.605-.488,6.066,6.066,0,0,0,1.969-2.818Zm-.47-1.707c-.831,0-1.111.018-1.165.018-.09,0-.1,0-.1-.09V3.405c0-.081.009-.09.1-.09.054,0,.334.018,1.165.018h2.086v-.7a4.841,4.841,0,0,0-.063-.948,9.187,9.187,0,0,1,1,.081c.09.009.154.054.154.126a.46.46,0,0,1-.054.19,2.039,2.039,0,0,0-.054.605v.65h2.231c.822,0,1.1-.018,1.156-.018.09,0,.1.009.1.09v.786c0,.09-.009.09-.1.09-.054,0-.334-.018-1.156-.018Zm4.236.9c.135-.036.154-.018.181.063a7.349,7.349,0,0,0,2.366,3.514,2.546,2.546,0,0,0-.714.56c-.09.117-.135.172-.19.172s-.09-.045-.181-.145a9.136,9.136,0,0,1-2.195-3.839c-.027-.1-.018-.117.117-.154Z" transform="translate(-305.022 -251.347)" fill="#004097"/>
    <path id="パス_79" data-name="パス 79" d="M466.727,8.539a1.316,1.316,0,0,0,.84.759,5.989,5.989,0,0,0,1.671.163c1.165,0,2.511-.045,3.866-.181a1.273,1.273,0,0,0-.226.605.328.328,0,0,1-.334.307c-1.147.063-2.222.09-3.161.09a6.338,6.338,0,0,1-2.132-.244,2.03,2.03,0,0,1-.948-.813,9.055,9.055,0,0,1-.84.768,1.236,1.236,0,0,0-.19.19c-.045.063-.081.09-.126.09s-.1-.045-.136-.117a7.476,7.476,0,0,1-.37-.831,3.291,3.291,0,0,0,.533-.3,4.845,4.845,0,0,0,.677-.56V6.452h-.37c-.47,0-.587.018-.632.018-.1,0-.108-.009-.108-.108V5.676c0-.09.009-.1.108-.1.045,0,.163.018.632.018h.506c.47,0,.614-.018.659-.018.09,0,.1.009.1.1,0,.054-.018.316-.018.876V8.539Zm-.452-4.119a.212.212,0,0,1-.117.063c-.027,0-.054-.018-.081-.063a6.841,6.841,0,0,0-1.111-1.409c-.072-.063-.054-.081.045-.154l.461-.334c.108-.072.126-.081.2-.018a7.227,7.227,0,0,1,1.138,1.346c.045.072.045.1-.054.181Zm1.6-1.3c-.551,0-.732.018-.786.018-.09,0-.1-.009-.1-.1V2.559c0-.09.009-.1.1-.1.054,0,.235.018.786.018h.921c.434,0,.587-.018.641-.018.1,0,.108.009.108.1,0,.054-.018.208-.018.578v.379c0,.361.018.524.018.578,0,.081-.009.09-.108.09-.054,0-.208-.018-.641-.018h-.912v.226c0,.208.018.271.054.307.063.054.163.063.461.063.325,0,.434-.018.5-.081s.054-.19.063-.406a3.052,3.052,0,0,0,.6.217c.172.045.181.054.145.289a.637.637,0,0,1-.19.406c-.163.145-.461.172-1.147.172s-.948-.027-1.093-.145c-.172-.135-.217-.307-.217-.686V4.041c0-.19-.018-.3-.018-.361,0-.09.009-.1.108-.1.054,0,.217.018.587.018h.976V3.119h-.831Zm.542,4.814c-.885,0-1.192.018-1.246.018-.09,0-.1-.009-.1-.108V7.356c0-.09.009-.1.1-.1.054,0,.361.018,1.246.018h.117V6.705c-.741,0-1.012.018-1.057.018-.1,0-.108-.009-.108-.108V6.127c0-.09.009-.1.108-.1.045,0,.316.018,1.057.018a4.678,4.678,0,0,0-.054-.578c.325.018.515.027.822.063.081.009.144.045.144.09s-.018.072-.054.135a.559.559,0,0,0-.045.289h1.147a2.449,2.449,0,0,0-.054-.578c.325.018.524.027.822.063.09.009.145.045.145.1s-.018.072-.054.135a.489.489,0,0,0-.045.271v.018c.714-.009.975-.027,1.03-.027.1,0,.108.009.108.1v.488c0,.1-.009.108-.108.108-.054,0-.316-.009-1.03-.018v.569h.163c.885,0,1.192-.018,1.246-.018.09,0,.1.009.1.1v.488c0,.1-.009.108-.1.108-.054,0-.361-.018-1.246-.018H471a5.521,5.521,0,0,0,1.816.659,2.08,2.08,0,0,0-.325.47c-.081.163-.135.226-.226.226a1.008,1.008,0,0,1-.208-.054,6.333,6.333,0,0,1-1.7-.84c-.072-.054-.054-.072.027-.154l.307-.307h-1.752c.163.1.316.2.461.307.09.063.126.09.126.135s-.045.081-.117.1-.181.117-.289.172a5.789,5.789,0,0,1-1.111.542.751.751,0,0,1-.217.063c-.081,0-.136-.063-.253-.2a2.078,2.078,0,0,0-.416-.379,6.681,6.681,0,0,0,1.31-.5,2.065,2.065,0,0,0,.352-.244h-.37Zm2.077-.659V6.705h-1.147v.569Zm.352-4.155c-.56,0-.723.018-.777.018-.1,0-.108-.009-.108-.1V2.559c0-.09.009-.1.108-.1.054,0,.217.018.777.018h.957c.424,0,.587-.018.641-.018.09,0,.1.009.1.1,0,.054-.018.208-.018.578v.379c0,.361.018.524.018.578,0,.081-.009.09-.1.09-.054,0-.217-.018-.641-.018h-.912V4.4c0,.208.009.253.054.3s.154.063.488.063c.28,0,.434-.018.488-.072s.081-.19.09-.415a2.283,2.283,0,0,0,.605.208c.208.036.208.063.172.307a.564.564,0,0,1-.19.388c-.172.154-.515.181-1.237.181s-.994-.027-1.138-.145c-.154-.135-.2-.307-.2-.686V4.041c0-.19-.018-.3-.018-.361,0-.09.009-.1.1-.1.063,0,.217.018.605.018h.976V3.119h-.84Z" transform="translate(-355.633 -252.009)" fill="#004097"/>
    <path id="パス_80" data-name="パス 80" d="M524.422,6.952c-.822,0-1.1.018-1.156.018-.1,0-.108-.009-.108-.1V6.257c0-.09.009-.1.108-.1.054,0,.334.018,1.156.018h2.195V5.624h-.957c-.876,0-1.183.018-1.237.018-.09,0-.1-.009-.1-.1v-.56c0-.09.009-.1.1-.1.054,0,.361.018,1.237.018h.957v-.56c-.352.036-.7.072-1.057.09-.163.009-.181-.009-.226-.135-.036-.1-.072-.226-.126-.343a6.342,6.342,0,0,1-1.581,1.138.577.577,0,0,1-.226.09c-.063,0-.09-.054-.144-.154a2.112,2.112,0,0,0-.406-.542,5.245,5.245,0,0,0,2.186-1.6h-.659c-.822,0-1.1.018-1.156.018-.09,0-.1-.009-.1-.1V2.192c0-.09.009-.1.1-.1.054,0,.334.018,1.156.018h5.347c.822,0,1.1-.018,1.156-.018.09,0,.1.009.1.1v.614c0,.09-.009.1-.1.1-.054,0-.334-.018-1.156-.018H529a5.463,5.463,0,0,0,2.339,1.517,2.212,2.212,0,0,0-.361.56c-.072.154-.1.217-.163.217a.756.756,0,0,1-.208-.09,6.693,6.693,0,0,1-2.6-2.2h-1.933a5.8,5.8,0,0,1-.641.831,11.963,11.963,0,0,0,2.087-.235,2.491,2.491,0,0,0,.5-.172c.162.135.334.307.533.506a.254.254,0,0,1,.09.154c0,.054-.045.09-.136.09a1.358,1.358,0,0,0-.316.036c-.19.036-.406.081-.641.117V4.9h.894c.867,0,1.165-.018,1.219-.018.09,0,.1.009.1.1v.56c0,.09-.009.1-.1.1-.054,0-.352-.018-1.219-.018h-.894v.551h2.132c.831,0,1.111-.018,1.165-.018.09,0,.1.009.1.1v.614c0,.09-.009.1-.1.1-.054,0-.334-.018-1.165-.018h-2.132c0,.37.018.677.018.9a.678.678,0,0,1-.271.65,2.679,2.679,0,0,1-1.391.19c-.271.009-.289.009-.352-.271a2.419,2.419,0,0,0-.235-.605,8.643,8.643,0,0,0,.994.045c.217,0,.307-.09.307-.289V6.952h-2.195ZM524.8.639c.108-.045.135-.027.19.045a6.516,6.516,0,0,1,.578.948c.045.09.045.1-.081.145l-.605.2c-.117.045-.145.036-.181-.063a5.208,5.208,0,0,0-.515-.939c-.054-.081-.045-.1.063-.135l.551-.2Zm2.1-.2c.108-.036.135-.018.181.063a6.373,6.373,0,0,1,.461,1.048c.018.081.009.108-.1.145l-.614.172c-.135.027-.154.018-.181-.081a5.066,5.066,0,0,0-.434-1.048c-.045-.09-.018-.1.09-.135Zm1.96.551a2.733,2.733,0,0,0,.172-.479,6.914,6.914,0,0,1,.876.226c.072.027.117.072.117.126s-.054.108-.117.163a.862.862,0,0,0-.19.235c-.135.235-.244.415-.388.632-.117.172-.154.172-.325.117a4.176,4.176,0,0,0-.668-.135A5.851,5.851,0,0,0,528.865.991Z" transform="translate(-405.08 -250.278)" fill="#004097"/>
    <path id="パス_81" data-name="パス 81" d="M585.856,9.65h5.257c.876,0,1.183-.018,1.237-.018.09,0,.1.009.1.1v.723c0,.09-.009.1-.1.1-.054,0-.361-.018-1.237-.018h-5.257v.388c0,.09-.009.1-.108.1h-.768c-.09,0-.1-.009-.1-.1,0-.054.018-.668.018-1.9v-3.9c0-1.237-.018-1.843-.018-1.9,0-.1.009-.108.1-.108.054,0,.361.018,1.21.018h4.859c.84,0,1.129-.018,1.183-.018.1,0,.108.009.108.108v.714c0,.09-.009.1-.108.1-.054,0-.343-.018-1.183-.018h-5.194Zm1.382-4.688c.081-.081.09-.09.172-.036.6.379,1.192.8,1.8,1.265a7.826,7.826,0,0,0,.677-1.12,2.717,2.717,0,0,0,.253-.732,5.1,5.1,0,0,1,.867.343c.09.045.135.081.135.154s-.045.108-.108.163a1.8,1.8,0,0,0-.253.415,10.336,10.336,0,0,1-.849,1.364c.542.443,1.075.912,1.617,1.409.045.036.063.063.063.09s-.018.063-.072.117l-.5.542a.14.14,0,0,1-.1.063.1.1,0,0,1-.081-.045c-.506-.524-1.021-1-1.536-1.454a8.935,8.935,0,0,1-2.231,1.689.6.6,0,0,1-.217.09c-.063,0-.108-.063-.2-.2a1.79,1.79,0,0,0-.488-.488,8.345,8.345,0,0,0,2.43-1.7c-.587-.47-1.183-.912-1.8-1.337-.045-.027-.063-.054-.063-.072s.027-.063.072-.108l.406-.415Z" transform="translate(-457.772 -252.57)" fill="#004097"/>
    <path id="パス_82" data-name="パス 82" d="M641.914,3.026c-.813,0-1.093.018-1.147.018-.09,0-.1-.009-.1-.1V2.231c0-.1.009-.108.1-.108.054,0,.334.018,1.147.018h2.168V2A6.449,6.449,0,0,0,644.01.84c.325.009.714.027,1.03.063.081.009.145.054.145.1a.472.472,0,0,1-.063.19,2.6,2.6,0,0,0-.054.714v.235h2.3c.813,0,1.093-.018,1.147-.018.09,0,.1.009.1.108v.714c0,.09-.009.1-.1.1-.054,0-.334-.018-1.147-.018h-2.3v1.12h1.319a.731.731,0,0,0,.262-.036.294.294,0,0,1,.117-.036c.063,0,.135.054.361.28.208.2.28.307.28.388s-.045.1-.126.163a.736.736,0,0,0-.217.244,8.237,8.237,0,0,1-1.653,1.924,9.9,9.9,0,0,0,3.36,1.021,3.228,3.228,0,0,0-.388.723c-.063.181-.09.235-.19.235a1.1,1.1,0,0,1-.2-.027,10.188,10.188,0,0,1-3.423-1.337,11.444,11.444,0,0,1-3.27,1.328.711.711,0,0,1-.2.036c-.09,0-.118-.063-.181-.235a2.5,2.5,0,0,0-.37-.641,11.482,11.482,0,0,0,3.261-1.084A6.36,6.36,0,0,1,642.348,5c-.614.009-.849.018-.894.018-.09,0-.1-.009-.1-.1v-.7c0-.09.009-.1.1-.1.054,0,.352.018,1.228.018h1.4V3.026h-2.168ZM643.386,5a5.165,5.165,0,0,0,1.247,1.535A5.653,5.653,0,0,0,645.969,5Z" transform="translate(-505.062 -250.633)" fill="#004097"/>
    <path id="パス_83" data-name="パス 83" d="M700.1,4.746c-.822,0-1.1.018-1.156.018-.081,0-.09-.009-.09-.1v-.65c0-.09.009-.1.09-.1.054,0,.334.018,1.156.018h1.31a8.842,8.842,0,0,0,.334-1.03,2.622,2.622,0,0,0,.072-.452,7.626,7.626,0,0,1,.786.181c.081.027.136.054.136.117a.2.2,0,0,1-.072.145.588.588,0,0,0-.117.208,8.157,8.157,0,0,1-.307.831c.7,0,.967-.018,1.021-.018.09,0,.1.009.1.1v.65c0,.09-.009.1-.1.1-.054,0-.334-.018-1.147-.018Zm.163-2.43c-.795,0-1.057.018-1.111.018-.09,0-.1-.009-.1-.1V1.6c0-.1.009-.108.1-.108.054,0,.316.018,1.111.018h.406V1.35a3.48,3.48,0,0,0-.054-.75c.325.009.605.036.912.063.09.009.145.045.145.081a.4.4,0,0,1-.063.181,1.3,1.3,0,0,0-.036.434v.154h.461c.786,0,1.048-.018,1.1-.018.09,0,.1.009.1.108v.632c0,.09-.009.1-.1.1-.054,0-.316-.018-1.1-.018Zm-.768,6.458c-.09,0-.1-.009-.1-.09,0-.063.018-.289.018-1.526v-.65c0-.7-.018-.948-.018-1.012,0-.09.009-.1.1-.1.063,0,.3.018,1,.018h1.3c.7,0,.948-.018,1-.018.1,0,.108.009.108.1,0,.054-.018.307-.018.885v.75c0,1.237.018,1.463.018,1.517,0,.1-.009.108-.108.108h-.7c-.09,0-.1-.009-.1-.108V8.232h-1.716v.452c0,.081-.009.09-.1.09h-.7Zm.578-4.968c-.135.036-.145.018-.163-.09a5,5,0,0,0-.253-.994c-.036-.1-.018-.1.1-.135l.5-.135c.108-.027.135-.018.172.072a5.847,5.847,0,0,1,.289.994c.018.1,0,.1-.108.135Zm.217,3.631H702V6.2h-1.716Zm5.736-6.422a.621.621,0,0,0,.226-.027.4.4,0,0,1,.136-.027c.072,0,.144.036.379.271.19.217.217.3.217.37a.22.22,0,0,1-.081.163c-.063.045-.108.126-.19.334-.262.7-.515,1.31-.822,1.96a2.534,2.534,0,0,1,1.1,2.114c0,.939-.533,1.436-1.59,1.535a.274.274,0,0,1-.325-.271,1.215,1.215,0,0,0-.253-.6c.849.018,1.255-.208,1.255-.741,0-.569-.208-1.012-1.165-1.9a17.663,17.663,0,0,0,.93-2.366h-1.265V6.9c0,1.21.018,1.843.018,1.888,0,.09-.009.1-.1.1h-.722c-.1,0-.108-.009-.108-.1,0-.054.018-.65.018-1.879V3c0-1.237-.018-1.843-.018-1.906,0-.09.009-.1.108-.1.054,0,.3.018.8.018h1.445Z" transform="translate(-554.585 -250.429)" fill="#004097"/>
    <path id="パス_84" data-name="パス 84" d="M759.178,7.63c-.8,0-1.084.018-1.138.018-.081,0-.09-.009-.09-.1V6.881c0-.09.009-.1.09-.1.054,0,.334.018,1.138.018h.271V4.18c0-.659-.018-.966-.018-1.021,0-.09.009-.1.1-.1.054,0,.37.018,1.246.018h3.017c.876,0,1.174-.018,1.228-.018.1,0,.108.009.108.1v.659c0,.081-.009.09-.108.09-.054,0-.352-.018-1.228-.018h-3.387V4.4h3.008c.84,0,1.12-.018,1.174-.018.09,0,.1.009.1.108v.524c0,.09-.009.1-.1.1-.054,0-.334-.018-1.174-.018h-3.008v.5h3.008c.84,0,1.111-.018,1.165-.018.1,0,.108.009.108.108V6.2c0,.09-.009.1-.108.1-.054,0-.325-.018-1.165-.018h-3.008V6.8h4.336c.8,0,1.075-.018,1.129-.018.1,0,.108.009.108.1v.668c0,.09-.009.1-.108.1-.054,0-.325-.018-1.129-.018H762.2a3.846,3.846,0,0,0,.948,1.138,7.479,7.479,0,0,0,.921-.741,1.319,1.319,0,0,0,.289-.37c.289.181.5.307.722.479.063.045.09.081.09.135s-.045.081-.108.09a.9.9,0,0,0-.316.19,9.881,9.881,0,0,1-.921.659,7.517,7.517,0,0,0,2.366.777,2.3,2.3,0,0,0-.388.623.335.335,0,0,1-.406.217,5.733,5.733,0,0,1-4.1-3.2h-.885V9.563c.542-.126,1.093-.262,1.689-.434a3.777,3.777,0,0,0-.036.569.353.353,0,0,1-.28.37c-.994.3-1.987.551-2.881.741a.77.77,0,0,0-.316.117.2.2,0,0,1-.135.054c-.036,0-.072-.036-.108-.117-.09-.253-.19-.623-.253-.876a8.9,8.9,0,0,0,.966-.135l.4-.081V7.63h-.271Z" transform="translate(-604.788 -252.519)" fill="#004097"/>
    <path id="パス_85" data-name="パス 85" d="M3.6,84.486a1.689,1.689,0,0,0,.262-.506,7.785,7.785,0,0,1,.777.388c.072.045.108.09.108.154a.176.176,0,0,1-.108.154.748.748,0,0,0-.244.244,6.166,6.166,0,0,1-1.472,1.418c-.108.072-.172.117-.217.117-.063,0-.108-.054-.19-.19a1.586,1.586,0,0,0-.47-.479A5.4,5.4,0,0,0,3.6,84.486Zm-.126-3.974c-.822,0-1.093.009-1.147.009-.1,0-.108-.009-.108-.09v-.7c0-.09.009-.1.108-.1.054,0,.325.018,1.147.018H5.636v-.154a3.43,3.43,0,0,0-.063-.831c.334,0,.641.018.975.045.081.009.135.036.135.09a.523.523,0,0,1-.063.19,2.226,2.226,0,0,0-.036.515v.145H8.86c.813,0,1.093-.018,1.147-.018.09,0,.1.009.1.1v.7c0,.081-.009.09-.1.09-.054,0-.334-.009-1.147-.009Zm4.1.632c.876,0,1.183-.018,1.246-.018.09,0,.1.009.1.1,0,.054-.018.244-.018.732v.985c0,.479.018.677.018.732,0,.09-.009.1-.1.1-.063,0-.37-.018-1.246-.018H6.666v.912c0,.415.027.8.027,1.138A.877.877,0,0,1,6.4,86.6c-.2.163-.452.217-1.3.217-.271.009-.289.018-.352-.271a1.677,1.677,0,0,0-.28-.659,7.094,7.094,0,0,0,.831.054c.316,0,.406-.1.406-.325V83.754H4.7c-.867,0-1.183.018-1.237.018-.1,0-.108-.009-.108-.1,0-.063.018-.253.018-.732v-.985c0-.488-.018-.668-.018-.732,0-.09.009-.1.108-.1.054,0,.37.018,1.237.018H7.578Zm.388.822H4.3v.975H7.966Zm.2,2.1c.108-.063.126-.054.181.027a5.277,5.277,0,0,0,1.951,1.6,1.906,1.906,0,0,0-.47.578c-.09.145-.126.208-.19.208a.446.446,0,0,1-.208-.108,6.881,6.881,0,0,1-1.852-1.834c-.054-.081-.027-.1.063-.163Z" transform="translate(37.319 -316.738)" fill="#004097"/>
    <path id="パス_86" data-name="パス 86" d="M61.843,80.365c.117-.208.226-.406.334-.623a3.472,3.472,0,0,0,.289-.759,3.822,3.822,0,0,1,.723.443c.081.063.117.1.117.154a.174.174,0,0,1-.1.135.949.949,0,0,0-.3.425,9.393,9.393,0,0,1-.741,1.21c.533,0,.768-.009.8-.009.1,0,.108,0,.108.09v.605c0,.09-.009.1-.108.1-.045,0-.325-.018-1.147-.018h-.28a9.091,9.091,0,0,1-.723.723H61.7c.515,0,.759-.018.813-.018.1,0,.108.009.108.108,0,.054-.018.316-.018,1.237v.912c0,1.265.018,1.508.018,1.572,0,.081-.009.09-.108.09h-.659c-.09,0-.1-.009-.1-.09v-.316h-1.5v.379c0,.09,0,.1-.1.1h-.677c-.09,0-.1-.009-.1-.1,0-.054.018-.325.018-1.572v-1.2c-.135.1-.28.19-.425.28a.367.367,0,0,1-.172.072c-.063,0-.117-.054-.172-.2a1.367,1.367,0,0,0-.307-.47,9.248,9.248,0,0,0,2.123-1.508h-.686c-.822,0-1.1.018-1.156.018-.1,0-.108-.009-.108-.1V81.43c0-.09.009-.09.108-.09.054,0,.334.009,1.156.009H60.1v-.894h-.217c-.641,0-.849.018-.9.018-.09,0-.1-.009-.1-.09v-.6c0-.09.009-.1.1-.1.054,0,.262.018.9.018H60.1v-.036a6.2,6.2,0,0,0-.063-1.129c.325.009.587.036.894.063.09.009.145.054.145.1a.46.46,0,0,1-.054.19c-.054.108-.045.244-.045.759v.054c.506,0,.714-.018.768-.018.09,0,.1.009.1.1v.578Zm-1.59,3.206V84.2h1.5v-.632Zm1.5,2.014V84.9h-1.5v.686Zm-.777-4.236h.181a6.622,6.622,0,0,0,.614-.876h-.027c-.054,0-.262-.018-.768-.018Zm4.706-2.385a.646.646,0,0,0,.235-.027.4.4,0,0,1,.135-.027c.072,0,.145.036.379.271.19.217.217.3.217.37a.2.2,0,0,1-.09.163.826.826,0,0,0-.181.334c-.262.7-.515,1.31-.822,1.96a2.534,2.534,0,0,1,1.1,2.114c0,.939-.533,1.436-1.59,1.535a.279.279,0,0,1-.334-.271,1.1,1.1,0,0,0-.244-.6c.849.018,1.256-.208,1.256-.741,0-.569-.208-1.012-1.165-1.9a17.657,17.657,0,0,0,.93-2.366H64.281v5.058c0,1.21.018,1.843.018,1.888,0,.09-.009.1-.1.1h-.723c-.1,0-.108-.009-.108-.1,0-.054.018-.65.018-1.879v-3.9c0-1.237-.018-1.843-.018-1.906,0-.09.009-.1.108-.1.054,0,.3.018.8.018Z" transform="translate(-10.48 -316.636)" fill="#004097"/>
    <path id="パス_87" data-name="パス 87" d="M117.88,81.481c0,.677-.009,1.283-.054,1.852a6.733,6.733,0,0,0,1.328-2.123,2.97,2.97,0,0,0,.2-.668,4.593,4.593,0,0,1,.759.289c.09.045.135.081.135.154s-.027.09-.1.154-.117.126-.208.352-.2.47-.307.7v3.45c0,.723.018,1.075.018,1.12,0,.09-.009.1-.1.1h-.7c-.09,0-.1-.009-.1-.1,0-.054.018-.4.018-1.12v-.768c0-.379,0-.867.009-1.319a7.573,7.573,0,0,1-.47.6c-.054.063-.1.1-.135.1s-.072-.036-.108-.108a2.483,2.483,0,0,0-.262-.515l-.081.677a7.413,7.413,0,0,1-.7,2.285c-.063.126-.1.19-.154.19s-.1-.045-.181-.145a2.834,2.834,0,0,0-.587-.515,5.593,5.593,0,0,0,.723-2.159,19,19,0,0,0,.135-2.637c0-1.165-.018-1.689-.018-1.743,0-.09.009-.1.1-.1.054,0,.352.018,1.21.018h1.8v-.163a3.56,3.56,0,0,0-.063-.732c.343,0,.659.027.957.054.09.009.154.045.154.09a.334.334,0,0,1-.063.172.886.886,0,0,0-.063.388v.19H123c.858,0,1.147-.018,1.21-.018.081,0,.09.009.09.1v.641c0,.1-.009.108-.09.108-.063,0-.352-.018-1.21-.018H117.88Zm3.459,1.246c-.795,0-1.066.018-1.12.018-.09,0-.1-.009-.1-.108v-.632c0-.09.009-.1.1-.1.054,0,.325.018,1.12.018h1.129v-.181a6.378,6.378,0,0,0-.072-1.165,7.91,7.91,0,0,1,.93.072c.081.009.135.054.135.1a.472.472,0,0,1-.063.19,3.125,3.125,0,0,0-.045.786v.2c.65,0,.894-.018.939-.018.09,0,.1.009.1.1v.632c0,.1-.009.108-.1.108-.045,0-.289-.009-.939-.018v1.707c0,.542.027.994.027,1.391a.737.737,0,0,1-.3.714c-.181.154-.542.217-1.409.217a.324.324,0,0,1-.343-.289,1.87,1.87,0,0,0-.235-.623c.352.027.759.036,1.03.036.253,0,.343-.072.343-.289V82.728H121.34Zm-.018,2.15a.371.371,0,0,1-.108.063c-.027,0-.045-.027-.072-.072a5.51,5.51,0,0,0-.813-1.246c-.072-.072-.063-.1.036-.163l.479-.307c.09-.054.108-.063.172.009a5.742,5.742,0,0,1,.876,1.183c.045.081.036.117-.063.181l-.506.352Z" transform="translate(-59.57 -316.687)" fill="#004097"/>
    <path id="パス_88" data-name="パス 88" d="M177.342,79.935c.686,0,.912-.018.966-.018.09,0,.1.009.1.1v.641c0,.1-.009.108-.1.108-.054,0-.28-.018-.966-.018h-.686c-.7,0-.912.018-.966.018-.09,0-.1-.009-.1-.108v-.641c0-.09.009-.1.1-.1.054,0,.271.018.966.018Zm.831,5.13c0,1.048.018,1.246.018,1.3,0,.09-.009.1-.1.1h-.605c-.09,0-.1-.009-.1-.1v-.2h-.668v.361c0,.09-.009.1-.1.1h-.614c-.1,0-.108-.009-.108-.1,0-.054.018-.262.018-1.355V84.6c0-.569-.018-.795-.018-.849,0-.09.009-.1.108-.1.054,0,.244.018.822.018h.434c.578,0,.768-.018.831-.018.09,0,.1.009.1.1,0,.054-.018.271-.018.7ZM177.3,78.7c.578,0,.759-.018.813-.018.1,0,.108.009.108.1v.6c0,.09-.009.1-.108.1-.054,0-.235-.018-.813-.018h-.47c-.587,0-.768.018-.822.018-.09,0-.1-.009-.1-.1v-.6c0-.09.009-.1.1-.1.054,0,.235.018.822.018Zm-.072,2.52c.542,0,.7-.018.759-.018.1,0,.108.009.108.1v.587c0,.09-.009.1-.108.1-.054,0-.217-.018-.759-.018h-.361c-.551,0-.714.018-.768.018-.09,0-.1-.009-.1-.1V81.3c0-.09.009-.1.1-.1.054,0,.217.018.768.018Zm0,1.219c.542,0,.7-.018.759-.018.1,0,.108.009.108.1V83.1c0,.09-.009.1-.108.1-.054,0-.217-.018-.759-.018h-.361c-.551,0-.714.018-.768.018-.09,0-.1-.009-.1-.1v-.578c0-.09.009-.1.1-.1.054,0,.217.018.768.018Zm-.506,1.978v1h.668v-1Zm5.474-.578a4.016,4.016,0,0,0,.208.8,2.7,2.7,0,0,0,.217-.253,2.832,2.832,0,0,0,.271-.452,3.745,3.745,0,0,1,.533.307c.081.054.108.09.108.145s-.036.09-.108.126a1.6,1.6,0,0,0-.271.28c-.135.163-.271.325-.434.488.217.361.388.479.515.479s.217-.208.289-.813a2.438,2.438,0,0,0,.352.244c.217.117.235.126.19.4-.117.7-.361.948-.768.948a1.4,1.4,0,0,1-1.156-.759,5.3,5.3,0,0,1-1.03.587.651.651,0,0,1-.217.072c-.063,0-.1-.063-.19-.217a1.914,1.914,0,0,0-.3-.379,4.335,4.335,0,0,0,1.391-.668,4.895,4.895,0,0,1-.37-1.328l-1.057.018v.415l.786-.154a4.039,4.039,0,0,0-.063.5c-.009.163-.009.181-.154.208l-.569.108c.009.253.027.488.027.723,0,.452-.063.632-.244.741a1.7,1.7,0,0,1-.912.163.3.3,0,0,1-.334-.271,2.117,2.117,0,0,0-.172-.479,3.946,3.946,0,0,0,.578.045c.253,0,.307-.072.307-.307v-.479l-.578.081a1.048,1.048,0,0,0-.325.081.3.3,0,0,1-.126.054c-.045,0-.081-.027-.1-.126-.045-.2-.09-.461-.117-.659a5.08,5.08,0,0,0,.7-.045c.181-.018.361-.036.551-.063v-.524c-.7.009-.957.027-1.048.027s-.09-.009-.09-.1l-.009-.479c0-.09.009-.09.1-.09s.361.009,1.048,0v-.37l-.551.081a.2.2,0,0,1-.244-.135,1.968,1.968,0,0,0-.2-.434,9.84,9.84,0,0,0,1.635-.289,1.294,1.294,0,0,0,.352-.145,3.1,3.1,0,0,1,.434.4.159.159,0,0,1,.054.117c0,.054-.054.081-.126.09a1.794,1.794,0,0,0-.271.054c-.108.036-.217.072-.334.1v.515l.975-.009-.027-.6a3.166,3.166,0,0,0-.072-.6,5.4,5.4,0,0,1,.732.054c.126.018.2.045.2.117a.5.5,0,0,1-.045.154,1.364,1.364,0,0,0-.027.425c0,.154.009.3.018.434l.461-.009c.822-.018,1.138-.036,1.228-.036s.09.009.09.1l.009.479c0,.081-.009.09-.09.09s-.415,0-1.237.009Zm-2.385-1.987c-.867,0-1.174.018-1.228.018-.081,0-.09-.009-.09-.1V81.29c0-.09.009-.1.09-.1.054,0,.361.018,1.228.018h.84V80.8h-.415c-.8,0-1.066.018-1.12.018-.1,0-.108-.009-.108-.1v-.452c0-.081.009-.09.108-.09.054,0,.316.018,1.12.018h.415v-.4h-.614c-.849,0-1.138.018-1.2.018-.09,0-.1-.009-.1-.1v-.47c0-.09.009-.1.1-.1.054,0,.316.018.994.018a4.475,4.475,0,0,0-.343-.56c-.054-.081-.027-.1.09-.135l.488-.126c.108-.027.126-.027.181.045a4.638,4.638,0,0,1,.461.777h.759a4.383,4.383,0,0,0,.28-.479,1.553,1.553,0,0,0,.145-.388c.28.045.533.09.786.154.081.027.126.054.126.1,0,.063-.027.09-.081.126a.537.537,0,0,0-.154.163c-.081.108-.145.217-.226.325h.045c.849,0,1.147-.018,1.2-.018.09,0,.1.009.1.1v.47c0,.09-.009.1-.1.1-.054,0-.352-.018-1.2-.018h-.9v.4h.605c.8,0,1.066-.018,1.12-.018.09,0,.1.009.1.09v.452c0,.09-.009.1-.1.1-.054,0-.316-.018-1.12-.018h-.605v.406h1.075c.867,0,1.174-.018,1.228-.018.09,0,.09.009.09.1v.479c0,.09,0,.1-.09.1-.054,0-.361-.018-1.228-.018h-2.746Zm2.917.172c.09-.045.108-.063.19-.009a3.218,3.218,0,0,1,.668.578c.063.063.063.09-.027.154l-.379.262c-.045.036-.072.054-.1.054s-.036-.018-.072-.063a3.985,3.985,0,0,0-.623-.614c-.081-.054-.072-.09.018-.145Z" transform="translate(-110.096 -316.432)" fill="#004097"/>
    <path id="パス_89" data-name="パス 89" d="M237.531,80.861a10.561,10.561,0,0,1-1.635.975.592.592,0,0,1-.217.081c-.063,0-.09-.063-.163-.226a2.112,2.112,0,0,0-.406-.6,7.539,7.539,0,0,0,3.468-2.628,2.693,2.693,0,0,0,.316-.587,6.922,6.922,0,0,1,.976.19c.108.027.163.063.163.126a.149.149,0,0,1-.09.145.77.77,0,0,0-.126.081,8.134,8.134,0,0,0,3.821,2.583,2.683,2.683,0,0,0-.388.677c-.063.163-.09.226-.154.226a.621.621,0,0,1-.208-.072,9.95,9.95,0,0,1-1.725-.957v.668c0,.09-.009.1-.1.1-.054,0-.3-.018-1.021-.018h-1.391c-.723,0-.966.018-1.021.018-.09,0-.1-.009-.1-.1v-.686Zm-.578,2.448c-.849,0-1.138.018-1.192.018-.1,0-.108-.009-.108-.1V82.55c0-.09.009-.1.108-.1.054,0,.343.018,1.192.018h4.814c.849,0,1.138-.018,1.192-.018.1,0,.108.009.108.1v.677c0,.09-.009.1-.108.1-.054,0-.343-.018-1.192-.018h-2.791a16.906,16.906,0,0,1-.8,1.7c.939-.054,1.924-.135,2.782-.226-.208-.253-.415-.506-.659-.768-.063-.072-.054-.108.054-.163l.578-.3c.1-.054.126-.045.19.018a15.941,15.941,0,0,1,1.68,2.1c.045.072.045.108-.045.172l-.623.406c-.054.036-.081.054-.108.054s-.045-.018-.072-.063c-.154-.253-.307-.488-.452-.7-1.5.19-3.342.343-4.877.461a.8.8,0,0,0-.325.081.228.228,0,0,1-.154.054c-.063,0-.108-.045-.126-.126-.081-.3-.135-.614-.19-.93a7.162,7.162,0,0,0,.985,0c.09,0,.19-.009.289-.009a14.584,14.584,0,0,0,.795-1.752Zm3.089-2.52c.605,0,.876-.009.976-.018a8.23,8.23,0,0,1-1.707-1.653,8.428,8.428,0,0,1-1.653,1.653c.081.009.334.018.994.018Z" transform="translate(-160.656 -316.076)" fill="#004097"/>
    <path id="パス_90" data-name="パス 90" d="M296.022,79.935c.686,0,.912-.018.966-.018.09,0,.1.009.1.1v.641c0,.1-.009.108-.1.108-.054,0-.28-.018-.966-.018h-.686c-.7,0-.912.018-.966.018-.09,0-.1-.009-.1-.108v-.641c0-.09.009-.1.1-.1.054,0,.271.018.966.018Zm.831,5.13c0,1.048.018,1.246.018,1.3,0,.09-.009.1-.1.1h-.605c-.09,0-.1-.009-.1-.1v-.2H295.4v.361c0,.09-.009.1-.1.1h-.614c-.1,0-.108-.009-.108-.1,0-.054.018-.262.018-1.355V84.6c0-.569-.018-.795-.018-.849,0-.09.009-.1.108-.1.054,0,.244.018.822.018h.434c.578,0,.768-.018.831-.018.09,0,.1.009.1.1,0,.054-.018.271-.018.7Zm-.876-6.368c.578,0,.759-.018.813-.018.1,0,.108.009.108.1v.6c0,.09-.009.1-.108.1-.054,0-.235-.018-.813-.018h-.47c-.587,0-.768.018-.822.018-.09,0-.1-.009-.1-.1v-.6c0-.09.009-.1.1-.1.054,0,.235.018.822.018Zm-.072,2.52c.542,0,.7-.018.759-.018.1,0,.108.009.108.1v.587c0,.09-.009.1-.108.1-.054,0-.217-.018-.759-.018h-.361c-.551,0-.714.018-.768.018-.09,0-.1-.009-.1-.1V81.3c0-.09.009-.1.1-.1.054,0,.217.018.768.018Zm0,1.219c.542,0,.7-.018.759-.018.1,0,.108.009.108.1V83.1c0,.09-.009.1-.108.1-.054,0-.217-.018-.759-.018h-.361c-.551,0-.714.018-.768.018-.09,0-.1-.009-.1-.1v-.578c0-.09.009-.1.1-.1.054,0,.217.018.768.018Zm-.506,1.978v1h.668v-1Zm5.474-.578a4.014,4.014,0,0,0,.208.8,2.7,2.7,0,0,0,.217-.253,2.831,2.831,0,0,0,.271-.452,3.745,3.745,0,0,1,.533.307c.081.054.108.09.108.145s-.036.09-.108.126a1.6,1.6,0,0,0-.271.28c-.136.163-.271.325-.434.488.217.361.388.479.515.479s.217-.208.289-.813a2.439,2.439,0,0,0,.352.244c.217.117.235.126.19.4-.117.7-.361.948-.768.948a1.4,1.4,0,0,1-1.156-.759,5.3,5.3,0,0,1-1.03.587.651.651,0,0,1-.217.072c-.063,0-.1-.063-.19-.217a1.911,1.911,0,0,0-.3-.379,4.334,4.334,0,0,0,1.391-.668,4.9,4.9,0,0,1-.37-1.328l-1.057.018v.415l.786-.154a4.031,4.031,0,0,0-.063.5c-.009.163-.009.181-.154.208l-.569.108c.009.253.027.488.027.723,0,.452-.063.632-.244.741a1.7,1.7,0,0,1-.912.163.3.3,0,0,1-.334-.271,2.121,2.121,0,0,0-.172-.479,3.946,3.946,0,0,0,.578.045c.253,0,.307-.072.307-.307v-.479l-.578.081a1.048,1.048,0,0,0-.325.081.3.3,0,0,1-.126.054c-.045,0-.081-.027-.1-.126-.045-.2-.09-.461-.117-.659a5.08,5.08,0,0,0,.7-.045c.181-.018.361-.036.551-.063v-.524c-.7.009-.957.027-1.048.027s-.09-.009-.09-.1l-.009-.479c0-.09.009-.09.1-.09s.361.009,1.048,0v-.37l-.551.081a.2.2,0,0,1-.244-.135,1.97,1.97,0,0,0-.2-.434,9.839,9.839,0,0,0,1.635-.289,1.294,1.294,0,0,0,.352-.145,3.106,3.106,0,0,1,.434.4.159.159,0,0,1,.054.117c0,.054-.054.081-.126.09a1.8,1.8,0,0,0-.271.054c-.108.036-.217.072-.334.1v.515l.976-.009-.027-.6a3.166,3.166,0,0,0-.072-.6,5.4,5.4,0,0,1,.732.054c.126.018.2.045.2.117a.5.5,0,0,1-.045.154,1.363,1.363,0,0,0-.027.425c0,.154.009.3.018.434l.461-.009c.822-.018,1.138-.036,1.228-.036s.09.009.09.1l.009.479c0,.081-.009.09-.09.09s-.416,0-1.237.009Zm-2.385-1.987c-.867,0-1.174.018-1.228.018-.081,0-.09-.009-.09-.1V81.29c0-.09.009-.1.09-.1.054,0,.361.018,1.228.018h.84V80.8h-.415c-.8,0-1.066.018-1.12.018-.1,0-.108-.009-.108-.1v-.452c0-.081.009-.09.108-.09.054,0,.316.018,1.12.018h.415v-.4h-.614c-.849,0-1.138.018-1.2.018-.09,0-.1-.009-.1-.1v-.47c0-.09.009-.1.1-.1.054,0,.316.018.994.018a4.484,4.484,0,0,0-.343-.56c-.054-.081-.027-.1.09-.135l.488-.126c.108-.027.126-.027.181.045a4.642,4.642,0,0,1,.461.777h.759a4.38,4.38,0,0,0,.28-.479,1.553,1.553,0,0,0,.145-.388c.28.045.533.09.786.154.081.027.126.054.126.1,0,.063-.027.09-.081.126a.537.537,0,0,0-.154.163c-.081.108-.145.217-.226.325h.045c.849,0,1.147-.018,1.2-.018.09,0,.1.009.1.1v.47c0,.09-.009.1-.1.1-.054,0-.352-.018-1.2-.018h-.9v.4h.605c.8,0,1.066-.018,1.12-.018.09,0,.1.009.1.09v.452c0,.09-.009.1-.1.1-.054,0-.316-.018-1.12-.018h-.605v.406h1.075c.867,0,1.174-.018,1.228-.018.09,0,.09.009.09.1v.479c0,.09,0,.1-.09.1-.054,0-.361-.018-1.228-.018h-2.746Zm2.917.172c.09-.045.108-.063.19-.009a3.218,3.218,0,0,1,.668.578c.063.063.063.09-.027.154l-.379.262c-.045.036-.072.054-.1.054s-.036-.018-.072-.063a3.987,3.987,0,0,0-.623-.614c-.081-.054-.072-.09.018-.145Z" transform="translate(-210.91 -316.432)" fill="#004097"/>
    <path id="パス_91" data-name="パス 91" d="M357.56,86.9a4.44,4.44,0,0,1,.7.406c.09.063.117.09.117.145s-.054.108-.145.126a1.533,1.533,0,0,0-.352.163,7.5,7.5,0,0,1-2.014.777,1.292,1.292,0,0,1-.19.036c-.1,0-.126-.063-.217-.244a2.575,2.575,0,0,0-.416-.569,6.716,6.716,0,0,0,2.014-.56,1.757,1.757,0,0,0,.452-.28h-.217c-.885,0-1.2.018-1.255.018-.1,0-.108-.009-.108-.1,0-.054.018-.325.018-.948V83.988c0-.632-.018-.9-.018-.957,0-.09.009-.1.108-.1.054,0,.37.018,1.255.018h3.486c.885,0,1.2-.018,1.256-.018.09,0,.1.009.1.1,0,.054-.018.325-.018.957v1.879c0,.623.018.9.018.948,0,.09-.009.1-.1.1-.054,0-.37-.018-1.256-.018Zm2.764-6.359c.858,0,1.156-.018,1.21-.018.09,0,.1.009.1.1,0,.054-.018.208-.018.605v.587c0,.388.018.542.018.6,0,.09-.009.1-.1.1-.054,0-.352-.018-1.21-.018H357.75c-.858,0-1.147.018-1.21.018-.09,0-.1-.009-.1-.1,0-.063.018-.208.018-.6v-.587c0-.4-.018-.551-.018-.605,0-.09.009-.1.1-.1.063,0,.352.018,1.21.018Zm-3.45,3.541h4.308v-.443h-4.308Zm4.308,1.048v-.452h-4.308v.452Zm0,.605h-4.308v.47h4.308Zm-.506-4.489H357.4v.569h3.279Zm-.316,5.726a.194.194,0,0,1,.117-.054.18.18,0,0,1,.072.027,6.542,6.542,0,0,0,2.484.795,3.031,3.031,0,0,0-.443.551c-.108.172-.145.235-.235.235a1.292,1.292,0,0,1-.19-.036,7.3,7.3,0,0,1-2.394-1c-.036-.027-.054-.045-.054-.072s.027-.054.09-.09Z" transform="translate(-262.532 -318.318)" fill="#004097"/>
    <g id="グループ_1" data-name="グループ 1" transform="translate(237.386 -208.144)">
      <path id="パス_92" data-name="パス 92" d="M11.018-14.087c-.238.146-.256.183-.146.329.676.9,1.279,1.791,1.864,2.7-1.809.2-3.764.384-5.627.53.877-1.9,1.681-3.928,2.339-5.682a2.751,2.751,0,0,1,.475-.877.446.446,0,0,0,.146-.329c0-.146-.146-.238-.347-.311-.621-.183-1.242-.311-1.955-.475a11.435,11.435,0,0,1-.493,1.918,54.06,54.06,0,0,1-2.357,5.92c-.164,0-.347.018-.512.018-.731.037-1.389.055-2.083.037a14.166,14.166,0,0,0,.438,1.937c.055.183.146.292.274.292A.494.494,0,0,0,3.344-8.2a1.493,1.493,0,0,1,.694-.2c3.216-.274,6.541-.639,9.61-1.1.292.548.585,1.1.859,1.663.055.11.091.146.164.146a.506.506,0,0,0,.219-.091l1.37-.786c.256-.146.256-.183.164-.347a39.641,39.641,0,0,0-3.892-5.847c-.073-.073-.11-.11-.146-.11a.611.611,0,0,0-.219.091Zm-.42-9.062c-.219.11-.256.128-.183.329a19.257,19.257,0,0,0,5.956,7.546c.183.146.292.238.384.238.11,0,.2-.128.347-.4a4.959,4.959,0,0,1,1.023-1.37,14.724,14.724,0,0,1-5.938-6.76c-.091-.183-.128-.2-.365-.091ZM.841-16.517a4,4,0,0,1,1.023,1.188c.164.274.238.4.347.4.091,0,.219-.091.42-.256A18.306,18.306,0,0,0,8-21.907a1.394,1.394,0,0,1,.42-.566.3.3,0,0,0,.164-.274c0-.128-.073-.219-.274-.311A11.508,11.508,0,0,0,6.5-23.7a5.328,5.328,0,0,1-.384,1.188A13.917,13.917,0,0,1,.841-16.517Zm28.228-2.412a28.716,28.716,0,0,0,1.261,7.253c.914,2.7,2.192,4,3.581,4.02,1.078.018,1.845-.968,2.211-3.307.073-.566.073-.566-.457-.859a5.914,5.914,0,0,1-1.188-.822c-.11,1.663-.329,2.668-.822,2.668-.548,0-1.115-1.06-1.644-2.7a23.11,23.11,0,0,1-1.041-6.249h2.174c1.663,0,2.229.037,2.339.037.183,0,.2-.018.2-.219v-1.443c0-.2-.018-.219-.2-.219-.11,0-.676.037-2.339.037H30.9v-.8a6.169,6.169,0,0,1,.091-1.845,1.181,1.181,0,0,0,.11-.384c0-.11-.11-.2-.292-.219-.621-.073-1.334-.091-1.992-.11a17.415,17.415,0,0,1,.146,2.613c0,.256.018.512.018.749H22.419c-1.663,0-2.229-.037-2.339-.037-.183,0-.183.018-.183.219v1.443c0,.2,0,.219.183.219.11,0,.676-.037,2.339-.037Zm-2.978,4.056c1.535,0,2.046.037,2.156.037.2,0,.219-.018.219-.183v-1.37c0-.2-.018-.219-.219-.219-.11,0-.621.037-2.156.037H22.857c-1.553,0-2.065-.037-2.174-.037-.183,0-.2.018-.2.219v1.37c0,.164.018.183.2.183.11,0,.621-.037,2.174-.037h.621v4.02l-1.754.329a10.006,10.006,0,0,1-1.754.219c.146.639.329,1.407.475,1.845.055.164.146.238.256.238a.681.681,0,0,0,.329-.128,2.445,2.445,0,0,1,.767-.274c1.973-.42,4.714-1.169,6.541-1.772.548-.164.548-.164.548-.767,0-.365.018-.822.055-1.151-1.1.384-2.357.731-3.563,1.023v-3.581Zm5.883-8.386c-.183.128-.219.183-.073.329a8.136,8.136,0,0,1,1.425,1.736c.055.091.11.146.164.146a.507.507,0,0,0,.238-.11l.859-.585c.219-.146.238-.219.128-.365a8.616,8.616,0,0,0-1.571-1.681c-.073-.073-.128-.11-.183-.11s-.11.037-.219.11Zm18.143,4.02v-1.736a5.031,5.031,0,0,1,.146-1.608.978.978,0,0,0,.073-.329c0-.146-.073-.238-.329-.292a16.982,16.982,0,0,0-2.138-.311,12.146,12.146,0,0,1,.164,2.5l-.018,1.791H44.088v-1.334a4.577,4.577,0,0,1,.128-1.754,1.241,1.241,0,0,0,.11-.384c0-.128-.073-.219-.274-.256a17.738,17.738,0,0,0-2.229-.292,12.7,12.7,0,0,1,.219,2.686v1.334h-.548c-1.407,0-2.594-.037-3.362-.091a16.393,16.393,0,0,0,.128,1.772c.018.238.073.347.219.347.566-.037,2.028-.091,3.015-.091h.548v.694c0,1.151-.037,2.046-.091,3-.018.2.091.238.329.256a11.273,11.273,0,0,0,1.571,0c.2-.018.329-.055.311-.256-.055-.968-.055-1.955-.055-3.033v-.658H48a8.841,8.841,0,0,1-1.078,4.659c-.932,1.5-2.339,2.43-4.933,3.234a4.217,4.217,0,0,1,1.516,1.1c.146.146.238.2.347.2a1.533,1.533,0,0,0,.512-.164,8.608,8.608,0,0,0,4.312-3.4,10.867,10.867,0,0,0,1.407-5.627h.749c.9,0,2.01.018,2.631.018.256.018.292-.055.311-.292a9.516,9.516,0,0,0,0-1.443c-.018-.2-.037-.311-.256-.292-.84.037-1.864.055-2.759.055Zm15.494.859a28.921,28.921,0,0,0,2.138-2.3,6.019,6.019,0,0,1,1.1-1,.523.523,0,0,0,.256-.4.323.323,0,0,0-.146-.274,16.255,16.255,0,0,0-2.028-1.279,5.3,5.3,0,0,1-1.151,1.882,29.644,29.644,0,0,1-3.892,3.819A29.329,29.329,0,0,1,56.128-14.2,6.839,6.839,0,0,1,57.7-13.118a.509.509,0,0,0,.384.183.516.516,0,0,0,.274-.073,31.609,31.609,0,0,0,5.024-3.508v4.257c0,1.242-.055,2.43-.073,3.746-.018.219.055.292.256.292a15.24,15.24,0,0,0,1.827,0c.2,0,.292-.073.274-.311-.037-1.462-.055-2.54-.055-3.8Zm13.695-2.54a4.758,4.758,0,0,1,.128-1.717.961.961,0,0,0,.146-.42c0-.146-.091-.256-.347-.311a13.486,13.486,0,0,0-2.284-.292,13.942,13.942,0,0,1,.183,2.7v8.989c0,1.169-.018,2.247-.073,3.6,0,.219.091.274.347.274a12.074,12.074,0,0,0,1.626,0c.256,0,.347-.055.329-.274-.037-1.315-.073-2.393-.073-3.581v-4.038a20.236,20.236,0,0,1,4.805,2.339.28.28,0,0,0,.2.091c.091,0,.164-.073.238-.2a10.739,10.739,0,0,0,.786-1.59c.091-.238,0-.365-.2-.475a25.772,25.772,0,0,0-5.81-2.485Z" transform="translate(-0.841 24.099)" fill="#004098"/>
    </g>
  </g>
</svg>
