<?xml version="1.0" encoding="UTF-8"?><svg id="_レイヤー_1" xmlns="http://www.w3.org/2000/svg" width="262" height="119.1" viewBox="0 0 262 119.1"><defs><style>.cls-1{fill:#004098;stroke:#fff;stroke-width:2px;}.cls-2{fill:#fff;stroke-width:0px;}</style></defs><path class="cls-1" d="m118,82H1V1h260v81h-114.8l-13.9,34.5-14.3-34.5Z"/><path class="cls-2" d="m24,41.94c-4.15,1.13-6.8,2.14-9.06,2.9-.25.13-.63.25-.76.25s-.38-.25-.5-.5c-.25-.5-.63-1.38-.88-2.27.63-.13.88-.25,1.38-.5.5-.25,1.38-.76,2.64-1.64,2.39-1.89,5.04-4.41,7.93-7.3-1.64.5-3.15.76-4.91,1.13-.38.13-.63.13-1.01.25-.25.13-.5.25-.76.25s-.5-.25-.63-.63c-.25-.5-.63-1.51-1.01-2.77.88.13,1.89.13,2.77,0,1.89-.13,3.9-.5,6.29-.88.76-.13,1.13-.25,1.51-.5.25-.13.38-.25.5-.25.25,0,.38.13.76.38.38.38.88.88,1.38,1.38.25.25.38.5.38.76s-.13.5-.5.63c-.38.25-.76.5-1.13.88-2.9,2.52-5.29,4.66-8.43,6.92v.13c4.53-1.38,8.31-2.27,13.34-3.02.38,0,.5.13.5.5.13.38.25,1.26.25,2.27,0,.25-.13.38-.5.38-2.01.13-3.52.38-5.16.88-3.27,1.13-4.78,3.02-4.78,5.04,0,2.64,2.9,3.52,6.92,3.52.25,0,.5.13.38.5,0,.76-.25,1.89-.38,2.27,0,.5-.25.63-.63.63-.5,0-1.13-.13-1.89-.13-5.16-.5-7.43-2.9-7.43-6.29,0-1.51,1.13-3.9,3.4-5.16h0Z"/><path class="cls-2" d="m50.82,35.27c-.63,4.66-1.76,9.06-3.52,11.96-1.13,2.14-2.64,3.15-4.66,3.15-2.39,0-4.91-2.64-4.91-7.18,0-2.64,1.13-5.16,3.15-7.18,2.27-2.27,5.29-3.52,9.06-3.52,6.67,0,10.57,4.15,10.57,9.57s-2.9,8.43-8.56,10.07c-.63.13-.88,0-1.13-.5s-.88-1.13-1.89-1.76c4.66-1.13,8.31-3.02,8.31-8.31,0-3.15-2.52-6.29-6.42-6.29h0Zm-7.93,2.64c-1.26,1.51-2.14,3.4-2.14,5.16,0,2.52,1.01,3.9,1.89,3.9.76,0,1.38-.38,2.01-1.64,1.26-2.27,2.52-6.29,2.9-9.94-1.76.38-3.4,1.26-4.66,2.52Z"/><path class="cls-2" d="m71.84,32.5c-.38-.76-.63-1.38-1.38-2.27,1.38-.25,2.52-.5,3.27-.5s.88.25.88.63v.76c.13.38.25.76.5,1.38.38.88.63,1.51.88,2.27,2.52-.63,4.41-1.13,5.79-1.76.25-.13.38-.13.5.25.25.5.5,1.51.76,2.14.13.25,0,.38-.25.5-1.38.5-2.9,1.01-5.54,1.64,1.13,2.01,2.52,3.9,4.28,5.79.25.25.5.38.76.63.13.13.25.25.25.38,0,.25-.13.38-.13.5-.25.5-.76,1.38-1.13,1.76-.25.25-.38.38-.5.38s-.25,0-.5-.25c-.38-.25-.63-.5-1.13-.76-1.76-.88-3.78-1.38-5.92-1.38-2.9,0-4.66.88-4.66,2.64,0,2.14,2.52,2.9,6.92,2.9,1.38,0,3.02-.13,4.41-.38-.13,1.13-.38,2.39-.63,3.02-.13.25-.25.38-.5.38-.5.13-1.89.25-3.02.25-6.55,0-10.07-2.14-10.07-5.79,0-3.15,2.77-5.41,7.3-5.41,2.27,0,3.78.38,4.91.76-1.38-1.26-2.52-2.77-3.52-4.91-1.76.25-3.4.5-5.29.63-.76,0-2.01.13-2.77.13-.25,0-.38-.13-.5-.5-.25-.88-.38-1.38-.63-2.52h3.52c1.13,0,2.52-.25,4.41-.5-.5-.88-.88-1.64-1.26-2.77Z"/><path class="cls-2" d="m94.12,31.99c-.25-.63-.5-1.13-1.01-1.76,1.13-.25,2.27-.25,3.4-.25.38,0,.63.25.63.5v.5c0,.25,0,.5.13.88.25.76.25,1.01.5,1.38,2.14-.38,3.65-.88,5.66-1.51.13,0,.25,0,.25.25.13.5.38,1.26.5,1.89,0,.25-.13.5-.38.5-1.89.63-3.52,1.01-5.41,1.38.25.63.63,1.51,1.01,2.27,2.27-.5,3.65-.88,5.04-1.38.25-.13.38-.13.5.13.25.63.38,1.13.5,1.89,0,.25,0,.38-.25.5-1.38.5-3.15,1.01-4.66,1.38,1.13,2.01,2.27,3.52,3.65,4.78.25.25.25.38.13.63-.25.63-.76,1.13-1.13,1.76-.13.25-.25.25-.5.25-.13,0-.25,0-.38-.13-.5-.38-1.01-.63-1.64-.88-1.38-.63-3.27-.88-5.16-.88-2.64,0-4.15.76-4.15,2.14,0,1.76,2.39,2.39,6.55,2.39,1.01,0,2.01-.13,3.02-.13.25,0,.38.13.38.38-.13.63-.25,1.76-.5,2.52-.13.25-.25.38-.63.38-.63,0-1.26.13-2.01.13-6.42,0-9.69-1.76-9.69-5.16,0-3.02,2.52-4.78,6.92-4.78,2.01,0,3.65.25,4.78.63-.63-.76-1.51-2.14-2.27-3.27-2.9.5-5.54.76-7.55.88-.25,0-.38-.13-.5-.38-.13-.5-.38-1.51-.5-2.27,2.77,0,5.04-.25,7.43-.63-.25-.63-.76-1.51-1.01-2.27-2.52.38-4.66.63-6.67.63-.38,0-.5-.13-.5-.38-.13-.25-.25-1.38-.5-2.27,2.77,0,4.91-.25,6.92-.5-.38-.88-.63-1.38-.88-2.14Z"/><path class="cls-2" d="m113.38,32.75h-2.64c-.25,0-.38,0-.38-.25v-2.01q0-.25.38-.25h8.56c.25,0,.38,0,.38.25v7.93q0,.25-.38.25h-5.54c-.13,1.13-.25,2.14-.5,3.27h5.66c.25,0,.38,0,.38.38,0,.63,0,1.38-.13,2.01-.25,4.15-.88,6.92-1.38,7.93-.63,1.38-1.64,2.01-3.52,2.01h-1.38c-.5,0-.63-.13-.76-.88-.13-.76-.38-1.38-.63-2.01.88.13,1.76.13,2.52.13s1.01-.13,1.26-.63c.38-.76.88-2.27,1.13-6.42h-3.52l-.38,1.13q0,.38-1.38.25t-1.26-.5c.63-2.39,1.01-4.66,1.26-6.92.13-.5.13-1.13.13-1.76,0-.25.13-.38.38-.38h5.16v-3.52h-3.4Zm16.24,9.06q.38-.13.5.13c1.76,3.4,3.02,6.67,4.15,10.32q0,.38-.38.5l-2.01.88q-.38.13-.5-.13l-.63-2.27c-3.4.63-6.92,1.26-9.82,1.64-.38,0-.76.13-.88.25-.13.13-.38.13-.5.13s-.25-.13-.38-.38c-.25-.76-.5-1.64-.63-2.77.76,0,1.38,0,2.01-.13,1.76-5.92,2.9-11.08,3.78-16.74.25-1.26.38-2.14.38-3.52,1.13.13,2.01.38,3.02.63.25.13.5.25.5.5s-.13.38-.25.5c-.25.38-.38.63-.5,1.38-1.13,6.29-2.39,11.58-4.03,16.87,2.01-.25,4.28-.63,6.42-1.01-.63-1.89-1.51-3.65-2.39-5.66-.13-.25-.13-.38.25-.5l1.89-.63Z"/><path class="cls-2" d="m143.21,48.23c.63,1.13,1.13,1.89,2.27,2.27,1.01.38,2.64.5,5.04.5,3.52,0,7.8-.25,11.96-.63-.38.5-.63,1.38-.76,2.14q-.13.88-1.01.88c-3.52.13-6.8.25-9.69.25s-5.29-.13-6.42-.76c-1.26-.63-2.27-1.51-2.9-2.52-.88.88-1.89,1.76-2.77,2.52-.25.25-.5.38-.5.5-.13.13-.25.25-.38.25s-.25-.13-.38-.38c-.38-.76-.76-1.64-1.13-2.64.76-.38,1.13-.5,1.64-.88.76-.5,1.76-1.13,2.39-1.76v-6.17h-3.4c-.25,0-.38,0-.38-.38v-2.14q0-.25.38-.25h5.92q.25,0,.25.25v8.94h-.13Zm-4.03-18.25c.13-.13.25-.13.38-.13s.13,0,.25.13c1.26,1.13,2.52,2.52,3.52,4.15q.13.25-.13.5l-1.64,1.38c-.13.13-.25.25-.38.25s-.13-.13-.25-.25c-.88-1.38-2.27-3.27-3.4-4.28-.25-.25-.13-.25.13-.5l1.51-1.26Zm9.06,4.91h-4.03q-.25,0-.25-.38v-1.76c0-.25,0-.38.25-.38h4.28c-.38-.88-.88-1.89-1.38-2.52-.25-.25-.13-.38.25-.5l1.89-.5c.38-.13.38,0,.63.13.63.76,1.01,1.51,1.38,2.39.13.25,0,.38-.25.5l-1.64.63h4.41c.5-.76.76-1.38,1.13-2.14.13-.38.38-.76.5-1.38.88.13,1.89.38,2.64.63.25.13.38.25.38.38,0,.25-.13.25-.25.5-.25.13-.38.38-.5.5-.25.5-.63,1.01-1.01,1.64h4.66c.25,0,.38,0,.38.38v1.76c0,.25,0,.38-.38.38h-7.43c-.25.63-.5,1.13-.76,1.64h6.17c.25,0,.38,0,.38.25v12.46c0,.25,0,.38-.38.38h-12.97c-.25,0-.38,0-.38-.38v-12.46q0-.25.38-.25h4.03c.25-.5.5-1.01.63-1.64h-2.77v-.25Zm.38,5.41h8.18v-1.64h-8.18v1.64Zm8.18,3.52v-1.51h-8.18v1.51h8.18Zm0,1.89h-8.18v1.64h8.18v-1.64Z"/><path class="cls-2" d="m170.4,46.6h-3.4q-.25,0-.25-.25v-1.64q0-.25.25-.25h10.83v-1.26h-8.31q-.25,0-.25-.25v-1.51q0-.25.25-.25h8.31v-1.26h-7.43c-.25,0-.38,0-.38-.38v-4.28c0-.25,0-.38.38-.38h7.43v-1.26h-10.45q-.25,0-.25-.25v-1.64q0-.25.25-.25h10.45c0-1.13,0-1.76-.25-2.52,1.01,0,1.89,0,2.9.13.25,0,.5.13.5.25,0,.25-.13.38-.13.5-.13.25-.13.63-.13,1.51h10.57q.25,0,.25.25v1.76q0,.25-.25.25h-10.57v1.26h7.55q.25,0,.25.38v4.28c0,.25,0,.38-.25.38h-7.55v1.26h8.31q.25,0,.25.25v2.9h2.39q.25,0,.25.25v1.64q0,.25-.25.25h-2.39v3.9q0,.25-.25.25h-2.14q-.25,0-.25-.25v-.63h-5.79v1.38c0,1.26-.25,2.01-1.01,2.52-.76.38-1.89.63-3.9.63q-.88,0-1.13-.76c-.25-.63-.63-1.38-1.13-2.14,1.01.13,1.76.13,2.77.13,1.13,0,1.38-.25,1.38-1.01v-.63h-8.31q-.25,0-.25-.38v-1.38c0-.25,0-.38.25-.38h8.31v-1.26h-7.43v.13Zm7.43-8.56v-1.38h-5.04v1.38h5.04Zm7.93-1.38h-5.16v1.38h5.16v-1.38Zm-5.16,6.42v1.26h5.92v-1.26h-5.92Zm5.92,4.78v-1.26h-5.92v1.26h5.92Z"/><path class="cls-2" d="m211.95,46.72c-1.01,3.27-3.15,5.66-6.42,7.3-.38.13-.5.25-.63.25-.25,0-.38-.13-.63-.63-.38-.63-.76-1.13-1.26-1.64,2.9-1.01,5.16-2.52,6.17-5.29h-3.9c-.25,0-.38,0-.38-.25v-1.76c0-.25,0-.38.38-.38h4.41c0-.38.13-.76.13-1.13v-1.38c-.63.25-1.38.5-2.14.76q-.63.13-.88-.5c-.25-.5-.5-1.01-.76-1.38-.25.88-.63,1.76-1.26,2.77-.25.38-.38.63-.5.63s-.25-.13-.5-.25c-.5-.25-1.13-.5-1.64-.63.63-1.01,1.01-1.89,1.38-2.77h-1.64v7.18c0,1.26.13,2.39.13,3.52s-.13,1.76-.88,2.39c-.5.38-1.13.5-3.27.5q-.88,0-1.01-.88c-.13-.63-.38-1.38-.76-1.76.88.13,1.51.13,2.27.13s1.01-.25,1.01-.76v-7.43c-.76,1.89-1.64,3.78-3.27,5.66-.25.25-.38.5-.63.5s-.25-.13-.5-.5c-.25-.63-.76-1.13-1.13-1.51,1.89-1.76,3.52-4.53,4.41-7.05h-3.52q-.25,0-.25-.38v-1.89c0-.25,0-.38.25-.38h4.78c-1.01-.88-2.01-1.76-3.15-2.52-.13-.13-.25-.13-.25-.25s.13-.13.25-.25l1.13-1.01c.25-.25.38-.25.63-.13l1.64,1.13c.76-.76,1.51-1.64,2.14-2.52h-6.55q-.25,0-.25-.25v-1.51q0-.25.25-.25h7.8c.25,0,.5,0,.5-.13.13,0,.25-.13.38-.13.25,0,.5.13,1.01.76.63.63.76.88.76,1.13s-.13.38-.38.5c-.25.25-.5.5-.76.88-.88,1.26-1.89,2.39-3.15,3.52.25.25.5.5.76.63q.25.25-.13.5l-.13.13h1.76c.25,0,.38,0,.5-.13.13,0,.25-.13.38-.13s.5.13,1.01.63c.63.63.76.88.76,1.13s0,.25-.25.5c-.13,0-.13.13-.25.25,1.76-.38,3.4-1.01,4.66-1.76-.88-.76-1.64-1.76-2.14-2.64l-1.13,1.38c-.25.25-.38.38-.5.38s-.25-.13-.5-.38c-.5-.5-1.13-1.01-1.64-1.26,1.89-1.64,3.15-3.52,4.03-5.29.25-.63.5-1.13.63-1.76.76.13,1.89.38,2.52.5.25,0,.38.13.38.38,0,.13-.13.25-.25.38-.13.13-.38.5-.5.76-.13.25-.25.5-.38.76h7.68q.25,0,.25.25v1.76q0,.25-.25.25h-1.76c-.63,1.76-1.51,3.27-2.52,4.53,1.51.88,3.27,1.51,5.29,1.89-.38.5-.76,1.26-.88,1.89q-.38.88-1.13.63c-1.89-.63-3.65-1.51-5.16-2.64-.76.5-1.64,1.01-2.39,1.38.76,0,1.38.13,2.14.25.38,0,.5.13.5.38s-.13.38-.25.5c-.13.25-.25.5-.25,1.13l-.13.5h5.54c.25,0,.38.13.38.38l-.13,1.64c-.13,2.77-.25,4.41-.88,5.66-.5,1.13-1.26,1.89-3.15,1.89h-1.64q-.76,0-1.01-1.01c-.13-.63-.38-1.26-.63-1.76.76.13,1.64.25,2.39.25.63,0,1.01-.13,1.38-.63.38-.63.5-2.14.76-4.15,0,0-3.27,0-3.27,0Zm-1.51-12.59c.63,1.13,1.38,2.14,2.27,3.02.76-.88,1.38-1.89,1.76-3.02h-4.03Z"/><path class="cls-2" d="m226.55,44.46c-.25,3.65-.76,6.55-2.14,9.19-.25.38-.25.5-.5.5-.13,0-.25-.13-.5-.5-.5-.63-1.26-1.13-1.76-1.51,2.01-2.9,2.27-6.67,2.27-11.71v-4.66q0-.25.25-.25h9.06q.25,0,.25.25v9.32c0,.25,0,.38-.25.38h-2.14q-.25,0-.25-.38v-.76h-4.28v.13Zm4.15-13.97h3.27q.25,0,.25.25v2.01c0,.25,0,.38-.25.38h-11.2q-.25,0-.25-.38v-2.01q0-.25.25-.25h7.93Zm-4.03,7.55v3.9h4.03v-3.9h-4.03Zm11.58,2.52c0,3.15-.25,5.29-1.01,7.3-.63,2.14-1.89,4.03-3.4,5.66-.25.25-.38.5-.63.5-.13,0-.25-.13-.5-.5-.5-.63-1.13-1.13-1.76-1.51,1.76-1.51,3.02-3.27,3.65-5.54.5-1.64.76-3.4.76-7.18v-3.4c0-1.64,0-3.02-.25-4.53,1.01.13,1.76.38,2.64.63,1.64-.38,3.78-1.13,5.41-2.01.63-.25,1.01-.63,1.51-1.01.63.5,1.26,1.26,1.89,2.01.13.25.25.38.25.5s-.25.25-.5.25-.63.13-1.01.38c-2.39,1.01-4.78,1.76-7.05,2.27v3.65h8.81q.25,0,.25.25v2.01q0,.25-.25.25h-3.02v13.6q0,.25-.25.25h-2.27q-.25,0-.25-.25v-13.6h-3.02Z"/></svg>