<?xml version="1.0" encoding="utf-8"?>
<!-- Generator: Adobe Illustrator 27.9.1, SVG Export Plug-In . SVG Version: 6.00 Build 0)  -->
<svg version="1.1" id="レイヤー_1" xmlns="http://www.w3.org/2000/svg" xmlns:xlink="http://www.w3.org/1999/xlink" x="0px"
	 y="0px" viewBox="0 0 262 119.1" style="enable-background:new 0 0 262 119.1;" xml:space="preserve">
<style type="text/css">
	.st0{fill:#004098;stroke:#FFFFFF;stroke-width:2;}
	.st1{fill:#FFFFFF;}
</style>
<path class="st0" d="M118,82H1V1h260v81H146.2l-13.9,34.5L118,82z"/>
<g>
	<path class="st1" d="M21.7,41.1c-3.3,0.9-5.4,1.7-7.2,2.3c-0.2,0.1-0.5,0.2-0.6,0.2c-0.1,0-0.3-0.2-0.4-0.4
		c-0.2-0.4-0.5-1.1-0.7-1.8c0.5-0.1,0.7-0.2,1.1-0.4c0.4-0.2,1.1-0.6,2.1-1.3c1.9-1.5,4-3.5,6.3-5.8c-1.3,0.4-2.5,0.6-3.9,0.9
		c-0.3,0.1-0.5,0.1-0.8,0.2c-0.2,0.1-0.4,0.2-0.6,0.2c-0.2,0-0.4-0.2-0.5-0.5c-0.2-0.4-0.5-1.2-0.8-2.2c0.7,0.1,1.5,0.1,2.2,0
		c1.5-0.1,3.1-0.4,5-0.7c0.6-0.1,0.9-0.2,1.2-0.4c0.2-0.1,0.3-0.2,0.4-0.2c0.2,0,0.3,0.1,0.6,0.3c0.3,0.3,0.7,0.7,1.1,1.1
		c0.2,0.2,0.3,0.4,0.3,0.6c0,0.2-0.1,0.4-0.4,0.5c-0.3,0.2-0.6,0.4-0.9,0.7c-2.3,2-4.2,3.7-6.7,5.5l0,0.1c3.6-1.1,6.6-1.8,10.6-2.4
		c0.3,0,0.4,0.1,0.4,0.4c0.1,0.3,0.2,1,0.2,1.8c0,0.2-0.1,0.3-0.4,0.3c-1.6,0.1-2.8,0.3-4.1,0.7c-2.6,0.9-3.8,2.4-3.8,4
		c0,2.1,2.3,2.8,5.5,2.8c0.2,0,0.4,0.1,0.3,0.4c0,0.6-0.2,1.5-0.3,1.8c0,0.4-0.2,0.5-0.5,0.5c-0.4,0-0.9-0.1-1.5-0.1
		c-4.1-0.4-5.9-2.3-5.9-5C19,44,19.9,42.1,21.7,41.1L21.7,41.1z"/>
	<path class="st1" d="M43,35.8c-0.5,3.7-1.4,7.2-2.8,9.5c-0.9,1.7-2.1,2.5-3.7,2.5c-1.9,0-3.9-2.1-3.9-5.7c0-2.1,0.9-4.1,2.5-5.7
		c1.8-1.8,4.2-2.8,7.2-2.8c5.3,0,8.4,3.3,8.4,7.6c0,4.1-2.3,6.7-6.8,8c-0.5,0.1-0.7,0-0.9-0.4c-0.2-0.4-0.7-0.9-1.5-1.4
		c3.7-0.9,6.6-2.4,6.6-6.6C48.1,38.3,46.1,35.8,43,35.8L43,35.8z M36.7,37.9C35.7,39.1,35,40.6,35,42c0,2,0.8,3.1,1.5,3.1
		c0.6,0,1.1-0.3,1.6-1.3c1-1.8,2-5,2.3-7.9C39,36.2,37.7,36.9,36.7,37.9z"/>
	<path class="st1" d="M59.7,33.6c-0.3-0.6-0.5-1.1-1.1-1.8c1.1-0.2,2-0.4,2.6-0.4c0.6,0,0.7,0.2,0.7,0.5c0,0.2,0,0.4,0,0.6
		c0.1,0.3,0.2,0.6,0.4,1.1c0.3,0.7,0.5,1.2,0.7,1.8c2-0.5,3.5-0.9,4.6-1.4c0.2-0.1,0.3-0.1,0.4,0.2c0.2,0.4,0.4,1.2,0.6,1.7
		c0.1,0.2,0,0.3-0.2,0.4c-1.1,0.4-2.3,0.8-4.4,1.3c0.9,1.6,2,3.1,3.4,4.6c0.2,0.2,0.4,0.3,0.6,0.5c0.1,0.1,0.2,0.2,0.2,0.3
		c0,0.2-0.1,0.3-0.1,0.4c-0.2,0.4-0.6,1.1-0.9,1.4c-0.2,0.2-0.3,0.3-0.4,0.3c-0.1,0-0.2,0-0.4-0.2c-0.3-0.2-0.5-0.4-0.9-0.6
		c-1.4-0.7-3-1.1-4.7-1.1c-2.3,0-3.7,0.7-3.7,2.1c0,1.7,2,2.3,5.5,2.3c1.1,0,2.4-0.1,3.5-0.3c-0.1,0.9-0.3,1.9-0.5,2.4
		c-0.1,0.2-0.2,0.3-0.4,0.3c-0.4,0.1-1.5,0.2-2.4,0.2c-5.2,0-8-1.7-8-4.6c0-2.5,2.2-4.3,5.8-4.3c1.8,0,3,0.3,3.9,0.6
		c-1.1-1-2-2.2-2.8-3.9c-1.4,0.2-2.7,0.4-4.2,0.5c-0.6,0-1.6,0.1-2.2,0.1c-0.2,0-0.3-0.1-0.4-0.4c-0.2-0.7-0.3-1.1-0.5-2
		c1.1,0,2,0,2.8,0c0.9,0,2-0.2,3.5-0.4C60.3,35.1,60,34.5,59.7,33.6z"/>
	<path class="st1" d="M77.4,33.2c-0.2-0.5-0.4-0.9-0.8-1.4c0.9-0.2,1.8-0.2,2.7-0.2c0.3,0,0.5,0.2,0.5,0.4c0,0.1,0,0.3,0,0.4
		c0,0.2,0,0.4,0.1,0.7c0.2,0.6,0.2,0.8,0.4,1.1c1.7-0.3,2.9-0.7,4.5-1.2C84.9,33,85,33,85,33.2c0.1,0.4,0.3,1,0.4,1.5
		c0,0.2-0.1,0.4-0.3,0.4c-1.5,0.5-2.8,0.8-4.3,1.1c0.2,0.5,0.5,1.2,0.8,1.8c1.8-0.4,2.9-0.7,4-1.1c0.2-0.1,0.3-0.1,0.4,0.1
		c0.2,0.5,0.3,0.9,0.4,1.5c0,0.2,0,0.3-0.2,0.4c-1.1,0.4-2.5,0.8-3.7,1.1c0.9,1.6,1.8,2.8,2.9,3.8c0.2,0.2,0.2,0.3,0.1,0.5
		c-0.2,0.5-0.6,0.9-0.9,1.4c-0.1,0.2-0.2,0.2-0.4,0.2c-0.1,0-0.2,0-0.3-0.1c-0.4-0.3-0.8-0.5-1.3-0.7c-1.1-0.5-2.6-0.7-4.1-0.7
		c-2.1,0-3.3,0.6-3.3,1.7c0,1.4,1.9,1.9,5.2,1.9c0.8,0,1.6-0.1,2.4-0.1c0.2,0,0.3,0.1,0.3,0.3c-0.1,0.5-0.2,1.4-0.4,2
		c-0.1,0.2-0.2,0.3-0.5,0.3c-0.5,0-1,0.1-1.6,0.1c-5.1,0-7.7-1.4-7.7-4.1c0-2.4,2-3.8,5.5-3.8c1.6,0,2.9,0.2,3.8,0.5
		c-0.5-0.6-1.2-1.7-1.8-2.6c-2.3,0.4-4.4,0.6-6,0.7c-0.2,0-0.3-0.1-0.4-0.3c-0.1-0.4-0.3-1.2-0.4-1.8c2.2,0,4-0.2,5.9-0.5
		c-0.2-0.5-0.6-1.2-0.8-1.8c-2,0.3-3.7,0.5-5.3,0.5c-0.3,0-0.4-0.1-0.4-0.3c-0.1-0.2-0.2-1.1-0.4-1.8c2.2,0,3.9-0.2,5.5-0.4
		C77.8,34.2,77.6,33.8,77.4,33.2z"/>
	<path class="st1" d="M92.7,33.8c-1.5,0-2,0-2.1,0c-0.2,0-0.3,0-0.3-0.2V32c0-0.2,0-0.2,0.3-0.2c0.1,0,0.6,0,2.1,0h2.9
		c1.2,0,1.7,0,1.8,0c0.2,0,0.3,0,0.3,0.2c0,0.1,0,0.7,0,2v2.3c0,1.3,0,1.8,0,2c0,0.2,0,0.2-0.3,0.2c-0.1,0-0.6,0-1.8,0H93
		c-0.1,0.9-0.2,1.7-0.4,2.6h2.8c1.2,0,1.6,0,1.7,0c0.2,0,0.3,0,0.3,0.3c0,0.5,0,1.1-0.1,1.6c-0.2,3.3-0.7,5.5-1.1,6.3
		c-0.5,1.1-1.3,1.6-2.8,1.6c-0.4,0-0.8,0-1.1,0c-0.4,0-0.5-0.1-0.6-0.7c-0.1-0.6-0.3-1.1-0.5-1.6c0.7,0.1,1.4,0.1,2,0.1
		c0.6,0,0.8-0.1,1-0.5c0.3-0.6,0.7-1.8,0.9-5.1h-2.8L92,44c0,0.3,0,0.3-1.1,0.2c-1.1-0.2-1.1-0.2-1-0.4c0.5-1.9,0.8-3.7,1-5.5
		c0.1-0.4,0.1-0.9,0.1-1.4c0-0.2,0.1-0.3,0.3-0.3c0.1,0,0.7,0,1.7,0h2.4v-2.8H92.7z M105.6,41c0.3-0.1,0.3-0.1,0.4,0.1
		c1.4,2.7,2.4,5.3,3.3,8.2c0,0.3,0,0.3-0.3,0.4l-1.6,0.7c-0.3,0.1-0.3,0.1-0.4-0.1l-0.5-1.8c-2.7,0.5-5.5,1-7.8,1.3
		c-0.3,0-0.6,0.1-0.7,0.2c-0.1,0.1-0.3,0.1-0.4,0.1c-0.1,0-0.2-0.1-0.3-0.3c-0.2-0.6-0.4-1.3-0.5-2.2c0.6,0,1.1,0,1.6-0.1
		c1.4-4.7,2.3-8.8,3-13.3c0.2-1,0.3-1.7,0.3-2.8c0.9,0.1,1.6,0.3,2.4,0.5c0.2,0.1,0.4,0.2,0.4,0.4c0,0.2-0.1,0.3-0.2,0.4
		c-0.2,0.3-0.3,0.5-0.4,1.1c-0.9,5-1.9,9.2-3.2,13.4c1.6-0.2,3.4-0.5,5.1-0.8c-0.5-1.5-1.2-2.9-1.9-4.5c-0.1-0.2-0.1-0.3,0.2-0.4
		L105.6,41z"/>
	<path class="st1" d="M116.4,46.1c0.5,0.9,0.9,1.5,1.8,1.8c0.8,0.3,2.1,0.4,4,0.4c2.8,0,6.2-0.2,9.5-0.5c-0.3,0.4-0.5,1.1-0.6,1.7
		c-0.1,0.7-0.1,0.7-0.8,0.7c-2.8,0.1-5.4,0.2-7.7,0.2c-2.3,0-4.2-0.1-5.1-0.6c-1-0.5-1.8-1.2-2.3-2c-0.7,0.7-1.5,1.4-2.2,2
		c-0.2,0.2-0.4,0.3-0.4,0.4c-0.1,0.1-0.2,0.2-0.3,0.2c-0.1,0-0.2-0.1-0.3-0.3c-0.3-0.6-0.6-1.3-0.9-2.1c0.6-0.3,0.9-0.4,1.3-0.7
		c0.6-0.4,1.4-0.9,1.9-1.4v-4.9h-1.1c-1.2,0-1.5,0-1.6,0c-0.2,0-0.3,0-0.3-0.3v-1.7c0-0.2,0-0.2,0.3-0.2c0.1,0,0.4,0,1.6,0h1.4
		c1.2,0,1.5,0,1.7,0c0.2,0,0.2,0,0.2,0.2c0,0.1,0,0.7,0,2.1V46.1z M113.2,31.6c0.1-0.1,0.2-0.1,0.3-0.1s0.1,0,0.2,0.1
		c1,0.9,2,2,2.8,3.3c0.1,0.2,0.1,0.2-0.1,0.4l-1.3,1.1c-0.1,0.1-0.2,0.2-0.3,0.2c-0.1,0-0.1-0.1-0.2-0.2c-0.7-1.1-1.8-2.6-2.7-3.4
		c-0.2-0.2-0.1-0.2,0.1-0.4L113.2,31.6z M120.4,35.5c-2.3,0-3,0-3.2,0c-0.2,0-0.2,0-0.2-0.3v-1.4c0-0.2,0-0.3,0.2-0.3
		c0.1,0,0.9,0,3.2,0h0.2c-0.3-0.7-0.7-1.5-1.1-2c-0.2-0.2-0.1-0.3,0.2-0.4l1.5-0.4c0.3-0.1,0.3,0,0.5,0.1c0.5,0.6,0.8,1.2,1.1,1.9
		c0.1,0.2,0,0.3-0.2,0.4l-1.3,0.5h3.5c0.4-0.6,0.6-1.1,0.9-1.7c0.1-0.3,0.3-0.6,0.4-1.1c0.7,0.1,1.5,0.3,2.1,0.5
		c0.2,0.1,0.3,0.2,0.3,0.3c0,0.2-0.1,0.2-0.2,0.4c-0.2,0.1-0.3,0.3-0.4,0.4c-0.2,0.4-0.5,0.8-0.8,1.3h0.7c2.1,0,2.9,0,3,0
		c0.2,0,0.3,0,0.3,0.3v1.4c0,0.2,0,0.3-0.3,0.3c-0.1,0-0.9,0-3,0h-2.9c-0.2,0.5-0.4,0.9-0.6,1.3h2.1c2,0,2.7,0,2.8,0
		c0.2,0,0.3,0,0.3,0.2c0,0.1,0,0.8,0,2.4v5.2c0,1.6,0,2.2,0,2.3c0,0.2,0,0.3-0.3,0.3c-0.1,0-0.8,0-2.8,0h-4.7c-2,0-2.7,0-2.8,0
		c-0.2,0-0.3,0-0.3-0.3c0-0.1,0-0.7,0-2.3v-5.2c0-1.6,0-2.3,0-2.4c0-0.2,0-0.2,0.3-0.2c0.1,0,0.8,0,2.8,0h0.4
		c0.2-0.4,0.4-0.8,0.5-1.3H120.4z M120.7,39.8h6.5v-1.3h-6.5V39.8z M127.2,42.6v-1.2h-6.5v1.2H127.2z M127.2,44.1h-6.5v1.3h6.5V44.1
		z"/>
	<path class="st1" d="M144.5,46.3c0.4,1,1.1,1.5,2,1.8c0.8,0.3,2.2,0.4,4.1,0.4c2.8,0,6.1-0.1,9.4-0.4c-0.3,0.5-0.5,0.9-0.5,1.5
		c-0.1,0.7-0.1,0.7-0.8,0.7c-2.8,0.2-5.4,0.2-7.7,0.2c-2.3,0-4.1-0.2-5.2-0.6c-1-0.4-1.7-1.1-2.3-2c-0.6,0.6-1.3,1.2-2,1.9
		c-0.2,0.2-0.4,0.3-0.5,0.5c-0.1,0.2-0.2,0.2-0.3,0.2c-0.1,0-0.2-0.1-0.3-0.3c-0.3-0.6-0.6-1.2-0.9-2c0.5-0.3,0.9-0.4,1.3-0.7
		c0.6-0.4,1.1-0.9,1.7-1.4v-4.9h-0.9c-1.1,0-1.4,0-1.5,0c-0.2,0-0.3,0-0.3-0.3v-1.7c0-0.2,0-0.2,0.3-0.2c0.1,0,0.4,0,1.5,0h1.2
		c1.1,0,1.5,0,1.6,0c0.2,0,0.2,0,0.2,0.2c0,0.1,0,0.8,0,2.1V46.3z M143.4,36.3c-0.1,0.1-0.2,0.2-0.3,0.2s-0.1,0-0.2-0.2
		c-0.8-1.3-1.7-2.5-2.7-3.4c-0.2-0.2-0.1-0.2,0.1-0.4l1.1-0.8c0.3-0.2,0.3-0.2,0.5,0c1,0.9,2,2,2.8,3.3c0.1,0.2,0.1,0.2-0.1,0.4
		L143.4,36.3z M147.3,33.1c-1.3,0-1.8,0-1.9,0c-0.2,0-0.2,0-0.2-0.2v-1.2c0-0.2,0-0.2,0.2-0.2c0.1,0,0.6,0,1.9,0h2.2
		c1.1,0,1.4,0,1.6,0c0.2,0,0.3,0,0.3,0.2c0,0.1,0,0.5,0,1.4v0.9c0,0.9,0,1.3,0,1.4c0,0.2,0,0.2-0.3,0.2c-0.1,0-0.5,0-1.6,0h-2.2v0.5
		c0,0.5,0,0.7,0.1,0.7c0.2,0.1,0.4,0.2,1.1,0.2c0.8,0,1.1,0,1.2-0.2c0.1-0.2,0.1-0.5,0.2-1c0.4,0.2,0.9,0.4,1.5,0.5
		c0.4,0.1,0.4,0.1,0.4,0.7c-0.1,0.5-0.2,0.8-0.5,1c-0.4,0.4-1.1,0.4-2.8,0.4c-1.7,0-2.3-0.1-2.7-0.4c-0.4-0.3-0.5-0.7-0.5-1.7v-1.2
		c0-0.5,0-0.7,0-0.9c0-0.2,0-0.2,0.3-0.2c0.1,0,0.5,0,1.4,0h2.4v-1.2H147.3z M148.6,44.9c-2.2,0-2.9,0-3,0c-0.2,0-0.2,0-0.2-0.3
		v-1.2c0-0.2,0-0.2,0.2-0.2c0.1,0,0.9,0,3,0h0.3v-1.4c-1.8,0-2.5,0-2.6,0c-0.2,0-0.3,0-0.3-0.3v-1.2c0-0.2,0-0.2,0.3-0.2
		c0.1,0,0.8,0,2.6,0c0-0.6-0.1-1-0.1-1.4c0.8,0,1.3,0.1,2,0.2c0.2,0,0.4,0.1,0.4,0.2c0,0.1,0,0.2-0.1,0.3c-0.1,0.2-0.1,0.4-0.1,0.7
		h2.8c0-0.6,0-1-0.1-1.4c0.8,0,1.3,0.1,2,0.2c0.2,0,0.4,0.1,0.4,0.2s0,0.2-0.1,0.3c-0.1,0.2-0.1,0.4-0.1,0.7v0
		c1.7,0,2.4-0.1,2.5-0.1c0.2,0,0.3,0,0.3,0.2v1.2c0,0.2,0,0.3-0.3,0.3c-0.1,0-0.8,0-2.5,0v1.4h0.4c2.2,0,2.9,0,3,0
		c0.2,0,0.2,0,0.2,0.2v1.2c0,0.2,0,0.3-0.2,0.3c-0.1,0-0.9,0-3,0h-1.1c1.1,0.7,2.5,1.2,4.4,1.6c-0.3,0.3-0.6,0.7-0.8,1.1
		c-0.2,0.4-0.3,0.5-0.5,0.5c-0.1,0-0.3-0.1-0.5-0.1c-1.5-0.5-2.8-1.1-4.1-2c-0.2-0.1-0.1-0.2,0.1-0.4l0.7-0.7h-4.3
		c0.4,0.2,0.8,0.5,1.1,0.7c0.2,0.2,0.3,0.2,0.3,0.3c0,0.1-0.1,0.2-0.3,0.2c-0.2,0-0.4,0.3-0.7,0.4c-0.7,0.5-1.7,0.9-2.7,1.3
		c-0.2,0.1-0.4,0.2-0.5,0.2c-0.2,0-0.3-0.2-0.6-0.5c-0.3-0.4-0.6-0.7-1-0.9c1.3-0.4,2.4-0.8,3.2-1.2c0.3-0.2,0.6-0.4,0.9-0.6H148.6z
		 M153.6,43.3v-1.4h-2.8v1.4H153.6z M154.5,33.1c-1.4,0-1.8,0-1.9,0c-0.2,0-0.3,0-0.3-0.2v-1.2c0-0.2,0-0.2,0.3-0.2
		c0.1,0,0.5,0,1.9,0h2.3c1,0,1.4,0,1.6,0c0.2,0,0.2,0,0.2,0.2c0,0.1,0,0.5,0,1.4v0.9c0,0.9,0,1.3,0,1.4c0,0.2,0,0.2-0.2,0.2
		c-0.1,0-0.5,0-1.6,0h-2.2v0.6c0,0.5,0,0.6,0.1,0.7c0.1,0.1,0.4,0.2,1.2,0.2c0.7,0,1.1,0,1.2-0.2c0.2-0.1,0.2-0.5,0.2-1
		c0.4,0.2,1,0.4,1.5,0.5c0.5,0.1,0.5,0.2,0.4,0.7c-0.1,0.5-0.2,0.7-0.5,0.9c-0.4,0.4-1.3,0.4-3,0.4c-1.8,0-2.4-0.1-2.8-0.4
		c-0.4-0.3-0.5-0.7-0.5-1.7v-1.2c0-0.5,0-0.7,0-0.9c0-0.2,0-0.2,0.2-0.2c0.2,0,0.5,0,1.5,0h2.4v-1.2H154.5z"/>
	<path class="st1" d="M165.1,46.7c-2,0-2.7,0-2.8,0c-0.2,0-0.3,0-0.3-0.2V45c0-0.2,0-0.2,0.3-0.2c0.1,0,0.8,0,2.8,0h5.3v-1.3h-2.3
		c-2.1,0-2.9,0-3,0c-0.2,0-0.2,0-0.2-0.2v-1.4c0-0.2,0-0.2,0.2-0.2c0.1,0,0.9,0,3,0h2.3v-1.4c-0.9,0.1-1.7,0.2-2.6,0.2
		c-0.4,0-0.4,0-0.5-0.3c-0.1-0.2-0.2-0.5-0.3-0.8c-1.1,1.1-2.4,2-3.9,2.8c-0.3,0.2-0.4,0.2-0.5,0.2c-0.2,0-0.2-0.1-0.4-0.4
		c-0.3-0.6-0.6-1-1-1.3c2.3-0.9,4-2.3,5.3-3.9H165c-2,0-2.7,0-2.8,0c-0.2,0-0.2,0-0.2-0.2v-1.5c0-0.2,0-0.2,0.2-0.2
		c0.1,0,0.8,0,2.8,0h13c2,0,2.7,0,2.8,0c0.2,0,0.2,0,0.2,0.2v1.5c0,0.2,0,0.2-0.2,0.2c-0.1,0-0.8,0-2.8,0h-1.8
		c1.4,1.5,3.3,2.9,5.7,3.7c-0.4,0.4-0.6,0.9-0.9,1.4c-0.2,0.4-0.2,0.5-0.4,0.5c-0.1,0-0.2-0.1-0.5-0.2c-2.8-1.4-4.8-3.2-6.3-5.4
		h-4.7c-0.5,0.7-1,1.4-1.6,2c2.3-0.1,3.8-0.3,5.1-0.6c0.4-0.1,0.8-0.2,1.2-0.4c0.4,0.3,0.8,0.7,1.3,1.2c0.1,0.1,0.2,0.3,0.2,0.4
		c0,0.1-0.1,0.2-0.3,0.2c-0.3,0-0.5,0-0.8,0.1c-0.5,0.1-1,0.2-1.6,0.3v1.7h2.2c2.1,0,2.8,0,3,0c0.2,0,0.2,0,0.2,0.2v1.4
		c0,0.2,0,0.2-0.2,0.2c-0.1,0-0.9,0-3,0h-2.2v1.3h5.2c2,0,2.7,0,2.8,0c0.2,0,0.2,0,0.2,0.2v1.5c0,0.2,0,0.2-0.2,0.2
		c-0.1,0-0.8,0-2.8,0h-5.2c0,0.9,0,1.7,0,2.2c0,0.8-0.2,1.2-0.7,1.6c-0.5,0.3-1.3,0.5-3.4,0.5c-0.7,0-0.7,0-0.9-0.7
		c-0.1-0.5-0.4-1.1-0.6-1.5c0.8,0.1,1.5,0.1,2.4,0.1c0.5,0,0.7-0.2,0.7-0.7v-1.5H165.1z M166,31.3c0.3-0.1,0.3-0.1,0.5,0.1
		c0.5,0.7,1.1,1.7,1.4,2.3c0.1,0.2,0.1,0.2-0.2,0.4l-1.5,0.5c-0.3,0.1-0.4,0.1-0.4-0.2c-0.3-0.7-0.8-1.7-1.3-2.3
		c-0.1-0.2-0.1-0.2,0.2-0.3L166,31.3z M171.2,30.8c0.3-0.1,0.3,0,0.4,0.2c0.4,0.6,0.8,1.7,1.1,2.6c0,0.2,0,0.3-0.2,0.4l-1.5,0.4
		c-0.3,0.1-0.4,0-0.4-0.2c-0.3-0.9-0.7-1.9-1.1-2.6c-0.1-0.2,0-0.2,0.2-0.3L171.2,30.8z M175.9,32.2c0.2-0.4,0.3-0.7,0.4-1.2
		c0.7,0.1,1.5,0.3,2.1,0.5c0.2,0.1,0.3,0.2,0.3,0.3c0,0.2-0.1,0.3-0.3,0.4s-0.3,0.3-0.5,0.6c-0.3,0.6-0.6,1-0.9,1.5
		c-0.3,0.4-0.4,0.4-0.8,0.3c-0.5-0.2-1.1-0.3-1.6-0.3C175.2,33.6,175.6,33,175.9,32.2z"/>
	<path class="st1" d="M186.5,44.8c-1.9,0-2.6,0-2.7,0c-0.2,0-0.2,0-0.2-0.2v-1.3c0-0.2,0-0.2,0.2-0.2c0.1,0,0.8,0,2.7,0h5.9v-1h-3.6
		c-2.1,0-2.9,0-3,0c-0.2,0-0.2,0-0.2-0.2v-1.2c0-0.2,0-0.2,0.2-0.2c0.1,0,0.9,0,3,0h3.6v-1h-2.8c-2.2,0-2.9,0-3.1,0
		c-0.2,0-0.3,0-0.3-0.3c0-0.1,0-0.4,0-1.1v-1.2c0-0.7,0-1,0-1.1c0-0.2,0-0.3,0.3-0.3c0.1,0,0.9,0,3.1,0h2.8v-1h-5.5
		c-2,0-2.7,0-2.8,0c-0.2,0-0.2,0-0.2-0.2V33c0-0.2,0-0.2,0.2-0.2c0.1,0,0.8,0,2.8,0h5.5c0-0.9,0-1.4-0.2-2c0.8,0,1.5,0,2.3,0.1
		c0.2,0,0.4,0.1,0.4,0.2c0,0.2-0.1,0.3-0.1,0.4c-0.1,0.2-0.1,0.5-0.1,1.2h5.6c2,0,2.7,0,2.8,0c0.2,0,0.2,0,0.2,0.2v1.4
		c0,0.2,0,0.2-0.2,0.2c-0.1,0-0.8,0-2.8,0h-5.6v1h2.9c2.2,0,2.9,0,3.1,0c0.2,0,0.2,0,0.2,0.3c0,0.1,0,0.4,0,1.1v1.2c0,0.7,0,1,0,1.1
		c0,0.2,0,0.3-0.2,0.3c-0.2,0-0.9,0-3.1,0h-2.9v1h3.6c2.2,0,2.9,0,3,0c0.2,0,0.2,0,0.2,0.2c0,0.1,0,0.7,0,1.9V43c1.3,0,1.8,0,1.9,0
		c0.2,0,0.2,0,0.2,0.2v1.3c0,0.2,0,0.2-0.2,0.2c-0.1,0-0.6,0-1.9,0v1.1c0,1.3,0,1.9,0,2c0,0.2,0,0.2-0.2,0.2h-1.7
		c-0.2,0-0.2,0-0.2-0.2v-0.5h-4.6c0,0.4,0,0.8,0,1.1c0,1-0.2,1.6-0.8,2c-0.6,0.3-1.5,0.5-3.1,0.5c-0.7,0-0.7,0-0.9-0.6
		c-0.2-0.5-0.5-1.1-0.9-1.7c0.8,0.1,1.4,0.1,2.2,0.1c0.9,0,1.1-0.2,1.1-0.8v-0.5h-3.6c-2.2,0-2.9,0-3,0c-0.2,0-0.2,0-0.2-0.3V46
		c0-0.2,0-0.3,0.2-0.3c0.1,0,0.9,0,3,0h3.6v-1H186.5z M192.4,38v-1.1h-4V38H192.4z M198.7,36.9h-4.1V38h4.1V36.9z M194.6,42v1h4.7
		v-1H194.6z M199.3,45.8v-1h-4.7v1H199.3z"/>
	<path class="st1" d="M219.5,44.9c-0.8,2.6-2.5,4.5-5.1,5.8c-0.3,0.1-0.4,0.2-0.5,0.2c-0.2,0-0.3-0.1-0.5-0.5
		c-0.3-0.5-0.6-0.9-1-1.3c2.3-0.8,4.1-2,4.9-4.2h-0.4c-2,0-2.6,0-2.7,0c-0.2,0-0.3,0-0.3-0.2v-1.4c0-0.2,0-0.3,0.3-0.3
		c0.1,0,0.8,0,2.7,0h0.8c0-0.3,0.1-0.6,0.1-0.9c0-0.3,0-0.7,0-1.1c-0.5,0.2-1.1,0.4-1.7,0.6c-0.5,0.1-0.5,0.1-0.7-0.4
		c-0.2-0.4-0.4-0.8-0.6-1.1c-0.2,0.7-0.5,1.4-1,2.2c-0.2,0.3-0.3,0.5-0.4,0.5c-0.1,0-0.2-0.1-0.4-0.2c-0.4-0.2-0.9-0.4-1.3-0.5
		c0.5-0.8,0.8-1.5,1.1-2.2h-1.3v5.7c0,1,0.1,1.9,0.1,2.8c0,0.9-0.1,1.4-0.7,1.9c-0.4,0.3-0.9,0.4-2.6,0.4c-0.7,0-0.7,0-0.8-0.7
		c-0.1-0.5-0.3-1.1-0.6-1.4c0.7,0.1,1.2,0.1,1.8,0.1c0.6,0,0.8-0.2,0.8-0.6v-3.9c0-0.7,0-1.4,0-2c-0.6,1.5-1.3,3-2.6,4.5
		c-0.2,0.2-0.3,0.4-0.5,0.4s-0.2-0.1-0.4-0.4c-0.2-0.5-0.6-0.9-0.9-1.2c1.5-1.4,2.8-3.6,3.5-5.6h-0.2c-1.8,0-2.5,0-2.6,0
		c-0.2,0-0.2,0-0.2-0.3v-1.5c0-0.2,0-0.3,0.2-0.3c0.1,0,0.7,0,2.6,0h1.2c-0.8-0.7-1.6-1.4-2.5-2c-0.1-0.1-0.2-0.1-0.2-0.2
		c0-0.1,0.1-0.1,0.2-0.2l0.9-0.8c0.2-0.2,0.3-0.2,0.5-0.1l1.3,0.9c0.6-0.6,1.2-1.3,1.7-2h-2.8c-1.7,0-2.3,0-2.4,0
		c-0.2,0-0.2,0-0.2-0.2V32c0-0.2,0-0.2,0.2-0.2c0.1,0,0.7,0,2.4,0h3.8c0.2,0,0.4,0,0.4-0.1c0.1,0,0.2-0.1,0.3-0.1
		c0.2,0,0.4,0.1,0.8,0.6c0.5,0.5,0.6,0.7,0.6,0.9c0,0.2-0.1,0.3-0.3,0.4c-0.2,0.2-0.4,0.4-0.6,0.7c-0.7,1-1.5,1.9-2.5,2.8
		c0.2,0.2,0.4,0.4,0.6,0.5c0.2,0.2,0.2,0.2-0.1,0.4l-0.1,0.1h1.4c0.2,0,0.3,0,0.4-0.1c0.1,0,0.2-0.1,0.3-0.1c0.1,0,0.4,0.1,0.8,0.5
		c0.5,0.5,0.6,0.7,0.6,0.9c0,0.2,0,0.2-0.2,0.4c-0.1,0-0.1,0.1-0.2,0.2c1.4-0.3,2.7-0.8,3.7-1.4c-0.7-0.6-1.3-1.4-1.7-2.1l-0.9,1.1
		c-0.2,0.2-0.3,0.3-0.4,0.3c-0.1,0-0.2-0.1-0.4-0.3c-0.4-0.4-0.9-0.8-1.3-1c1.5-1.3,2.5-2.8,3.2-4.2c0.2-0.5,0.4-0.9,0.5-1.4
		c0.6,0.1,1.5,0.3,2,0.4c0.2,0,0.3,0.1,0.3,0.3c0,0.1-0.1,0.2-0.2,0.3c-0.1,0.1-0.3,0.4-0.4,0.6c-0.1,0.2-0.2,0.4-0.3,0.6h3.7
		c1.7,0,2.3,0,2.4,0c0.2,0,0.2,0,0.2,0.2v1.4c0,0.2,0,0.2-0.2,0.2c-0.1,0-0.5,0-1.4,0c-0.5,1.4-1.2,2.6-2,3.6
		c1.2,0.7,2.6,1.2,4.2,1.5c-0.3,0.4-0.6,1-0.7,1.5c-0.3,0.7-0.3,0.7-0.9,0.5c-1.5-0.5-2.9-1.2-4.1-2.1c-0.6,0.4-1.3,0.8-1.9,1.1
		c0.6,0,1.1,0.1,1.7,0.2c0.3,0,0.4,0.1,0.4,0.3c0,0.2-0.1,0.3-0.2,0.4c-0.1,0.2-0.2,0.4-0.2,0.9l-0.1,0.4h1.6c2,0,2.7,0,2.8,0
		c0.2,0,0.3,0.1,0.3,0.3l-0.1,1.3c-0.1,2.2-0.2,3.5-0.7,4.5c-0.4,0.9-1,1.5-2.5,1.5c-0.4,0-0.8,0-1.3,0c-0.6,0-0.6,0-0.8-0.8
		c-0.1-0.5-0.3-1-0.5-1.4c0.6,0.1,1.3,0.2,1.9,0.2c0.5,0,0.8-0.1,1.1-0.5c0.3-0.5,0.4-1.7,0.6-3.3H219.5z M218.3,34.9
		c0.5,0.9,1.1,1.7,1.8,2.4c0.6-0.7,1.1-1.5,1.4-2.4H218.3z"/>
	<path class="st1" d="M231.1,43.1c-0.2,2.9-0.6,5.2-1.7,7.3c-0.2,0.3-0.2,0.4-0.4,0.4c-0.1,0-0.2-0.1-0.4-0.4
		c-0.4-0.5-1-0.9-1.4-1.2c1.6-2.3,1.8-5.3,1.8-9.3c0-2.4,0-3.5,0-3.7c0-0.2,0-0.2,0.2-0.2c0.2,0,0.6,0,2.2,0h2.8c1.6,0,2.1,0,2.2,0
		c0.2,0,0.2,0,0.2,0.2c0,0.1,0,0.7,0,2v3.4c0,1.3,0,1.9,0,2c0,0.2,0,0.3-0.2,0.3h-1.7c-0.2,0-0.2,0-0.2-0.3v-0.6H231.1z M234.4,32
		c1.8,0,2.4,0,2.6,0c0.2,0,0.2,0,0.2,0.2v1.6c0,0.2,0,0.3-0.2,0.3c-0.1,0-0.7,0-2.6,0h-3.7c-1.8,0-2.4,0-2.6,0c-0.2,0-0.2,0-0.2-0.3
		v-1.6c0-0.2,0-0.2,0.2-0.2c0.1,0,0.7,0,2.6,0H234.4z M231.2,38v3.1h3.2V38H231.2z M240.4,40c0,2.5-0.2,4.2-0.8,5.8
		c-0.5,1.7-1.5,3.2-2.7,4.5c-0.2,0.2-0.3,0.4-0.5,0.4c-0.1,0-0.2-0.1-0.4-0.4c-0.4-0.5-0.9-0.9-1.4-1.2c1.4-1.2,2.4-2.6,2.9-4.4
		c0.4-1.3,0.6-2.7,0.6-5.7v-2.7c0-1.3,0-2.4-0.2-3.6c0.8,0.1,1.4,0.3,2.1,0.5c1.3-0.3,3-0.9,4.3-1.6c0.5-0.2,0.8-0.5,1.2-0.8
		c0.5,0.4,1,1,1.5,1.6c0.1,0.2,0.2,0.3,0.2,0.4c0,0.1-0.2,0.2-0.4,0.2c-0.2,0-0.5,0.1-0.8,0.3c-1.9,0.8-3.8,1.4-5.6,1.8V38h4
		c2.2,0,2.9,0,3,0c0.2,0,0.2,0,0.2,0.2v1.6c0,0.2,0,0.2-0.2,0.2c-0.1,0-0.7,0-2.4,0v8c0,1.8,0,2.6,0,2.8c0,0.2,0,0.2-0.2,0.2h-1.8
		c-0.2,0-0.2,0-0.2-0.2c0-0.2,0-1,0-2.8v-8H240.4z"/>
</g>
</svg>
