<?xml version="1.0" encoding="UTF-8"?><svg id="_レイヤー_2" xmlns="http://www.w3.org/2000/svg" viewBox="0 0 14.48 16.12"><defs><style>.cls-1{fill:#fff;}</style></defs><g id="_レイヤー_1-2"><g><path class="cls-1" d="m13.9,16.12H2.63c-.32,0-.57-.26-.57-.57v-2.77c0-.32.26-.57.57-.57s.57.26.57.57v2.2h10.13V4.32l-3.14-3.17H3.2v6.29c0,.32-.26.57-.57.57s-.57-.26-.57-.57V.57c0-.32.26-.57.57-.57h7.8c.15,0,.3.06.41.17l3.47,3.51c.11.11.17.25.17.4v11.46c0,.32-.26.57-.57.57Z"/><path class="cls-1" d="m11.35,13.36H.57c-.32,0-.57-.26-.57-.57v-5.3c0-.32.26-.57.57-.57h10.78c.32,0,.57.26.57.57v5.3c0,.32-.26.57-.57.57Zm-10.21-1.15h9.63v-4.16H1.15v4.16Z"/><path class="cls-1" d="m13.67,5.22h-3.92c-.36,0-.65-.29-.65-.65V.99c0-.36.29-.65.65-.65s.65.29.65.65v2.94h3.27c.36,0,.65.29.65.65s-.29.65-.65.65Z"/><g><path class="cls-1" d="m2.72,8.62h.67c.3,0,.54.06.79.18.21.12.33.36.33.7s-.09.58-.3.7c-.18.15-.42.21-.73.21h-.21v1.09h-.54v-2.88h0Zm.51,1.33h.18c.15,0,.27-.03.36-.09.09-.06.15-.18.15-.33,0-.09,0-.15-.03-.21s-.06-.09-.12-.15c-.09-.06-.21-.09-.36-.09h-.18v.88Z"/><path class="cls-1" d="m5.09,8.62h.76c.39,0,.73.09,1,.3.12.12.24.24.3.42s.12.42.12.73c0,.27-.03.51-.12.7-.06.18-.18.33-.3.45s-.27.18-.45.24c-.18.03-.36.06-.54.06h-.76v-2.91Zm.54,2.45h.27c.21,0,.39-.09.58-.27.15-.18.24-.42.24-.73s-.09-.58-.24-.73c-.15-.18-.33-.24-.58-.24h-.27v1.97Z"/><path class="cls-1" d="m7.93,8.62h1.3l.06.45h-.88v.73h.79v.45h-.79v1.27h-.48v-2.91Z"/></g></g></g></svg>