<svg width="437" height="218" viewBox="0 0 437 218" fill="none" xmlns="http://www.w3.org/2000/svg">
<path d="M30.496 97.732H152.02V124.18H63.784V217.888H30.496V97.732ZM141.988 97.732H175.732V188.02C175.732 195.468 174.668 201.092 172.54 204.892C170.412 208.692 166.688 211.656 161.368 213.784C156.048 215.76 149.74 216.9 142.444 217.204C135.3 217.66 127.016 217.888 117.592 217.888C116.832 213.936 115.464 209.452 113.488 204.436C111.664 199.572 109.764 195.316 107.788 191.668C111.132 191.82 114.78 191.972 118.732 192.124C122.836 192.276 126.56 192.352 129.904 192.352C133.248 192.2 135.452 192.124 136.516 192.124C138.644 192.124 140.088 191.82 140.848 191.212C141.608 190.452 141.988 189.312 141.988 187.792V97.732ZM51.016 131.02H153.844V153.136H51.016V131.02ZM0.4 18.844H204.688V47.572H0.4V18.844ZM53.524 36.172L91.372 45.52C85.748 52.512 79.972 59.276 74.044 65.812C68.116 72.348 62.872 77.896 58.312 82.456L31.864 73.336C34.6 69.688 37.26 65.736 39.844 61.48C42.58 57.224 45.088 52.892 47.368 48.484C49.8 44.076 51.852 39.972 53.524 36.172ZM125.572 53.272L152.704 37.084C158.632 41.34 165.016 46.204 171.856 51.676C178.696 56.996 185.156 62.468 191.236 68.092C197.468 73.564 202.56 78.656 206.512 83.368L177.1 101.836C173.756 97.276 169.196 92.108 163.42 86.332C157.644 80.556 151.412 74.78 144.724 69.004C138.188 63.228 131.804 57.984 125.572 53.272ZM7.696 62.164C18.488 62.164 30.572 62.088 43.948 61.936C57.324 61.784 71.536 61.632 86.584 61.48C101.632 61.176 116.984 60.948 132.64 60.796C148.296 60.492 163.724 60.188 178.924 59.884L177.328 86.56C157.264 87.32 136.972 88.08 116.452 88.84C96.084 89.448 76.628 90.056 58.084 90.664C39.54 91.12 23.048 91.5 8.608 91.804L7.696 62.164ZM51.016 160.204H153.844V182.548H51.016V160.204ZM85.672 0.831985H119.872V33.664H85.672V0.831985ZM311.62 9.496C311.012 13.296 310.404 17.628 309.796 22.492C309.34 27.204 309.112 33.74 309.112 42.1C309.112 44.836 309.112 49.168 309.112 55.096C309.112 61.024 309.112 67.56 309.112 74.704C309.112 81.696 309.112 88.46 309.112 94.996C309.112 101.532 309.112 106.7 309.112 110.5L275.824 98.872C275.824 94.616 275.824 89.904 275.824 84.736C275.824 79.416 275.824 74.096 275.824 68.776C275.824 63.304 275.824 58.288 275.824 53.728C275.824 49.016 275.824 45.14 275.824 42.1C275.824 33.436 275.596 26.824 275.14 22.264C274.836 17.552 274.152 13.296 273.088 9.496H311.62ZM386.404 29.332C390.052 31.612 394.232 34.652 398.944 38.452C403.656 42.1 408.368 46.128 413.08 50.536C417.944 54.792 422.428 58.972 426.532 63.076C430.636 67.18 433.98 70.752 436.564 73.792L411.712 99.328C407.304 94.008 402.136 88.384 396.208 82.456C390.432 76.376 384.58 70.676 378.652 65.356C372.876 59.884 367.708 55.552 363.148 52.36L386.404 29.332ZM233.188 35.488C239.268 36.248 245.652 36.932 252.34 37.54C259.18 38.148 265.184 38.452 270.352 38.452C282.056 38.452 294.444 37.692 307.516 36.172C320.74 34.652 334.268 31.992 348.1 28.192V61.252C338.676 63.38 329.1 65.052 319.372 66.268C309.796 67.484 300.904 68.32 292.696 68.776C284.64 69.232 278.028 69.46 272.86 69.46C268.148 69.46 262.676 69.308 256.444 69.004C250.364 68.7 243.296 68.244 235.24 67.636L233.188 35.488ZM304.552 143.104C304.552 144.624 304.552 146.6 304.552 149.032C304.552 151.312 304.552 153.744 304.552 156.328C304.552 158.912 304.552 161.42 304.552 163.852C304.552 165.828 304.78 167.652 305.236 169.324C305.692 170.996 306.756 172.44 308.428 173.656C310.1 174.72 312.608 175.556 315.952 176.164C319.448 176.772 324.16 177.076 330.088 177.076C333.736 177.076 337.46 176.924 341.26 176.62C345.212 176.316 349.088 175.86 352.888 175.252C356.688 174.644 360.032 173.884 362.92 172.972C368.848 171.148 372.876 168.336 375.004 164.536C377.284 160.584 378.424 156.176 378.424 151.312C378.424 146.904 378.272 142.344 377.968 137.632C377.816 132.768 377.36 127.524 376.6 121.9L414.904 133.3C414.904 137.708 414.904 141.432 414.904 144.472C414.904 147.512 414.904 150.324 414.904 152.908C414.904 155.34 414.752 158.152 414.448 161.344C413.992 168.032 412.776 174.112 410.8 179.584C408.976 185.056 405.556 189.92 400.54 194.176C395.676 198.432 388.304 202.156 378.424 205.348C374.928 206.564 370.14 207.552 364.06 208.312C358.132 209.072 351.9 209.604 345.364 209.908C338.828 210.364 332.9 210.592 327.58 210.592C316.028 210.592 306.604 209.832 299.308 208.312C292.164 206.944 286.54 204.968 282.436 202.384C278.484 199.952 275.672 197.216 274 194.176C272.328 190.984 271.264 187.792 270.808 184.6C270.504 181.256 270.352 178.064 270.352 175.024C270.352 171.072 270.352 167.044 270.352 162.94C270.504 158.836 270.58 155.416 270.58 152.68L304.552 143.104ZM316.18 119.164C316.18 126.612 315.192 133.68 313.216 140.368C311.392 146.904 308.504 152.68 304.552 157.696C300.752 162.56 295.888 166.436 289.96 169.324C284.032 172.06 276.964 173.428 268.756 173.428C262.524 173.428 256.672 171.908 251.2 168.868C245.728 165.828 241.244 161.116 237.748 154.732C234.404 148.348 232.732 140.064 232.732 129.88C232.732 120.152 234.632 111.64 238.432 104.344C242.384 97.048 247.704 91.348 254.392 87.244C261.232 83.14 268.984 81.088 277.648 81.088C290.72 81.088 300.372 84.66 306.604 91.804C312.988 98.796 316.18 107.916 316.18 119.164ZM272.176 140.368C275.216 140.368 277.648 139.532 279.472 137.86C281.296 136.188 282.588 133.832 283.348 130.792C284.26 127.752 284.716 124.332 284.716 120.532C284.716 116.58 283.88 113.616 282.208 111.64C280.536 109.512 278.332 108.448 275.596 108.448C273.012 108.448 270.58 109.208 268.3 110.728C266.172 112.248 264.5 114.376 263.284 117.112C262.068 119.848 261.46 123.116 261.46 126.916C261.46 131.172 262.524 134.516 264.652 136.948C266.932 139.228 269.44 140.368 272.176 140.368Z" fill="#EA5405"/>
</svg>
