<svg width="429" height="214" viewBox="0 0 429 214" fill="none" xmlns="http://www.w3.org/2000/svg">
<path d="M49.528 41.748H101.056V63.408H49.528V41.748ZM49.756 184.248H115.648V207.504H49.756V184.248ZM37.216 97.38H108.124V116.304H37.216V97.38ZM23.992 69.108H52.036V100.344C52.036 108.096 51.656 116.684 50.896 126.108C50.136 135.532 48.768 145.26 46.792 155.292C44.816 165.172 41.928 174.748 38.128 184.02C34.48 193.292 29.768 201.728 23.992 209.328C22.624 207.504 20.572 205.224 17.836 202.488C15.1 199.904 12.288 197.32 9.4 194.736C6.512 192.304 4.08 190.556 2.104 189.492C8.792 180.676 13.656 171.024 16.696 160.536C19.736 149.896 21.712 139.332 22.624 128.844C23.536 118.204 23.992 108.552 23.992 99.888V69.108ZM39.952 69.108H120.892V144.804H39.04V122.46H91.48V91.68H39.952V69.108ZM37.9 150.96H124.768V212.976H96.04V174.216H65.488V213.432H37.9V150.96ZM131.608 25.104H162.844V155.52H131.608V25.104ZM180.856 1.84799H213.004V175.128C213.004 183.944 212.092 190.784 210.268 195.648C208.444 200.512 205.024 204.236 200.008 206.82C194.992 209.556 188.76 211.304 181.312 212.064C174.016 212.976 165.428 213.432 155.548 213.432C155.244 210.24 154.484 206.592 153.268 202.488C152.204 198.384 150.912 194.28 149.392 190.176C148.024 186.072 146.58 182.5 145.06 179.46C151.292 179.764 157.296 179.992 163.072 180.144C169 180.144 173.104 180.144 175.384 180.144C177.36 180.144 178.728 179.764 179.488 179.004C180.4 178.244 180.856 176.876 180.856 174.9V1.84799ZM56.596 0.479992H75.064V6.86399H85.324V16.212C78.332 25.484 69.668 35.592 59.332 46.536C48.996 57.48 35.924 68.044 20.116 78.228C18.9 75.796 17.076 73.06 14.644 70.02C12.364 66.828 9.932 63.864 7.348 61.128C4.764 58.24 2.408 55.96 0.28 54.288C9.248 49.272 17.304 43.8 24.448 37.872C31.592 31.792 37.824 25.56 43.144 19.176C48.616 12.792 53.1 6.56 56.596 0.479992ZM63.892 0.479992H86.008C91.024 4.27999 96.42 8.53599 102.196 13.248C107.972 17.96 113.52 22.672 118.84 27.384C124.16 31.944 128.644 36.2 132.292 40.152L111.316 64.548C108.276 60.748 104.324 56.34 99.46 51.324C94.748 46.308 89.732 41.292 84.412 36.276C79.092 31.26 74.152 27.08 69.592 23.736H63.892V0.479992ZM273.88 15.072C277.376 15.528 281.176 15.908 285.28 16.212C289.384 16.364 293.336 16.44 297.136 16.44C299.568 16.44 303.14 16.44 307.852 16.44C312.564 16.288 317.808 16.212 323.584 16.212C329.512 16.06 335.364 15.908 341.14 15.756C347.068 15.604 352.388 15.452 357.1 15.3C361.964 14.996 365.764 14.768 368.5 14.616C373.972 14.16 378.304 13.704 381.496 13.248C384.84 12.792 387.272 12.336 388.792 11.88L405.892 36.276C403.004 38.1 400.04 39.924 397 41.748C394.112 43.42 391.224 45.32 388.336 47.448C385.144 49.576 381.572 52.16 377.62 55.2C373.668 58.088 369.64 61.204 365.536 64.548C361.432 67.74 357.404 70.856 353.452 73.896C349.652 76.936 346.156 79.672 342.964 82.104C346.004 81.496 348.74 81.116 351.172 80.964C353.604 80.812 356.188 80.736 358.924 80.736C371.996 80.736 383.776 83.32 394.264 88.488C404.904 93.656 413.34 100.724 419.572 109.692C425.804 118.508 428.92 128.692 428.92 140.244C428.92 152.1 425.956 163.12 420.028 173.304C414.1 183.488 404.904 191.62 392.44 197.7C379.976 203.932 363.864 207.048 344.104 207.048C333.464 207.048 323.66 205.452 314.692 202.26C305.724 199.068 298.58 194.508 293.26 188.58C287.94 182.5 285.28 175.28 285.28 166.92C285.28 160.232 287.104 153.924 290.752 147.996C294.552 142.068 299.796 137.28 306.484 133.632C313.172 129.984 320.848 128.16 329.512 128.16C340.152 128.16 349.196 130.288 356.644 134.544C364.092 138.648 369.792 144.272 373.744 151.416C377.848 158.56 379.9 166.464 379.9 175.128L347.524 179.004C347.524 171.556 345.852 165.628 342.508 161.22C339.316 156.66 335.06 154.38 329.74 154.38C325.94 154.38 322.976 155.368 320.848 157.344C318.872 159.168 317.884 161.22 317.884 163.5C317.884 166.996 319.632 169.884 323.128 172.164C326.624 174.444 331.26 175.584 337.036 175.584C349.804 175.584 360.292 174.14 368.5 171.252C376.708 168.364 382.712 164.26 386.512 158.94C390.464 153.468 392.44 147.084 392.44 139.788C392.44 133.252 390.388 127.628 386.284 122.916C382.332 118.052 376.936 114.328 370.096 111.744C363.256 109.16 355.656 107.868 347.296 107.868C338.936 107.868 331.108 109.084 323.812 111.516C316.668 113.796 309.904 117.064 303.52 121.32C297.136 125.424 290.98 130.364 285.052 136.14C279.276 141.764 273.652 147.92 268.18 154.608L243.1 128.616C246.748 125.728 251.004 122.308 255.868 118.356C260.732 114.404 265.748 110.3 270.916 106.044C276.084 101.636 281.024 97.456 285.736 93.504C290.448 89.552 294.476 86.208 297.82 83.472C301.012 80.888 304.584 78 308.536 74.808C312.64 71.616 316.744 68.348 320.848 65.004C325.104 61.508 329.132 58.24 332.932 55.2C336.732 52.008 340 49.196 342.736 46.764C340.456 46.764 337.72 46.84 334.528 46.992C331.488 47.144 328.22 47.296 324.724 47.448C321.228 47.448 317.656 47.524 314.008 47.676C310.512 47.828 307.168 48.056 303.976 48.36C300.784 48.512 297.972 48.664 295.54 48.816C292.196 48.968 288.624 49.272 284.824 49.728C281.024 50.032 277.756 50.412 275.02 50.868L273.88 15.072Z" fill="#EA5405"/>
</svg>
