<svg xmlns="http://www.w3.org/2000/svg" width="364.204" height="90.521" viewBox="0 0 364.204 90.521"><g transform="translate(-83.016 -1886.479)"><path d="M-1.686,0h333.3l-25.9,81.005h-333.3Z" transform="translate(115.601 1895.995)" fill="#80a1d0"/><path d="M-1.686,0h333.3l-25.9,81.005h-333.3Z" transform="translate(110.601 1886.479)" fill="#004098"/><g transform="translate(169.664 1897.661)"><path d="M14.084,13.264a3.494,3.494,0,0,0,2.457,1.394,4.716,4.716,0,0,0,2.224-.7C23.114,12.1,28.625,8.55,34.6,8.55c6.706,0,10.889,4.515,10.889,9.395s-2.921,7.868-6.64,9.826C34.9,29.9,28.426,30.328,23.081,29.929l-.1-.83c5.079-.6,9.03-1.394,12.781-3.652,3.187-1.793,5.245-4.415,5.245-8.067s-2.324-6.805-6.507-6.805c-4.814,0-10.158,4.714-12.25,6.341-1.959,1.56-2.789,2.589-4.116,2.589-1.494,0-3.685-1.693-4.282-3.253a7.188,7.188,0,0,1-.3-2.755l.5-.266Z" transform="translate(31.453 19.838)" fill="#fff"/><path d="M38.595,33.7c9.229-2.191,12.715-7.27,12.715-13.578,0-6.706-4.316-11.022-10.225-11.022a10.8,10.8,0,0,0-1.461.1c1.1,1.129,2.423,2.921,2.423,4.648a19.52,19.52,0,0,1-1.2,6.507C39.192,25,35.109,31.642,30.66,31.642c-2.921,0-5.61-4.482-5.61-9.229a14.849,14.849,0,0,1,5.378-10.856A16.379,16.379,0,0,1,41.516,7.64c8.4,0,14.341,5.843,14.341,13.445,0,6.905-4.814,12.814-17.1,13.345l-.133-.7ZM37.964,9.532a13.944,13.944,0,0,0-6.44,3.884,11.193,11.193,0,0,0-3.287,7.8c0,2.988,1.228,5.577,2.789,5.577,2.058,0,5.245-5.046,6.44-7.569a17.445,17.445,0,0,0,1.66-6.573A5.429,5.429,0,0,0,38,9.5Z" transform="translate(58.133 17.727)" fill="#fff"/><path d="M48.662,7.966c-.133.432-.6.764-1.428.73a55.521,55.521,0,0,1-3.685,7.868l1.925.73c-.1.332-.432.6-1.1.73V39.2c-.066.3-1.826,1.2-3.552,1.2h-.764V21.743a30.621,30.621,0,0,1-4.282,4.482l-.432-.332A71.205,71.205,0,0,0,42.687,6.14l5.942,1.826Zm17.86,3.253s2.523,2.125,4.05,3.519c-.1.4-.5.6-1.062.6H47.2l-.3-1.029H64.2l2.291-3.054ZM64.564,16.3s2.324,1.959,3.751,3.32c-.066.4-.465.6-1,.6H49.459l-.3-1.062H62.406L64.531,16.3Zm-15.37,7.735H62.439l2.125-2.822s2.324,1.959,3.751,3.253c-.066.4-.465.6-1,.6H49.459l-.3-1.029Zm15.47,2.656,4.117,3.154a2.308,2.308,0,0,1-1.461.764V38.84c-.033.3-2.091,1.162-3.552,1.162h-.73v-2.49H53.476v1.427c0,.4-1.859,1.328-3.619,1.328h-.6V27.154l4.415,1.726h9l1.959-2.158ZM50.123,10.256l-.3-1.029H61.277l2.158-2.955s2.523,1.992,3.917,3.386c-.066.4-.465.6-.963.6H50.09ZM63.037,36.449v-6.54H53.476v6.54Z" transform="translate(82.027 14.247)" fill="#fff"/><path d="M66.847,28.761c3.121,3.353,8.963,5.511,14.341,6.175l-.066.432a4.968,4.968,0,0,0-3.353,4.15A18.9,18.9,0,0,1,65.95,28.728V39.351c0,.365-1.959,1.129-3.718,1.129h-.8V31.649C57.85,35.168,52.7,37.824,46.7,39.616l-.266-.432A30.755,30.755,0,0,0,58.016,28.728H47.094L46.8,27.7h14.64V23.018l5.876.5c-.066.5-.365.863-1.361,1.029V27.7h8.1l2.423-3.054s2.689,2.091,4.349,3.519c-.1.4-.5.6-1.029.6H66.88ZM46.563,24.644A42.394,42.394,0,0,0,61.6,17.806a16.669,16.669,0,0,1-3.287-4.349,32.156,32.156,0,0,1-9.926,5.577l-.266-.365A29.318,29.318,0,0,0,58.647,6.12l6.075,1.759c-.2.4-.465.564-1.494.432A23.393,23.393,0,0,1,61.535,10.4h6.108l2.822-2.49,4.15,3.951c-.266.4-.664.5-1.66.6a25.194,25.194,0,0,1-5.444,5.511,52.4,52.4,0,0,0,13.279,2.191v.465c-1.859.5-2.988,1.992-3.419,4.116-5.112-.93-9.528-2.324-13.08-4.714a46.122,46.122,0,0,1-17.562,5.079l-.2-.465ZM60.539,11.432a20.019,20.019,0,0,1-1.494,1.394,14.736,14.736,0,0,0,4.448,3.419,20.422,20.422,0,0,0,4.05-4.814Z" transform="translate(107.729 14.201)" fill="#fff"/><path d="M28.473,23.94c-1,.332-1.328.73-.5.83.9.066,9.793,2.556,10.69,10.026.9,7.8-5.81,17.263-19.255,18.425-.83.066-1.66.066-2.49.066C6.4,53.286-.01,47.742-.01,40.837a11.9,11.9,0,0,1,.332-2.822A5.15,5.15,0,0,1,6.8,33.932c2.224.5,3.984,2.49,3.486,4.648-.6,2.224-2.556,2.556-3.32,4.548-.664,1.992-.5,6.706,7.8,7.038,8.3.4,12.781-5.976,13.777-11.354S27.146,28.289,21.5,26.961c-3.884-.9-8.2,1.726-8.532-1.1-.332-2.556,2.656-2.722,4.216-2.49,1.593.332,4.88.332,8.532-2.49,2.49-1.892,4.814-6.374,4.814-10.457a6.8,6.8,0,0,0-1.892-5.146,8.145,8.145,0,0,0-5.876-2.158,14.146,14.146,0,0,0-8.631,3.054A5.518,5.518,0,0,0,12.24,10a4.247,4.247,0,0,0,2.224,3.552c1.726,1,4.15.166,5.046,0s1.593,1.1.664,2.158c-1.062,1.262-3.486,2.755-7.635,2.49-1.992-.166-5.976-1.826-5.976-6.142a10.429,10.429,0,0,1,.4-2.49C8.389,5.117,16.788-.527,25.917.037,35.047.7,40.358,5.249,39.429,12.221c-1,8.2-9.959,11.287-10.955,11.686Z" transform="translate(0 0)" fill="#fff"/></g></g></svg>