<svg xmlns="http://www.w3.org/2000/svg" width="369.18" height="106.034" viewBox="0 0 369.18 106.034"><g transform="translate(-455.41 -1795.004)"><g transform="translate(455.41 1823.577)"><path d="M25.913,77.455C10.66,77.455,1.046,67.878,0,55.385H13.687c.42,5.1,4.807,10.2,11.913,10.2s12.333-5.622,12.333-14.053c0-10.725-7.733-14.473-13.166-14.473-1.673,0-7.213,0-9.82,6.769L2.093,42.686,7.526,0H49.739V11.245H16.927l-1.88,14.993L13.9,31.654c1.774-2.081,5.433-6.143,14.213-6.143,11.286,0,24.24,8.431,24.24,25.091,0,11.765-7.213,26.859-26.439,26.859Z" fill="#fff"/><path d="M123.784,105.891a30.237,30.237,0,0,1-12.688,2.838l-1.9-4.889a29.919,29.919,0,0,0,3.66.189c6.379,0,13.285-2.613,13.285-8.549,0-4.7-4.032-6.119-6.87-6.119a37.572,37.572,0,0,0-8.283,1.679c-1.383.372-7.5,2.164-8.768,2.5l-2.016-4.7a75.03,75.03,0,0,0,9.59-1.791c4.481-1.117,6.793-1.679,9.329-1.679,5,0,11.458,2.536,11.458,10.559C130.577,101.38,127.071,104.212,123.784,105.891Z" transform="translate(-40.96 -34.898)" fill="#fff"/><path d="M188.683,102.982a18,18,0,0,1-8.7,6.568l-2.761-3.843a12.588,12.588,0,0,0,6.716-3.991,11.661,11.661,0,0,0,2.684-7.426,8.816,8.816,0,0,0-2.684-6.533,9.55,9.55,0,0,0-6.344-2.5c-1.194,8.88-3.4,14.106-4.629,16.607-1.117,2.312-2.838,5.451-4.777,5.451-1.342,0-7.461-3.358-7.461-10.039A16.1,16.1,0,0,1,177.189,81.45c7.763,0,13.882,5.262,13.882,13.586a13.953,13.953,0,0,1-2.389,7.952ZM168.605,88.616a12.218,12.218,0,0,0-3.731,8.283c0,3.021,1.715,4.588,2.389,4.588,1.939,0,5.149-9.743,5.894-15.561a11.042,11.042,0,0,0-4.552,2.684Z" transform="translate(-65.704 -33.295)" fill="#fff"/><path d="M251.882,46.91a13.563,13.563,0,0,1,6.574,2.294c1.46,1.064,3.2,2.909,3.2,4.257s-2.359,1.177-3.819,1.679a64.638,64.638,0,0,1-8.259,2.572c2.247,1.064,3.766,2.578,3.766,3.358,0,1.4-.845,1.738-1.011,4.588,2.7-.278,4.83-.5,6.4-.727,3.541-.5,4.493-1.117,5.167-1.117,3.429,0,7.083,1.679,7.083,3.92,0,1.791-.958,2.353-2.306,2.353s-4.328-.615-7.532-.615c-2.867,0-5.954.112-8.992.337-1.182,12.54-8.094,21.047-21.857,25.748l-.562-.952c10.34-6.379,15.117-13.769,15.9-24.128a89.761,89.761,0,0,0-11.629,2.241c-1.573.562-2.808,1.289-4.44,1.289-1.969,0-4.606-2.743-5.451-4.535a11.442,11.442,0,0,1-.674-3.636l.845-.337c1.744,1.9,2.808,2.578,4.381,2.578,3.932,0,12.416-1.064,17.08-1.626,0-3.583-.4-6.1-1.969-7.615a110.335,110.335,0,0,1-15.23,1.342l-.284-1.23c9.158-2.128,21.355-6.048,23.885-8.005,1.123-.84,1.123-1.567-.845-3.358l.562-.674Z" transform="translate(-91.342 -19.176)" fill="#fff"/><path d="M312.491,69.64a9.634,9.634,0,0,1,4.44-1.23c1.91,0,6.237.952,6.237,2.465a35.642,35.642,0,0,0-.284,3.583,33.791,33.791,0,0,0,.508,3.583c3.878-1.005,8.992-2.465,10.394-2.856,1.07-.39,2.081-1.4,2.808-1.4,2.081,0,6.237,3.47,6.237,5.652,0,1.23-2.134,1.289-2.921,1.957-2.193,1.9-5.788,5.315-10.169,7.668l-.562-.449a48.665,48.665,0,0,0,5.114-9.406c.225-.562,0-.674-.621-.562-1.744.39-5.729,1.626-9.607,2.8,1.46,5.764,3.145,11.978,4.044,15.058a19.556,19.556,0,0,1,1.182,4.759c0,1.791-.786,2.684-2.53,2.684-2.471,0-4.156-2.069-4.328-4.7a127.983,127.983,0,0,0-3.033-16.4c-1.8.562-3.541,1.289-4.493,1.679-2.081.9-2.921,2.128-4.1,2.128-1.91,0-4.215-2.182-4.83-3.7a8.808,8.808,0,0,1-.171-3.246l.449-.166c1.011.786,1.685,1.514,3.258,1.514,1.46,0,5.339-.952,8.992-1.791A50.947,50.947,0,0,0,316.31,72.6c-.562-1.064-2.022-1.845-3.766-2.406l-.059-.562Z" transform="translate(-124.981 -27.965)" fill="#fff"/><path d="M382.74,57.546c1.46-.786,3.482-2.016,5-2.016,3.429,0,7.981,3.358,7.981,5.037,0,1.454-1.519,2.684-1.685,4.369-.4,2.968-1.123,15.4-1.123,20.823,0,.727.278,1.064.9.9,8.543-2.406,23.542-11.813,32.257-20.155l.845.786c-7.2,10.748-18.038,19.144-30.123,25.807-2.134,1.177-2.081,2.8-3.878,2.8-2.081,0-6.633-4.588-6.633-6.6,0-1.289,1.295-2.294,1.348-3.973.337-4.872.278-19.2,0-23.4-.171-1.845-.508-2.353-4.83-3.583l-.053-.786Z" transform="translate(-156.457 -22.7)" fill="#fff"/><path d="M466.978,56.28c7.757.893,16.968,4.2,16.968,9.962a3.625,3.625,0,0,1-3.654,3.748c-1.8,0-2.98-1.005-4.381-2.968a35.911,35.911,0,0,0-9.442-9.85l.508-.893Zm41.752,5.54,1.011.674c-6.35,12.256-16.578,22.112-29.614,30.058-1.8,1.117-2.53,2.968-4.156,2.968-3.2,0-7.136-3.3-8.259-5.54a12.612,12.612,0,0,1-1.236-5.1l.786-.5c1.348,1.342,3.317,3.47,5.339,3.47,6.066,0,28.041-15.224,36.135-26.031Z" transform="translate(-190.685 -23.006)" fill="#fff"/><path d="M546.79,63.672l.337-.952a42.177,42.177,0,0,1,7.532,1.117c3.991.952,7.869,3.193,7.869,6.6a2.83,2.83,0,0,1-2.98,3.08c-2.7,0-3.766-2.465-6.409-4.759a35.661,35.661,0,0,0-6.35-5.1Zm44.9-3.861,1.011.674c-5.617,11.363-18.322,22.839-30.572,30.058-1.856,1.064-2.584,2.909-4.493,2.909-2.418,0-6.184-2.519-7.81-5.037a12.7,12.7,0,0,1-1.407-5.6l.733-.39c1.236,1.289,3.092,3.47,5.28,3.47,6.462,0,27.7-14.5,37.259-26.085Zm-37.761-7.84.337-1.005a39.735,39.735,0,0,1,7.922,1.005c3.878,1.064,7.2,2.909,7.2,6.492a2.914,2.914,0,0,1-2.755,2.968c-2.7,0-3.707-2.182-6.687-4.872a40.416,40.416,0,0,0-6.013-4.588Zm27.982,5.15a41.046,41.046,0,0,0-5.114-6.267l.562-.727c3.145,1.005,5.9,2.182,7.585,3.807a4.4,4.4,0,0,1,1.632,3.193,2.034,2.034,0,0,1-2.081,2.069c-.958,0-1.685-.727-2.584-2.069Zm5.5-4.984a33.347,33.347,0,0,0-5.167-5.54l.562-.727a20.6,20.6,0,0,1,7.42,3.08,4.5,4.5,0,0,1,1.969,3.47,1.8,1.8,0,0,1-1.91,2.016c-1.07,0-1.744-.9-2.867-2.294Z" transform="translate(-223.518 -18.751)" fill="#fff"/></g><g transform="translate(554.557 1795.004)"><path d="M21.176,6.09V9.964c-5.035,3.456-6.2,4.229-8.818,5.481a107.6,107.6,0,0,1,13.822-1.1l.06,4.709c-.835-.029-2-.06-3.308-.06-3.1,0-4.41.091-6.4,1.312-1.729,1.042-3.308,2.681-3.308,4.53,0,1.46.716,2.531,5.035,2.65,2.414.091,3.6.06,4.856,0l-.716,4.8c-5.811.091-14.362-.446-14.362-6.225,0-.627,0-3.666,4.021-6.407-1.965.3-8.67,1.46-11.8,2.295L-.01,17.027a17.953,17.953,0,0,0,3.067-.6c1.727-.477,6.407-3.277,10.4-6.137l-9.832.417V6.09H21.171Z" transform="translate(0.01 -4.508)" fill="#fff"/><path d="M123,29.356c3.218-.239,9.861-.775,9.861-8.79,0-4.976-2.891-7.091-6.288-7.358-.148,2.593-1.281,18.176-9.264,18.176-4.021,0-6.526-4.081-6.526-8.759,0-6.586,4.618-13.885,14.45-13.885,6.853,0,12.6,3.754,12.6,12.246a12.4,12.4,0,0,1-4.053,9.651c-2.92,2.562-7.449,3.041-9.028,3.218l-1.758-4.5Zm-7.509-6.793c0,1.133.327,3.814,2.025,3.814,2.264,0,3.962-5.839,4.53-12.959-6.555,1.906-6.555,8.4-6.555,9.148Z" transform="translate(-82.054 -6.471)" fill="#fff"/><path d="M238.988,4.25a23.21,23.21,0,0,0,.983,4.618c5.839-.358,6.524-.568,7.926-1.042l1.133,4.589a32.962,32.962,0,0,1-7.358.892,22.7,22.7,0,0,0,4.229,6.645l-4.589,2.116a45.058,45.058,0,0,1-4.618-8.611H223.97V8.987h11.144c-.537-1.786-.8-3.158-1.042-4.291l4.916-.446Zm-3.962,15.223c-1.548.446-5.123,1.551-5.123,3.993s3.1,2.5,7.716,2.5a61.873,61.873,0,0,0,8.162-.446l-.088,4.649c-2.056.179-4.291.239-7,.239-6.078,0-8.253-.508-10.307-1.639a5.817,5.817,0,0,1-3.158-5.183c0-5.183,6.078-7.151,7.745-7.688l2.056,3.576Z" transform="translate(-165.896 -3.145)" fill="#fff"/><path d="M344.142,3.9c.088,1.4.148,2.295.267,3.249a39.584,39.584,0,0,0,7-.983l.537,4.081a39.173,39.173,0,0,1-6.941.892,17.3,17.3,0,0,0,.6,2.593,40.653,40.653,0,0,0,8.043-1.1l.687,3.993a45.528,45.528,0,0,1-7.182.983,14.265,14.265,0,0,0,2.414,3.425l-4.229,2.562a16.975,16.975,0,0,1-3.485-5.808,3.39,3.39,0,0,1-.6.029H328.8V13.88h11.919c-.119-.6-.15-.8-.417-2.531H329.876V7.325h9.861c-.327-2.056-.358-2.292-.446-3.1l4.856-.327Zm-6.259,16.923c-.653.565-1.906,1.608-1.906,2.92,0,2.025,3.218,2.175,7.211,2.175a63.158,63.158,0,0,0,7.926-.386l.179,4.589c-1.042.088-2.681.207-6.049.207-5.689,0-7.6-.239-8.906-.565-4.677-1.193-5.214-4.26-5.214-5.274,0-2.8,2.175-4.737,3.158-5.629l3.6,1.965Z" transform="translate(-243.545 -2.886)" fill="#fff"/><path d="M458.8,13.419a62.89,62.89,0,0,1,3.456,14.717l-4.737.775c-.119-1.252-.148-1.849-.267-2.593-2.087.477-8.134,1.491-11.681,1.846l-.506-2.891a5.767,5.767,0,0,1-.716,2.087,3.926,3.926,0,0,1-3.129,1.551H435.8l-.806-4.41h4.768a1.128,1.128,0,0,0,1.341-.983c.15-.685.267-2.979.358-4.587h-7.836c.477-3.308.685-5.958.952-10.548h6.734V5.7H433.59V1.443h11.857V12.317h-6.881c0,.239-.119,1.551-.239,2.383h7.239c0,1.519,0,5.989-.3,8.818.239-.029,1.221-.117,1.4-.117A165.278,165.278,0,0,0,449.826.46h4.856c-.537,4.825-2.087,16.356-3.576,22.552,1.758-.179,3.723-.358,5.51-.687a53.687,53.687,0,0,0-2.056-7.836l4.229-1.071Z" transform="translate(-321.165 -0.338)" fill="#fff"/><path d="M547.766,11.253h6.762v8.909c.537,2.442,3.01,3.456,5.572,3.456h16.236l-.983,4.231H560.1c-4.47,0-6.078-2.206-6.762-3.13a22.048,22.048,0,0,1-4.41,3.814l-1.548-4.856a13.287,13.287,0,0,0,2.86-1.846v-6.4h-2.474V11.256Zm7.418-5.481L552.5,8.453a25.307,25.307,0,0,0-4.618-4.887L550.865.379a28.006,28.006,0,0,1,4.32,3.993V2.91H558.7c-.508-.983-.568-1.1-1.073-2l4.291-.923a24.027,24.027,0,0,1,1.429,2.92H567.4a20.482,20.482,0,0,0,1.133-2.8l4.618.685c-.239.477-.835,1.579-1.193,2.116h3.9V6.6h-8.67a9.675,9.675,0,0,1-.537,1.162h7.657V22.335H556.763V7.768h5.424a6.483,6.483,0,0,0,.386-1.162h-7.39V5.772Zm6.018,4.945v1.431h8.7V10.717Zm0,3.516v1.429h8.7V14.232h-8.7Zm0,3.516v1.519h8.7V17.748Z" transform="translate(-405.451 0.01)" fill="#fff"/></g></g></svg>