<svg width="420" height="217" viewBox="0 0 420 217" fill="none" xmlns="http://www.w3.org/2000/svg">
<path d="M0.172001 85.104H205.6V117.48H0.172001V85.104ZM116.908 59.796H151.108V179.496C151.108 188.312 149.968 195.152 147.688 200.016C145.56 204.88 141.532 208.604 135.604 211.188C129.676 213.62 122.532 215.14 114.172 215.748C105.964 216.508 96.54 216.888 85.9 216.888C85.292 212.024 83.772 206.324 81.34 199.788C79.06 193.252 76.78 187.704 74.5 183.144C79.06 183.296 83.772 183.448 88.636 183.6C93.652 183.752 98.136 183.828 102.088 183.828C106.04 183.828 108.852 183.828 110.524 183.828C112.956 183.828 114.628 183.524 115.54 182.916C116.452 182.156 116.908 180.788 116.908 178.812V59.796ZM23.656 136.404L50.104 119.532C54.512 123.788 58.996 128.576 63.556 133.896C68.268 139.064 72.524 144.308 76.324 149.628C80.124 154.796 83.088 159.66 85.216 164.22L56.716 183.144C54.892 178.736 52.156 173.872 48.508 168.552C45.012 163.08 41.06 157.532 36.652 151.908C32.396 146.284 28.064 141.116 23.656 136.404ZM84.532 0.0599957H120.1V44.292H84.532V0.0599957ZM3.364 20.352H201.496V78.036H165.928V51.588H37.108V78.036H3.364V20.352ZM264.88 18.072C268.376 18.528 272.176 18.908 276.28 19.212C280.384 19.364 284.336 19.44 288.136 19.44C290.568 19.44 294.14 19.44 298.852 19.44C303.564 19.288 308.808 19.212 314.584 19.212C320.512 19.06 326.364 18.908 332.14 18.756C338.068 18.604 343.388 18.452 348.1 18.3C352.964 17.996 356.764 17.768 359.5 17.616C364.972 17.16 369.304 16.704 372.496 16.248C375.84 15.792 378.272 15.336 379.792 14.88L396.892 39.276C394.004 41.1 391.04 42.924 388 44.748C385.112 46.42 382.224 48.32 379.336 50.448C376.144 52.576 372.572 55.16 368.62 58.2C364.668 61.088 360.64 64.204 356.536 67.548C352.432 70.74 348.404 73.856 344.452 76.896C340.652 79.936 337.156 82.672 333.964 85.104C337.004 84.496 339.74 84.116 342.172 83.964C344.604 83.812 347.188 83.736 349.924 83.736C362.996 83.736 374.776 86.32 385.264 91.488C395.904 96.656 404.34 103.724 410.572 112.692C416.804 121.508 419.92 131.692 419.92 143.244C419.92 155.1 416.956 166.12 411.028 176.304C405.1 186.488 395.904 194.62 383.44 200.7C370.976 206.932 354.864 210.048 335.104 210.048C324.464 210.048 314.66 208.452 305.692 205.26C296.724 202.068 289.58 197.508 284.26 191.58C278.94 185.5 276.28 178.28 276.28 169.92C276.28 163.232 278.104 156.924 281.752 150.996C285.552 145.068 290.796 140.28 297.484 136.632C304.172 132.984 311.848 131.16 320.512 131.16C331.152 131.16 340.196 133.288 347.644 137.544C355.092 141.648 360.792 147.272 364.744 154.416C368.848 161.56 370.9 169.464 370.9 178.128L338.524 182.004C338.524 174.556 336.852 168.628 333.508 164.22C330.316 159.66 326.06 157.38 320.74 157.38C316.94 157.38 313.976 158.368 311.848 160.344C309.872 162.168 308.884 164.22 308.884 166.5C308.884 169.996 310.632 172.884 314.128 175.164C317.624 177.444 322.26 178.584 328.036 178.584C340.804 178.584 351.292 177.14 359.5 174.252C367.708 171.364 373.712 167.26 377.512 161.94C381.464 156.468 383.44 150.084 383.44 142.788C383.44 136.252 381.388 130.628 377.284 125.916C373.332 121.052 367.936 117.328 361.096 114.744C354.256 112.16 346.656 110.868 338.296 110.868C329.936 110.868 322.108 112.084 314.812 114.516C307.668 116.796 300.904 120.064 294.52 124.32C288.136 128.424 281.98 133.364 276.052 139.14C270.276 144.764 264.652 150.92 259.18 157.608L234.1 131.616C237.748 128.728 242.004 125.308 246.868 121.356C251.732 117.404 256.748 113.3 261.916 109.044C267.084 104.636 272.024 100.456 276.736 96.504C281.448 92.552 285.476 89.208 288.82 86.472C292.012 83.888 295.584 81 299.536 77.808C303.64 74.616 307.744 71.348 311.848 68.004C316.104 64.508 320.132 61.24 323.932 58.2C327.732 55.008 331 52.196 333.736 49.764C331.456 49.764 328.72 49.84 325.528 49.992C322.488 50.144 319.22 50.296 315.724 50.448C312.228 50.448 308.656 50.524 305.008 50.676C301.512 50.828 298.168 51.056 294.976 51.36C291.784 51.512 288.972 51.664 286.54 51.816C283.196 51.968 279.624 52.272 275.824 52.728C272.024 53.032 268.756 53.412 266.02 53.868L264.88 18.072Z" fill="#EA5405"/>
</svg>
