<svg width="398" height="219" viewBox="0 0 398 219" fill="none" xmlns="http://www.w3.org/2000/svg">
<path d="M6.856 146.664H114.7V169.692H6.856V146.664ZM2.296 39.048H116.296V62.532H2.296V39.048ZM45.16 25.368H75.028V186.564H45.16V25.368ZM0.472 182.232C10.048 181.624 21.068 180.94 33.532 180.18C45.996 179.42 59.144 178.584 72.976 177.672C86.96 176.608 100.792 175.544 114.472 174.48L114.7 199.332C101.78 200.548 88.708 201.764 75.484 202.98C62.26 204.348 49.568 205.564 37.408 206.628C25.248 207.692 14.152 208.68 4.12 209.592L0.472 182.232ZM33.76 113.832V120.672H86.2V113.832H33.76ZM33.76 88.296V95.136H86.2V88.296H33.76ZM7.768 68.232H113.332V140.736H7.768V68.232ZM100.564 0.743987L114.472 25.14C104.44 27.116 93.42 28.864 81.412 30.384C69.404 31.752 57.168 32.816 44.704 33.576C32.24 34.336 20.308 34.792 8.908 34.944C8.452 31.6 7.54 27.724 6.172 23.316C4.804 18.756 3.36 14.88 1.84 11.688C10.352 11.232 19.016 10.7 27.832 10.092C36.8 9.33199 45.616 8.49599 54.28 7.58399C62.944 6.67199 71.152 5.68399 78.904 4.61999C86.808 3.40399 94.028 2.11199 100.564 0.743987ZM117.208 50.676H194.272V81H117.208V50.676ZM180.82 50.676H212.512C212.512 50.676 212.512 51.588 212.512 53.412C212.512 55.236 212.436 57.288 212.284 59.568C212.284 61.696 212.284 63.444 212.284 64.812C211.828 87.916 211.296 107.6 210.688 123.864C210.232 140.128 209.624 153.58 208.864 164.22C208.256 174.708 207.344 182.992 206.128 189.072C204.912 195 203.392 199.332 201.568 202.068C198.68 206.324 195.716 209.364 192.676 211.188C189.636 213.012 186.14 214.38 182.188 215.292C178.54 216.052 174.208 216.508 169.192 216.66C164.176 216.812 158.932 216.812 153.46 216.66C153.156 212.1 152.092 206.78 150.268 200.7C148.596 194.772 146.468 189.604 143.884 185.196C148.444 185.652 152.548 185.956 156.196 186.108C159.996 186.108 163.036 186.108 165.316 186.108C166.988 186.108 168.432 185.804 169.648 185.196C170.864 184.588 172.004 183.524 173.068 182.004C174.284 180.332 175.272 176.912 176.032 171.744C176.944 166.576 177.628 159.204 178.084 149.628C178.692 139.9 179.224 127.512 179.68 112.464C180.136 97.264 180.516 78.948 180.82 57.516V50.676ZM135.904 4.39199H167.596C167.596 24.608 167.368 43.684 166.912 61.62C166.608 79.404 165.62 96.048 163.948 111.552C162.428 126.904 159.844 141.192 156.196 154.416C152.548 167.488 147.456 179.42 140.92 190.212C134.384 200.852 125.948 210.352 115.612 218.712C114.092 215.976 112.04 213.012 109.456 209.82C106.872 206.628 104.136 203.588 101.248 200.7C98.36 197.812 95.624 195.456 93.04 193.632C102.16 186.336 109.532 178.128 115.156 169.008C120.78 159.888 125.036 149.704 127.924 138.456C130.812 127.208 132.788 114.82 133.852 101.292C134.916 87.612 135.524 72.792 135.676 56.832C135.828 40.72 135.904 23.24 135.904 4.39199ZM394.228 32.892C389.972 35.932 385.944 38.896 382.144 41.784C378.344 44.672 374.924 47.408 371.884 49.992C368.236 52.728 363.904 55.996 358.888 59.796C353.872 63.596 348.628 67.624 343.156 71.88C337.836 76.136 332.668 80.316 327.652 84.42C322.636 88.372 318.304 91.944 314.656 95.136C311.008 98.328 308.576 100.912 307.36 102.888C306.144 104.864 306.144 106.84 307.36 108.816C308.728 110.64 311.236 113.224 314.884 116.568C317.924 119.152 321.952 122.496 326.968 126.6C332.136 130.704 337.76 135.34 343.84 140.508C350.072 145.524 356.456 150.768 362.992 156.24C369.528 161.56 375.76 166.804 381.688 171.972C387.768 176.988 393.088 181.7 397.648 186.108L365.272 215.976C357.976 207.768 350.528 199.864 342.928 192.264C339.736 188.92 335.48 184.816 330.16 179.952C324.992 175.088 319.216 169.92 312.832 164.448C306.6 158.976 300.292 153.504 293.908 148.032C287.676 142.56 281.976 137.62 276.808 133.212C269.056 126.524 263.964 120.368 261.532 114.744C259.252 109.12 259.556 103.496 262.444 97.872C265.484 92.248 271.032 86.168 279.088 79.632C283.648 75.984 288.74 71.88 294.364 67.32C299.988 62.608 305.688 57.82 311.464 52.956C317.392 47.94 323.016 43.152 328.336 38.592C333.656 33.88 338.216 29.7 342.016 26.052C345.968 22.252 349.768 18.452 353.416 14.652C357.216 10.852 360.104 7.43199 362.08 4.39199L394.228 32.892Z" fill="#EA5405"/>
</svg>
