<?xml version="1.0" encoding="UTF-8"?><svg id="_レイヤー_2" xmlns="http://www.w3.org/2000/svg" width="33.32mm" height="7.27mm" viewBox="0 0 94.44 20.62"><defs><style>.cls-1{fill:#fff;}.cls-1,.cls-2{stroke-width:0px;}.cls-2{fill:#004098;}</style></defs><g id="_レイヤー_3"><polygon class="cls-1" points="88.77 0 94.44 20.62 5.67 20.62 0 0 88.77 0"/><path class="cls-2" d="m33.9,11.7c.15.19.44.42.74.42.14,0,.32-.03.67-.21,1.31-.56,2.97-1.63,4.77-1.63,2.02,0,3.28,1.36,3.28,2.83s-.88,2.37-2,2.96c-1.19.64-3.14.77-4.75.65l-.03-.25c1.53-.18,2.72-.42,3.85-1.1.96-.54,1.58-1.33,1.58-2.43s-.7-2.05-1.96-2.05c-1.45,0-3.06,1.42-3.69,1.91-.59.47-.84.78-1.24.78-.45,0-1.11-.51-1.29-.98-.11-.26-.09-.58-.09-.83l.15-.08Z"/><path class="cls-2" d="m49.32,17.22c2.78-.66,3.83-2.19,3.83-4.09,0-2.02-1.3-3.32-3.08-3.32-.14,0-.3.01-.44.03.33.34.73.88.73,1.4,0,.56-.11,1.29-.36,1.96-.5,1.4-1.73,3.4-3.07,3.4-.88,0-1.69-1.35-1.69-2.78,0-1.02.51-2.33,1.62-3.27.89-.77,2-1.18,3.34-1.18,2.53,0,4.32,1.76,4.32,4.05,0,2.08-1.45,3.86-5.15,4.02l-.04-.21Zm-.19-7.28c-.72.2-1.41.6-1.94,1.17-.64.7-.99,1.45-.99,2.35s.37,1.68.84,1.68c.62,0,1.58-1.52,1.94-2.28.29-.64.5-1.4.5-1.98,0-.36-.15-.69-.34-.95Z"/><path class="cls-2" d="m59.55,8.42c-.04.13-.18.23-.43.22-.33.85-.69,1.65-1.11,2.37l.58.22c-.03.1-.13.18-.33.22v6.38c-.02.09-.55.36-1.07.36h-.23v-5.62c-.4.51-.83.96-1.29,1.35l-.13-.1c.86-1.44,1.74-3.76,2.21-5.95l1.79.55Zm5.38.98s.76.64,1.22,1.06c-.03.12-.15.18-.32.18h-6.72l-.09-.31h5.21l.69-.92Zm-.59,1.53s.7.59,1.13,1c-.02.12-.14.18-.3.18h-5.38l-.09-.32h3.99l.64-.86Zm-4.63,2.33h3.99l.64-.85s.7.59,1.13.98c-.02.12-.14.18-.3.18h-5.38l-.09-.31Zm4.66.8l1.24.95c-.07.09-.21.19-.44.23v2.48c-.01.09-.63.35-1.07.35h-.22v-.75h-2.88v.43c0,.12-.56.4-1.09.4h-.18v-3.95l1.33.52h2.71l.59-.65Zm-4.38-4.95l-.09-.31h3.45l.65-.89s.76.6,1.18,1.02c-.02.12-.14.18-.29.18h-4.91Zm3.89,7.89v-1.97h-2.88v1.97h2.88Z"/><path class="cls-2" d="m72.78,14.67c.94,1.01,2.7,1.66,4.32,1.86l-.02.13c-.49.13-.88.58-1.01,1.25-1.69-.59-2.87-1.64-3.56-3.25v3.2c0,.11-.59.34-1.12.34h-.24v-2.66c-1.08,1.06-2.63,1.86-4.44,2.4l-.08-.13c1.5-.77,2.74-1.97,3.49-3.15h-3.29l-.09-.31h4.41v-1.41l1.77.15c-.02.15-.11.26-.41.31v.95h2.44l.73-.92s.81.63,1.31,1.06c-.03.12-.15.18-.31.18h-3.89Zm-6.11-1.24c1.75-.45,3.32-1.14,4.53-2.06-.39-.37-.72-.8-.99-1.31-.87.71-1.91,1.32-2.99,1.68l-.08-.11c1.3-.83,2.59-2.35,3.17-3.78l1.83.53c-.06.12-.14.17-.45.13-.15.21-.32.42-.51.63h1.84l.85-.75,1.25,1.19c-.08.12-.2.15-.5.18-.45.63-1,1.18-1.64,1.66,1.2.4,2.6.58,4,.66v.14c-.56.15-.9.6-1.03,1.24-1.54-.28-2.87-.7-3.94-1.42-1.44.8-3.22,1.31-5.29,1.53l-.06-.14Zm4.21-3.98c-.14.14-.29.29-.45.42.36.42.82.76,1.34,1.03.5-.44.9-.92,1.22-1.45h-2.11Z"/><path class="cls-2" d="m28.77,9.23c-.3.1-.4.22-.15.25.27.02,2.95.77,3.22,3.02.27,2.35-1.75,5.2-5.8,5.55-.25.02-.5.02-.75.02-3.17,0-5.1-1.67-5.1-3.75,0-.27.03-.57.1-.85.3-1.2,1.3-1.4,1.95-1.23.67.15,1.2.75,1.05,1.4-.18.67-.77.77-1,1.37-.2.6-.15,2.02,2.35,2.12,2.5.12,3.85-1.8,4.15-3.42.3-1.62-.42-3.17-2.12-3.57-1.17-.27-2.47.52-2.57-.33-.1-.77.8-.82,1.27-.75.48.1,1.47.1,2.57-.75.75-.57,1.45-1.92,1.45-3.15,0-.6-.15-1.15-.57-1.55-.5-.48-1.12-.65-1.77-.65-1.07,0-2.15.5-2.6.92-.38.38-.57.77-.57,1.15,0,.4.23.8.67,1.07.52.3,1.25.05,1.52,0,.27-.05.48.33.2.65-.32.38-1.05.83-2.3.75-.6-.05-1.8-.55-1.8-1.85,0-.23.05-.47.12-.75.42-1.37,2.95-3.07,5.7-2.9,2.75.2,4.35,1.57,4.07,3.67-.3,2.47-3,3.4-3.3,3.52Z"/></g></svg>