<svg xmlns="http://www.w3.org/2000/svg" width="394.33" height="235.894" viewBox="0 0 394.33 235.894"><g transform="translate(-1205.357 868.947)"><g transform="translate(1205.357 -868.947)"><path d="M0,81.13V73.84l28.656-2.506V64.51l10.583.313c.464.038,1.006.144,1.006.689,0,.232-.232.486-.542.667-.927.7-1.391,1.053-1.391,1.284v3.023L66.35,68.034v7.29Zm24.023,32.556c-1.006.32-1.159.41-1.313.658-6.256,8.456-7.647,10.36-13.286,15.893l-8.186-4.013a69.928,69.928,0,0,0,14.906-18.672l8.264,4.471a1.01,1.01,0,0,1,.385.821c0,.464-.464.739-.774.843Zm13.518-9.323v18.3c0,2.56-.617,5.793-3.4,6.964a34.646,34.646,0,0,1-9.809,2.1l-3.784-8.587a37.338,37.338,0,0,0,4.944.031c2.086-.182,2.782-1.1,2.782-2.491V105.171L8.963,106.86V84.839L57.393,80.6v22.021l-19.85,1.736Zm10.429-15.8L18.308,91.158V98.99L47.97,96.4Zm7.879,37.848A59.113,59.113,0,0,0,41.56,111.69l6.024-6.808a84.156,84.156,0,0,1,15.526,14.846Z" transform="translate(0 -44.3)" fill="#fff"/><path d="M302.377,98.3c-3.474,2.632-6.72,3.07-9.966,3.509l-4.4-9.073a38.062,38.062,0,0,0,5.946-.056,5.772,5.772,0,0,0,3.089-1.046,6.582,6.582,0,0,0,2.318-5.32c0-2.713-1.159-9.746-9.345-17.4,2.782-5.9,5.561-12.892,7.415-18.017l-9.577.836v56.447l-8.033.7V50.725c-1.544.912-1.544.987-2.162,2.284a87.467,87.467,0,0,1-6.024,11.382l5.946-.52v7.287l-11.742,1.028a60.646,60.646,0,0,1-5.1,5.486l13.825-1.209v32.1l-7.8.683v-2.56L255.105,107.7v3.258l-7.957.7V88.165c-.774.533-1.391.9-3.631,2.334l-5.1-5.291a81.884,81.884,0,0,0,16.761-12.09l-13.593,1.19V67.022l11.278-.987V59.91l-9.345.818V53.441l9.345-.818V44.716l8.65-.138c.542.031,1.234.2,1.234.821,0,.467-.154.633-1.234,1.35-.154.169-.464.429-.464.661v4.5l5.717-.5v6.745A63.278,63.278,0,0,0,272.1,45.59l7.726,3.045V45.224l24.95-2.184,3.474,3.418c-2.935,6.538-5.561,12.506-9.5,20.448,8.186,7.657,9.577,13.274,9.577,18.158,0,2.948-.7,9.289-5.946,13.236ZM266.769,83.811l-11.664,1.021v5.041l11.664-1.021Zm0,10.934-11.664,1.021v5.194l11.664-1.021ZM261.052,59.19v6.125l1.006-.088a59.17,59.17,0,0,0,4.4-6.51Z" transform="translate(-163.727 -29.556)" fill="#fff"/><path d="M531.311,33.489v6.357L555.8,37.7V75.851c0,7.6-3.477,8.835-13.055,9.671L539.5,77.277c2.086-.028,3.321-.06,4.248-.138,2.24-.2,3.477-.771,3.477-2.863V45.432l-11.974,1.046,4.48,1c1.081.216,1.159.83,1.159.905,0,.464-.7.6-1.544.755-.464,1.281-.774,2.24-1.544,3.935l4.79-.42V59.4l-11.51,1.006v4.731l13.286-1.162v6.357l-13.286,1.162V84.83l-9.113.8V72.289l-13.055,1.143V67.076l13.055-1.143V61.2l-11.432,1V55.457l4.865-.426c-.31-.592-2.625-4.734-3.089-5.623l3.246-1.216-9.113.8V88.922l-8.806.771v-46.9l24.176-2.115V34.323L493.62,36.788V29.344l28.192-2.466V20.6l9.809-.16c.385-.034.771.088.771.476a.876.876,0,0,1-.464.739c-.464.429-.617.674-.617.905v3.49l28.581-2.5v7.444l-28.581,2.5ZM520.033,47.813a35.994,35.994,0,0,1,2.935,5.482l-2.55,1.31,9.345-.818a48.811,48.811,0,0,0,2.7-7.058L520.03,47.816Z" transform="translate(-338.977 -14.031)" fill="#fff"/><path d="M739.92,36.012V28.8l8.5-.742a46.045,46.045,0,0,0-4.4-9.539l5.407-2.8-7.262.636V9.533L754.6,8.446V.921L764.87.564c.849,0,1.234.125,1.234.746,0,.388-.153.558-.542.824C764.481,3,764.4,3.089,764.4,3.4V7.588l10.815-.946v6.823l-8.265.724,6.1,3.033c.617.332.849.623.849.934,0,.467-.385.733-.774.921-1.081.4-1.234.495-1.544,1.3a29.652,29.652,0,0,1-2.394,5.871l7.03-.614v7.212l-36.3,3.177Zm24.408,30.041V64.113l-12.976,1.134v2.481l-7.726.677V39.95l29.045-2.541V65.323Zm-12.976-50.5a52.858,52.858,0,0,1,4.48,10.075l-4.248,2.155,9.345-.818A54.976,54.976,0,0,0,765.641,14.3Zm12.976,30.423-12.976,1.134V57.34l12.976-1.134ZM791.981,57.82l-5.329-7.444V64.8l-7.954.7V2.224L804.112,0l2.935,4.007c-6.024,12.932-6.72,14.389-9.577,20.533,3.321,2.732,9.655,7.995,9.655,17.143,0,6.2-3.474,14.724-15.138,16.134Zm-2.7-32.1c1.391-3.534,4.17-11.065,6.178-17.754l-8.807.771V49.214c1.313.041,3.474-.072,4.17-.132,5.254-.461,8.033-4.27,8.033-7.525,0-6.513-7.105-13.49-9.577-15.833Z" transform="translate(-508.116)" fill="#fff"/><path d="M1009.506,92.774c-2.387,4.279-5.943,4.815-8.333,5.022a35.088,35.088,0,0,1-4.777.085l-.777-6.679a14.928,14.928,0,0,0,5,.454c1.667-.147,2.556-.5,3.333-1.685,1.056-1.6,3.39-8.549,3.39-14.182,0-2.954-.611-4.687-4.612-4.336a21.987,21.987,0,0,0-3.167.554A101.817,101.817,0,0,1,988.062,99l-6.332-2.29c4.887-6.673,7.723-11.883,11-22.766a75.756,75.756,0,0,0-7.889,3.089l-2.221-6.554c4.054-.689,9.167-2.083,11.61-2.688a59.64,59.64,0,0,0,1.222-11.259l6.776.354c.445.016,1.554.254,1.554.755,0,.222-.113.4-.721.843-1,.7-1.112.768-1.165,1.328-.279,2.033-.667,4.016-1.056,6.172a27.064,27.064,0,0,1,4.389-.83c7.553-.661,8.167,5.476,8.167,8.875,0,4.627-.946,13.355-3.888,18.741Zm10.053-11.642-3.778-5.414c2.387-.432,3.665-.655,3.665-1.992,0-1.729-3.111-7.033-6.166-10.279l4.612-3.75c7.278,7.171,8.665,13.628,8.665,15.636,0,3.18-3.443,4.818-7,5.8Z" transform="translate(-674.17 -38.82)" fill="#fff"/><path d="M1160.085,81.521l-2.945-6.6a54.726,54.726,0,0,0,6.946.006c10.332-.905,15.053-6.726,15.053-11.858,0-3.568-2.832-5.608-7-5.241-3.832.335-9.443,3.058-15.166,10.247l-4.834-2.143c.445-7.622,3.111-17.334,4.333-21.679l6.388,1.952a76.448,76.448,0,0,0-3.333,12.56,23.358,23.358,0,0,1,13.665-6.826c5.833-.511,12.331,3.048,12.331,11.134,0,15.724-18.553,17.682-25.442,18.452ZM1172.472,45.2c-3.556-1.974-6.222-3.192-12.832-4.956l2.387-5.73a60.244,60.244,0,0,1,13.277,4.583Z" transform="translate(-791.194 -23.699)" fill="#fff"/><path d="M48.25,402.765v-4.032l-29.2,2.553v4.42l-9.192.805V346.421l47.425-4.151v59.7l-9.038.789Zm0-51.175-29.2,2.553v14.731l29.2-2.553Zm0,22.794-29.2,2.553v15.9l29.2-2.553Z" transform="translate(-6.771 -235.043)" fill="#fff"/><path d="M265.385,370.352a56.845,56.845,0,0,1-11.9-9.505v7.522l-11.278.987V381.84l-9.038.79V370.145l-10.658.934v-7.754l10.658-.934v-17.6c-4.633,10.486-13.982,23.553-21.936,31.46L203.9,371.7c10.273-8.731,20.081-23.7,24.023-34.511L204.6,339.227v-8.374l28.581-2.5V315.4l7.569-.276c1.006-.009,2.857.138,2.857.99,0,.31-.232.564-.7.915-.464.429-.7.68-.7.993v9.536l28.271-2.475v8.374l-24.254,2.121c5.022,12.046,14.521,21.137,25.489,28.011l-6.335,6.758Zm-23.174-25.5V361.6l11.122-.974A59.578,59.578,0,0,1,242.211,344.853Z" transform="translate(-140.022 -216.404)" fill="#fff"/><path d="M511.339,337.74v9.693c0,8.142-2.24,9.113-13.286,10.078l-3.706-8.9a32.727,32.727,0,0,0,3.784-.1c4.016-.351,4.558-1.1,4.558-3.656V338.5l-34.68,3.036V360.3l-8.575.749V342.283l-7.494.655v-8.064l7.494-.655v-24.89l21.4-1.87v-5.429l-27.885,2.44v-7.444l64.421-5.636v7.444l-27.575,2.412v5.429l21.551-1.886v24.89l7.262-.636v8.064l-7.262.636Zm-30.511-23.227-12.823,1.122v5.429l12.823-1.122Zm0,12.484-12.823,1.122v5.351l12.823-1.122Zm21.861-14.4-12.9,1.128v5.429l12.9-1.128Zm0,12.484-12.9,1.128v5.351l12.9-1.128Z" transform="translate(-310.355 -200.102)" fill="#fff"/><path d="M692.391,340.792v-7.675l28.888-2.528V315.858l-17.61,1.541v-8.064l17.61-1.541V295.309l-16.529,1.447a116.394,116.394,0,0,1-7.105,12.406l-8.264-3.7a60.137,60.137,0,0,0,7.262-11.024,76.261,76.261,0,0,0,6.566-17.942l8.111,1.538c1.623.323,2.008.6,2.008,1.065,0,.388-.232.717-.927,1.09a3.007,3.007,0,0,0-1.623,1.692c-.464,1.591-1.081,3.584-2.318,6.717l12.823-1.122V273.755l9.345-.351c1.234-.031,1.855.226,1.855,1,0,.388-.232.717-.849,1.159-.927.623-1.159,1.031-1.159,1.576v9.536l24.486-2.143v7.832l-24.486,2.143v12.484l17.146-1.5v8.064l-17.146,1.5v14.731l27.885-2.44v7.675l-65.965,5.771Z" transform="translate(-473.409 -187.75)" fill="#fff"/><path d="M967.2,406.033a13.406,13.406,0,0,1-11.9,13.058,10.868,10.868,0,0,1-11.974-10.971A13.351,13.351,0,0,1,955.3,395.13a10.751,10.751,0,0,1,11.9,10.9Zm-20.16,1.764a7.376,7.376,0,0,0,8.264,7.5,9.077,9.077,0,0,0,8.186-8.935,7.4,7.4,0,0,0-8.186-7.5A9.212,9.212,0,0,0,947.039,407.8Z" transform="translate(-647.801 -271.311)" fill="#fff"/></g><g transform="translate(1205.357 -706.485)"><path d="M394.33,41.057,0,73.432V32.376L394.33,0Z" fill="#004097"/><path d="M154.174,124.9l-.009,1.024,4.3-.374-.047,5.52-17.974,1.56.047-5.52,4.225-.365.009-1.024-6.288.546.019-2.222,6.288-.546.012-1.379,2.749-.084c.1-.009.587-.025.584.306,0,.128-.156.268-.206.325-.281.281-.284.356-.284.587l3.667-.318.012-1.429,2.874-.044c.253,0,.534-.022.53.259,0,.1-.028.206-.259.406s-.231.225-.234.555l6.288-.546-.019,2.222-6.288.546Zm3.161,11.062.016-1.891-8.809.765a6.313,6.313,0,0,1-.849,1.12l7.995-.693.705.705a18.554,18.554,0,0,1-5.957,6.288,17.2,17.2,0,0,1-7.989,2.812l-1.5-2.525a14.092,14.092,0,0,0,1.729-.047,14.348,14.348,0,0,0,3.951-.88,10.258,10.258,0,0,0-2.294-2.381,17.36,17.36,0,0,1-3.227,2.3L139,139.9a18.632,18.632,0,0,0,3.579-2.175,10.151,10.151,0,0,0,2.54-2.6l-3.692.321-.016,1.941-2.724.237.034-3.988,21.438-1.86-.034,3.935-2.8.243ZM145.7,128.494l-2.393.209-.016,1.813,2.393-.209Zm1.086,9.48a14.306,14.306,0,0,1,2.319,2.378,11.71,11.71,0,0,0,2.977-2.837l-5.3.459Zm4.462-12.822-3.667.318-.009,1.024,3.667-.318Zm-.612,2.911-2.418.209-.016,1.813,2.418-.209Zm5.015-.434-2.5.215-.016,1.813,2.5-.215Z" transform="translate(-95.239 -83.558)" fill="#fff"/><path d="M235.777,130.444l-.942-2.7a11.113,11.113,0,0,0,1.579-.009c3.055-.265,4.927-2.035,4.943-3.8.012-1.4-1.535-1.782-2.35-1.71a6.9,6.9,0,0,0-1.657.449c.353.456.755,1.083,1.329,2l-2.759,1.414a17.534,17.534,0,0,0-1.251-2.216c-1.251.646-1.969,1.064-3.529,2.041a69.9,69.9,0,0,1,4.581,11.3l-2.862,1.526a53.387,53.387,0,0,0-4.228-11.125,28.306,28.306,0,0,0-3.333,2.793l-2.269-2.331c.359-.234.768-.5,4.325-2.852a23.542,23.542,0,0,0-2.587-3.835l2.709-1.41c.306-.153,1.024-.574,1.017-.112,0,.128-.209.655-.209.783a3.485,3.485,0,0,0,.325.612c.175.24.927,1.579,1.354,2.334,1.382-.836,2.147-1.258,3.22-1.813a12.768,12.768,0,0,0-2.546-2.587l2.634-1.454a23.881,23.881,0,0,1,2.518,2.821,11.687,11.687,0,0,1,3.136-.833c2.418-.209,5.158.83,5.13,4.05-.05,5.723-6.288,6.444-8.276,6.669Z" transform="translate(-153.433 -80.999)" fill="#fff"/><path d="M318.168,108.06a.589.589,0,0,0-.234.431l-.087,10.042c-.062,7.155-2.649,9.3-5.573,11.668l-2.116-2.294a8.738,8.738,0,0,0,4.79-6.466c-.69.521-1.638,1.189-1.819,1.332-.59.434-.846.534-.924.821-.053.156-.131.393-.334.412-.075.006-.281-.025-.4-.552l-.612-2.652a23.382,23.382,0,0,0,4.3-2.593l.028-3.117-2.2,1.211a18.479,18.479,0,0,0-1.164-3.576l-.019,2.3-1.654.144-.025,2.734c.612-.284,1.123-.53,2.044-1.045l.1,2.852c-1.148.584-1.176.612-2.172,1.108l-.053,6.26c-.022,2.581-.665,3.224-3.211,3.445l-.789.069-1.067-2.9c.1-.009.764.009,1.17-.025.814-.072,1.145-.2,1.158-1.376l.038-4.166c-.256.1-1.454.612-1.557.7a1.812,1.812,0,0,0-.412.443c-.231.328-.309.434-.487.449-.306.025-.353-.506-.349-.658l-.178-2.921c1.454-.459,2.322-.789,3.011-1.052l.031-3.679-2.774.24.025-2.759,2.774-.24.037-4.472,2.571-.069c.587-.025.786.084.786.29,0,.1,0,.178-.284.381-.256.175-.334.234-.334.362l-.028,3.27,1.451-.125c-.175-.368-.325-.687-.524-1.027l2.581-1.348a24.95,24.95,0,0,1,1.523,3.392l.05-5.826,2.443-.059c.381-.006.711-.009.711.271,0,.128-.053.209-.231.378Zm5.623,20.3-3.133.272c-1.476.128-2.131-.58-2.119-1.96l.172-19.5,2.543-.041c.459-.012.839,0,.836.312a.31.31,0,0,1-.181.247c-.487.424-.512.428-.515.555l-.041,4.6a18.717,18.717,0,0,0,2.019-3.954l2.612.871c.2.059.406.169.4.4,0,.128-.028.206-.334.334s-.359.209-.515.555a29.035,29.035,0,0,1-2.222,4.075l-1.975-.927-.028,3.323,2.072-1.457a20.04,20.04,0,0,1,3.086,4.787l-2.662,1.813a12.213,12.213,0,0,0-2.509-4.122l-.056,6.388c0,.487.147.83.908.765l.789-.069c.892-.078.97-.493,1.242-2.381l2.637,1.073c-.278,2.73-1.027,3.869-3.036,4.044Z" transform="translate(-209.383 -73.7)" fill="#fff"/><path d="M397.6,118.823l-.034,3.96L395.1,123l.034-3.96-4.584.4.019-2.222,4.584-.4.013-1.329-4.047.353.081-9.149.839-.072a14.609,14.609,0,0,0-1.754-3.039l1.969-1.3A14.566,14.566,0,0,1,394.1,105.5l-1.766,1.1,6.135-.534a24.968,24.968,0,0,0,1.595-4.965l2.309.49a.343.343,0,0,1,.278.309.39.39,0,0,1-.181.3.929.929,0,0,0-.515.605,33.13,33.13,0,0,1-1.248,3.071l1.17-.1-.081,9.149-4.175.362-.012,1.329,5.32-.462-.019,2.222-5.321.462Zm-2.406-7.018-1.679.147-.016,1.66,1.679-.147Zm.031-3.448-1.679.147-.016,1.66,1.679-.147Zm.5-2.29a20.069,20.069,0,0,0-1.264-3.695l2.2-.983a19,19,0,0,1,1.211,3.929l-2.144.749Zm3.77,5.367-1.832.159-.016,1.66,1.832-.159Zm.031-3.448-1.832.159-.016,1.66,1.832-.159.016-1.66Zm11.92,12.779a1.53,1.53,0,0,1-1.2.921c-1.86.162-3.642-2.621-4.016-3.227a26.2,26.2,0,0,1-3.592,3.554l-1.791-1.657a19.113,19.113,0,0,0,4.338-4.206,29.384,29.384,0,0,1-1.111-6.875l-1.607.446-.234-2.328,1.71-.481c-.081-2.241-.062-4.615-.044-6.662h2.621c.178.012.406.069.406.275,0,.178-.078.262-.234.428a1.049,1.049,0,0,0-.259.712l-.019,2.122c-.006.768.006,2.2.028,2.45l5.583-1.454.259,2.25-5.764,1.573a37.177,37.177,0,0,0,.543,4.728,19.912,19.912,0,0,0,1.766-4.163l2.384.662a.317.317,0,0,1,.228.262.308.308,0,0,1-.156.243c-.306.156-.409.215-.54.534a28.782,28.782,0,0,1-2.768,5.193c.7,1.445,1.557,2.241,1.941,2.206.509-.044.746-1.008.958-1.947l1.9,1.42a18.721,18.721,0,0,1-1.323,3.027Zm-2.328-16.192a9.132,9.132,0,0,0-1.6-2.9l1.944-1.317a11.142,11.142,0,0,1,1.754,3.039l-2.1,1.176Z" transform="translate(-268.492 -68.967)" fill="#fff"/><path d="M487.987,102.328c-1.9,2.053-3.142,4.459-3.161,6.4a3.608,3.608,0,0,0,1.8,3.161,7.5,7.5,0,0,0,4.469.914l-1.02,3.2a10.37,10.37,0,0,1-6.238-2.294A5.838,5.838,0,0,1,482,109.28a10.152,10.152,0,0,1,1.776-5.236,21.932,21.932,0,0,1,3.4-4.175c-3.414.577-7.159,1.208-9.708,1.788l-.409-2.824c5.5-.428,13.4-1.726,18.221-3.623l-.025,2.965c-1.2.181-4,.6-7.261,4.153Zm5.283,3.907a9.889,9.889,0,0,0-2.069-1.788l1.055-1.317a9.69,9.69,0,0,1,2.1,1.785l-1.08,1.32Zm2.081-2.506a10.223,10.223,0,0,0-2.1-1.76l1.08-1.32a10.155,10.155,0,0,1,2.1,1.76Z" transform="translate(-328.185 -65.499)" fill="#fff"/><path d="M563.489,109.829l-1.838-2.191a8.164,8.164,0,0,0,4.369-2.191,5.315,5.315,0,0,0,1.507-3.654,3.221,3.221,0,0,0-2.515-3.3,26.293,26.293,0,0,1-4.206,6.8c.172.6.221.7.471,1.492l-2.456,1.542a5.293,5.293,0,0,1-.35-.914A7.884,7.884,0,0,1,554.821,109c-1.6.14-2.79-1.008-2.771-3.08.016-1.738.989-5.4,5.62-8.351.059-1,.14-1.648.278-2.858-1.6.215-2.266.275-3.642.393l-.818-2.456a35.622,35.622,0,0,0,4.837-.24,44.792,44.792,0,0,1,.98-4.4l2.64.487c.637.125.634.253.634.328,0,.231-.309.334-.59.434a19.988,19.988,0,0,0-.811,2.574,26.941,26.941,0,0,0,6.254-2.253l-.025,2.734a37.714,37.714,0,0,1-6.734,1.938c-.162.958-.187,1.089-.324,2.122a11.567,11.567,0,0,1,2.777-.446c.131-.521.212-.861.318-1.354l2.924.384-.418,1.211c2.843.724,4.559,2.465,4.531,5.48-.05,5.623-5.23,7.527-6.99,8.191Zm-5.895-9.5c-2.309,2.116-2.958,3.782-2.968,4.827s.5,1.158.933,1.12a4.526,4.526,0,0,0,2.378-1.3,35.308,35.308,0,0,1-.34-4.643Zm2.534-1.676a25.8,25.8,0,0,0,.094,3.67,23.409,23.409,0,0,0,2.122-4.141,6.151,6.151,0,0,0-2.219.474Z" transform="translate(-379.78 -60.546)" fill="#fff"/><path d="M625.623,102.446,624.3,99.6a30.423,30.423,0,0,0,6.2-4.827l1,2.415a34.446,34.446,0,0,1-5.873,5.258Zm12.719-.031a7.93,7.93,0,0,1-3.8,1.223,15.759,15.759,0,0,1-3.28-.125l-.281-2.965a8.9,8.9,0,0,0,3.657.524c.661-.056,1.86-.262,1.872-1.542.012-1.379-1.023-2.337-2.359-3.6a4.758,4.758,0,0,1-1.879-3.489,5.362,5.362,0,0,1,1.426-3.214l2.3,1.535a3.44,3.44,0,0,0-.827,1.629c0,.487.349.811,1.838,2.29,2.319,2.328,2.74,3.72,2.731,4.946a3.487,3.487,0,0,1-1.4,2.777Zm-.743-13.93a18.1,18.1,0,0,0-5.954-2.727l1.673-2.237a25.229,25.229,0,0,1,5.957,2.521Zm6.444,10.7a19.2,19.2,0,0,0-4.631-5.726l1.8-2.019A19.021,19.021,0,0,1,646.275,97Z" transform="translate(-429.485 -57.457)" fill="#fff"/><path d="M721.221,95.947c-2.952.256-2.924-3.3-2.918-3.935.009-.97.509-5.764.518-6.837.006-.665-.112-1.7-.977-1.626-1.451.125-3.433,2.749-5.233,5.1-.006,3.551-.028,6.207.1,9.184l-2.852.4.128-5.91c-.8,1.167-1.236,1.819-2.141,3.3l-2.634-1.56a33.6,33.6,0,0,0,4.89-6.3l.072-2.253c-1.354.6-2.044.917-3.32,1.439L705.628,84.3a22.466,22.466,0,0,0,4.593-1.623l.15-5.5,2.518.062c.406.016.637.022.633.253,0,.078-.387.443-.462.524a18.289,18.289,0,0,0-.284,3.4l1.616,1.417L713.823,84c1-1,3.439-3.489,5.146-3.639a2.6,2.6,0,0,1,2.774,2.824c0,.459-.031.743-.393,4.2-.25,2.269-.281,3.114-.287,3.626-.012,1.4.24,1.663.927,1.6.712-.062,1.685-.605,2.743-2.178l.764,2.793c-1.183,1.354-2.59,2.574-4.272,2.721Z" transform="translate(-485.147 -53.096)" fill="#fff"/><path d="M790.316,90.267c-3.183.275-4.8-1.192-4.781-3.083a4.012,4.012,0,0,1,3.773-3.723c2.646-.231,4.284,1.723,4.99,2.556a5.022,5.022,0,0,0,1.71-3.545c.022-2.531-2.44-3.133-4.094-2.989a7.391,7.391,0,0,0-2.908.889,33.1,33.1,0,0,0-5.286,5.03L781.6,83.34A58.073,58.073,0,0,0,791.1,73.3a24.72,24.72,0,0,1-5.963,1.155l-.562-2.812c.612,0,2.063-.025,2.849-.094a30.435,30.435,0,0,0,7.726-1.947l1.308,1.953a72.868,72.868,0,0,0-5.7,5.96,21.354,21.354,0,0,1,2.472-.368,5.021,5.021,0,0,1,5.6,5.158C798.794,86.545,794.8,89.88,790.316,90.267Zm-.927-4.565a1.26,1.26,0,0,0-1.283,1.183c-.006.9,1.161,1.049,2.078.97a7.519,7.519,0,0,0,1.732-.381C791.592,86.916,790.84,85.577,789.389,85.7Z" transform="translate(-537.699 -47.881)" fill="#fff"/><path d="M872.955,81.428l.009-.9-15.328,1.329-.009.97-2.827.247.184-21.185,20.9-1.813L875.7,81.187l-2.749.237Zm.162-18.527L857.789,64.23l-.131,15.128,15.328-1.329Zm-14.6,14.851.019-2.2L863.8,75.1l.028-3.3-3.845.334.019-2.2,3.845-.334.019-2.275-4.634.4.019-2.2,12.6-1.092-.019,2.2-5.015.434-.019,2.275,4.278-.371-.019,2.2-1.732.15a13.933,13.933,0,0,1,1.632,2.54l-1.151.711,1.96-.169-.019,2.2Zm8.273-6.207-.028,3.3,1.935-.169a9.418,9.418,0,0,0-1.3-1.957l1.489-1.354-2.088.181Z" transform="translate(-588.057 -41.332)" fill="#fff"/><path d="M946.307,69.508l-1.27-3.005c.612-.028.839-.022,1.145-.047,1.757-.153,9.63-1.5,9.677-6.84.028-3.142-2.406-4.082-4.547-3.894-2.241.193-6.862,2.228-11.615,4.453l-1.4-3.1a40.445,40.445,0,0,0,7.143-2.306,27.127,27.127,0,0,1,5.966-1.666c3.361-.29,7.315,1.279,7.268,6.6-.062,7.13-9.518,9.2-12.373,9.808Zm8.547-17.391a9.027,9.027,0,0,0-1.941-1.875l1.258-1.155a9.27,9.27,0,0,1,1.916,1.9l-1.233,1.13Zm3.389-.7a9.477,9.477,0,0,0-1.941-1.9l1.233-1.155a9.2,9.2,0,0,1,1.941,1.9Z" transform="translate(-645.5 -33.269)" fill="#fff"/><path d="M1032.2,48.16c-.306.053-.384.134-1.052.858-.54.609-3.03,3.2-5.673,5.879-1.694,1.729-1.822,1.869-1.826,2.356a.986.986,0,0,0,.425.858,45.4,45.4,0,0,1,8.531,7.789l-2.643,2.681a36.833,36.833,0,0,0-8.7-8.822,2.689,2.689,0,0,1-1.254-2.138c.009-1.123.936-2.15,1.782-3.014a81.032,81.032,0,0,0,8.219-9.037l2.328,1.61c.05.047.531.387.527.643,0,.2-.078.209-.665.337Z" transform="translate(-701.712 -31.35)" fill="#fff"/><path d="M1081.167,59.463l-2.162.187a19.354,19.354,0,0,1-1.086-6.853,49.8,49.8,0,0,1,.78-7.627l2.774-.087c.153-.012.534,0,.531.259,0,.178-.256.3-.359.415-.54.481-.989,5.4-1,6.931a5.514,5.514,0,0,0,.165,1.57c.34-.9.858-2.272,1.507-3.757l1.772,1.02a65,65,0,0,0-2.918,7.939Zm9.465-.106a19.531,19.531,0,0,1-3.61,5.548l-3.015-1.348a12.926,12.926,0,0,0,3.654-4.634,16.546,16.546,0,0,0,1.613-6.984,66.26,66.26,0,0,0-.568-7.892l3.08-.268c.078-.006.534-.047.53.287,0,.231-.462.424-.465.652s.115,1.292.14,1.545c.137,1.776.275,3.654.259,5.339a19.88,19.88,0,0,1-1.62,7.748Z" transform="translate(-741.549 -30.115)" fill="#fff"/></g></g></svg>