<?xml version="1.0" encoding="utf-8"?>
<!-- Generator: Adobe Illustrator 27.9.1, SVG Export Plug-In . SVG Version: 6.00 Build 0)  -->
<svg version="1.1" id="_レイヤー_1" xmlns="http://www.w3.org/2000/svg" xmlns:xlink="http://www.w3.org/1999/xlink" x="0px"
	 y="0px" viewBox="0 0 718.6 267.8" style="enable-background:new 0 0 718.6 267.8;" xml:space="preserve">
<style type="text/css">
	.st0{fill:#004097;}
</style>
<path class="st0" d="M499.1,86.5h-8.2V84h-42.1v2.5h-8.2V25.4h58.5L499.1,86.5L499.1,86.5z M465.9,32.2h-17.1v45h42.1v-45h-17.3v3
	h13.6v4.6h-13.6v2.5h16.2v4.8h-40v-4.8h16.1v-2.5h-13.2v-4.6h13.2L465.9,32.2L465.9,32.2L465.9,32.2z M489.2,62.8
	c-1.6,2.1-3.5,4-5.5,5.6c2,0.9,4.1,1.6,6.2,2.2l-3.7,5.6c-2.3-0.7-7.4-2.5-13.8-8.1V76h-7.1v-8.4c-3.8,2.9-7.9,5.3-12.4,7.1
	l-3.1-6.2c5-1.5,9.6-3.9,13.7-7.2h-11V49.5H487v11.9L489.2,62.8L489.2,62.8L489.2,62.8z M479.9,53.8h-20.4v3.3h20.4V53.8z
	 M472.9,61.4c1.7,1.6,3.5,3,5.5,4.2c1.5-1.3,2.8-2.7,4.1-4.2L472.9,61.4L472.9,61.4z"/>
<path class="st0" d="M535,51.7l-4-7.2c2.6-0.9,8.6-3,11.3-7H532v-7.1h12.4c0.2-1.7,0.2-3.4,0.1-5.1h8.3c0,1.7-0.2,3.4-0.4,5.1H567
	v7.1h-11c3.9,4.7,10.2,6.5,12.2,7.1l-3.2,7.1h3V59h-2.8v24c0,2-0.1,5.6-5.6,5.6h-9.5l-1.2-8.1h-15V61.9h19.8v18.7h1.7
	c2.1,0,2.1-1,2.1-2.5V59h-27v21.7h-18.3v4.4h-6.1V34.3h6.1v38.5h3.1V25.4h6.2v47.4h3V34.3h6v17.5L535,51.7L535,51.7L535,51.7z
	 M564,51.7c-6-2.3-11.1-6.6-14.5-12c-2.5,4.7-6.8,9-13.8,12H564L564,51.7z M540.4,68.1v6h6.9v-6H540.4z"/>
<path class="st0" d="M590.2,56.5V61c-4.5,3.6-7.2,8.1-7.2,13.7c0,5.1,3.2,7.7,8.1,7.7c3.1,0,5.2-0.9,6.4-2.3c1.5-2,2.3-4.4,2.2-6.8
	c0-7.8-3.8-15.5-4.9-17.5l5.3-1.7c0.7,2.6,2.1,5,4,6.8c2.7,2.7,4.9,4.2,6.9,5l-1.7,5.5c-2.3-1-4.4-2.6-6-4.6
	c0.8,2.3,1.1,4.7,1.1,7.1c0,4.7-1.2,8.1-3.3,10.2c-2.2,2.3-6,3.3-9.5,3.3s-6.9-0.6-9.5-2.8c-2.9-2.5-3.8-6.5-3.8-9.5
	c0-5.3,2-9.7,5.5-13.8l-6,0.2v-5L590.2,56.5L590.2,56.5L590.2,56.5z"/>
<path class="st0" d="M638,55.9v4c-0.9,0.8-6.7,5.8-8,6.9c1.2-0.3,2.4-0.5,3.7-0.5c7.3,0,10.8,4.7,10.8,10.2c0.1,3.6-1.7,7-4.7,9
	c-2.9,1.9-6.3,2.8-13,2.8c-2.5,0-5-0.1-7.5-0.4l-0.7-5c2.7,0.4,5.3,0.7,8,0.6c2.7,0,12.6,0,12.6-7c0-5.7-5.9-5.7-7-5.7
	c-3.6-0.1-7.1,1.1-9.9,3.4c-1.1,1-5.7,5.4-6.7,6.3l-3.1-4.2c3.1-2.6,17.2-15.2,17.9-15.9l-15,0.2v-4.9L638,55.9L638,55.9L638,55.9z"
	/>
<path class="st0" d="M680.9,62.3c-0.2,1.8-0.5,4.3-1.2,9.3c1.6,0.6,3.2,1.3,4.7,2.1l-1.7,5.4c-1.3-0.8-2.4-1.4-4.1-2.3
	c-1.2,3.8-3.4,9.1-10.9,12l-3-4c6.4-2.1,7.8-5.6,9-9.9c-2.3-0.8-4.7-1.4-7.2-1.7c-2.4,9.8-6.1,13.1-10.4,13.1
	c-4.8,0-6.6-3.9-6.6-7.2c0-5.6,5.1-10.4,12.9-10.7c0.4-2.5,0.7-4.6,0.9-7.6h-11.4v-4.9H669c-0.1,0.9-0.4,3.9-0.7,6.3
	c-0.2,1.4-0.6,4.6-0.9,6.3c2.5,0.3,4.9,0.8,7.3,1.5c0.4-2.7,0.7-5.4,0.8-8.1L680.9,62.3L680.9,62.3L680.9,62.3z M654,78.9
	c0,1.7,0.8,2.5,2,2.5c3.3,0,4.8-6.4,5.4-8.8C654.5,73.2,654,77.9,654,78.9L654,78.9L654,78.9z"/>
<path class="st0" d="M699.5,54.2c-0.2,1.8-0.2,3-0.4,4.4h19.6v4.7h-20.1c-0.2,2.1-0.6,4.2-1.2,6.2c2.8-1.7,6-2.6,9.2-2.5
	c10.2,0,11,7.5,11,9.7c0,10-10.7,10.7-17,10.7c-3.2,0-6.2-0.2-7.7-0.3l-0.9-4.9c2.8,0.4,5.5,0.6,8.3,0.6c6,0,11.8-0.9,11.8-6.2
	c0-3.9-3.5-5.1-6.1-5.1c-3.7,0-7.2,1.4-9.9,3.9c-0.2,0.6-0.2,0.8-0.3,1.4l-5.3-1.2c1.3-4,2.2-8.1,2.7-12.3h-7.3v-4.7h7.8
	c0.2-2.2,0.2-2.7,0.3-4.6L699.5,54.2L699.5,54.2L699.5,54.2z"/>
<path class="st0" d="M120,118.4v22c-28.5,19.6-35.1,24-50,31.1c30.6-4.7,63.1-6.1,78.3-6.2l0.3,26.7c-4.7-0.2-11.3-0.3-18.7-0.3
	c-17.6,0-25,0.5-36.3,7.4c-9.8,5.9-18.7,15.2-18.7,25.7c0,8.3,4.1,14.4,28.5,15c13.7,0.5,20.4,0.3,27.5,0l-4.1,27.2
	c-32.9,0.5-81.4-2.5-81.4-35.3c0-3.6,0-20.8,22.8-36.3c-11.1,1.7-49.1,8.3-66.9,13L0,180.3c5.9-0.6,11.7-1.8,17.4-3.4
	c9.8-2.7,36.3-18.6,58.9-34.8l-55.7,2.4v-26.2L120,118.4L120,118.4z"/>
<path class="st0" d="M232,239.1c18.2-1.4,55.9-4.4,55.9-49.8c0-28.2-16.4-40.2-35.6-41.7c-0.9,14.7-7.3,103-52.5,103
	c-22.8,0-37-23.1-37-49.6c0-37.3,26.2-78.7,81.9-78.7c38.8,0,71.4,21.3,71.4,69.4c0,19.2-5.6,39.2-23,54.7
	c-16.5,14.5-42.2,17.2-51.2,18.2L232,239.1L232,239.1L232,239.1z M189.4,200.6c0,6.4,1.9,21.6,11.5,21.6c12.8,0,22.5-33.1,25.7-73.4
	C189.4,159.6,189.4,196.4,189.4,200.6z"/>
<path class="st0" d="M415.1,115.3c0.8,7.1,1.5,12.3,5.6,26.2c33.1-2,37-3.2,44.9-5.9l6.4,26c-19.6,4.4-28.4,4.6-41.7,5.1
	c10.6,23.1,19.2,32.6,24,37.6l-26,12c-14.5-20.6-24-43.2-26.2-48.8H330v-25.3h63.1c-3-10.1-4.6-17.9-5.9-24.3L415.1,115.3
	L415.1,115.3L415.1,115.3z M392.7,201.6c-8.8,2.5-29,8.8-29,22.6s17.6,14.2,43.7,14.2c23.8,0,36.5-1.4,46.3-2.5l-0.5,26.3
	c-11.6,1-24.3,1.4-39.7,1.4c-34.4,0-46.8-2.9-58.4-9.3c-9-4.9-17.9-14.5-17.9-29.4c0-29.4,34.4-40.5,43.9-43.6L392.7,201.6
	L392.7,201.6L392.7,201.6z"/>
<path class="st0" d="M571,114.8c0.5,7.9,0.8,13,1.5,18.4c16.4-1.4,23.6-1.9,39.7-5.6l3,23.1c-15.2,3.2-17.7,3.4-39.3,5.1
	c0.8,5,1.9,9.9,3.4,14.7c25-1.4,37.8-4.4,45.6-6.2l3.9,22.6c-13.4,2.9-27,4.8-40.7,5.6c5.6,10.5,9.6,15,13.7,19.4l-24,14.5
	c-4.7-5.2-12-13.3-19.8-32.9c-1.1,0.2-2.2,0.2-3.4,0.2H484v-22.3h67.5c-0.7-3.4-0.8-4.6-2.4-14.4H490v-22.8h56
	c-1.9-11.7-2-13-2.5-17.6L571,114.8L571,114.8L571,114.8z M535.5,210.7c-3.7,3.2-10.8,9.1-10.8,16.6c0,11.5,18.2,12.3,40.8,12.3
	c24.7,0,38.3-1.4,44.9-2.2l1,26c-5.9,0.5-15.2,1.2-34.3,1.2c-32.2,0-43-1.4-50.5-3.2c-26.5-6.8-29.5-24.1-29.5-29.9
	c0-15.9,12.3-26.8,17.9-31.9L535.5,210.7L535.5,210.7L535.5,210.7z"/>
<path class="st0" d="M709.3,151.5c4.5,11.8,7.6,24.2,9.1,36.8l-12.4,1.9c-0.3-3.1-0.4-4.6-0.7-6.5c-5.5,1.2-21.3,3.7-30.6,4.6
	l-1.3-7.2c-0.3,1.9-0.9,3.6-1.9,5.2c-1.1,1.8-4.5,3.9-8.2,3.9H649l-2.1-11h12.5c1.2,0,3,0,3.5-2.5c0.4-1.7,0.7-7.4,0.9-11.5h-20.5
	c1.2-8.3,1.8-14.9,2.5-26.4h17.7v-6.7h-20.2v-10.7h31.1v27.2h-18c0,0.6-0.3,3.9-0.6,6h19c0,3.8,0,15-0.8,22.1
	c0.6-0.1,3.2-0.3,3.7-0.3c3.4-13.4,7.2-40.4,8.3-57.4h12.7c-1.4,12.1-5.5,40.9-9.4,56.4c4.6-0.4,9.8-0.9,14.5-1.7
	c-1.3-6.7-3.1-13.2-5.4-19.6L709.3,151.5L709.3,151.5L709.3,151.5z"/>
<path class="st0" d="M643.7,224.7h17.7v22.2c1.4,6.1,7.9,8.6,14.6,8.6h42.6L716,266h-40c-11.7,0-15.9-5.5-17.7-7.8
	c-3.4,3.7-7.3,6.9-11.6,9.5l-4.1-12.1c2.7-1.2,5.2-2.8,7.5-4.6v-16h-6.5L643.7,224.7L643.7,224.7L643.7,224.7z M663.2,211.1l-7,6.7
	c-3.5-4.6-7.5-8.7-12.1-12.2l7.8-7.9c4.1,2.9,7.9,6.2,11.3,9.9V204h9.2c-1.3-2.4-1.5-2.8-2.8-5l11.2-2.3c1.4,2.3,2.7,4.8,3.8,7.3
	h10.6c1.2-2.2,2.2-4.6,3-7l12.1,1.7c-0.6,1.2-2.2,3.9-3.1,5.3h10.2v9.2h-22.7c-0.4,1-0.9,2-1.4,2.9h20.1v36.3h-46V216h14.2
	c0.4-0.9,0.8-1.9,1-2.9h-19.4L663.2,211.1L663.2,211.1L663.2,211.1z M679,223.4v3.6h22.8v-3.6H679z M679,232.1v3.6h22.8v-3.6H679z
	 M679,240.9v3.8h22.8v-3.8H679z"/>
<path d="M43.4,70.4c-0.3,0.4-0.8,0.8-1.3,1.4c-3.5,3.8-7.9,7.1-12.4,9.3c-1.4-2.5-2.3-3.8-4.2-6c5.3-2.2,10.4-5.9,12.5-8.9
	L43.4,70.4L43.4,70.4z M32,56.1c-1.7,0-4.3,0.1-5.8,0.3v-6.6c1.1,0.1,2.3,0.2,3.5,0.2h0.8v-5.8c0-1.3,0-2.6-0.1-3.5
	c1.3,0.1,2.7,0.1,4.5,0.1h7.7c0.7-1.4,1.2-2.5,1.5-3.8l8.1,0.6c-0.2,0.3-0.6,1-1.3,2.3c-0.2,0.2-0.3,0.6-0.6,1h11.3
	c1.7,0,3.1,0,4.4-0.1c0,1,0,1.9,0,3.2v6h0.7c0.9,0,2.1,0,3.3-0.2v6.6c-1.6-0.2-4-0.3-5.7-0.3H53l3.7,1.5c-0.3,0.3-0.5,0.5-0.6,0.6
	c-0.6,0.6-2.1,2-2.6,2.5c0.7,1.3,1,1.9,1.9,3c3.1-2.3,5.7-4.8,7.1-7l5.9,4.1c-0.2,0.2-0.6,0.5-1,0.9C65,64,62,66.4,59.8,67.9
	c3.3,2.5,6.5,4.3,10.8,5.9c-1.6,2.6-2.3,4-3.3,7c-4.2-1.8-7-3.6-10-6.2c-2.5-2.2-4.2-4.2-5.6-6.8v7.8c0,2.4,0.1,4.3,0.3,5.9h-7.8
	c0.2-1.6,0.3-3.6,0.3-5.9v-8.8c-1.2,0.6-1.5,0.8-3,1.4c-1.4-2.3-2.2-3.3-3.8-5.1c-2.5,2.3-4.4,3.7-7.1,5.3c-1.4-2.3-2.3-3.6-4.3-5.5
	c4-1.8,7.6-4.4,9.4-6.9C35.6,56.1,32,56.1,32,56.1z M42.4,58.2c-0.3,0.3-0.5,0.5-0.6,0.7c-1.4,1.7-2,2.3-3.6,3.9
	c4.6-1.6,8.5-4,11.1-6.6h-12L42.4,58.2L42.4,58.2z M37.4,50h3.1v-3.6h-3.1V50z M46.6,50h3.1v-3.6h-3.1V50z M55.8,50h3.3v-3.6h-3.3
	V50z"/>
<path d="M88.2,51.3c-1.3-0.1-1.7-0.1-3.7-0.1h-8c-2,0-2.4,0-3.4,0.1v-6.1c1.1,0.1,1.7,0.2,3.4,0.2h7.9c2.2,0,2.5,0,3.7-0.1
	L88.2,51.3L88.2,51.3z M73.7,81.4c0.1-1.5,0.2-3.1,0.2-4.6v-7.3c0-1.4,0-2.5-0.1-3.7c1,0.1,1.4,0.1,3,0.1h7.6c1,0,2.1,0,3.1-0.1
	c0,0.8,0,1.3,0,3.6v7.4c0,1.4,0,2.3,0.1,3.7h-5.4v-1.3h-2.5v2L73.7,81.4L73.7,81.4z M74.4,38.3c0.9,0.1,1.9,0.2,3.3,0.2H84
	c1.5,0,2.4,0,3.4-0.2V44c-1-0.1-1.5-0.1-3.4-0.1h-6.3c-1.7,0-2.4,0-3.3,0.1C74.4,44,74.4,38.3,74.4,38.3z M74.4,52.6
	c0.9,0.1,1.4,0.1,3.4,0.1h5.9c2,0,2.5,0,3.6-0.1v5.3c-1.2-0.1-1.6-0.1-3.6-0.1h-5.9c-1.9,0-2.4,0-3.4,0.1V52.6z M74.4,59.2
	c0.9,0.1,1.5,0.1,3.4,0.1h5.9c2,0,2.5,0,3.6-0.1v5.3c-1.2-0.1-1.7-0.1-3.6-0.1h-5.9c-1.8,0-2.5,0-3.4,0.1V59.2z M79.6,74h2.6v-3
	h-2.6V74z M113.5,74.7c0.2-0.7,0.4-1.5,0.6-3.1c1.4,1.2,2.3,1.8,3.9,2.6c-0.3,2.7-0.6,3.8-1.2,5c-0.7,1.4-1.8,2.2-3.1,2.2
	c-1.6,0-3.3-0.6-4.5-1.5c-0.6-0.5-1.2-1.2-2.1-2.3c-2.6,1.7-3.4,2.2-5.4,3.2c-1.1-2.2-1.9-3.3-3.2-4.8c3-1.1,3.7-1.5,5.9-2.9
	c-0.7-1.8-1.2-3.6-1.6-6h-4.4v1.4c0.7-0.1,2-0.2,3.8-0.5v4.5c-1.3,0.2-2.6,0.4-3.8,0.6v3.2c0,3.8-1.5,5-6.6,5c-0.4,0-1.2,0-2.3-0.1
	c-0.2-2.3-0.4-3.5-1-5.3c1.4,0.2,2.1,0.2,2.9,0.2c1,0,1.2-0.2,1.2-0.9v-1.3c-2,0.2-3.2,0.4-3.6,0.4l-0.6-5.2c0.3,0,0.6,0,0.7,0
	c0.5,0,1.7,0,3.5-0.2v-2h-1.3c-1.1,0-2,0-2.9,0.1v-5.4c0.9,0.1,1.4,0.1,3,0.1h1.2v-1C91,61,90.8,61,89.8,61
	c-0.4-1.2-0.5-1.4-1.5-3.3h0.5c4,0,7.5-0.5,9.4-1.4h-6.1c-2,0-2.9,0-3.7,0.1v-4.8c1,0.1,1.6,0.2,3.7,0.2h6.4v-1.3h-4.6
	c-2,0-2.7,0-3.7,0.1v-4.1c1.2,0.1,2.2,0.1,3.7,0.1h4.6v-1.3h-5.7c-1.4,0-2.5,0-3.7,0.1v-4.8c1.1,0.1,2.1,0.2,3.7,0.2H94
	c-0.5-1-0.8-1.7-1.6-2.9l6.5-1.4c1,1.6,1.3,2.3,2.2,4.2h3c0.8-1.5,1.2-2.5,1.8-4.3l6.7,1.3c-0.5,1-0.6,1.2-1.5,3h1.3
	c1.7,0,2.6,0,3.7-0.2v4.8c-1.2-0.1-2.3-0.1-3.7-0.1h-7v1.3h5.4c1.5,0,2.5,0,3.7-0.1v4.1c-1.1-0.1-2.3-0.1-3.7-0.1h-5.4v1.3h7.5
	c2.3,0,2.9,0,3.8-0.2v4.9c-1.1-0.1-2-0.2-3.7-0.2h-0.2c1.4,1.1,2.4,2,3.7,3.5l-3,2.1c1.8,0,2.3,0,3.4-0.2v5.6
	c-1.1-0.2-1.9-0.2-3.7-0.2h-0.7l3.5,2.5c-0.2,0.2-0.9,1-2.2,2.3c-0.7,0.7-1.2,1.2-2.3,2.2c0.4,0.6,0.9,1,1.1,1.1
	c0.2,0,0.4,0.1,0.5,0.2C113.3,75.1,113.4,74.9,113.5,74.7L113.5,74.7z M111.7,61.9c-1.1-1.4-2-2.3-3.6-3.6l3.1-1.9H98.9l2.8,2.9
	c-1.9,0.6-2,0.6-3.4,0.9v1.7h3.8l-0.3-4.5l6.1-0.1c0,1.1,0,1.7,0,2c0,0.8,0,1.4,0.1,2.6L111.7,61.9L111.7,61.9z M108.5,67
	c0.2,1,0.3,1.4,0.6,2.5c1.4-1.1,1.7-1.5,2.3-2.5H108.5z"/>
<path d="M120.9,81.6c0.2-1.8,0.3-3.9,0.3-6.4V43.8c0-1.9,0-3.4-0.2-5.2c1.1,0.1,2.1,0.2,3.5,0.2h7.5c1.8,0,2.4,0,3.2-0.2l2.4,2.9h8
	v-1.2c0-1.2,0-2-0.2-2.8h7.7c-0.1,1.1-0.2,1.7-0.2,2.9v1.1h6.6c1.8,0,2.9,0,3.8-0.2c-0.1,1-0.2,1.8-0.2,3.7v4.4c0,1.7,0,2.5,0.2,3.7
	H159v2.8c-1.4-0.1-2.4-0.1-3.9-0.1h-11.3c-1.6,0-2.6,0-3.9,0.1V53h-4.1c0.1-1.1,0.1-1.4,0.1-3.3v-1.5c-0.6,1.7-1.4,3.9-2.4,6.4
	c1.5,2.6,2.1,3.9,2.7,5.9c0.5,1.7,0.7,3.2,0.7,4.7c0,2.6-0.9,4.5-2.7,5.4c-1.1,0.6-2.3,0.8-5.1,1c-0.1-3.5-0.5-5.3-1.4-6.8v10.6
	c0,3.1,0,4.5,0.2,6.2H120.9L120.9,81.6z M127.8,54.3c1.2-2.5,2.3-5.8,3-9h-3V54.3z M127.8,64.6c0.7,0.1,1.2,0.1,1.5,0.1
	c1.1,0,1.3-0.2,1.3-1.6c0-2.8-0.8-5.1-2.8-8.1V64.6L127.8,64.6z M146.9,63.9c-0.3,5-1,7.8-2.8,10.5c-1.8,2.9-4.8,5.3-9.1,7.4
	c-1.4-2.5-2.4-3.9-4.4-5.9c3.3-1.4,5.8-2.9,7.3-4.7c1.4-1.7,2.3-4.1,2.4-7.4c-1.5,0-2,0-3.1,0.2v-6.6c1.4,0.1,2.6,0.2,4.6,0.2h16.9
	c2.7,0,3.3,0,4.6-0.2V64c-1.4-0.2-2.7-0.2-4.6-0.2h-3.6v9.9c0,0.7,0.2,0.9,1,0.9c1.1,0,1.5-0.2,1.6-0.8c0.1-0.5,0.3-3.4,0.3-5.8
	c2.1,1,3.4,1.4,6.1,1.9c-0.3,4.6-0.7,7.1-1.4,8.4c-1,2.1-2.7,2.7-7.3,2.7c-5.3,0-7.1-1-7.1-4V63.9H146.9L146.9,63.9z M156.2,47.9
	h-13.6V50h13.6V47.9z"/>
<path d="M181.8,51.3c-1.3-0.1-1.7-0.1-3.7-0.1h-8c-2,0-2.4,0-3.4,0.1v-6.1c1.1,0.1,1.7,0.2,3.4,0.2h7.9c2.2,0,2.5,0,3.7-0.1
	L181.8,51.3L181.8,51.3z M167.4,81.4c0.1-1.5,0.2-3.1,0.2-4.6v-7.3c0-1.4,0-2.5-0.1-3.7c1,0.1,1.4,0.1,3,0.1h7.6c1,0,2.1,0,3.1-0.1
	c0,0.8,0,1.3,0,3.6v7.4c0,1.4,0,2.3,0.1,3.7h-5.4v-1.3h-2.5v2L167.4,81.4L167.4,81.4z M168,38.3c0.9,0.1,1.9,0.2,3.3,0.2h6.3
	c1.5,0,2.4,0,3.4-0.2V44c-1-0.1-1.5-0.1-3.4-0.1h-6.3c-1.7,0-2.4,0-3.3,0.1V38.3z M168.1,52.6c0.9,0.1,1.4,0.1,3.4,0.1h5.9
	c2,0,2.5,0,3.6-0.1v5.3c-1.2-0.1-1.6-0.1-3.6-0.1h-5.9c-1.9,0-2.4,0-3.4,0.1V52.6z M168.1,59.2c0.9,0.1,1.5,0.1,3.4,0.1h5.9
	c2,0,2.5,0,3.6-0.1v5.3c-1.2-0.1-1.7-0.1-3.6-0.1h-5.9c-1.8,0-2.5,0-3.4,0.1V59.2z M173.3,74h2.6v-3h-2.6V74z M207.2,74.7
	c0.2-0.7,0.4-1.5,0.6-3.1c1.4,1.2,2.3,1.8,3.9,2.6c-0.3,2.7-0.6,3.8-1.2,5c-0.7,1.4-1.8,2.2-3.1,2.2c-1.6,0-3.3-0.6-4.5-1.5
	c-0.6-0.5-1.2-1.2-2.1-2.3c-2.6,1.7-3.4,2.2-5.4,3.2c-1.1-2.2-1.9-3.3-3.2-4.8c3-1.1,3.7-1.5,5.9-2.9c-0.7-1.8-1.2-3.6-1.6-6H192
	v1.4c0.7-0.1,2-0.2,3.8-0.5v4.5c-1.3,0.2-2.6,0.4-3.8,0.6v3.2c0,3.8-1.5,5-6.6,5c-0.4,0-1.2,0-2.3-0.1c-0.2-2.3-0.4-3.5-1-5.3
	c1.4,0.2,2.1,0.2,2.9,0.2c1,0,1.2-0.2,1.2-0.9v-1.3c-2,0.2-3.2,0.4-3.6,0.4l-0.6-5.2c0.3,0,0.6,0,0.7,0c0.5,0,1.7,0,3.5-0.2v-2h-1.3
	c-1.1,0-2,0-2.9,0.1v-5.4c0.9,0.1,1.4,0.1,3,0.1h1.2v-1c-1.4,0.1-1.6,0.1-2.6,0.1c-0.4-1.2-0.5-1.4-1.5-3.3h0.5c4,0,7.5-0.5,9.4-1.4
	h-6.1c-2,0-2.9,0-3.7,0.1v-4.8c1,0.1,1.6,0.2,3.7,0.2h6.4v-1.3h-4.6c-2,0-2.7,0-3.7,0.1v-4.1c1.2,0.1,2.2,0.1,3.7,0.1h4.6v-1.3h-5.7
	c-1.4,0-2.5,0-3.7,0.1v-4.8c1.1,0.1,2.1,0.2,3.7,0.2h1.2c-0.5-1-0.8-1.7-1.6-2.9l6.5-1.4c1,1.6,1.3,2.3,2.2,4.2h3
	c0.8-1.5,1.2-2.5,1.8-4.3l6.7,1.3c-0.5,1-0.6,1.2-1.5,3h1.3c1.7,0,2.6,0,3.7-0.2v4.8c-1.2-0.1-2.3-0.1-3.7-0.1h-7v1.3h5.4
	c1.5,0,2.5,0,3.7-0.1v4.1c-1.1-0.1-2.3-0.1-3.7-0.1h-5.4v1.3h7.5c2.3,0,2.9,0,3.8-0.2v4.9c-1.1-0.1-2-0.2-3.7-0.2h-0.2
	c1.4,1.1,2.4,2,3.7,3.5l-3,2.1c1.8,0,2.3,0,3.4-0.2V67c-1.1-0.2-1.9-0.2-3.7-0.2h-0.7l3.5,2.5c-0.2,0.2-0.9,1-2.2,2.3
	c-0.7,0.7-1.2,1.2-2.3,2.2c0.4,0.6,0.9,1,1.1,1.1c0.2,0,0.4,0.1,0.5,0.2C206.9,75.1,207.1,74.9,207.2,74.7L207.2,74.7z M205.4,61.9
	c-1.1-1.4-2-2.3-3.6-3.6l3.1-1.9h-12.3l2.8,2.9c-1.9,0.6-2,0.6-3.4,0.9v1.7h3.8l-0.3-4.5l6.1-0.1c0,1.1,0,1.7,0,2
	c0,0.8,0,1.4,0.1,2.6L205.4,61.9L205.4,61.9z M202.2,67c0.2,1,0.3,1.4,0.6,2.5c1.4-1.1,1.7-1.5,2.3-2.5H202.2z"/>
<path d="M221.8,73.1c-2.3,0-3.5,0-5.1,0.2c0.1-1.3,0.2-2.5,0.2-4.9V56.1c0-2.4,0-3.4-0.2-4.9c1.4,0.1,3,0.2,5.1,0.2h26.4
	c2.4,0,3.4,0,5.1-0.2c-0.1,1.2-0.2,2.2-0.2,4.9v12.3c0,2.6,0,3.9,0.2,4.9c-1.5-0.1-2.8-0.2-5.1-0.2h-3.1c4.1,1.5,7.6,2.3,12.8,2.8
	c-1.8,2.5-2.6,4-3.7,6.2c-7.5-1.4-11.4-2.8-16.9-6l3.1-3h-11l3.4,3c-5.3,3.1-9.2,4.4-17.1,5.9c-1-2.5-1.9-4.1-3.5-6.3
	c5.3-0.5,8.9-1.2,12.6-2.7L221.8,73.1L221.8,73.1z M251.5,46.4c0,1.3,0,2.5,0.1,3.6c-1.4,0-2.9-0.1-4.9-0.1h-23.3c-2,0-3.5,0-5,0.1
	c0.1-1.2,0.1-2.3,0.1-3.6V42c0-1.4,0-2.4-0.2-3.7c1.7,0.1,2.9,0.2,5.3,0.2h22.8c2.3,0,3.6,0,5.2-0.2c-0.2,1.3-0.2,2.2-0.2,3.7
	L251.5,46.4L251.5,46.4z M223.8,57.6h22.4v-1.4h-22.4V57.6z M223.8,62.8h22.4v-1.5h-22.4V62.8z M223.8,68.1h22.4v-1.5h-22.4V68.1z
	 M226,43.5v1.8h18.2v-1.8H226z"/>
<path d="M281.6,69.9c-1.5,0-2.3,0-3.4,0.2v-6.6c1,0.1,1.4,0.1,2.8,0.2c-0.9-1.1-2.3-2.4-3.7-3.4v10c0,1.7,0,2.6,0.1,3.3h-6.7
	c0.2-1,0.3-2,0.3-4.2V48.7c0-0.9,0-1.3,0-2.2c-0.5,1.3-0.7,1.8-1.4,3.4V76c0,2.1,0,3.5,0.2,5.4h-7.1c0.2-2.2,0.3-3.3,0.3-5.4V64.2
	c0-1.9,0-3,0-4.4c-0.7,1.4-1.1,2-2.1,3.1c-0.8-3.8-1.4-5.7-2.6-8.3c2-2.3,3.6-4.8,5.1-8.2c1.4-3.3,1.8-4.7,2.7-9.2l7.1,2.2
	c-0.3,0.9-0.4,1.4-0.9,3.1c-0.1,0.6-0.3,1.2-0.7,2.4h5.8c-0.1,0.8-0.1,1.6-0.1,3.2v11.2c1.8-1.8,3.1-3.7,4.1-5.9
	c-2.1,0-2.2,0-3.1,0.1V47c1.3,0.1,1.9,0.1,4.6,0.1h8.2l0.2-2.3h-7.7c-1.8,0-2.4,0-4,0.1v-6.5c1.3,0.2,2.7,0.2,4.9,0.2h9.9
	c2.1,0,2.9,0,4.5-0.2c-0.2,1.1-0.3,2.5-0.5,4.2l-0.4,4.5h1c1.9,0,3.2-0.1,4.5-0.2v6.6c-1.4-0.2-2.5-0.2-5.1-0.2h-10.5
	c-0.6,1.4-0.6,1.4-0.8,2h9.7c2.6,0,3.6,0,4.8-0.2v6.4c-1.6-0.1-2.6-0.1-4.8-0.1h-3.3c0,1.4,0,1.7-0.1,2.5h5.5c2.3,0,3.2,0,4.6-0.2
	v6.6c-1.6-0.1-2.5-0.2-4.7-0.2h-4.9c2.5,2.8,5.9,4.4,10.4,5c-1.4,2.7-1.9,3.7-2.7,6.8c-2.7-0.8-4.5-1.6-6.8-3
	c-2.1-1.3-3.4-2.5-5.1-4.7c-2.9,3.8-6.8,6.2-12.8,7.8c-0.9-2.6-1.6-4.2-3.1-6.4c2.7-0.4,4.4-0.9,6.2-1.8c2.2-1,3.5-2.1,4.6-3.7
	L281.6,69.9L281.6,69.9z M286.5,63.7c0.1-1,0.1-1.2,0.1-2.5h-3c-0.6,0.9-0.9,1.2-2,2.5H286.5z"/>
<path d="M318.1,69v6.7c0,2,0.1,4.3,0.3,5.9H311c0.2-1.5,0.3-3.7,0.3-5.9V69c0-0.6,0-1.2,0-2.4c-1.4,1.4-1.5,1.6-2.7,2.7
	c-0.7-3.4-1.4-5.2-2.4-7.4c4-3,6.6-6.3,8.5-11.1h-3.5c-1.3,0-2.5,0.1-3.9,0.2v-6.8c0.7,0.1,1.6,0.2,3.3,0.2h0.7v-3.2
	c0-1.3-0.1-2.5-0.2-3.7h7.4c-0.2,0.9-0.3,2-0.3,3.5v3.4c1.5,0,1.9,0,2.4-0.2l1.8,2.2v-5.1c1.3,0.2,3.1,0.3,5.4,0.3h4.9v-0.4
	c0-1.8,0-2.7-0.2-3.7h7c-0.2,1-0.2,1.9-0.2,3.7v0.4h3.2c-0.7-1-0.9-1.4-1.9-2.6l5.1-1.5c1.3,1.4,1.9,2.4,2.9,4
	c0.7,0,0.8-0.1,1.4-0.1v6.9c-1.3-0.1-2.9-0.2-4.7-0.2h-6v2h5.9c2.2,0,3,0,4.1-0.1c-0.1,1.4-0.2,2.9-0.2,5.1v21.8
	c0,2.1-0.5,3.3-1.6,3.9c-0.8,0.5-2.3,0.7-5.1,0.7c-0.3,0-0.8,0-1.4,0c-0.1-3.4-0.5-4.9-1.7-6.6v1.9c0,2.3,0,3.2,0.1,4.5h-6.7
	c0.1-0.9,0.1-2,0.1-4.4v-5.1h-2.9v4.6c0,3.1,0,4.1,0.1,5.4h-7.2c0.2-1.6,0.2-3,0.2-5.4V66c-0.9,1.3-1.4,2.3-2.3,4.2
	c-1.4-1.4-1.8-1.9-2.6-2.8L318.1,69L318.1,69z M323,54.9c0-3.1,0-3.8-0.1-5.1c1.4,0.1,2.2,0.1,4.9,0.1h4.8v-2h-5.7
	c-1.5,0-3,0-4.2,0.2c-0.2,0.5-0.2,0.5-0.5,1.1c0,0,0,0.1-0.1,0.2c-1.4,3.3-2.7,6-4.4,9c0.3,0.4,0.5,0.6,0.8,1c1-1.5,1.7-2.6,2.6-4.4
	l2,1.5L323,54.9L323,54.9z M323,59.6c-0.9,1.3-1.3,1.8-2,2.7c0.8,0.8,1.1,1,2,1.7V59.6z M329.8,55.8v2.4h2.9v-2.4
	C332.7,55.8,329.8,55.8,329.8,55.8z M329.8,66.1h2.9v-2.4h-2.9V66.1z M342.4,55.8h-3.2v2.4h3.2V55.8z M342.4,63.7h-3.2v2.4h3.2V63.7
	z M339.1,74.4c1.3,0.2,1.9,0.2,2.5,0.2s0.7-0.2,0.7-1.1v-2h-3.2V74.4L339.1,74.4z"/>
</svg>
