<?xml version="1.0" encoding="UTF-8"?><svg id="_レイヤー_1" xmlns="http://www.w3.org/2000/svg" width="337.43" height="125.64" viewBox="0 0 337.43 125.64"><defs><style>.cls-1{fill:#fff;}.cls-1,.cls-2{stroke-width:0px;}.cls-2{fill:#004097;}</style></defs><path class="cls-1" d="m233.72,29.23h-3.13v-.97h-16.13v.97h-3.13V5.82h22.39v23.41Zm-12.7-20.8h-6.56v17.21h16.14V8.43h-6.61v1.15h5.2v1.77h-5.2v.97h6.2v1.85h-15.33v-1.85h6.15v-.97h-5.05v-1.77h5.05v-1.15h.01Zm8.91,11.73c-.61.8-1.33,1.53-2.13,2.15.77.34,1.57.62,2.38.85l-1.41,2.15c-1.96-.64-3.76-1.7-5.28-3.1v3.02h-2.71v-3.2c-1.44,1.13-3.04,2.04-4.74,2.71l-1.18-2.38c1.91-.57,3.7-1.5,5.25-2.74h-4.23v-4.56h13.22v4.56l.82.54h0Zm-3.56-3.46h-7.81v1.28h7.81v-1.28Zm-2.69,2.92c.65.6,1.35,1.15,2.1,1.61.56-.51,1.09-1.05,1.59-1.61h-3.69Z"/><path class="cls-1" d="m247.45,15.09l-1.51-2.74c1-.36,3.28-1.13,4.33-2.69h-3.94v-2.71h4.76c.07-.65.09-1.3.05-1.95h3.18c-.01.65-.06,1.3-.16,1.95h5.58v2.71h-4.2c1.27,1.33,2.9,2.28,4.69,2.71l-1.23,2.71h1.13v2.77h-1.07v9.22c0,.77-.03,2.15-2.15,2.15h-3.64l-.46-3.1h-5.74v-7.15h7.58v7.15h.64c.8,0,.8-.38.8-.97v-7.3h-10.32v8.32h-7.02v1.69h-2.33V8.4h2.33v14.75h1.2V5h2.35v18.16h1.15v-14.75h2.3v6.69h1.7Zm11.12,0c-2.3-.9-4.25-2.51-5.56-4.61-1.18,2.1-3.04,3.72-5.28,4.61h10.83Zm-9.02,6.28v2.28h2.64v-2.28h-2.64Z"/><path class="cls-2" d="m270.44,13.5v2.41c-2.32,1.66-3.72,4.32-3.79,7.17,0,2.65,1.68,4.03,4.23,4.03,1.24.1,2.46-.33,3.34-1.2.78-1.03,1.18-2.3,1.13-3.59-.16-3.23-1.04-6.38-2.59-9.22l2.78-.87c.38,1.36,1.12,2.6,2.13,3.59,1.03,1.11,2.27,2,3.65,2.63l-.91,2.88c-1.23-.53-2.31-1.36-3.14-2.41.4,1.19.59,2.45.57,3.71,0,2.47-.61,4.23-1.72,5.37-1.38,1.2-3.16,1.82-4.98,1.74-1.79.13-3.56-.39-5-1.46-1.34-1.3-2.07-3.11-2.01-4.98.04-2.7,1.07-5.29,2.9-7.27l-3.16.08v-2.61h6.58,0Z"/><path class="cls-2" d="m294.62,13.17v2.07c-.45.39-3.4,2.97-4.05,3.52.61-.16,1.24-.24,1.87-.24,3.72,0,5.53,2.38,5.53,5.17.05,1.85-.85,3.59-2.4,4.6-1.49.96-3.2,1.46-6.63,1.46-1.27,0-2.55-.06-3.81-.22l-.35-2.54c1.35.22,2.72.33,4.09.31,1.4,0,6.41,0,6.41-3.58,0-2.89-3.01-2.89-3.56-2.89-1.84-.05-3.64.57-5.05,1.75-.57.49-2.91,2.75-3.4,3.2l-1.59-2.14c1.59-1.3,8.75-7.75,9.12-8.1l-7.65.1v-2.48h11.48,0Z"/><path class="cls-2" d="m316.46,16.43c-.1.93-.23,2.2-.63,4.72.81.31,1.61.67,2.38,1.08l-.88,2.73c-.69-.41-1.22-.73-2.1-1.18-.71,2.83-2.79,5.12-5.55,6.1l-1.55-2.04c3.24-1.08,3.97-2.87,4.6-5.03-1.19-.41-2.41-.71-3.66-.88-1.22,5.01-3.09,6.69-5.29,6.69-1.87,0-3.39-1.52-3.39-3.39,0-.09,0-.18.01-.27,0-2.85,2.61-5.31,6.59-5.47.22-1.26.33-2.36.45-3.85l-5.82.02v-2.48h8.73c-.06.47-.22,1.97-.35,3.2-.08.71-.3,2.34-.45,3.18,1.27.13,2.52.38,3.74.75.23-1.32.39-3.34.43-4.11l2.75.24h0Zm-13.72,8.49c0,.85.43,1.26,1.04,1.26,1.69,0,2.46-3.24,2.75-4.46-3.5.28-3.8,2.65-3.8,3.2h0Z"/><path class="cls-2" d="m327.48,12.32c-.08.94-.12,1.55-.22,2.26h9.99v2.38h-10.26c-.11,1.06-.31,2.11-.59,3.15,1.41-.86,3.03-1.3,4.68-1.28,5.17,0,5.6,3.83,5.6,4.96,0,5.09-5.47,5.47-8.65,5.47-1.65,0-3.19-.12-3.91-.18l-.45-2.48c1.4.19,2.81.28,4.23.29,3.05,0,6.04-.47,6.04-3.17,0-1.99-1.79-2.58-3.09-2.58-1.88-.01-3.69.7-5.05,1.99-.08.31-.1.41-.18.71l-2.69-.63c.69-2.03,1.14-4.12,1.36-6.25h-3.74v-2.38h3.99c.08-1.12.1-1.38.16-2.34l2.79.08h0Z"/><path class="cls-2" d="m56.52,55.74v10.33c-13.44,9.22-16.53,11.29-23.53,14.63,12.22-1.78,24.54-2.76,36.88-2.94l.16,12.56c-2.22-.08-5.32-.16-8.83-.16-8.27,0-11.76.24-17.09,3.5-4.61,2.78-8.82,7.15-8.82,12.08,0,3.9,1.91,6.76,13.44,7.07,6.44.24,9.62.16,12.96,0l-1.91,12.8c-15.5.24-38.32-1.19-38.32-16.61,0-1.67,0-9.78,10.73-17.09-5.25.8-23.13,3.9-31.48,6.12l-.71-13.12c2.77-.29,5.51-.83,8.19-1.59,4.61-1.27,17.09-8.74,27.74-16.38l-26.23,1.11v-12.32h46.82Z"/><path class="cls-2" d="m109.22,112.58c8.58-.64,26.31-2.07,26.31-23.45,0-13.28-7.71-18.92-16.77-19.64-.4,6.92-3.42,48.49-24.72,48.49-10.73,0-17.41-10.89-17.41-23.37,0-17.57,12.32-37.05,38.55-37.05,18.28,0,33.63,10.02,33.63,32.67,0,9.06-2.62,18.44-10.81,25.76-7.79,6.84-19.87,8.11-24.09,8.58l-4.69-12h0Zm-20.03-18.12c0,3.02.87,10.18,5.41,10.18,6.04,0,10.57-15.58,12.08-34.58-17.48,5.09-17.48,22.42-17.48,24.4h0Z"/><path class="cls-2" d="m195.48,54.31c.46,4.19,1.33,8.31,2.62,12.32,15.58-.95,17.41-1.51,21.15-2.78l3.02,12.24c-6.43,1.53-13.02,2.33-19.64,2.39,5.01,10.89,9.06,15.34,11.29,17.73l-12.24,5.64c-4.93-7.19-9.07-14.89-12.33-22.98h-33.94v-11.92h29.73c-1.43-4.77-2.15-8.43-2.78-11.45l13.12-1.19h0Zm-10.57,40.63c-4.13,1.19-13.67,4.13-13.67,10.65s8.27,6.68,20.59,6.68c7.28.08,14.56-.31,21.78-1.19l-.24,12.4c-5.48.48-11.45.64-18.68.64-16.22,0-22.02-1.35-27.5-4.37-5.18-2.67-8.43-8.01-8.43-13.83,0-13.83,16.22-19.08,20.67-20.51l5.48,9.54h0Z"/><path class="cls-2" d="m268.85,54.07c.24,3.74.4,6.12.71,8.67,7.71-.64,11.13-.87,18.68-2.62l1.43,10.89c-7.16,1.51-8.35,1.59-18.52,2.39.35,2.34.88,4.66,1.59,6.92,7.24-.26,14.43-1.25,21.46-2.94l1.83,10.65c-6.31,1.38-12.71,2.26-19.16,2.62,1.68,3.35,3.85,6.43,6.44,9.14l-11.29,6.84c-2.22-2.46-5.64-6.28-9.3-15.5-.53.07-1.06.1-1.59.08h-33.23v-10.49h31.8c-.32-1.59-.4-2.15-1.11-6.76h-27.82v-10.73h26.31c-.88-5.48-.95-6.12-1.19-8.27l12.96-.87h0Zm-16.69,45.15c-1.75,1.51-5.09,4.29-5.09,7.79,0,5.41,8.58,5.8,19.24,5.8,7.06.1,14.13-.24,21.15-1.03l.48,12.24c-2.78.24-7.16.56-16.14.56-15.18,0-20.27-.64-23.77-1.51-12.48-3.18-13.91-11.37-13.91-14.07,0-7.47,5.8-12.64,8.43-15.02l9.62,5.25Z"/><path class="cls-2" d="m333.04,70.86c2.14,5.58,3.58,11.4,4.27,17.33l-5.85.91c-.15-1.47-.18-2.18-.33-3.05-2.57.56-10.04,1.75-14.42,2.18l-.62-3.4c-.13.87-.43,1.7-.88,2.46-.94,1.16-2.36,1.84-3.86,1.83h-6.69l-.99-5.2h5.88c.59,0,1.4,0,1.66-1.16.18-.81.33-3.51.44-5.4h-9.67c.59-3.89.85-7.02,1.18-12.42h8.31v-3.16h-9.53v-5.02h14.64v12.8h-8.5c0,.28-.15,1.83-.29,2.81h8.94c0,1.79,0,7.05-.37,10.39.29-.04,1.51-.14,1.73-.14,1.62-6.32,3.38-19.02,3.9-27.01h5.99c-.66,5.68-2.57,19.26-4.41,26.56,2.17-.21,4.6-.42,6.8-.81-.6-3.14-1.45-6.22-2.54-9.23l5.22-1.26h0Z"/><path class="cls-2" d="m302.16,105.36h8.35v10.46c.66,2.87,3.71,4.06,6.88,4.06h20.04l-1.21,4.97h-18.83c-5.52,0-7.5-2.59-8.35-3.67-1.61,1.72-3.44,3.23-5.44,4.48l-1.91-5.7c1.26-.57,2.45-1.3,3.53-2.17v-7.52h-3.05v-4.9h0Zm9.16-6.43l-3.31,3.15c-1.64-2.16-3.55-4.09-5.7-5.73l3.68-3.74c1.94,1.37,3.72,2.94,5.33,4.69v-1.71h4.34c-.62-1.15-.7-1.29-1.32-2.34l5.3-1.08c.67,1.1,1.26,2.25,1.77,3.43h5c.55-1.06,1.02-2.16,1.4-3.29l5.7.8c-.29.56-1.03,1.85-1.47,2.48h4.82v4.34h-10.7c-.19.47-.41.92-.66,1.36h9.45v17.1h-21.66v-17.1h6.69c.2-.44.36-.89.48-1.36h-9.12v-.98h0Zm7.43,5.8v1.68h10.74v-1.68h-10.74Zm0,4.13v1.68h10.74v-1.68h-10.74Zm0,4.13v1.78h10.74v-1.78h-10.74Z"/><path class="cls-2" d="m233.72,29.28h-3.13v-.97h-16.13v.97h-3.13V5.86h22.39v23.41Zm-12.7-20.8h-6.56v17.21h16.14V8.48h-6.61v1.15h5.2v1.77h-5.2v.97h6.2v1.85h-15.33v-1.85h6.15v-.97h-5.05v-1.77h5.05v-1.15h.01Zm8.91,11.73c-.61.8-1.33,1.53-2.13,2.15.77.34,1.57.62,2.38.85l-1.41,2.15c-1.96-.64-3.76-1.7-5.28-3.1v3.02h-2.71v-3.2c-1.44,1.13-3.04,2.04-4.74,2.71l-1.18-2.38c1.91-.57,3.7-1.5,5.25-2.74h-4.23v-4.56h13.22v4.56l.82.54h0Zm-3.56-3.46h-7.81v1.28h7.81v-1.28Zm-2.69,2.92c.65.6,1.35,1.15,2.1,1.61.56-.51,1.09-1.05,1.59-1.61h-3.69Z"/><path class="cls-2" d="m247.45,15.14l-1.51-2.74c1-.36,3.28-1.13,4.33-2.69h-3.94v-2.71h4.76c.07-.65.09-1.3.05-1.95h3.18c-.01.65-.06,1.3-.16,1.95h5.58v2.71h-4.2c1.27,1.33,2.9,2.28,4.69,2.71l-1.23,2.71h1.13v2.77h-1.07v9.22c0,.77-.03,2.15-2.15,2.15h-3.64l-.46-3.1h-5.74v-7.15h7.58v7.15h.64c.8,0,.8-.38.8-.97v-7.3h-10.32v8.32h-7.02v1.69h-2.33V8.45h2.33v14.75h1.2V5.05h2.35v18.16h1.15v-14.75h2.3v6.69h1.7Zm11.12,0c-2.3-.9-4.25-2.51-5.56-4.61-1.18,2.1-3.04,3.72-5.28,4.61h10.83Zm-9.02,6.28v2.28h2.64v-2.28h-2.64Z"/></svg>