<svg xmlns="http://www.w3.org/2000/svg" width="337.43" height="125.643" viewBox="0 0 337.43 125.643"><g transform="translate(0 9)"><path d="M1377.959,219.972h-3.126V219H1358.7v.973h-3.126V196.56h22.389Zm-12.7-20.8H1358.7v17.214h16.137V199.174h-6.609v1.152h5.2v1.768h-5.2v.974h6.2v1.846H1359.1v-1.846h6.148v-.974h-5.046v-1.768h5.046v-1.152Zm8.914,11.733a12,12,0,0,1-2.126,2.152,16.976,16.976,0,0,0,2.382.845l-1.408,2.152a14.375,14.375,0,0,1-5.276-3.1v3.022h-2.715v-3.2a19.163,19.163,0,0,1-4.74,2.715l-1.179-2.382a15.405,15.405,0,0,0,5.252-2.742h-4.227v-4.558h13.218v4.558l.819.539Zm-3.561-3.459H1362.8v1.28h7.813Zm-2.688,2.921a13.688,13.688,0,0,0,2.1,1.614,22.179,22.179,0,0,0,1.587-1.614Z" transform="translate(-1144.235 -199.744)" fill="#fff"/><path d="M1460.869,203.392l-1.512-2.742c1-.357,3.278-1.128,4.329-2.688h-3.945v-2.715h4.764a11.969,11.969,0,0,0,.051-1.947h3.177a15.364,15.364,0,0,1-.155,1.947h5.585v2.715h-4.2a9.672,9.672,0,0,0,4.689,2.715l-1.229,2.715h1.128v2.766h-1.075v9.22c0,.768-.027,2.152-2.153,2.152h-3.638l-.461-3.1h-5.737v-7.145h7.583v7.145h.641c.795,0,.795-.384.795-.973v-7.3h-10.322v8.324h-7.02v1.691h-2.331V196.706h2.331V211.46h1.2V193.3h2.355v18.16h1.152V196.706h2.3v6.686h1.691Zm11.117,0a11.46,11.46,0,0,1-5.559-4.611,10.492,10.492,0,0,1-5.276,4.611h10.834Zm-9.018,6.276v2.28h2.638v-2.28Z" transform="translate(-1213.416 -197.303)" fill="#fff"/><path d="M1561.923,202.216v2.41a9.1,9.1,0,0,0-3.789,7.173c0,2.655,1.682,4.031,4.235,4.031a4.27,4.27,0,0,0,3.343-1.2,5.55,5.55,0,0,0,1.134-3.586,21.372,21.372,0,0,0-2.593-9.218l2.775-.872a8.069,8.069,0,0,0,2.128,3.586,11.471,11.471,0,0,0,3.647,2.633l-.911,2.878a8.036,8.036,0,0,1-3.14-2.41,11.057,11.057,0,0,1,.568,3.708c0,2.471-.607,4.234-1.722,5.368a7.133,7.133,0,0,1-4.984,1.741,7.5,7.5,0,0,1-5-1.46,6.644,6.644,0,0,1-2.006-4.984,11.013,11.013,0,0,1,2.9-7.274l-3.162.081v-2.613h6.585Z" transform="translate(-1291.481 -197.718)" fill="#004097"/><path d="M1651.233,203.47v2.065c-.452.392-3.4,2.968-4.05,3.52a7.189,7.189,0,0,1,1.868-.235c3.717,0,5.526,2.379,5.526,5.172a5.313,5.313,0,0,1-2.4,4.6c-1.494.963-3.2,1.455-6.626,1.455a30.584,30.584,0,0,1-3.815-.216l-.354-2.536a23.375,23.375,0,0,0,4.09.314c1.4,0,6.41,0,6.41-3.579,0-2.89-3.009-2.89-3.558-2.89a7.579,7.579,0,0,0-5.053,1.749c-.57.492-2.909,2.752-3.4,3.2l-1.592-2.144c1.592-1.3,8.749-7.746,9.124-8.1l-7.648.1V203.47h11.482Z" transform="translate(-1356.611 -199.301)" fill="#004097"/><path d="M1741.124,206.831c-.1.925-.235,2.2-.63,4.718a20.8,20.8,0,0,1,2.379,1.081l-.884,2.733c-.689-.413-1.219-.727-2.1-1.179a8.723,8.723,0,0,1-5.545,6.1l-1.554-2.044c3.244-1.081,3.972-2.871,4.6-5.034a19.313,19.313,0,0,0-3.658-.884c-1.219,5.015-3.087,6.686-5.288,6.686a3.39,3.39,0,0,1-3.382-3.658c0-2.852,2.615-5.309,6.586-5.466.216-1.257.335-2.36.452-3.853l-5.821.019V203.57h8.73c-.059.473-.216,1.966-.354,3.2-.079.708-.3,2.339-.452,3.185a20.338,20.338,0,0,1,3.736.746c.235-1.317.392-3.342.433-4.109l2.752.235Zm-13.723,8.494c0,.846.433,1.257,1.041,1.257,1.69,0,2.458-3.244,2.753-4.463-3.5.276-3.8,2.655-3.8,3.2Z" transform="translate(-1424.665 -199.401)" fill="#004097"/><path d="M1820.123,201.606c-.078.944-.119,1.554-.216,2.26h9.989v2.379h-10.263a20.759,20.759,0,0,1-.589,3.147,8.821,8.821,0,0,1,4.68-1.279c5.172,0,5.6,3.834,5.6,4.955,0,5.093-5.467,5.466-8.651,5.466-1.652,0-3.185-.119-3.912-.176l-.452-2.477a33.955,33.955,0,0,0,4.228.295c3.047,0,6.037-.473,6.037-3.166,0-1.987-1.789-2.576-3.088-2.576a7.308,7.308,0,0,0-5.053,1.987c-.078.314-.1.413-.176.708l-2.693-.63a28.442,28.442,0,0,0,1.358-6.253h-3.736v-2.379h3.99c.078-1.122.1-1.376.157-2.339l2.792.078Z" transform="translate(-1492.642 -198.288)" fill="#004097"/><path d="M30.811,12.609v-.688H24.223v.688H22.63V1.931h3.517a13.026,13.026,0,0,0,.433-1.4l1.681.216c-.128.369-.318.892-.459,1.185h4.613V12.609H30.809ZM24.223,3.383v1.35h6.588V3.383Zm0,2.714V7.575h6.588V6.1Zm0,2.866v1.491h6.588V8.963H24.223Z" transform="translate(-17.455 -9.454)" fill="#004097"/><path d="M98.821,13.906c.192-.026.841-.115,1.083-.152V4.12h10.409v3.8H106.4c.025.344.038.688.115,1.249h4.333v1.529h-4.064c.408,1.657,1.465,3.223,2.076,3.223.547,0,.777-.955.993-1.835l1.223,1.172c-.2.739-.7,2.51-2.014,2.51-1.5,0-3.287-2.065-3.949-5.072h-3.631v2.828a34.423,34.423,0,0,0,3.746-.688v1.516c-1.39.357-4.638.982-6.217,1.16L98.82,13.9Zm2.663-8.435V6.644h7.237V5.472Zm3.376,3.7c-.051-.421-.064-.8-.077-1.249h-3.3V9.167h3.376Z" transform="translate(-82.583 -12.523)" fill="#004097"/><path d="M189.62,5.05h7.925V9H195.7v1.95c0,.28.128.472.408.472h1.39c.472,0,.472-.013.587-1.593l1.529.331c-.192,2.4-.56,2.752-1.414,2.752h-3.045a1.013,1.013,0,0,1-1.019-1.1V9h-1.275c-.242,1.67-1.16,3.313-4.739,4.039l-.6-1.542c2.127-.408,3.466-.982,3.759-2.5h-1.657V5.05Zm-1.745-2.1h1.962a10.8,10.8,0,0,0-.713-1.542L190.69.96a11.315,11.315,0,0,1,.816,1.988h1.275V.961h1.567V2.949h1.326c.2-.395.637-1.542.8-1.988l1.58.433a15.513,15.513,0,0,1-.675,1.555h1.937V6.2h-1.567V4.3h-8.333V6.2h-1.542V2.948Zm3.313,3.376v1.35h4.792V6.324Z" transform="translate(-158.404 -9.822)" fill="#004097"/><path d="M279.588,9.57a10.988,10.988,0,0,1-2.892,3.135l-1.045-1.262a9.387,9.387,0,0,0,2.6-2.65l1.337.777Zm8.192-6.206H275.752V1.86h5.11V.88h1.657v.982h5.262v1.5Zm-1.236.816V8.513h-4v3.2c0,.688-.293,1.236-1.121,1.236h-2.166l-.318-1.631h1.618c.242,0,.395-.013.395-.331V8.515h-3.962V4.182h9.557ZM278.58,5.557V7.124h6.371V5.557Zm8.141,7.084a9.892,9.892,0,0,1-3.146-3.071l1.376-.816a8.945,8.945,0,0,0,2.866,2.535l-1.1,1.35Z" transform="translate(-233.737 -9.754)" fill="#004097"/><path d="M362.471,7.728a10.779,10.779,0,0,0,2.65-1.631H362.6V4.721h2.294V3.434h-1.924V2.058h1.924V1.05h1.491V2.056h1.58v.713a8.862,8.862,0,0,0,.6-1.262l1.388.536v-.7h4.587v1.44a24.5,24.5,0,0,1-1.3,3.16,4.876,4.876,0,0,1,1.491,3.44,3.627,3.627,0,0,1-.382,1.745,1.523,1.523,0,0,1-1.58.726h-.892l-.2-1.516h.624c.573,0,.816-.192.816-1.057A4.763,4.763,0,0,0,371.62,6.16a22.275,22.275,0,0,0,1.286-3.376h-1.427v10.27h-1.529V2.082a18.435,18.435,0,0,1-1.606,2.637h1.286V6.1h-2.447a10.357,10.357,0,0,1-.854.841h2.625v5.606h-3.912v.484h-1.452V8.834c-.192.1-.344.179-.7.344l-.421-1.452Zm2.574.446v.955h2.484V8.173Zm0,2.153v.931h2.484v-.931Zm1.286-6.919V4.721h.229a11.613,11.613,0,0,0,1.006-1.313Z" transform="translate(-307.951 -9.899)" fill="#004097"/><path d="M453.728,8a10.074,10.074,0,0,1-.79.816L452.352,7.8a12,12,0,0,1-1.057,4.944L450.02,11.48a10.838,10.838,0,0,0,.79-4.269V1.644h4.715V.7h1.631v.942H462.1v1.5h-9.747V7.185a9.367,9.367,0,0,0,2.37-3.886l1.414.459a14.261,14.261,0,0,1-.892,2v6.983h-1.516V8Zm7.327-4.562v1.5h1.108V6.432h-1.108v5.249a1.013,1.013,0,0,1-1.019,1.057h-2.319l-.331-1.542h1.771c.216,0,.331-.051.331-.369v-4.4h-3.656V4.941h3.656v-1.5h1.567ZM457.245,6.9a13.335,13.335,0,0,1,1.5,2.74l-1.414.713a12.9,12.9,0,0,0-1.4-2.815l1.313-.637Z" transform="translate(-382.789 -9.6)" fill="#004097"/><path d="M550.074,3.941v3.2h-4.408v.854h4.918c-.064,2.255-.152,3.135-.421,3.491a1.283,1.283,0,0,1-1.019.484h-2l-.293-1.542H548.4c.433,0,.5,0,.56-1.172h-3.3V12.6h-1.529V9.7a11.151,11.151,0,0,1-4.664,2.561l-.662-1.5a12.332,12.332,0,0,0,4.064-1.5H539.28a14.4,14.4,0,0,0,.777-3.236h4.077V5.165h-4.651V3.942h.128l-.841-.955A5.089,5.089,0,0,0,540.72.54l1.58.192c-.089.28-.115.369-.216.624h2.625V2.567A5.405,5.405,0,0,0,545.957.555l1.516.192a4.231,4.231,0,0,1-.192.611h3.594v1.35h-2.268a6.47,6.47,0,0,1,.433.777l-1.2.459h2.23Zm-8.13,0c-.179-.574-.382-1.045-.459-1.236h-.242a5.49,5.49,0,0,1-1.185,1.236Zm-.51,3.2a4.226,4.226,0,0,1-.166.854h2.866V7.139Zm3.886-3.2-1.108-.892c.2-.192.254-.242.369-.344h-1.529a6.351,6.351,0,0,1,.395.777l-1.363.459h3.236Zm2.2,0c-.128-.293-.331-.816-.536-1.236h-.459a6.343,6.343,0,0,1-1.07,1.236Zm1.006,2.076V5.163h-2.866v.854Z" transform="translate(-458.652 -9.463)" fill="#004097"/><path d="M631.569,6.91a11.208,11.208,0,0,1-3.618,6.612l-1.211-1.35c1.045-.79,2.561-2.127,3.249-5.619l1.58.357Zm-4.638-2.969h5.033V1.75h1.657V3.941h5.033V5.547H626.931Zm10.7,9.582a11.735,11.735,0,0,1-3.669-6.6l1.617-.382a9,9,0,0,0,3.25,5.606Z" transform="translate(-533.849 -10.497)" fill="#004097"/><path d="M722.279,10.535a9.792,9.792,0,0,1-2.46,1.262,6.2,6.2,0,0,0,1.631.128h6.014l-.344,1.491h-6.065a5.971,5.971,0,0,1-1.962-.318,2.508,2.508,0,0,1-1.427-1.1,8.5,8.5,0,0,1-1.835,1.708l-.7-1.644a5.727,5.727,0,0,0,1.4-1.006V8.026h-1.223v-1.5h2.778v3.669a2,2,0,0,0,1.618,1.58l-.867-1.147a9.453,9.453,0,0,0,2.153-.765h-2.524v-1.2h1.9v-.79h-1.617V6.751h1.617V6.267h1.465v.484h1.962V6.267h1.452v.484h1.694V7.872h-1.694v.79h2v1.2h-2.306a10.566,10.566,0,0,0,2.281.854l-.752,1.185a11.628,11.628,0,0,1-2.879-1.363l.816-.675h-3.084l.955.675Zm-5.7-8.7a11.022,11.022,0,0,1,1.975,2.127l-1.2,1.108a11.918,11.918,0,0,0-1.937-2.191l1.16-1.045Zm1.835.192h3.823V4.38H719.91v.472c0,.179,0,.242.243.242h.841c.318,0,.331-.1.395-.536l1.223.141c-.051.472-.166,1.363-.841,1.363h-2.293c-.828,0-.9-.51-.9-.867V3.5h2.345V3.018h-2.5V2.023Zm3.415,5.849v.79H723.8v-.79Zm.968-5.849h3.949V4.38h-2.574v.472c0,.166.051.242.306.242h1.16c.28,0,.293-.128.331-.536l1.3.152c-.064.536-.179,1.35-.88,1.35h-2.511c-.968,0-.993-.65-.993-.752V3.5h2.524V3.016H722.8Z" transform="translate(-609.405 -10.566)" fill="#004097"/><path d="M808.531,5.423a19.352,19.352,0,0,1-1.937.1l-.179-.662a9.948,9.948,0,0,1-2.625,2l-.841-1.4A6.986,6.986,0,0,0,805.8,3.335h-2.625V1.921h1.873a6.617,6.617,0,0,0-.816-1.262l1.5-.547a6.973,6.973,0,0,1,.942,1.516l-.688.293h2.65a10.428,10.428,0,0,0-.765-1.4L809.33.01a9.8,9.8,0,0,1,.892,1.567l-.854.344h2.447a13.933,13.933,0,0,0,.752-1.835l1.618.382a11.909,11.909,0,0,1-.662,1.452h1.708V3.334h-2.6a7.683,7.683,0,0,0,2.8,2.026l-.892,1.363a9.881,9.881,0,0,1-3.708-3.389h-3.287a5.33,5.33,0,0,1-.611.931,24.491,24.491,0,0,0,4.039-.484l.662,1.185a15.01,15.01,0,0,1-1.516.267v.955h3.351V7.463h-3.351v.816h4.816v1.39h-4.816V11.1a1.019,1.019,0,0,1-1.07,1.083H806.58l-.293-1.478h1.745c.395,0,.5-.038.5-.421V9.669H803.47V8.279h5.059V7.463h-3.581V6.188h3.581V5.423Z" transform="translate(-684.473 -9.01)" fill="#004097"/><path d="M895.27,3.77h11.289V5.286h-9.67v8.09h9.952v1.516h-9.952v.484h-1.618V3.77Zm1.962,8a14.042,14.042,0,0,0,3.594-2.524,28.086,28.086,0,0,0-3.032-1.542l.841-1.262a32.1,32.1,0,0,1,3.223,1.644,12.366,12.366,0,0,0,1.567-2.612l1.606.611a17.392,17.392,0,0,1-1.822,2.842,28.944,28.944,0,0,1,2.994,2.294l-1.121,1.388a25.839,25.839,0,0,0-2.943-2.484,20.2,20.2,0,0,1-3.9,2.919l-1.006-1.275Z" transform="translate(-763.389 -12.224)" fill="#004097"/><path d="M984.336,6.652A9.861,9.861,0,0,0,986.719,9.2,6.363,6.363,0,0,0,989.1,6.614h-7.455V5.085H985.9V3.645h-5.2V2.078h5.2V.79h1.618V2.076h5.237V3.643H987.52v1.44h3.53V6.639a8.737,8.737,0,0,1-2.791,3.415,17.126,17.126,0,0,0,4.523,1.019l-.624,1.732a15.486,15.486,0,0,1-5.518-1.732,16.863,16.863,0,0,1-5.262,1.784l-.688-1.708a14.951,14.951,0,0,0,4.459-1.134,11.812,11.812,0,0,1-2.18-2.561l1.364-.8Z" transform="translate(-836.406 -9.677)" fill="#004097"/><path d="M1068.349,2.058h2.383V1.05h1.529V2.056h2.4v1.4h-.7c-.077.523-.28,1.529-.459,2.179h1.516v1.4h-6.982v-1.4h1.44a10.712,10.712,0,0,0-.318-2.179h-.8Zm6.116,5.683v4.625h-4.459v.65h-1.491V7.741ZM1070.006,9.1V11h2.981V9.1Zm.56-5.645a19.12,19.12,0,0,1,.344,2.179h1.16c.229-.828.408-2.026.433-2.179h-1.937Zm4.689,9.582V1.356h4.7V2.733a24.558,24.558,0,0,1-1.286,3.122,5.5,5.5,0,0,1,1.516,3.746,2.455,2.455,0,0,1-.79,1.924,1.782,1.782,0,0,1-1.2.318h-.942l-.242-1.542h.739c.536,0,.79-.242.79-1.045a4.276,4.276,0,0,0-1.5-3.135,23.134,23.134,0,0,0,1.236-3.338h-1.465V13.039h-1.555Z" transform="translate(-911.064 -9.899)" fill="#004097"/><path d="M1157.08,13.487c.216-.013,1.275-.089,1.5-.1V10.327h-1.5V8.977h1.5V3.42h9.442V4.77h-7.772v.662h7.34v1.1h-7.34V7.2h7.34V8.312h-7.34v.662h8.677v1.35h-1.465l.88.637a11.471,11.471,0,0,1-2.281,1.593,11.165,11.165,0,0,0,3.122.918l-.726,1.631c-2.65-.726-5.542-2.014-6.868-4.779h-1.337v2.93c1.262-.1,1.593-.128,3.274-.382v1.414a57.218,57.218,0,0,1-6.129.688l-.318-1.491Zm6.154-3.16a4.3,4.3,0,0,0,1.427,1.44,12.045,12.045,0,0,0,1.95-1.44h-3.376Z" transform="translate(-987.184 -11.925)" fill="#004097"/><path d="M18.148,123.65a10.989,10.989,0,0,1-2.892,3.135l-1.045-1.262a9.386,9.386,0,0,0,2.6-2.65l1.337.777Zm8.192-6.206H14.312v-1.5h5.11v-.982h1.657v.982H26.34Zm-1.236.816v4.333h-4v3.2c0,.688-.293,1.236-1.121,1.236H17.817L17.5,125.4h1.618c.242,0,.395-.013.395-.331v-2.471H15.549v-4.333h9.557Zm-7.964,1.376V121.2h6.371v-1.567Zm8.141,7.084a9.892,9.892,0,0,1-3.146-3.071l1.376-.816a8.945,8.945,0,0,0,2.866,2.535l-1.1,1.35Z" transform="translate(-10.258 -107.269)" fill="#004097"/><path d="M101.021,121.816a10.779,10.779,0,0,0,2.65-1.631h-2.524v-1.376h2.294v-1.286h-1.924v-1.376h1.924V115.14h1.491v1.006h1.58v.713a8.863,8.863,0,0,0,.6-1.262l1.388.536v-.7h4.587v1.44a24.492,24.492,0,0,1-1.3,3.16,4.876,4.876,0,0,1,1.491,3.44,3.627,3.627,0,0,1-.382,1.745,1.523,1.523,0,0,1-1.58.726h-.892l-.2-1.516h.624c.574,0,.816-.192.816-1.057a4.763,4.763,0,0,0-1.491-3.122,22.278,22.278,0,0,0,1.286-3.376H110.03v10.27H108.5V116.171a18.436,18.436,0,0,1-1.606,2.637h1.286v1.376h-2.447a10.365,10.365,0,0,1-.854.841h2.625v5.606h-3.912v.483h-1.452v-4.192c-.192.1-.344.179-.7.344l-.421-1.452Zm2.574.446v.955h2.484v-.955Zm0,2.153v.931h2.484v-.931Zm1.286-6.919v1.313h.229a11.62,11.62,0,0,0,1.006-1.313Z" transform="translate(-84.463 -107.423)" fill="#004097"/><path d="M192.288,122.091a10.068,10.068,0,0,1-.79.816l-.587-1.019a12,12,0,0,1-1.057,4.944l-1.275-1.262a10.838,10.838,0,0,0,.79-4.269v-5.568h4.715v-.942h1.631v.942h4.944v1.5h-9.747v4.039a9.367,9.367,0,0,0,2.37-3.886l1.414.459a14.273,14.273,0,0,1-.892,2v6.983h-1.516v-4.739Zm7.327-4.562v1.5h1.108v1.491h-1.108v5.249a1.013,1.013,0,0,1-1.019,1.057h-2.319l-.331-1.542h1.771c.216,0,.331-.051.331-.369v-4.4h-3.656v-1.491h3.656v-1.5Zm-3.81,3.466a13.335,13.335,0,0,1,1.5,2.74l-1.414.713a12.9,12.9,0,0,0-1.4-2.815Z" transform="translate(-159.31 -107.124)" fill="#004097"/><path d="M277.73,116.934h4.026v1.3H277.73Zm.344-1.847h3.389v1.262h-3.389Zm0,3.7h3.389v1.262h-3.389Zm0,1.9h3.389v1.286h-3.389Zm0,1.975h3.389v3.618h-2.089v.5h-1.3Zm1.236,1.16v1.275h.955v-1.275Zm2.586-8.09h1.4a4.426,4.426,0,0,0-.318-.726l1.491-.28a8.079,8.079,0,0,1,.459,1.006h1.491a6.708,6.708,0,0,0,.344-1.006l1.695.2a8.49,8.49,0,0,1-.369.8h1.44v.968h-3.109v.547h2.663v.867h-2.663v.574h3.325V119.7h-7.989v-1.019h3.186v-.574h-2.612v-.867h2.612v-.547H281.9v-.968Zm2.956,9.608a10.243,10.243,0,0,0,1.555-.752,11.642,11.642,0,0,1-.306-1.847h-1.5v.65c.382-.051.587-.077,1.006-.139v1.045c-.254.051-.739.152-1.006.2v1.134c0,.777-.128,1.147-1.045,1.147h-1.4l-.2-1.313h.9c.306,0,.395-.051.395-.331v-.446c-.6.064-.942.089-1.35.115l-.128-1.223c.395-.013.828-.026,1.478-.077v-.765h-1.465v-1.057h1.465v-.574c-.293.013-.483.026-1.147.051l-.2-.931a25.341,25.341,0,0,0,3.325-.306l.344.968c-.28.038-.523.064-.968.115v.675h1.414c-.064-1.019-.064-1.465-.064-1.771h1.39c0,.5,0,.854.064,1.771h2.345v1.057h-1.377l.982.587a8.745,8.745,0,0,1-1.363,1.631c.064.128.165.344.344.344.28,0,.56-.459.918-1.019l.65,1.172c-.357.587-.968,1.363-1.745,1.363a1.536,1.536,0,0,1-1.3-.982,8.2,8.2,0,0,1-1.363.726l-.637-1.223Zm2.637-2.6c.051.484.089.688.128.892a6.04,6.04,0,0,0,.7-.892h-.828Zm1.249-2.905a8.506,8.506,0,0,1,.828,1.134l-1.1.547a4.919,4.919,0,0,0-.739-1.211l1.006-.472Z" transform="translate(-235.515 -107.064)" fill="#004097"/><path d="M368.361,119.191a17.7,17.7,0,0,1-2.052,1.07l-.79-1.567c3.1-1.211,4.613-2.625,5.3-3.644h1.809a11.6,11.6,0,0,0,5.262,3.644l-.816,1.555a12.453,12.453,0,0,1-2.014-1.083v.726h-6.7v-.7Zm7.391,7.989c-.141-.256-.229-.446-.51-.9a78.667,78.667,0,0,1-8.869.547l-.2-1.606c.165,0,1.529.013,1.822.013a18.993,18.993,0,0,0,1.1-2.638h-3.058V121.1h11.34v1.491h-6.46c-.484,1.134-.8,1.86-1.2,2.625.408,0,2.535-.051,4.625-.216-.28-.382-.611-.8-1.286-1.58l1.35-.726a20.4,20.4,0,0,1,2.8,3.658l-1.452.828Zm-1.694-8.7a12.646,12.646,0,0,1-2.345-2.153,10.139,10.139,0,0,1-2.293,2.153Z" transform="translate(-310.558 -107.346)" fill="#004097"/><path d="M455.77,116.934H459.8v1.3H455.77Zm.344-1.847H459.5v1.262h-3.389Zm0,3.7H459.5v1.262h-3.389Zm0,1.9H459.5v1.286h-3.389Zm0,1.975H459.5v3.618h-2.089v.5h-1.3Zm1.236,1.16v1.275h.955v-1.275Zm2.586-8.09h1.4a4.435,4.435,0,0,0-.318-.726l1.491-.28a8.079,8.079,0,0,1,.459,1.006h1.491a6.712,6.712,0,0,0,.344-1.006l1.694.2a8.475,8.475,0,0,1-.369.8h1.44v.968h-3.109v.547h2.663v.867h-2.663v.574h3.325V119.7H459.8v-1.019h3.186v-.574h-2.612v-.867h2.612v-.547h-3.045v-.968Zm2.956,9.608a10.24,10.24,0,0,0,1.555-.752,11.651,11.651,0,0,1-.306-1.847h-1.5v.65c.382-.051.587-.077,1.006-.139v1.045c-.254.051-.739.152-1.006.2v1.134c0,.777-.128,1.147-1.046,1.147h-1.4l-.2-1.313h.9c.306,0,.395-.051.395-.331v-.446c-.6.064-.942.089-1.35.115l-.128-1.223c.395-.013.828-.026,1.478-.077v-.765h-1.465v-1.057h1.465v-.574c-.293.013-.483.026-1.147.051l-.2-.931a25.341,25.341,0,0,0,3.325-.306l.344.968c-.28.038-.523.064-.968.115v.675h1.414c-.064-1.019-.064-1.465-.064-1.771h1.39c0,.5,0,.854.064,1.771h2.345v1.057h-1.376l.982.587a8.746,8.746,0,0,1-1.363,1.631c.064.128.166.344.344.344.28,0,.56-.459.918-1.019l.65,1.172c-.357.587-.968,1.363-1.745,1.363a1.536,1.536,0,0,1-1.3-.982,8.2,8.2,0,0,1-1.363.726l-.637-1.223Zm2.637-2.6c.051.484.089.688.128.892a6.037,6.037,0,0,0,.7-.892h-.828Zm1.249-2.905a8.5,8.5,0,0,1,.828,1.134l-1.1.547a4.918,4.918,0,0,0-.739-1.211l1.006-.472Z" transform="translate(-387.704 -107.064)" fill="#004097"/><path d="M544.35,127.749a9.356,9.356,0,0,0,3.605-.955h-2.407v-5.849h9.964v5.849H553a9.012,9.012,0,0,0,3.7.892l-.662,1.388a12.124,12.124,0,0,1-4.307-1.4l.892-.878h-4.344l.867.9a12.479,12.479,0,0,1-4.09,1.414Zm1.606-10.409H555.1v3.007h-9.149Zm1.134,5.288h6.881v-.637H547.09Zm0,1.542h6.881v-.662H547.09Zm0,1.567h6.881v-.662H547.09Zm.408-6.447h6.04v-.828H547.5Z" transform="translate(-463.422 -109.304)" fill="#004097"/><path d="M56.522,271.54v10.333c-13.435,9.221-16.535,11.289-23.531,14.627a285.389,285.389,0,0,1,36.885-2.94l.16,12.561c-2.225-.079-5.325-.16-8.825-.16-8.268,0-11.765.238-17.093,3.5-4.61,2.783-8.823,7.155-8.823,12.085,0,3.9,1.908,6.757,13.435,7.074,6.44.238,9.619.16,12.959,0l-1.908,12.8c-15.5.238-38.317-1.191-38.317-16.614,0-1.67,0-9.778,10.731-17.093-5.246.8-23.133,3.9-31.481,6.121L0,300.715a48.481,48.481,0,0,0,8.189-1.589c4.61-1.272,17.093-8.744,27.743-16.376L9.7,283.863V271.54H56.52Z" transform="translate(0 -224.796)" fill="#004097"/><path d="M373.5,334.69c8.585-.636,26.313-2.068,26.313-23.452,0-13.276-7.71-18.92-16.774-19.635-.4,6.917-3.419,48.493-24.724,48.493-10.731,0-17.41-10.891-17.41-23.371,0-17.569,12.323-37.045,38.555-37.045,18.284,0,33.628,10.016,33.628,32.673,0,9.063-2.623,18.444-10.812,25.756-7.791,6.836-19.873,8.108-24.088,8.585l-4.691-12Zm-20.033-18.124c0,3.021.874,10.176,5.406,10.176,6.042,0,10.574-15.582,12.082-34.581C353.471,297.247,353.471,314.578,353.471,316.565Z" transform="translate(-264.278 -231.106)" fill="#004097"/><path d="M729.326,265.872a62.375,62.375,0,0,0,2.623,12.323c15.582-.953,17.41-1.511,21.146-2.783l3.021,12.242a88.222,88.222,0,0,1-19.635,2.385c5.008,10.891,9.063,15.342,11.289,17.727l-12.242,5.644A119.964,119.964,0,0,1,723.2,290.435H689.26V278.51h29.732c-1.432-4.77-2.147-8.427-2.783-11.448l13.116-1.191ZM718.752,306.5c-4.134,1.191-13.674,4.134-13.674,10.653s8.268,6.678,20.59,6.678a164.759,164.759,0,0,0,21.782-1.191l-.238,12.4c-5.485.477-11.448.636-18.682.636-16.216,0-22.02-1.351-27.5-4.372a15.532,15.532,0,0,1-8.427-13.833c0-13.833,16.216-19.08,20.669-20.509l5.485,9.54Z" transform="translate(-533.85 -220.562)" fill="#004097"/><path d="M1052.73,264.82c.238,3.736.4,6.121.715,8.665,7.71-.636,11.129-.874,18.682-2.623l1.432,10.891c-7.155,1.51-8.346,1.589-18.522,2.385a46.358,46.358,0,0,0,1.589,6.917,108.566,108.566,0,0,0,21.465-2.94l1.827,10.653a121.134,121.134,0,0,1-19.158,2.623,38.031,38.031,0,0,0,6.44,9.142l-11.289,6.836c-2.225-2.464-5.644-6.281-9.3-15.5a8.782,8.782,0,0,1-1.589.079h-33.23V291.453h31.8c-.319-1.589-.4-2.147-1.113-6.757h-27.824V273.964h26.313c-.875-5.485-.953-6.121-1.192-8.268l12.959-.874Zm-16.695,45.155c-1.749,1.511-5.087,4.293-5.087,7.791,0,5.406,8.584,5.8,19.237,5.8a167.414,167.414,0,0,0,21.146-1.034l.477,12.242c-2.783.238-7.155.557-16.138.557-15.184,0-20.271-.636-23.769-1.511-12.48-3.181-13.912-11.367-13.912-14.072,0-7.472,5.8-12.64,8.427-15.025Z" transform="translate(-783.88 -219.748)" fill="#004097"/><path d="M1381.682,329.949a71.364,71.364,0,0,1,4.267,17.331l-5.848.912c-.147-1.474-.184-2.176-.331-3.053-2.574.562-10.039,1.754-14.417,2.176l-.625-3.4a6.573,6.573,0,0,1-.882,2.456,4.92,4.92,0,0,1-3.862,1.825h-6.694L1352.3,343h5.884c.589,0,1.4,0,1.655-1.157.184-.806.331-3.508.442-5.4h-9.672c.589-3.895.846-7.017,1.177-12.419h8.312v-3.157h-9.525v-5.016h14.637v12.805h-8.5c0,.28-.147,1.825-.294,2.807h8.936c0,1.789,0,7.052-.368,10.385.294-.035,1.508-.14,1.729-.14,1.618-6.315,3.384-19.016,3.9-27.014h5.994c-.662,5.684-2.574,19.26-4.413,26.559,2.17-.211,4.6-.422,6.8-.806a61.3,61.3,0,0,0-2.537-9.226l5.223-1.263Z" transform="translate(-1048.64 -268.086)" fill="#004097"/><path d="M1631.828,326.769h8.349v10.456c.662,2.868,3.715,4.057,6.878,4.057H1667.1l-1.213,4.966h-18.83c-5.516,0-7.5-2.587-8.349-3.672a26.928,26.928,0,0,1-5.443,4.476l-1.913-5.7a16.47,16.47,0,0,0,3.531-2.169v-7.519h-3.052v-4.9Zm9.157-6.434-3.31,3.147a30.433,30.433,0,0,0-5.7-5.735l3.678-3.742a33.962,33.962,0,0,1,5.332,4.686v-1.713h4.339c-.625-1.154-.7-1.294-1.324-2.343l5.3-1.084a27.683,27.683,0,0,1,1.765,3.427h5a23.255,23.255,0,0,0,1.4-3.287l5.7.8c-.294.56-1.029,1.853-1.471,2.483h4.818v4.336h-10.7a11.609,11.609,0,0,1-.662,1.364h9.452v17.1h-21.661v-17.1h6.694a7.446,7.446,0,0,0,.478-1.364h-9.12v-.979Zm7.43,5.805v1.678h10.739V326.14Zm0,4.126v1.678h10.739v-1.678Zm0,4.126v1.784h10.739v-1.784Z" transform="translate(-1329.667 -230.409)" fill="#004097"/><path d="M1377.959,219.972h-3.126V219H1358.7v.973h-3.126V196.56h22.389Zm-12.7-20.8H1358.7v17.214h16.137V199.174h-6.609v1.152h5.2v1.768h-5.2v.974h6.2v1.846H1359.1v-1.846h6.148v-.974h-5.046v-1.768h5.046v-1.152Zm8.914,11.733a12,12,0,0,1-2.126,2.152,16.976,16.976,0,0,0,2.382.845l-1.408,2.152a14.375,14.375,0,0,1-5.276-3.1v3.022h-2.715v-3.2a19.163,19.163,0,0,1-4.74,2.715l-1.179-2.382a15.405,15.405,0,0,0,5.252-2.742h-4.227v-4.558h13.218v4.558l.819.539Zm-3.561-3.459H1362.8v1.28h7.813Zm-2.688,2.921a13.688,13.688,0,0,0,2.1,1.614,22.179,22.179,0,0,0,1.587-1.614Z" transform="translate(-1144.235 -199.695)" fill="#004097"/><path d="M1460.869,203.392l-1.512-2.742c1-.357,3.278-1.128,4.329-2.688h-3.945v-2.715h4.764a11.969,11.969,0,0,0,.051-1.947h3.177a15.364,15.364,0,0,1-.155,1.947h5.585v2.715h-4.2a9.672,9.672,0,0,0,4.689,2.715l-1.229,2.715h1.128v2.766h-1.075v9.22c0,.768-.027,2.152-2.153,2.152h-3.638l-.461-3.1h-5.737v-7.145h7.583v7.145h.641c.795,0,.795-.384.795-.973v-7.3h-10.322v8.324h-7.02v1.691h-2.331V196.706h2.331V211.46h1.2V193.3h2.355v18.16h1.152V196.706h2.3v6.686h1.691Zm11.117,0a11.46,11.46,0,0,1-5.559-4.611,10.492,10.492,0,0,1-5.276,4.611h10.834Zm-9.018,6.276v2.28h2.638v-2.28Z" transform="translate(-1213.416 -197.253)" fill="#004097"/></g></svg>