<svg xmlns="http://www.w3.org/2000/svg" width="718.632" height="267.796" viewBox="0 0 718.632 267.796"><g transform="translate(-1327.357 631.261)"><g transform="translate(1327.357 -633.01)"><path d="M1414.052,257.716h-8.166v-2.543h-42.151v2.543h-8.165V196.56h58.482Zm-33.185-54.328h-17.132v44.965h42.151V203.388h-17.264v3.01h13.586v4.619h-13.586v2.543h16.192v4.821H1364.8v-4.821h16.06v-2.543h-13.182V206.4h13.182v-3.01Zm23.285,30.648a31.36,31.36,0,0,1-5.553,5.623,44.384,44.384,0,0,0,6.222,2.208l-3.679,5.622c-2.278-.739-7.357-2.473-13.781-8.1v7.894h-7.093v-8.36a50.053,50.053,0,0,1-12.38,7.092l-3.079-6.221a40.244,40.244,0,0,0,13.718-7.162h-11.042V220.728h34.529v11.907l2.139,1.407Zm-9.3-9.036h-20.407v3.344h20.407Zm-7.023,7.629a35.8,35.8,0,0,0,5.49,4.215,57.815,57.815,0,0,0,4.145-4.215Z" transform="translate(-914.95 -169.444)" fill="#004097"/><path d="M1478.667,219.663l-3.951-7.162c2.613-.934,8.563-2.947,11.308-7.023h-10.3v-7.092h12.443a31.159,31.159,0,0,0,.132-5.086h8.3a40.011,40.011,0,0,1-.4,5.086h14.59v7.092h-10.974c3.881,4.682,10.234,6.493,12.248,7.092l-3.212,7.092h2.947v7.225h-2.808v24.085c0,2.006-.07,5.622-5.622,5.622h-9.5l-1.2-8.1h-14.987V229.835h19.808V248.5h1.673c2.076,0,2.076-1,2.076-2.543V226.888h-26.964v21.744h-18.337v4.417h-6.089V202.2h6.089v38.541h3.143V193.3h6.151v47.438h3.01V202.2h6.019v17.466h4.417Zm29.039,0a29.937,29.937,0,0,1-14.52-12.046c-2.543,4.682-6.828,9.036-13.781,12.046h28.3Zm-23.557,16.393v5.957h6.891v-5.957Z" transform="translate(-943.701 -166.184)" fill="#004097"/><path d="M1567.875,203.352v4.589c-4.477,3.628-7.214,8.142-7.214,13.659,0,5.055,3.2,7.676,8.063,7.676,3.124,0,5.171-.928,6.365-2.276a10.57,10.57,0,0,0,2.159-6.827c0-7.83-3.819-15.469-4.938-17.553l5.283-1.66a15.363,15.363,0,0,0,4.052,6.827c2.738,2.663,4.939,4.244,6.944,5.013l-1.735,5.479a15.308,15.308,0,0,1-5.979-4.589,21.037,21.037,0,0,1,1.082,7.06c0,4.706-1.156,8.063-3.279,10.222-2.238,2.276-5.978,3.316-9.49,3.316s-6.944-.578-9.528-2.779c-2.9-2.467-3.819-6.52-3.819-9.49,0-5.284,2.047-9.723,5.517-13.85l-6.02.154v-4.976h12.54Z" transform="translate(-977.664 -145.156)" fill="#004097"/><path d="M1663.7,203.47v4.052c-.886.77-6.673,5.825-7.947,6.906a14.107,14.107,0,0,1,3.666-.462c7.293,0,10.842,4.668,10.842,10.147a10.426,10.426,0,0,1-4.705,9.028c-2.933,1.889-6.286,2.854-13,2.854a60.025,60.025,0,0,1-7.485-.424l-.695-4.976a45.873,45.873,0,0,0,8.026.616c2.738,0,12.578,0,12.578-7.023,0-5.671-5.9-5.671-6.982-5.671a14.872,14.872,0,0,0-9.915,3.432c-1.119.965-5.708,5.4-6.674,6.287l-3.124-4.206c3.124-2.546,17.166-15.2,17.9-15.893l-15.007.191V203.47h22.53Z" transform="translate(-1025.657 -145.847)" fill="#004097"/><path d="M1756.58,209.969c-.192,1.814-.462,4.323-1.235,9.257a40.773,40.773,0,0,1,4.668,2.122l-1.735,5.363c-1.352-.811-2.392-1.427-4.127-2.313-1.194,3.819-3.4,9.066-10.88,11.961l-3.05-4.011c6.366-2.122,7.793-5.633,9.028-9.877a37.892,37.892,0,0,0-7.177-1.735c-2.392,9.84-6.058,13.118-10.376,13.118-4.747,0-6.636-3.936-6.636-7.177,0-5.6,5.13-10.418,12.922-10.726.424-2.467.657-4.631.887-7.56l-11.422.037V203.57h17.13c-.116.928-.424,3.857-.694,6.286-.154,1.39-.579,4.589-.886,6.249a39.9,39.9,0,0,1,7.33,1.465,81.054,81.054,0,0,0,.849-8.063l5.4.462Zm-26.927,16.667c0,1.66.849,2.467,2.043,2.467,3.317,0,4.822-6.366,5.4-8.758-6.869.541-7.447,5.209-7.447,6.287Z" transform="translate(-1075.694 -145.948)" fill="#004097"/><path d="M1826.794,201.68c-.153,1.851-.234,3.05-.424,4.435h19.6v4.668h-20.138a40.724,40.724,0,0,1-1.156,6.174,17.307,17.307,0,0,1,9.182-2.509c10.148,0,11,7.522,11,9.723,0,9.994-10.726,10.726-16.975,10.726-3.241,0-6.249-.233-7.676-.345l-.886-4.859a66.639,66.639,0,0,0,8.3.578c5.978,0,11.844-.928,11.844-6.212,0-3.9-3.511-5.055-6.058-5.055a14.339,14.339,0,0,0-9.915,3.9c-.154.616-.191.811-.345,1.39l-5.285-1.236a55.827,55.827,0,0,0,2.663-12.269h-7.331v-4.668h7.83c.154-2.2.191-2.7.308-4.589l5.479.154Z" transform="translate(-1127.34 -145.764)" fill="#004097"/><path d="M285.785,23.247a28.282,28.282,0,0,1-7.445,8.069l-2.691-3.248a24.16,24.16,0,0,0,6.69-6.82l3.442,2ZM306.871,7.274h-30.96V3.4h13.151V.88h4.264V3.406h13.544V7.274Zm-3.18,2.1V20.527h-10.3V28.76c0,1.771-.755,3.18-2.885,3.18h-5.576l-.818-4.2h4.163c.624,0,1.017-.034,1.017-.852V20.531H279.1V9.379h24.6Zm-20.5,3.543V16.95h16.4V12.918Zm20.955,18.234a25.46,25.46,0,0,1-8.1-7.9l3.543-2.1a23.023,23.023,0,0,0,7.377,6.525l-2.822,3.476Z" transform="translate(-266.877 56.221)" fill="#004097"/><path d="M362.474,18.238a27.741,27.741,0,0,0,6.821-4.2h-6.5V10.5h5.9V7.187h-4.952V3.644H368.7V1.05h3.838V3.64h4.066V5.475a22.81,22.81,0,0,0,1.54-3.248l3.573,1.379V1.8h11.806V5.512a63.04,63.04,0,0,1-3.345,8.132c2.885,3.345,3.838,5.77,3.838,8.854a9.336,9.336,0,0,1-.983,4.492c-1.05,1.771-2.4,1.869-4.066,1.869h-2.295l-.523-3.9h1.607c1.476,0,2.1-.493,2.1-2.721,0-3.838-2.624-6.723-3.838-8.035a57.321,57.321,0,0,0,3.311-8.689H385.66V31.946h-3.935V3.707a47.446,47.446,0,0,1-4.133,6.787H380.9v3.543h-6.3a26.679,26.679,0,0,1-2.2,2.164h6.757V30.63H369.1v1.245h-3.737V21.085c-.493.262-.886.46-1.805.886l-1.084-3.737Zm6.626,1.147v2.459h6.394V19.385Zm0,5.542v2.4h6.394v-2.4Zm3.311-17.808V10.5H373a29.9,29.9,0,0,0,2.59-3.378h-3.181Z" transform="translate(-321.25 56.115)" fill="#004097"/><path d="M459.565,19.491a25.931,25.931,0,0,1-2.033,2.1l-1.51-2.624c-.1,4.066-.852,9.216-2.721,12.725l-3.281-3.248a27.9,27.9,0,0,0,2.033-10.988V3.129h12.135V.7h4.2V3.125H481.11V6.994H456.022v10.4c1.7-1.54,3.868-4.133,6.1-10l3.64,1.181a36.732,36.732,0,0,1-2.295,5.15V31.693h-3.9v-12.2ZM478.423,7.748v3.868h2.852v3.838h-2.852v13.51a2.608,2.608,0,0,1-2.624,2.721h-5.968l-.852-3.969h4.559c.557,0,.852-.131.852-.949V15.455h-9.41V11.617h9.41V7.748h4.033Zm-9.807,8.921a34.325,34.325,0,0,1,3.868,7.052l-3.64,1.835a33.2,33.2,0,0,0-3.607-7.247l3.379-1.641Z" transform="translate(-376.08 56.334)" fill="#004097"/><path d="M567.865,9.293v8.233H556.518v2.2h12.658c-.164,5.8-.392,8.069-1.084,8.984a3.3,3.3,0,0,1-2.623,1.245h-5.15l-.755-3.969h4c1.114,0,1.278,0,1.442-3.016h-8.495v8.626h-3.935V24.115a28.7,28.7,0,0,1-12,6.593l-1.7-3.868a31.742,31.742,0,0,0,10.461-3.868h-9.25a37.059,37.059,0,0,0,2-8.33h10.494v-2.2H540.6V9.3h.329L538.77,6.837a13.1,13.1,0,0,0,5.019-6.3l4.066.493c-.228.721-.3.949-.557,1.607h6.757V5.757a13.911,13.911,0,0,0,3.214-5.18l3.9.493a10.914,10.914,0,0,1-.493,1.573h9.25V6.12H564.09a16.636,16.636,0,0,1,1.114,2L562.12,9.3h5.74Zm-20.925,0c-.46-1.476-.983-2.691-1.181-3.18h-.624a14.123,14.123,0,0,1-3.05,3.18Zm-1.312,8.233a10.891,10.891,0,0,1-.426,2.2h7.377v-2.2Zm10-8.233L552.777,7c.523-.493.654-.624.949-.886h-3.935a16.336,16.336,0,0,1,1.016,2L547.3,9.293h8.33Zm5.673,0c-.329-.755-.852-2.1-1.379-3.18h-1.181a16.326,16.326,0,0,1-2.754,3.18Zm2.59,5.344v-2.2h-7.377v2.2Z" transform="translate(-431.662 56.434)" fill="#004097"/><path d="M639.17,15.032c-1.181,6.331-4.429,13.249-9.313,17.019l-3.117-3.476c2.691-2.033,6.593-5.475,8.364-14.463l4.066.919ZM627.233,7.39h12.953V1.75h4.264V7.39H657.4v4.133H627.233Zm27.547,24.662c-4.1-3.117-7.673-9.347-9.444-16.99l4.163-.983c1.476,6.264,3.281,10.2,8.364,14.43Z" transform="translate(-486.755 55.676)" fill="#004097"/><path d="M733.532,24.235a25.2,25.2,0,0,1-6.331,3.248,15.954,15.954,0,0,0,4.2.329h15.48l-.886,3.838H730.382a15.368,15.368,0,0,1-5.049-.818,6.453,6.453,0,0,1-3.674-2.822,21.873,21.873,0,0,1-4.724,4.4l-1.805-4.231a14.739,14.739,0,0,0,3.606-2.59V17.777h-3.147V13.909h7.149v9.444c.426,1.641,1.084,3.083,4.163,4.066l-2.231-2.952a24.327,24.327,0,0,0,5.542-1.97h-6.5V19.414h4.888V17.381h-4.163V14.5h4.163V13.251h3.771V14.5h5.049V13.251h3.737V14.5h4.361v2.885h-4.361v2.033h5.15V22.5h-5.935a27.191,27.191,0,0,0,5.871,2.2l-1.936,3.05a29.931,29.931,0,0,1-7.411-3.509L739,22.5h-7.938l2.459,1.738Zm-14.661-22.4a28.38,28.38,0,0,1,5.083,5.475L720.87,10.16a30.686,30.686,0,0,0-4.986-5.64l2.986-2.691Zm4.724.493h9.84V8.393h-6V9.607c0,.46,0,.624.624.624h2.164c.818,0,.852-.262,1.016-1.379l3.147.363c-.131,1.215-.426,3.509-2.164,3.509h-5.9c-2.13,0-2.328-1.312-2.328-2.231V6.132h6.036V4.887H723.6V2.327Zm8.79,15.054v2.033h5.049V17.381Zm2.493-15.054h10.165V8.393h-6.626V9.607c0,.426.131.624.788.624h2.986c.721,0,.755-.329.852-1.379l3.345.392c-.165,1.379-.46,3.476-2.265,3.476h-6.462c-2.493,0-2.556-1.674-2.556-1.936V6.128h6.5V4.883h-6.723Z" transform="translate(-542.112 55.626)" fill="#004097"/><path d="M817.316,13.943a49.815,49.815,0,0,1-4.986.262l-.46-1.7a25.6,25.6,0,0,1-6.757,5.15l-2.164-3.606A17.982,17.982,0,0,0,810.3,8.568H803.54V4.928h4.821a17.019,17.019,0,0,0-2.1-3.248L810.129.272a17.934,17.934,0,0,1,2.425,3.9l-1.771.755h6.82a26.8,26.8,0,0,0-1.97-3.606L819.372.01a25.2,25.2,0,0,1,2.295,4.033l-2.2.886h6.3A35.776,35.776,0,0,0,827.7.2l4.163.983a30.644,30.644,0,0,1-1.7,3.737h4.4v3.64h-6.69a19.777,19.777,0,0,0,7.217,5.213l-2.295,3.509a25.432,25.432,0,0,1-9.545-8.723h-8.461a13.74,13.74,0,0,1-1.574,2.4,63.037,63.037,0,0,0,10.4-1.245l1.7,3.05a38.638,38.638,0,0,1-3.9.688v2.459h8.625v3.281h-8.625v2.1h12.4V24.87h-12.4v3.674a2.622,2.622,0,0,1-2.755,2.788h-6.361l-.755-3.8h4.492c1.016,0,1.278-.1,1.278-1.084V24.87H804.288V21.294h13.021v-2.1h-9.216V15.912h9.216v-1.97Z" transform="translate(-597.111 56.766)" fill="#004097"/><path d="M895.27,3.77h29.057v3.9h-24.89V28.5h25.615v3.9H899.437v1.245h-4.163V3.77Zm5.049,20.6a36.146,36.146,0,0,0,9.25-6.5,72.326,72.326,0,0,0-7.8-3.969l2.164-3.248a82.56,82.56,0,0,1,8.3,4.231,31.822,31.822,0,0,0,4.032-6.723l4.133,1.573a44.777,44.777,0,0,1-4.69,7.314,74.505,74.505,0,0,1,7.706,5.9l-2.885,3.573a66.443,66.443,0,0,0-7.575-6.394,52,52,0,0,1-10.035,7.512l-2.59-3.281Z" transform="translate(-654.928 54.411)" fill="#004097"/><path d="M990.074,15.877a25.385,25.385,0,0,0,6.133,6.559,16.382,16.382,0,0,0,6.133-6.656H983.153V11.845h10.954V8.137h-13.38V4.1h13.38V.79h4.163V4.1h13.48V8.134H998.27v3.707h9.085v4c-1.641,4.066-4.985,7.082-7.183,8.79a44.082,44.082,0,0,0,11.642,2.624l-1.607,4.459c-7.9-1.181-12.333-3.378-14.2-4.459a43.4,43.4,0,0,1-13.544,4.593l-1.772-4.4a38.484,38.484,0,0,0,11.477-2.919,30.393,30.393,0,0,1-5.609-6.593l3.509-2.067Z" transform="translate(-708.424 56.277)" fill="#004097"/><path d="M1068.852,3.644h6.133V1.05h3.935V3.64h6.167V7.246h-1.805c-.2,1.345-.721,3.935-1.181,5.61h3.9v3.606H1068.03V12.856h3.707a27.617,27.617,0,0,0-.818-5.61h-2.067Zm15.742,14.628v11.9h-11.477v1.674h-3.838V18.271Zm-11.477,3.509v4.888h7.672V21.781Zm1.443-14.53a49.327,49.327,0,0,1,.886,5.61h2.986c.591-2.13,1.051-5.213,1.114-5.61h-4.985Zm12.068,24.662V1.839h12.1V5.381a63.164,63.164,0,0,1-3.311,8.035,14.161,14.161,0,0,1,3.9,9.642,6.318,6.318,0,0,1-2.033,4.952,4.584,4.584,0,0,1-3.083.818h-2.426l-.624-3.969h1.9c1.379,0,2.033-.624,2.033-2.691,0-3.509-1.738-5.968-3.872-8.069a59.528,59.528,0,0,0,3.181-8.592h-3.771v26.4h-4Z" transform="translate(-763.123 56.115)" fill="#004097"/><path d="M1157.08,29.33c.557-.034,3.281-.228,3.868-.262V21.2h-3.868V17.722h3.868V3.42h24.3V6.9h-20.005V8.6h18.891v2.822h-18.891v1.738h18.891v2.852h-18.891v1.7h22.334v3.476h-3.771l2.265,1.641a29.538,29.538,0,0,1-5.872,4.1,28.74,28.74,0,0,0,8.035,2.362l-1.868,4.2c-6.821-1.869-14.265-5.184-17.678-12.3h-3.442v7.542c3.247-.262,4.1-.329,8.427-.983v3.64a147.256,147.256,0,0,1-15.775,1.771l-.818-3.838Zm15.839-8.132a11.068,11.068,0,0,0,3.674,3.707,31.03,31.03,0,0,0,5.019-3.707h-8.689Z" transform="translate(-818.893 54.63)" fill="#004097"/><path d="M120.038,271.54v21.945c-28.533,19.582-35.116,23.974-49.973,31.063,30.557-4.726,63.144-6.077,78.334-6.244l.339,26.676c-4.726-.167-11.309-.339-18.742-.339-17.558,0-24.986.506-36.3,7.428-9.791,5.91-18.737,15.2-18.737,25.664,0,8.273,4.053,14.35,28.533,15.023,13.677.506,20.427.339,27.521,0l-4.053,27.182c-32.92.506-81.375-2.53-81.375-35.283,0-3.547,0-20.766,22.79-36.3-11.142,1.69-49.128,8.273-66.858,13L0,333.5a102.955,102.955,0,0,0,17.391-3.375c9.791-2.7,36.3-18.57,58.919-34.777L20.594,297.71V271.54h99.439Z" transform="translate(0 -151.411)" fill="#004097"/><path d="M410.131,396.506c18.231-1.351,55.883-4.392,55.883-49.806,0-28.194-16.374-40.181-35.622-41.7-.845,14.689-7.261,102.986-52.508,102.986-22.79,0-36.973-23.129-36.973-49.634,0-37.312,26.17-78.673,81.881-78.673,38.831,0,71.417,21.272,71.417,69.388,0,19.248-5.571,39.169-22.962,54.7C454.7,418.284,429.04,420.986,420.089,422l-9.963-25.492Zm-42.545-38.492c0,6.416,1.857,21.611,11.481,21.611,12.832,0,22.456-33.092,25.659-73.441C367.586,316.988,367.586,353.794,367.586,358.014Z" transform="translate(-178.165 -155.665)" fill="#004097"/><path d="M774.349,265.875c.845,7.089,1.518,12.326,5.571,26.17,33.092-2.024,36.974-3.208,44.908-5.91l6.416,26c-19.582,4.392-28.361,4.559-41.7,5.065,10.636,23.129,19.248,32.582,23.974,37.647l-26,11.987c-14.517-20.6-23.974-43.222-26.17-48.794H689.26V292.713H752.4c-3.041-10.13-4.559-17.9-5.91-24.313l27.856-2.53Zm-22.456,86.273c-8.779,2.53-29.04,8.779-29.04,22.623s17.558,14.183,43.729,14.183c23.807,0,36.467-1.351,46.259-2.53l-.506,26.337c-11.648,1.012-24.313,1.351-39.675,1.351-34.439,0-46.765-2.869-58.413-9.285-8.946-4.9-17.9-14.522-17.9-29.378,0-29.378,34.439-40.52,43.9-43.557l11.648,20.26Z" transform="translate(-359.21 -148.792)" fill="#004097"/><path d="M1098.736,264.82c.506,7.934.845,13,1.518,18.4,16.374-1.351,23.635-1.857,39.675-5.571l3.041,23.129c-15.2,3.208-17.725,3.375-39.336,5.065a98.519,98.519,0,0,0,3.375,14.689c24.986-1.351,37.818-4.392,45.585-6.244l3.881,22.623a257.252,257.252,0,0,1-40.687,5.571c5.571,10.469,9.624,15.028,13.677,19.415l-23.974,14.517c-4.726-5.232-11.987-13.338-19.754-32.92a18.644,18.644,0,0,1-3.375.167H1011.79V321.381h67.531c-.678-3.375-.845-4.559-2.363-14.35h-59.09V284.24h55.882c-1.857-11.648-2.024-13-2.53-17.558l27.521-1.857Zm-35.455,95.9c-3.714,3.208-10.8,9.118-10.8,16.546,0,11.481,18.231,12.326,40.854,12.326,24.648,0,38.324-1.351,44.908-2.2l1.012,26c-5.91.506-15.2,1.184-34.272,1.184-32.247,0-43.051-1.351-50.479-3.208-26.5-6.755-29.545-24.141-29.545-29.884,0-15.868,12.326-26.843,17.9-31.908l20.427,11.142Z" transform="translate(-527.769 -148.243)" fill="#004097"/><path d="M1416.643,347.1A151.535,151.535,0,0,1,1425.7,383.9l-12.418,1.938c-.312-3.13-.39-4.62-.7-6.483-5.467,1.193-21.321,3.725-30.618,4.62l-1.329-7.228a13.958,13.958,0,0,1-1.874,5.215c-1.093,1.788-4.529,3.875-8.2,3.875h-14.216l-2.11-11.026h12.5c1.25,0,2.967,0,3.515-2.458.39-1.713.7-7.451.938-11.474h-20.54c1.25-8.271,1.8-14.9,2.5-26.375H1370.8V327.8H1350.57V317.148h31.084v27.2h-18.043c0,.595-.312,3.875-.623,5.96h18.978c0,3.8,0,14.977-.781,22.055.624-.075,3.2-.3,3.672-.3,3.436-13.411,7.186-40.384,8.28-57.371h12.73c-1.4,12.071-5.468,40.9-9.372,56.4,4.607-.447,9.763-.9,14.449-1.713a130.221,130.221,0,0,0-5.389-19.594l11.092-2.683Z" transform="translate(-707.331 -193.889)" fill="#004097"/><path d="M1632.364,341.625h17.731V363.83c1.4,6.091,7.889,8.615,14.607,8.615h42.567l-2.576,10.547H1664.7c-11.716,0-15.933-5.5-17.73-7.8a57.191,57.191,0,0,1-11.559,9.505l-4.062-12.1a34.961,34.961,0,0,0,7.5-4.606V352.022h-6.482v-10.4Zm19.447-13.665-7.029,6.684a64.629,64.629,0,0,0-12.106-12.179l7.81-7.948a72.125,72.125,0,0,1,11.325,9.951V320.83h9.215c-1.329-2.45-1.483-2.749-2.812-4.977l11.247-2.3a58.739,58.739,0,0,1,3.748,7.277h10.623a49.428,49.428,0,0,0,2.967-6.981l12.106,1.707c-.624,1.189-2.186,3.935-3.124,5.274h10.232v9.209h-22.729a24.608,24.608,0,0,1-1.4,2.9h20.074v36.316h-46V332.932h14.216a15.853,15.853,0,0,0,1.014-2.9h-19.369v-2.078Zm15.778,12.329v3.564H1690.4v-3.564Zm0,8.763v3.564H1690.4v-3.564Zm0,8.762V361.6H1690.4v-3.788Z" transform="translate(-988.636 -115.154)" fill="#004097"/></g><g transform="translate(1336.392 -631.261)"><rect width="135.77" height="46.665" fill="#e60012"/><path d="M18.86,29.749A33.475,33.475,0,0,1,7.516,37.861L4.58,32.5c3.148-1.183,7.711-3.57,10.161-6.042L18.86,29.77ZM14.3,23.961a34.813,34.813,0,0,0,8.788-6.506h-8.26l3.232,2.134A32.892,32.892,0,0,1,7.706,26.9L4.812,21.869a32.077,32.077,0,0,0,8.45-4.415H5.129V12.427H7.368V4.779H19.3a22.122,22.122,0,0,0,.845-2.429l6.316.232a13.167,13.167,0,0,1-1.035,2.2H38.866v7.647H41.1v5.028H29.317l.57.338a56.77,56.77,0,0,1-3.95,4.225v1.8l3.38-2.662a26.26,26.26,0,0,0,1.415,2.556,43.612,43.612,0,0,0,5.556-5.6l4.647,3.422A45.438,45.438,0,0,1,33.9,27.7a26.136,26.136,0,0,0,7.753,5.239l-3.422,5.049a27.575,27.575,0,0,1-12.295-12.4V38.706H20.276V26.5c-.866.613-1.331.866-2.176,1.373l-3.8-3.908ZM12.882,9.469v2.957h3.274V9.469Zm8.492,0v2.957h3.38V9.469Zm8.64,0v2.957h3.422V9.469Z" transform="translate(5.095 2.614)" fill="#fff"/><path d="M23.67,8.991h12.1v4.331H23.67V8.991Zm.951-5.661H35.014V7.554H24.621V3.329Zm0,11.344H35.014v4.183H24.621V14.674Zm0,5.7H35.014v4.288H24.621Zm0,5.894H35.014V37.15H29.226v1.415H24.621V26.271Zm4.605,3.95v2.852h1.817V30.221ZM44.71,33.728a29.541,29.541,0,0,0,4.373-1.9c-.57-3.126-.76-4.711-.887-5.45H44.584v1.436c1.246-.148,1.8-.19,2.619-.3v3.655c-.908.19-1.563.338-2.619.486v3.993c0,2.746-1.9,2.894-3.507,2.894H36.81l-.718-4.373h2.767c.232,0,.951-.148.951-.8v-1.1c-2.091.232-2.662.275-3.528.3L35.859,28.3c1.289-.085,1.563-.085,3.95-.19V26.356H35.922V22.7h3.887V21.412c-.423,0-2.472.085-2.936.106l-.655-2.81a80.71,80.71,0,0,0,9.739-.718l.951,2.894c-1.415.148-1.753.19-2.366.232v1.605h3.38c-.106-2.746-.106-4.077-.106-5.218h-12.1V14h9.084V12.667H37.38V9.815h7.415V8.526H36.2V5.062h3.95c-.106-.275-.718-1.605-.908-1.9l5.408-.76a16.984,16.984,0,0,1,1.141,2.662h3.507A13.649,13.649,0,0,0,50.161,2.4l5.978.613c-.423.993-.57,1.289-.951,2.049h3.76V8.526h-8.64V9.815h7.5v2.852h-7.5V14h9.253V17.5H52.717c0,.951-.042,2.281.085,5.218h6.781v3.655H56.2l2.472,1.817a27.013,27.013,0,0,1-4.077,4.8c.19.38.422.76.845.76.951,0,2.134-1.753,2.936-2.936l1.753,4.457c-.76,1.225-2.852,3.528-5.64,3.528a4.46,4.46,0,0,1-3.908-2.619,18.187,18.187,0,0,1-3.76,1.9l-2.134-4.373Zm8.408-7.351c.084.676.148,1.289.338,2.324a19.788,19.788,0,0,0,1.9-2.324Zm3.887-8.83a24.677,24.677,0,0,1,2.239,3.38l-3.57,1.711a14.82,14.82,0,0,0-2.007-3.57l3.338-1.521Z" transform="translate(26.333 2.67)" fill="#fff"/><path d="M55.266,24.737c.042,1.986-.232,6.591-4.415,6.591h-1.8l-1.035-5.45h.951c1.225,0,1.225-2.007,1.225-2.7A12.482,12.482,0,0,0,48,16.857,40.78,40.78,0,0,0,50.175,8.6H47.809V38.574H42.76V3.274H54.632V8.513a72.225,72.225,0,0,1-2.281,8.027A13.928,13.928,0,0,1,54.928,22.1V19.709H78.017v5.028H71.469v7.33c0,.338,0,.993.718.993h.951c.57,0,.655-.676.676-1.035.148-2.176.148-2.894.19-3.464l4.415.993c-.19,6.971-.8,8.7-3.887,8.7H69.356c-2.81,0-3.126-1.225-3.126-3.7V24.716h-2.2c-.613,7.837-3.57,11.555-9.739,13.964l-2.767-4.9c4.9-1.331,6.95-4.478,7.373-9.063H55.245ZM74.6,14.238v3.084H57.59V14.238H55.118V5.217h8.218V2.45H68.7V5.217h8.6v9.02H74.6Zm-2.577-3.95H59.956v2.239H72.018Z" transform="translate(47.57 2.726)" fill="#fff"/></g></g></svg>