<svg xmlns="http://www.w3.org/2000/svg" width="718.632" height="258.093" viewBox="0 0 718.632 258.093"><g transform="translate(-1327.357 621.558)"><g transform="translate(1327.357 -633.01)"><path d="M1414.052,257.716h-8.166v-2.543h-42.151v2.543h-8.165V196.56h58.482Zm-33.185-54.328h-17.132v44.965h42.151V203.388h-17.264v3.01h13.586v4.619h-13.586v2.543h16.192v4.821H1364.8v-4.821h16.06v-2.543h-13.182V206.4h13.182v-3.01Zm23.285,30.648a31.36,31.36,0,0,1-5.553,5.623,44.384,44.384,0,0,0,6.222,2.208l-3.679,5.622c-2.278-.739-7.357-2.473-13.781-8.1v7.894h-7.093v-8.36a50.053,50.053,0,0,1-12.38,7.092l-3.079-6.221a40.244,40.244,0,0,0,13.718-7.162h-11.042V220.728h34.529v11.907l2.139,1.407Zm-9.3-9.036h-20.407v3.344h20.407Zm-7.023,7.629a35.8,35.8,0,0,0,5.49,4.215,57.815,57.815,0,0,0,4.145-4.215Z" transform="translate(-914.95 -169.444)" fill="#004097"/><path d="M1478.667,219.663l-3.951-7.162c2.613-.934,8.563-2.947,11.308-7.023h-10.3v-7.092h12.443a31.159,31.159,0,0,0,.132-5.086h8.3a40.011,40.011,0,0,1-.4,5.086h14.59v7.092h-10.974c3.881,4.682,10.234,6.493,12.248,7.092l-3.212,7.092h2.947v7.225h-2.808v24.085c0,2.006-.07,5.622-5.622,5.622h-9.5l-1.2-8.1h-14.987V229.835h19.808V248.5h1.673c2.076,0,2.076-1,2.076-2.543V226.888h-26.964v21.744h-18.337v4.417h-6.089V202.2h6.089v38.541h3.143V193.3h6.151v47.438h3.01V202.2h6.019v17.466h4.417Zm29.039,0a29.937,29.937,0,0,1-14.52-12.046c-2.543,4.682-6.828,9.036-13.781,12.046h28.3Zm-23.557,16.393v5.957h6.891v-5.957Z" transform="translate(-943.701 -166.184)" fill="#004097"/><path d="M1567.875,203.352v4.589c-4.477,3.628-7.214,8.142-7.214,13.659,0,5.055,3.2,7.676,8.063,7.676,3.124,0,5.171-.928,6.365-2.276a10.57,10.57,0,0,0,2.159-6.827c0-7.83-3.819-15.469-4.938-17.553l5.283-1.66a15.363,15.363,0,0,0,4.052,6.827c2.738,2.663,4.939,4.244,6.944,5.013l-1.735,5.479a15.308,15.308,0,0,1-5.979-4.589,21.037,21.037,0,0,1,1.082,7.06c0,4.706-1.156,8.063-3.279,10.222-2.238,2.276-5.978,3.316-9.49,3.316s-6.944-.578-9.528-2.779c-2.9-2.467-3.819-6.52-3.819-9.49,0-5.284,2.047-9.723,5.517-13.85l-6.02.154v-4.976h12.54Z" transform="translate(-977.664 -145.156)" fill="#004097"/><path d="M1663.7,203.47v4.052c-.886.77-6.673,5.825-7.947,6.906a14.107,14.107,0,0,1,3.666-.462c7.293,0,10.842,4.668,10.842,10.147a10.426,10.426,0,0,1-4.705,9.028c-2.933,1.889-6.286,2.854-13,2.854a60.025,60.025,0,0,1-7.485-.424l-.695-4.976a45.873,45.873,0,0,0,8.026.616c2.738,0,12.578,0,12.578-7.023,0-5.671-5.9-5.671-6.982-5.671a14.872,14.872,0,0,0-9.915,3.432c-1.119.965-5.708,5.4-6.674,6.287l-3.124-4.206c3.124-2.546,17.166-15.2,17.9-15.893l-15.007.191V203.47h22.53Z" transform="translate(-1025.657 -145.847)" fill="#004097"/><path d="M1756.58,209.969c-.192,1.814-.462,4.323-1.235,9.257a40.773,40.773,0,0,1,4.668,2.122l-1.735,5.363c-1.352-.811-2.392-1.427-4.127-2.313-1.194,3.819-3.4,9.066-10.88,11.961l-3.05-4.011c6.366-2.122,7.793-5.633,9.028-9.877a37.892,37.892,0,0,0-7.177-1.735c-2.392,9.84-6.058,13.118-10.376,13.118-4.747,0-6.636-3.936-6.636-7.177,0-5.6,5.13-10.418,12.922-10.726.424-2.467.657-4.631.887-7.56l-11.422.037V203.57h17.13c-.116.928-.424,3.857-.694,6.286-.154,1.39-.579,4.589-.886,6.249a39.9,39.9,0,0,1,7.33,1.465,81.054,81.054,0,0,0,.849-8.063l5.4.462Zm-26.927,16.667c0,1.66.849,2.467,2.043,2.467,3.317,0,4.822-6.366,5.4-8.758-6.869.541-7.447,5.209-7.447,6.287Z" transform="translate(-1075.694 -145.948)" fill="#004097"/><path d="M1826.794,201.68c-.153,1.851-.234,3.05-.424,4.435h19.6v4.668h-20.138a40.724,40.724,0,0,1-1.156,6.174,17.307,17.307,0,0,1,9.182-2.509c10.148,0,11,7.522,11,9.723,0,9.994-10.726,10.726-16.975,10.726-3.241,0-6.249-.233-7.676-.345l-.886-4.859a66.639,66.639,0,0,0,8.3.578c5.978,0,11.844-.928,11.844-6.212,0-3.9-3.511-5.055-6.058-5.055a14.339,14.339,0,0,0-9.915,3.9c-.154.616-.191.811-.345,1.39l-5.285-1.236a55.827,55.827,0,0,0,2.663-12.269h-7.331v-4.668h7.83c.154-2.2.191-2.7.308-4.589l5.479.154Z" transform="translate(-1127.34 -145.764)" fill="#004097"/><path d="M284.8,21.074a25.533,25.533,0,0,1-6.721,7.285l-2.429-2.932a21.812,21.812,0,0,0,6.04-6.158l3.108,1.805ZM303.837,6.653H275.886v-3.5H287.76V.88h3.85V3.161h12.228V6.653Zm-2.871,1.9V18.617h-9.3v7.433c0,1.6-.682,2.871-2.6,2.871h-5.034l-.739-3.789h3.759c.564,0,.918-.03.918-.769V18.621h-9.208V8.553h22.208Zm-18.507,3.2v3.641h14.805V11.748ZM301.377,28.21a22.985,22.985,0,0,1-7.312-7.136l3.2-1.9a20.786,20.786,0,0,0,6.66,5.891l-2.547,3.138Z" transform="translate(-266.877 61.227)" fill="#004097"/><path d="M362.473,16.567a25.045,25.045,0,0,0,6.158-3.789h-5.864V9.58H368.1V6.59h-4.471v-3.2H368.1V1.05h3.465V3.388h3.671V5.045a20.592,20.592,0,0,0,1.39-2.932l3.226,1.245V1.732h10.659V5.079a56.916,56.916,0,0,1-3.02,7.342c2.6,3.02,3.465,5.21,3.465,7.993a8.429,8.429,0,0,1-.887,4.056c-.948,1.6-2.163,1.687-3.671,1.687h-2.072l-.472-3.523H385.3c1.333,0,1.9-.445,1.9-2.456,0-3.465-2.369-6.07-3.465-7.254a51.754,51.754,0,0,0,2.989-7.845h-3.317V28.943h-3.553V3.449a42.837,42.837,0,0,1-3.732,6.127h2.989v3.2h-5.685a24.09,24.09,0,0,1-1.984,1.954h6.1V27.756h-9.09v1.124h-3.374V19.138c-.445.236-.8.415-1.63.8l-.978-3.374Zm5.982,1.036v2.22h5.773V17.6Zm0,5V24.77h5.773V22.607Zm2.989-16.077V9.58h.533a27,27,0,0,0,2.338-3.05h-2.871Z" transform="translate(-324.403 61.115)" fill="#004097"/><path d="M458.637,17.665a23.409,23.409,0,0,1-1.836,1.9l-1.363-2.369c-.088,3.671-.769,8.32-2.456,11.489l-2.962-2.932a25.184,25.184,0,0,0,1.835-9.92V2.893h10.956V.7H466.6V2.89h11.489V6.382h-22.65v9.387c1.539-1.39,3.492-3.732,5.507-9.029l3.286,1.066a33.162,33.162,0,0,1-2.072,4.649V28.681h-3.523V17.668Zm17.026-10.6v3.492h2.574v3.465h-2.574v12.2a2.355,2.355,0,0,1-2.369,2.456h-5.388l-.769-3.583h4.116c.5,0,.769-.118.769-.857V14.021h-8.5V10.556h8.5V7.063h3.641Zm-8.854,8.054a30.991,30.991,0,0,1,3.492,6.367l-3.286,1.657a29.976,29.976,0,0,0-3.256-6.542l3.05-1.481Z" transform="translate(-382.413 61.347)" fill="#004097"/><path d="M565.037,8.442v7.433H554.793v1.984h11.428c-.148,5.24-.354,7.285-.979,8.111a2.981,2.981,0,0,1-2.369,1.124h-4.65l-.682-3.583h3.614c1.005,0,1.154,0,1.3-2.723H554.79v7.787h-3.553V21.824A25.914,25.914,0,0,1,540.4,27.776l-1.539-3.492a28.657,28.657,0,0,0,9.444-3.492h-8.351a33.456,33.456,0,0,0,1.805-7.521h9.474V11.286H540.427V8.445h.3l-1.954-2.22A11.824,11.824,0,0,0,543.3.54l3.671.445c-.206.651-.266.857-.5,1.451h6.1V5.25a12.558,12.558,0,0,0,2.9-4.676l3.523.445a9.846,9.846,0,0,1-.445,1.42H566.9V5.577h-5.27a15.015,15.015,0,0,1,1.006,1.805l-2.784,1.066h5.182Zm-18.892,0c-.415-1.333-.887-2.429-1.066-2.871h-.563a12.75,12.75,0,0,1-2.753,2.871Zm-1.184,7.433a9.832,9.832,0,0,1-.385,1.984h6.66V15.875Zm9.029-7.433L551.416,6.37c.472-.445.59-.563.857-.8H548.72a14.756,14.756,0,0,1,.918,1.805l-3.168,1.066h7.521Zm5.122,0c-.3-.682-.769-1.9-1.245-2.871H556.8a14.74,14.74,0,0,1-2.487,2.871Zm2.338,4.825V11.283h-6.66v1.984Z" transform="translate(-441.218 61.453)" fill="#004097"/><path d="M637.962,13.741c-1.066,5.716-4,11.961-8.408,15.366l-2.814-3.138c2.429-1.835,5.952-4.943,7.551-13.058l3.671.83Zm-10.777-6.9H638.88V1.75h3.85V6.841h11.695v3.732H627.185Zm24.87,22.266c-3.7-2.814-6.927-8.439-8.526-15.339l3.759-.887c1.333,5.655,2.962,9.208,7.551,13.027Z" transform="translate(-499.507 60.651)" fill="#004097"/><path d="M731.744,22.058a22.749,22.749,0,0,1-5.716,2.932,14.4,14.4,0,0,0,3.789.3h13.976l-.8,3.465H728.9a13.874,13.874,0,0,1-4.558-.739,5.826,5.826,0,0,1-3.317-2.547,19.748,19.748,0,0,1-4.265,3.968l-1.63-3.819a13.306,13.306,0,0,0,3.256-2.338V16.227h-2.841V12.735H722v8.526c.385,1.481.979,2.784,3.759,3.671l-2.014-2.666a21.963,21.963,0,0,0,5-1.778h-5.864V17.7H727.3V15.87h-3.759v-2.6H727.3V12.141h3.4v1.124h4.558V12.141h3.374v1.124h3.938v2.6h-3.937V17.7h4.65v2.784h-5.358a24.548,24.548,0,0,0,5.3,1.984l-1.748,2.753a27.022,27.022,0,0,1-6.691-3.168l1.9-1.569h-7.167l2.22,1.569ZM718.507,1.833A25.622,25.622,0,0,1,723.1,6.776l-2.783,2.574a27.7,27.7,0,0,0-4.5-5.091l2.7-2.429Zm4.265.445h8.884V7.755h-5.419v1.1c0,.415,0,.563.563.563h1.954c.739,0,.769-.236.918-1.245l2.841.327c-.118,1.1-.385,3.168-1.953,3.168h-5.328c-1.923,0-2.1-1.184-2.1-2.014V5.714h5.449V4.59h-5.8V2.279Zm7.936,13.591V17.7h4.558V15.87Zm2.25-13.591h9.177V7.755h-5.982v1.1c0,.385.118.563.712.563h2.7c.651,0,.682-.3.769-1.245l3.02.354c-.149,1.245-.415,3.138-2.045,3.138h-5.834c-2.25,0-2.308-1.512-2.308-1.748V5.71h5.864V4.587h-6.07Z" transform="translate(-558.073 60.598)" fill="#004097"/><path d="M815.92,12.589a44.974,44.974,0,0,1-4.5.236L811,11.286a23.117,23.117,0,0,1-6.1,4.649L802.95,12.68a16.235,16.235,0,0,0,6.633-4.943h-6.1V4.45h4.353a15.366,15.366,0,0,0-1.9-2.932L809.432.246a16.19,16.19,0,0,1,2.19,3.523l-1.6.682h6.158A24.189,24.189,0,0,0,814.4,1.194L817.776.01a22.752,22.752,0,0,1,2.072,3.641l-1.984.8h5.685A32.3,32.3,0,0,0,825.3.185l3.759.887a27.666,27.666,0,0,1-1.539,3.374h3.968V7.733h-6.04a17.855,17.855,0,0,0,6.515,4.707l-2.072,3.168a22.96,22.96,0,0,1-8.617-7.875h-7.639A12.407,12.407,0,0,1,812.212,9.9,56.911,56.911,0,0,0,821.6,8.772l1.539,2.753a34.883,34.883,0,0,1-3.522.621v2.22H827.4v2.962h-7.787v1.9h11.192v3.229H819.615v3.317a2.367,2.367,0,0,1-2.487,2.517h-5.743l-.682-3.435h4.056c.918,0,1.154-.088,1.154-.978v-1.42H804.158V19.225h11.755v-1.9h-8.32V14.367h8.32V12.589Z" transform="translate(-616.262 61.804)" fill="#004097"/><path d="M895.27,3.77H921.5V7.293H899.032v18.8h23.126v3.523H899.032v1.124h-3.759V3.77Zm4.559,18.595a32.633,32.633,0,0,0,8.351-5.864,65.3,65.3,0,0,0-7.045-3.583l1.953-2.932a74.54,74.54,0,0,1,7.491,3.819,28.731,28.731,0,0,0,3.641-6.07l3.732,1.42a40.423,40.423,0,0,1-4.234,6.6,67.266,67.266,0,0,1,6.957,5.331l-2.6,3.226a59.983,59.983,0,0,0-6.839-5.773,46.944,46.944,0,0,1-9.059,6.782l-2.338-2.962Z" transform="translate(-677.432 59.313)" fill="#004097"/><path d="M989.162,14.411a22.917,22.917,0,0,0,5.537,5.921,14.79,14.79,0,0,0,5.537-6.009H982.913V10.771h9.89V7.423H980.724V3.783H992.8V.79h3.759V3.779h12.17V7.42h-12.17v3.347h8.2v3.614a20.3,20.3,0,0,1-6.485,7.936,39.8,39.8,0,0,0,10.51,2.369l-1.451,4.025c-7.136-1.066-11.134-3.05-12.822-4.025a39.182,39.182,0,0,1-12.227,4.147l-1.6-3.968a34.743,34.743,0,0,0,10.362-2.635,27.44,27.44,0,0,1-5.064-5.952l3.168-1.866Z" transform="translate(-734.031 61.287)" fill="#004097"/><path d="M1068.772,3.392h5.537V1.05h3.553V3.388h5.567V6.644h-1.63c-.179,1.215-.651,3.553-1.066,5.064h3.522v3.256H1068.03V11.709h3.347a24.928,24.928,0,0,0-.739-5.064h-1.866ZM1082.984,16.6V27.344h-10.362v1.512h-3.465V16.6Zm-10.362,3.168v4.413h6.927V19.766Zm1.3-13.118a44.535,44.535,0,0,1,.8,5.064h2.7c.533-1.923.949-4.707,1.006-5.064h-4.5Zm10.895,22.266V1.762h10.926v3.2a57.019,57.019,0,0,1-2.989,7.254,12.785,12.785,0,0,1,3.522,8.705,5.7,5.7,0,0,1-1.835,4.471,4.139,4.139,0,0,1-2.784.739h-2.19l-.564-3.583h1.718c1.245,0,1.835-.563,1.835-2.429,0-3.168-1.569-5.388-3.5-7.285a53.75,53.75,0,0,0,2.872-7.757h-3.4V28.91h-3.613Z" transform="translate(-791.902 61.115)" fill="#004097"/><path d="M1157.08,26.812c.5-.03,2.962-.206,3.492-.236V19.47h-3.492V16.333h3.492V3.42h21.942V6.558h-18.061V8.1h17.056v2.547h-17.056v1.569h17.056v2.574h-17.056v1.539h20.163v3.138h-3.4l2.045,1.481a26.666,26.666,0,0,1-5.3,3.7,25.945,25.945,0,0,0,7.254,2.132l-1.687,3.789c-6.158-1.687-12.879-4.68-15.96-11.1h-3.107v6.809c2.932-.236,3.7-.3,7.608-.887v3.286a132.943,132.943,0,0,1-14.242,1.6l-.739-3.465Zm14.3-7.342a9.993,9.993,0,0,0,3.317,3.347,28.013,28.013,0,0,0,4.531-3.347h-7.845Z" transform="translate(-850.905 59.544)" fill="#004097"/><path d="M120.038,271.54v21.945c-28.533,19.582-35.116,23.974-49.973,31.063,30.557-4.726,63.144-6.077,78.334-6.244l.339,26.676c-4.726-.167-11.309-.339-18.742-.339-17.558,0-24.986.506-36.3,7.428-9.791,5.91-18.737,15.2-18.737,25.664,0,8.273,4.053,14.35,28.533,15.023,13.677.506,20.427.339,27.521,0l-4.053,27.182c-32.92.506-81.375-2.53-81.375-35.283,0-3.547,0-20.766,22.79-36.3-11.142,1.69-49.128,8.273-66.858,13L0,333.5a102.955,102.955,0,0,0,17.391-3.375c9.791-2.7,36.3-18.57,58.919-34.777L20.594,297.71V271.54h99.439Z" transform="translate(0 -151.411)" fill="#004097"/><path d="M410.131,396.506c18.231-1.351,55.883-4.392,55.883-49.806,0-28.194-16.374-40.181-35.622-41.7-.845,14.689-7.261,102.986-52.508,102.986-22.79,0-36.973-23.129-36.973-49.634,0-37.312,26.17-78.673,81.881-78.673,38.831,0,71.417,21.272,71.417,69.388,0,19.248-5.571,39.169-22.962,54.7C454.7,418.284,429.04,420.986,420.089,422l-9.963-25.492Zm-42.545-38.492c0,6.416,1.857,21.611,11.481,21.611,12.832,0,22.456-33.092,25.659-73.441C367.586,316.988,367.586,353.794,367.586,358.014Z" transform="translate(-178.165 -155.665)" fill="#004097"/><path d="M774.349,265.875c.845,7.089,1.518,12.326,5.571,26.17,33.092-2.024,36.974-3.208,44.908-5.91l6.416,26c-19.582,4.392-28.361,4.559-41.7,5.065,10.636,23.129,19.248,32.582,23.974,37.647l-26,11.987c-14.517-20.6-23.974-43.222-26.17-48.794H689.26V292.713H752.4c-3.041-10.13-4.559-17.9-5.91-24.313l27.856-2.53Zm-22.456,86.273c-8.779,2.53-29.04,8.779-29.04,22.623s17.558,14.183,43.729,14.183c23.807,0,36.467-1.351,46.259-2.53l-.506,26.337c-11.648,1.012-24.313,1.351-39.675,1.351-34.439,0-46.765-2.869-58.413-9.285-8.946-4.9-17.9-14.522-17.9-29.378,0-29.378,34.439-40.52,43.9-43.557l11.648,20.26Z" transform="translate(-359.21 -148.792)" fill="#004097"/><path d="M1098.736,264.82c.506,7.934.845,13,1.518,18.4,16.374-1.351,23.635-1.857,39.675-5.571l3.041,23.129c-15.2,3.208-17.725,3.375-39.336,5.065a98.519,98.519,0,0,0,3.375,14.689c24.986-1.351,37.818-4.392,45.585-6.244l3.881,22.623a257.252,257.252,0,0,1-40.687,5.571c5.571,10.469,9.624,15.028,13.677,19.415l-23.974,14.517c-4.726-5.232-11.987-13.338-19.754-32.92a18.644,18.644,0,0,1-3.375.167H1011.79V321.381h67.531c-.678-3.375-.845-4.559-2.363-14.35h-59.09V284.24h55.882c-1.857-11.648-2.024-13-2.53-17.558l27.521-1.857Zm-35.455,95.9c-3.714,3.208-10.8,9.118-10.8,16.546,0,11.481,18.231,12.326,40.854,12.326,24.648,0,38.324-1.351,44.908-2.2l1.012,26c-5.91.506-15.2,1.184-34.272,1.184-32.247,0-43.051-1.351-50.479-3.208-26.5-6.755-29.545-24.141-29.545-29.884,0-15.868,12.326-26.843,17.9-31.908l20.427,11.142Z" transform="translate(-527.769 -148.243)" fill="#004097"/><path d="M1416.643,347.1A151.535,151.535,0,0,1,1425.7,383.9l-12.418,1.938c-.312-3.13-.39-4.62-.7-6.483-5.467,1.193-21.321,3.725-30.618,4.62l-1.329-7.228a13.958,13.958,0,0,1-1.874,5.215c-1.093,1.788-4.529,3.875-8.2,3.875h-14.216l-2.11-11.026h12.5c1.25,0,2.967,0,3.515-2.458.39-1.713.7-7.451.938-11.474h-20.54c1.25-8.271,1.8-14.9,2.5-26.375H1370.8V327.8H1350.57V317.148h31.084v27.2h-18.043c0,.595-.312,3.875-.623,5.96h18.978c0,3.8,0,14.977-.781,22.055.624-.075,3.2-.3,3.672-.3,3.436-13.411,7.186-40.384,8.28-57.371h12.73c-1.4,12.071-5.468,40.9-9.372,56.4,4.607-.447,9.763-.9,14.449-1.713a130.221,130.221,0,0,0-5.389-19.594l11.092-2.683Z" transform="translate(-707.331 -193.889)" fill="#004097"/><path d="M1632.364,341.625h17.731V363.83c1.4,6.091,7.889,8.615,14.607,8.615h42.567l-2.576,10.547H1664.7c-11.716,0-15.933-5.5-17.73-7.8a57.191,57.191,0,0,1-11.559,9.505l-4.062-12.1a34.961,34.961,0,0,0,7.5-4.606V352.022h-6.482v-10.4Zm19.447-13.665-7.029,6.684a64.629,64.629,0,0,0-12.106-12.179l7.81-7.948a72.125,72.125,0,0,1,11.325,9.951V320.83h9.215c-1.329-2.45-1.483-2.749-2.812-4.977l11.247-2.3a58.739,58.739,0,0,1,3.748,7.277h10.623a49.428,49.428,0,0,0,2.967-6.981l12.106,1.707c-.624,1.189-2.186,3.935-3.124,5.274h10.232v9.209h-22.729a24.608,24.608,0,0,1-1.4,2.9h20.074v36.316h-46V332.932h14.216a15.853,15.853,0,0,0,1.014-2.9h-19.369v-2.078Zm15.778,12.329v3.564H1690.4v-3.564Zm0,8.763v3.564H1690.4v-3.564Zm0,8.762V361.6H1690.4v-3.788Z" transform="translate(-988.636 -115.154)" fill="#004097"/></g><g transform="translate(1336.392 -621.558)"><rect width="123.931" height="42.596" fill="#e60012"/><path d="M17.615,27.36a30.556,30.556,0,0,1-10.355,7.4l-2.68-4.9c2.873-1.08,7.038-3.259,9.275-5.515l3.76,3.027ZM13.45,22.076a31.777,31.777,0,0,0,8.022-5.939h-7.54l2.95,1.948a30.024,30.024,0,0,1-9.449,6.672L4.792,20.167a29.28,29.28,0,0,0,7.713-4.03H5.081V11.548H7.125V4.568H18.02a20.193,20.193,0,0,0,.771-2.218l5.766.212a12.019,12.019,0,0,1-.945,2.005H35.876v6.98H37.92v4.589H27.16l.521.309A51.82,51.82,0,0,1,24.075,20.3v1.639l3.085-2.43a23.97,23.97,0,0,0,1.292,2.333,39.809,39.809,0,0,0,5.071-5.11l4.242,3.124a41.476,41.476,0,0,1-6.421,5.631,23.857,23.857,0,0,0,7.077,4.782L35.3,34.88A25.171,25.171,0,0,1,24.075,23.561V35.536H18.907V24.39c-.791.559-1.215.791-1.986,1.253L13.45,22.076ZM12.158,8.848v2.7h2.989v-2.7Zm7.752,0v2.7H23v-2.7Zm7.887,0v2.7H30.92v-2.7Z" transform="translate(4.252 2.181)" fill="#fff"/><path d="M23.67,8.416H34.719v3.953H23.67V8.416Zm.868-5.168h9.487V7.105H24.538V3.248Zm0,10.355h9.487v3.818H24.538V13.6Zm0,5.206h9.487v3.914H24.538Zm0,5.38h9.487V34.12H28.741v1.292h-4.2V24.19Zm4.2,3.606v2.6H30.4V27.8ZM42.876,31a26.965,26.965,0,0,0,3.992-1.735c-.521-2.854-.694-4.3-.81-4.975h-3.3V25.6c1.138-.135,1.639-.174,2.391-.27v3.336c-.829.174-1.427.309-2.391.444v3.644c0,2.507-1.735,2.642-3.2,2.642h-3.9L35.008,31.4h2.526c.212,0,.868-.135.868-.733v-1c-1.909.212-2.43.251-3.22.27l-.386-3.9c1.176-.077,1.427-.077,3.606-.174v-1.6H34.854V20.931H38.4V19.755c-.386,0-2.256.077-2.68.1l-.6-2.565a73.672,73.672,0,0,0,8.889-.656l.868,2.642c-1.292.135-1.6.174-2.16.212V20.95h3.085c-.1-2.507-.1-3.722-.1-4.763H34.661v-3.2h8.292V11.771H36.185v-2.6h6.768V7.992H35.1V4.83h3.606c-.1-.251-.656-1.465-.829-1.735L42.818,2.4a15.5,15.5,0,0,1,1.041,2.43h3.2a12.459,12.459,0,0,0,.791-2.43l5.457.559c-.386.906-.521,1.176-.868,1.87h3.432V7.992H47.986V9.168h6.845v2.6H47.986v1.215h8.446v3.2H50.184c0,.868-.039,2.083.077,4.763h6.19v3.336H53.366l2.256,1.658A24.658,24.658,0,0,1,51.9,30.322c.174.347.386.694.771.694.868,0,1.948-1.6,2.68-2.68l1.6,4.069c-.694,1.118-2.6,3.22-5.149,3.22a4.071,4.071,0,0,1-3.567-2.391A16.6,16.6,0,0,1,44.8,34.969l-1.948-3.992Zm7.675-6.71c.077.617.135,1.176.309,2.121a18.063,18.063,0,0,0,1.735-2.121Zm3.548-8.06a22.526,22.526,0,0,1,2.044,3.085l-3.259,1.562a13.528,13.528,0,0,0-1.832-3.259L54.1,16.226Z" transform="translate(21.972 2.228)" fill="#fff"/><path d="M54.175,22.793c.039,1.813-.212,6.016-4.03,6.016H48.506l-.945-4.975h.868c1.118,0,1.118-1.832,1.118-2.468A11.394,11.394,0,0,0,47.542,15.6a37.224,37.224,0,0,0,1.986-7.54h-2.16V35.424H42.76V3.2H53.6V7.984a65.927,65.927,0,0,1-2.083,7.327,12.713,12.713,0,0,1,2.353,5.071V18.2H74.943v4.589H68.965v6.691c0,.309,0,.906.656.906h.868c.521,0,.6-.617.617-.945.135-1.986.135-2.642.174-3.162l4.03.906c-.174,6.363-.733,7.945-3.548,7.945H67.037c-2.565,0-2.854-1.118-2.854-3.374V22.774H62.178c-.559,7.154-3.259,10.548-8.889,12.746l-2.526-4.474c4.474-1.215,6.344-4.088,6.73-8.272H54.156ZM71.819,13.21v2.815H56.3V13.21H54.04V4.976h7.5V2.45h4.9V4.976h7.848V13.21H71.819ZM69.467,9.6H58.456v2.044H69.467Z" transform="translate(39.693 2.274)" fill="#fff"/></g></g></svg>