<svg xmlns="http://www.w3.org/2000/svg" width="724.643" height="265.975" viewBox="0 0 724.643 265.975"><g transform="translate(0 -3.57)"><path d="M1414.052,257.716h-8.166v-2.543h-42.151v2.543h-8.165V196.56h58.482Zm-33.185-54.328h-17.132v44.965h42.151V203.388h-17.264v3.01h13.586v4.619h-13.586v2.543h16.192v4.821H1364.8v-4.821h16.06v-2.543h-13.182V206.4h13.182v-3.01Zm23.285,30.648a31.36,31.36,0,0,1-5.553,5.623,44.384,44.384,0,0,0,6.222,2.208l-3.679,5.622c-2.278-.739-7.357-2.473-13.781-8.1v7.894h-7.093v-8.36a50.053,50.053,0,0,1-12.38,7.092l-3.079-6.221a40.244,40.244,0,0,0,13.718-7.162h-11.042V220.728h34.529v11.907l2.139,1.407Zm-9.3-9.036h-20.407v3.344h20.407Zm-7.023,7.629a35.8,35.8,0,0,0,5.49,4.215,57.815,57.815,0,0,0,4.145-4.215Z" transform="translate(-908.938 -185.884)" fill="#004097"/><path d="M1478.667,219.663l-3.951-7.162c2.613-.934,8.563-2.947,11.308-7.023h-10.3v-7.092h12.443a31.159,31.159,0,0,0,.132-5.086h8.3a40.011,40.011,0,0,1-.4,5.086h14.59v7.092h-10.974c3.881,4.682,10.234,6.493,12.248,7.092l-3.212,7.092h2.947v7.225h-2.808v24.085c0,2.006-.07,5.622-5.622,5.622h-9.5l-1.2-8.1h-14.987V229.835h19.808V248.5h1.673c2.076,0,2.076-1,2.076-2.543V226.888h-26.964v21.744h-18.337v4.417h-6.089V202.2h6.089v38.541h3.143V193.3h6.151v47.438h3.01V202.2h6.019v17.466h4.417Zm29.039,0a29.937,29.937,0,0,1-14.52-12.046c-2.543,4.682-6.828,9.036-13.781,12.046h28.3Zm-23.557,16.393v5.957h6.891v-5.957Z" transform="translate(-937.689 -182.624)" fill="#004097"/><path d="M1567.875,203.352v4.589c-4.477,3.628-7.214,8.142-7.214,13.659,0,5.055,3.2,7.676,8.063,7.676,3.124,0,5.171-.928,6.365-2.276a10.57,10.57,0,0,0,2.159-6.827c0-7.83-3.819-15.469-4.938-17.553l5.283-1.66a15.363,15.363,0,0,0,4.052,6.827c2.738,2.663,4.939,4.244,6.944,5.013l-1.735,5.479a15.308,15.308,0,0,1-5.979-4.589,21.037,21.037,0,0,1,1.082,7.06c0,4.706-1.156,8.063-3.279,10.222-2.238,2.276-5.978,3.316-9.49,3.316s-6.944-.578-9.528-2.779c-2.9-2.467-3.819-6.52-3.819-9.49,0-5.284,2.047-9.723,5.517-13.85l-6.02.154v-4.976h12.54Z" transform="translate(-971.653 -161.597)" fill="#004097"/><path d="M1663.7,203.47v4.052c-.886.77-6.673,5.825-7.947,6.906a14.107,14.107,0,0,1,3.666-.462c7.293,0,10.842,4.668,10.842,10.147a10.426,10.426,0,0,1-4.705,9.028c-2.933,1.889-6.286,2.854-13,2.854a60.025,60.025,0,0,1-7.485-.424l-.695-4.976a45.873,45.873,0,0,0,8.026.616c2.738,0,12.578,0,12.578-7.023,0-5.671-5.9-5.671-6.982-5.671a14.872,14.872,0,0,0-9.915,3.432c-1.119.965-5.708,5.4-6.674,6.287l-3.124-4.206c3.124-2.546,17.166-15.2,17.9-15.893l-15.007.191V203.47h22.53Z" transform="translate(-1019.646 -162.288)" fill="#004097"/><path d="M1756.58,209.969c-.192,1.814-.462,4.323-1.235,9.257a40.773,40.773,0,0,1,4.668,2.122l-1.735,5.363c-1.352-.811-2.392-1.427-4.127-2.313-1.194,3.819-3.4,9.066-10.88,11.961l-3.05-4.011c6.366-2.122,7.793-5.633,9.028-9.877a37.892,37.892,0,0,0-7.177-1.735c-2.392,9.84-6.058,13.118-10.376,13.118-4.747,0-6.636-3.936-6.636-7.177,0-5.6,5.13-10.418,12.922-10.726.424-2.467.657-4.631.887-7.56l-11.422.037V203.57h17.13c-.116.928-.424,3.857-.694,6.286-.154,1.39-.579,4.589-.886,6.249a39.9,39.9,0,0,1,7.33,1.465,81.054,81.054,0,0,0,.849-8.063l5.4.462Zm-26.927,16.667c0,1.66.849,2.467,2.043,2.467,3.317,0,4.822-6.366,5.4-8.758-6.869.541-7.447,5.209-7.447,6.287Z" transform="translate(-1069.683 -162.388)" fill="#004097"/><path d="M1826.794,201.68c-.153,1.851-.234,3.05-.424,4.435h19.6v4.668h-20.138a40.724,40.724,0,0,1-1.156,6.174,17.307,17.307,0,0,1,9.182-2.509c10.148,0,11,7.522,11,9.723,0,9.994-10.726,10.726-16.975,10.726-3.241,0-6.249-.233-7.676-.345l-.886-4.859a66.639,66.639,0,0,0,8.3.578c5.978,0,11.844-.928,11.844-6.212,0-3.9-3.511-5.055-6.058-5.055a14.339,14.339,0,0,0-9.915,3.9c-.154.616-.191.811-.345,1.39l-5.285-1.236a55.827,55.827,0,0,0,2.663-12.269h-7.331v-4.668h7.83c.154-2.2.191-2.7.308-4.589l5.479.154Z" transform="translate(-1121.328 -162.204)" fill="#004097"/><path d="M40.717,27.237V25.715H26.152v1.522H22.63V3.628h7.776a28.8,28.8,0,0,0,.957-3.1l3.718.478c-.283.815-.7,1.971-1.014,2.62h10.2V27.237H40.714ZM26.152,6.838V9.824H40.717V6.838H26.152Zm0,6v3.268H40.717V12.839H26.152Zm0,6.337v3.3H40.717v-3.3H26.152Z" transform="translate(-19.927 3.207)" fill="#004097"/><path d="M98.823,25.758c.424-.058,1.859-.254,2.395-.337V4.12h23.015v8.4h-8.649c.055.761.083,1.522.254,2.761h9.58v3.381h-8.986c.9,3.663,3.239,7.127,4.591,7.127,1.21,0,1.718-2.112,2.2-4.058l2.7,2.591c-.449,1.634-1.551,5.551-4.453,5.551-3.323,0-7.268-4.565-8.732-11.214h-8.029v6.254a76.11,76.11,0,0,0,8.283-1.522v3.352c-3.072.79-10.254,2.17-13.747,2.565l-.424-3.551Zm5.888-18.649V9.7h16V7.109Zm7.464,8.17c-.112-.931-.141-1.775-.17-2.761h-7.3v2.761h7.464Z" transform="translate(-71.657 0.77)" fill="#004097"/><path d="M192.162,10h17.522v8.732H205.6v4.312c0,.62.283,1.043.9,1.043h3.072c1.043,0,1.043-.029,1.3-3.522l3.381.732c-.424,5.3-1.239,6.084-3.127,6.084h-6.732a2.239,2.239,0,0,1-2.254-2.424V18.736h-2.819c-.536,3.692-2.565,7.326-10.479,8.931l-1.323-3.409c4.7-.9,7.663-2.17,8.312-5.522h-3.663V10ZM188.3,5.355h4.337a23.866,23.866,0,0,0-1.576-3.409L194.528.96a25.017,25.017,0,0,1,1.8,4.4h2.819V.963h3.464v4.4h2.931c.449-.873,1.409-3.409,1.775-4.4l3.493.957a34.279,34.279,0,0,1-1.493,3.438H213.6v7.185H210.14v-4.2H191.716v4.2h-3.409V5.355Zm7.326,7.464V15.8h10.594V12.819Z" transform="translate(-131.881 2.915)" fill="#004097"/><path d="M284.357,20.094a24.3,24.3,0,0,1-6.4,6.931l-2.311-2.79a20.754,20.754,0,0,0,5.747-5.859l2.957,1.718ZM302.47,6.373H275.875V3.047h11.3V.88h3.663V3.05H302.47V6.373Zm-2.732,1.8v9.58h-8.845v7.072c0,1.522-.648,2.732-2.478,2.732h-4.79l-.7-3.605H286.5c.536,0,.873-.029.873-.732V17.76H278.61V8.18h21.131Zm-17.609,3.043v3.464h14.087V11.221Zm18,15.663a21.87,21.87,0,0,1-6.957-6.79l3.043-1.8a19.777,19.777,0,0,0,6.337,5.605l-2.424,2.986Z" transform="translate(-191.718 2.969)" fill="#004097"/><path d="M362.473,15.815a23.83,23.83,0,0,0,5.859-3.605h-5.58V9.166h5.072V6.321h-4.254V3.278h4.254V1.05h3.3V3.275h3.493V4.851a19.594,19.594,0,0,0,1.323-2.79l3.069,1.185V1.7h10.142V4.883a54.152,54.152,0,0,1-2.873,6.986c2.478,2.873,3.3,4.957,3.3,7.605a8.02,8.02,0,0,1-.844,3.859c-.9,1.522-2.058,1.605-3.493,1.605h-1.971l-.449-3.352h1.38c1.268,0,1.8-.424,1.8-2.337,0-3.3-2.254-5.775-3.3-6.9a49.243,49.243,0,0,0,2.844-7.464H382.39V27.59H379.01V3.333a40.757,40.757,0,0,1-3.551,5.83H378.3v3.043h-5.409a22.919,22.919,0,0,1-1.888,1.859h5.8v12.4h-8.649v1.069h-3.21V18.261c-.424.225-.761.395-1.551.761l-.931-3.21Zm5.692.986v2.112h5.493V16.8Zm0,4.761v2.058h5.493V21.561Zm2.844-15.3v2.9h.507a25.687,25.687,0,0,0,2.225-2.9h-2.732Z" transform="translate(-250.665 2.854)" fill="#004097"/><path d="M458.219,16.842a22.271,22.271,0,0,1-1.746,1.8l-1.3-2.254c-.083,3.493-.732,7.917-2.337,10.931l-2.819-2.79a23.962,23.962,0,0,0,1.746-9.439V2.787H462.19V.7H465.8V2.784h10.931V6.106H455.176v8.931c1.464-1.323,3.323-3.551,5.239-8.591l3.127,1.014a31.555,31.555,0,0,1-1.971,4.424V27.324h-3.352V16.845Zm16.2-10.087v3.323h2.45v3.3h-2.45V24.98a2.24,2.24,0,0,1-2.254,2.337h-5.127l-.732-3.409h3.917c.478,0,.732-.112.732-.815V13.375h-8.084v-3.3h8.084V6.755h3.464Zm-8.424,7.663a29.488,29.488,0,0,1,3.323,6.058l-3.127,1.576a28.522,28.522,0,0,0-3.1-6.225l2.9-1.409Z" transform="translate(-310.108 3.092)" fill="#004097"/><path d="M563.763,8.059v7.072h-9.747v1.888H564.89c-.141,4.986-.337,6.931-.931,7.718a2.836,2.836,0,0,1-2.254,1.069h-4.424l-.649-3.409h3.438c.957,0,1.1,0,1.239-2.591h-7.3v7.41h-3.381V20.791a24.656,24.656,0,0,1-10.312,5.663l-1.464-3.323a27.266,27.266,0,0,0,8.986-3.323H539.9a31.832,31.832,0,0,0,1.717-7.156h9.015V10.765H540.346v-2.7h.283L538.77,5.949A11.25,11.25,0,0,0,543.081.54l3.493.424c-.2.62-.254.815-.478,1.38h5.8V5.022a11.949,11.949,0,0,0,2.761-4.45L558.013,1a9.366,9.366,0,0,1-.424,1.352h7.946V5.333H560.52a14.3,14.3,0,0,1,.957,1.718l-2.648,1.014h4.931Zm-17.975,0c-.395-1.268-.844-2.311-1.014-2.732h-.536a12.13,12.13,0,0,1-2.62,2.732Zm-1.127,7.072a9.346,9.346,0,0,1-.366,1.888h6.337V15.131Zm8.591-7.072L550.8,6.088c.449-.424.562-.536.815-.761h-3.38a14.023,14.023,0,0,1,.873,1.718L546.1,8.059h7.156Zm4.873,0c-.283-.648-.732-1.8-1.185-2.732h-1.014a14.027,14.027,0,0,1-2.366,2.732Zm2.225,4.591V10.762h-6.337V12.65Z" transform="translate(-370.366 3.2)" fill="#004097"/><path d="M637.418,13.16c-1.015,5.438-3.8,11.381-8,14.62l-2.677-2.986c2.311-1.746,5.663-4.7,7.185-12.424l3.493.79ZM627.164,6.594h11.127V1.75h3.663V6.594h11.127v3.551H627.164ZM650.827,27.78c-3.522-2.677-6.591-8.029-8.113-14.594l3.577-.844c1.268,5.381,2.819,8.761,7.185,12.4Z" transform="translate(-430.095 2.379)" fill="#004097"/><path d="M730.938,21.076a21.647,21.647,0,0,1-5.438,2.79,13.7,13.7,0,0,0,3.605.283h13.3l-.761,3.3h-13.41a13.2,13.2,0,0,1-4.337-.7,5.544,5.544,0,0,1-3.156-2.424,18.791,18.791,0,0,1-4.058,3.775L715.13,24.46a12.661,12.661,0,0,0,3.1-2.225V15.529h-2.7V12.206h6.141v8.113c.366,1.409.931,2.649,3.576,3.493l-1.917-2.536a20.9,20.9,0,0,0,4.761-1.692h-5.579V16.935h4.2V15.188H723.13V12.71h3.576V11.641h3.239V12.71h4.337V11.641h3.21V12.71h3.746v2.478h-3.746v1.746h4.424v2.649h-5.1a23.358,23.358,0,0,0,5.044,1.888l-1.663,2.62a25.71,25.71,0,0,1-6.366-3.015l1.8-1.493h-6.819l2.112,1.493ZM718.343,1.833a24.381,24.381,0,0,1,4.366,4.7l-2.648,2.45a26.359,26.359,0,0,0-4.283-4.844l2.565-2.311Zm4.058.424h8.453v5.21H725.7V8.511c0,.395,0,.536.536.536h1.859c.7,0,.732-.225.873-1.185l2.7.311c-.112,1.043-.366,3.015-1.859,3.015h-5.069c-1.83,0-2-1.127-2-1.917V5.525h5.185V4.456H722.4v-2.2Zm7.551,12.931v1.746h4.337V15.188Zm2.141-12.931h8.732v5.21h-5.692V8.511c0,.366.112.536.677.536h2.565c.62,0,.649-.283.732-1.185l2.873.337c-.141,1.185-.4,2.986-1.946,2.986h-5.551c-2.141,0-2.2-1.438-2.2-1.663v-4h5.58V4.453h-5.776Z" transform="translate(-490.108 2.324)" fill="#004097"/><path d="M815.291,11.978a42.791,42.791,0,0,1-4.283.225l-.395-1.464a22,22,0,0,1-5.8,4.424l-1.859-3.1a15.447,15.447,0,0,0,6.312-4.7h-5.8V4.235H807.6a14.625,14.625,0,0,0-1.8-2.79l3.323-1.21A15.405,15.405,0,0,1,811.2,3.586l-1.522.648h5.859a23.026,23.026,0,0,0-1.692-3.1L817.056.01a21.646,21.646,0,0,1,1.971,3.464l-1.888.761h5.409A30.728,30.728,0,0,0,824.212.177l3.576.844a26.315,26.315,0,0,1-1.464,3.21H830.1V7.359h-5.747a16.988,16.988,0,0,0,6.2,4.478l-1.971,3.015a21.845,21.845,0,0,1-8.2-7.493h-7.268a11.8,11.8,0,0,1-1.352,2.058,54.15,54.15,0,0,0,8.931-1.069l1.464,2.62a33.192,33.192,0,0,1-3.351.591V13.67h7.409v2.819h-7.409v1.8h10.649v3.072H818.806v3.156a2.252,2.252,0,0,1-2.366,2.395h-5.464l-.648-3.268h3.859c.873,0,1.1-.083,1.1-.931V21.365H804.1V18.293h11.185v-1.8h-7.917V13.67h7.917V11.978Z" transform="translate(-549.734 3.56)" fill="#004097"/><path d="M895.27,3.77h24.961V7.122H898.85V25.01h22v3.352h-22v1.069h-3.576V3.77Zm4.337,17.692a31.048,31.048,0,0,0,7.946-5.58,62.117,62.117,0,0,0-6.7-3.409l1.859-2.79a70.918,70.918,0,0,1,7.127,3.634A27.337,27.337,0,0,0,913.3,7.542l3.551,1.352a38.468,38.468,0,0,1-4.029,6.283,64.005,64.005,0,0,1,6.62,5.072l-2.478,3.069a57.083,57.083,0,0,0-6.507-5.493,44.669,44.669,0,0,1-8.62,6.453l-2.225-2.819Z" transform="translate(-612.416 1.007)" fill="#004097"/><path d="M988.751,13.75a21.8,21.8,0,0,0,5.268,5.634,14.072,14.072,0,0,0,5.268-5.718H982.805V10.286h9.41V7.1H980.722V3.638h11.493V.79h3.576V3.634h11.58V7.1h-11.58v3.185h7.8v3.438a19.318,19.318,0,0,1-6.17,7.551,37.865,37.865,0,0,0,10,2.254l-1.381,3.83c-6.79-1.014-10.594-2.9-12.2-3.83a37.282,37.282,0,0,1-11.634,3.946L980.69,23.7a33.058,33.058,0,0,0,9.859-2.507,26.109,26.109,0,0,1-4.819-5.663l3.015-1.775Z" transform="translate(-670.413 3.03)" fill="#004097"/><path d="M1068.736,3.278H1074V1.05h3.38V3.275h5.3v3.1h-1.551c-.17,1.156-.62,3.381-1.014,4.819h3.351v3.1H1068.03v-3.1h3.185a23.714,23.714,0,0,0-.7-4.819h-1.776Zm13.522,12.565V26.068H1072.4v1.438h-3.3V15.843Zm-9.859,3.015v4.2h6.591v-4.2Zm1.239-12.482a42.381,42.381,0,0,1,.761,4.819h2.565c.507-1.83.9-4.478.957-4.819h-4.283ZM1084,27.561V1.727h10.4V4.771a54.239,54.239,0,0,1-2.844,6.9,12.165,12.165,0,0,1,3.352,8.283,5.427,5.427,0,0,1-1.746,4.254,3.939,3.939,0,0,1-2.649.7h-2.083l-.536-3.409h1.634c1.185,0,1.746-.536,1.746-2.311,0-3.015-1.493-5.127-3.326-6.931a51.158,51.158,0,0,0,2.732-7.381h-3.239V27.558H1084Z" transform="translate(-729.713 2.854)" fill="#004097"/><path d="M1157.08,25.678c.478-.029,2.819-.2,3.323-.225V18.692h-3.323V15.706h3.323V3.42h20.877V6.406h-17.185V7.87h16.228v2.424h-16.228v1.493h16.228v2.45h-16.228V15.7h19.185v2.986h-3.239l1.946,1.409a25.372,25.372,0,0,1-5.044,3.522,24.688,24.688,0,0,0,6.9,2.029l-1.6,3.605c-5.859-1.605-12.254-4.453-15.185-10.565H1164.1v6.479c2.79-.225,3.522-.283,7.239-.844v3.127a126.492,126.492,0,0,1-13.551,1.522l-.7-3.3Zm13.606-6.986a9.51,9.51,0,0,0,3.156,3.185,26.654,26.654,0,0,0,4.312-3.185h-7.464Z" transform="translate(-790.175 1.245)" fill="#004097"/><path d="M22.917,134.174a24.3,24.3,0,0,1-6.4,6.931l-2.311-2.79a20.753,20.753,0,0,0,5.747-5.859l2.957,1.718ZM41.03,120.453H14.435V117.13h11.3v-2.17H29.4v2.17H41.03Zm-2.732,1.8v9.58H29.453v7.072c0,1.522-.648,2.732-2.478,2.732h-4.79l-.7-3.605h3.576c.536,0,.873-.029.873-.732V131.84H17.17v-9.58H38.3ZM20.689,125.3v3.464H34.776V125.3Zm18,15.663a21.87,21.87,0,0,1-6.957-6.79l3.043-1.8a19.777,19.777,0,0,0,6.337,5.605l-2.424,2.986Z" transform="translate(-14.21 -74.487)" fill="#004097"/><path d="M101.023,129.9a23.833,23.833,0,0,0,5.859-3.605H101.3v-3.043h5.072v-2.844h-4.254v-3.043h4.254V115.14h3.3v2.225h3.493v1.576a19.6,19.6,0,0,0,1.323-2.79l3.069,1.185v-1.551H127.7v3.185a54.15,54.15,0,0,1-2.873,6.986c2.478,2.873,3.3,4.957,3.3,7.605a8.02,8.02,0,0,1-.844,3.859c-.9,1.522-2.058,1.605-3.493,1.605h-1.971l-.449-3.352h1.38c1.268,0,1.8-.424,1.8-2.337,0-3.3-2.254-5.775-3.3-6.9a49.257,49.257,0,0,0,2.844-7.464H120.94v22.707H117.56V117.419a40.764,40.764,0,0,1-3.551,5.83h2.844v3.043h-5.409a22.926,22.926,0,0,1-1.888,1.859h5.8v12.4h-8.649v1.069H103.5v-9.268c-.424.225-.761.395-1.551.761l-.931-3.21Zm5.692.986V133h5.493v-2.112Zm0,4.761v2.058h5.493v-2.058Zm2.844-15.3v2.9h.507a25.687,25.687,0,0,0,2.225-2.9Z" transform="translate(-73.151 -74.609)" fill="#004097"/><path d="M196.779,130.932a22.244,22.244,0,0,1-1.746,1.8l-1.3-2.254c-.083,3.493-.732,7.917-2.337,10.931l-2.819-2.79a23.962,23.962,0,0,0,1.746-9.439V116.874h10.424V114.79h3.605v2.084h10.931V120.2H193.736v8.931c1.464-1.323,3.323-3.551,5.239-8.591l3.127,1.014a31.551,31.551,0,0,1-1.971,4.424v15.439h-3.352V130.935Zm16.2-10.087v3.323h2.45v3.3h-2.45V139.07a2.24,2.24,0,0,1-2.254,2.337H205.6L204.866,138h3.917c.478,0,.732-.112.732-.815v-9.718h-8.084v-3.3h8.084v-3.323Zm-8.424,7.663a29.485,29.485,0,0,1,3.323,6.058l-3.127,1.576a28.52,28.52,0,0,0-3.1-6.225Z" transform="translate(-132.6 -74.371)" fill="#004097"/><path d="M277.73,119.616h8.9v2.873h-8.9Zm.761-4.084h7.493v2.79h-7.493Zm0,8.17h7.493v2.79h-7.493Zm0,4.2h7.493v2.844h-7.493Zm0,4.366h7.493v8h-4.62v1.1h-2.873v-9.1Zm2.732,2.565v2.819h2.112v-2.819Zm5.718-17.888h3.1a9.793,9.793,0,0,0-.7-1.605l3.3-.62a17.865,17.865,0,0,1,1.014,2.225h3.3a14.818,14.818,0,0,0,.761-2.225l3.747.449a18.763,18.763,0,0,1-.815,1.775h3.185v2.141h-6.873v1.21h5.888v1.917h-5.888v1.268H304.3v2.254H286.635v-2.254h7.044v-1.268H287.9V120.3h5.775v-1.21h-6.732v-2.141Zm6.536,21.243a22.651,22.651,0,0,0,3.438-1.663,25.737,25.737,0,0,1-.677-4.084h-3.326v1.438c.844-.112,1.3-.17,2.225-.308v2.311c-.562.112-1.634.337-2.225.449v2.507c0,1.718-.283,2.536-2.312,2.536h-3.1l-.449-2.9h2c.677,0,.873-.112.873-.732v-.986c-1.323.141-2.084.2-2.986.254l-.283-2.7c.873-.029,1.83-.058,3.268-.17v-1.692h-3.239v-2.337h3.239v-1.268c-.649.029-1.069.058-2.536.112l-.449-2.058a56.026,56.026,0,0,0,7.352-.677l.761,2.141c-.62.083-1.156.141-2.141.254V130.1h3.127c-.141-2.254-.141-3.239-.141-3.917h3.072c0,1.1,0,1.888.141,3.917H304.3v2.337h-3.044l2.17,1.3a19.334,19.334,0,0,1-3.015,3.605c.141.283.366.761.761.761.62,0,1.239-1.014,2.029-2.254l1.438,2.591c-.79,1.3-2.141,3.015-3.859,3.015-.931,0-2.029-.565-2.873-2.17a18.126,18.126,0,0,1-3.015,1.605l-1.409-2.7Zm5.83-5.747c.112,1.069.2,1.522.283,1.971a13.345,13.345,0,0,0,1.551-1.971h-1.83Zm2.761-6.424a18.808,18.808,0,0,1,1.83,2.507l-2.424,1.21a10.876,10.876,0,0,0-1.634-2.677l2.225-1.043Z" transform="translate(-193.13 -74.324)" fill="#004097"/><path d="M371.8,124.206a39.138,39.138,0,0,1-4.536,2.366l-1.746-3.464c6.845-2.677,10.2-5.8,11.718-8.058h4c1.522,1.917,4.283,5.072,11.635,8.058l-1.8,3.438a27.531,27.531,0,0,1-4.453-2.395v1.605H371.8v-1.551Zm16.341,17.663c-.311-.565-.507-.986-1.127-2a173.914,173.914,0,0,1-19.609,1.21l-.449-3.551c.366,0,3.381.029,4.029.029a42,42,0,0,0,2.424-5.833H366.65v-3.3h25.073v3.3H377.44c-1.069,2.507-1.775,4.112-2.649,5.8.9,0,5.605-.112,10.225-.478-.62-.844-1.352-1.775-2.845-3.493l2.986-1.605a45.1,45.1,0,0,1,6.2,8.087l-3.21,1.83ZM384.4,122.627a27.951,27.951,0,0,1-5.185-4.761,22.418,22.418,0,0,1-5.069,4.761Z" transform="translate(-252.736 -74.548)" fill="#004097"/><path d="M455.77,119.616h8.9v2.873h-8.9Zm.761-4.084h7.493v2.79h-7.493Zm0,8.17h7.493v2.79h-7.493Zm0,4.2h7.493v2.844h-7.493Zm0,4.366h7.493v8H459.4v1.1h-2.873Zm2.732,2.565v2.819h2.112v-2.819Zm5.718-17.888h3.1a9.8,9.8,0,0,0-.7-1.605l3.3-.62a17.851,17.851,0,0,1,1.014,2.225h3.3a14.831,14.831,0,0,0,.761-2.225l3.746.449a18.733,18.733,0,0,1-.815,1.775h3.185v2.141h-6.873v1.21h5.888v1.917h-5.888v1.268h7.352v2.254H464.676v-2.254h7.044v-1.268h-5.776V120.3h5.776v-1.21h-6.732v-2.141Zm6.536,21.243a22.649,22.649,0,0,0,3.438-1.663,25.733,25.733,0,0,1-.677-4.084h-3.326v1.438c.844-.112,1.3-.17,2.225-.308v2.311c-.562.112-1.634.337-2.225.449v2.507c0,1.718-.283,2.536-2.311,2.536h-3.1l-.45-2.9h2c.677,0,.873-.112.873-.732v-.986c-1.323.141-2.084.2-2.986.254l-.283-2.7c.873-.029,1.83-.058,3.268-.17v-1.692h-3.239v-2.337h3.239v-1.268c-.649.029-1.069.058-2.536.112l-.449-2.058a56.026,56.026,0,0,0,7.352-.677l.761,2.141c-.62.083-1.156.141-2.141.254V130.1h3.127c-.141-2.254-.141-3.239-.141-3.917h3.072c0,1.1,0,1.888.141,3.917h5.185v2.337h-3.043l2.17,1.3a19.337,19.337,0,0,1-3.015,3.605c.141.283.366.761.761.761.62,0,1.239-1.014,2.029-2.254l1.438,2.591c-.79,1.3-2.141,3.015-3.859,3.015-.931,0-2.029-.565-2.873-2.17a18.127,18.127,0,0,1-3.014,1.605l-1.409-2.7Zm5.83-5.747c.112,1.069.2,1.522.282,1.971a13.345,13.345,0,0,0,1.551-1.971h-1.83Zm2.761-6.424a18.8,18.8,0,0,1,1.83,2.507l-2.424,1.21a10.879,10.879,0,0,0-1.634-2.677l2.225-1.043Z" transform="translate(-314.012 -74.324)" fill="#004097"/><path d="M544.35,140.355a20.687,20.687,0,0,0,7.971-2.112H547V125.311h22.03v12.931h-5.551c.591.366,3.3,1.634,8.17,1.971l-1.464,3.069a26.8,26.8,0,0,1-9.522-3.1l1.971-1.942h-9.605l1.917,2a27.591,27.591,0,0,1-9.044,3.127ZM547.9,117.34h20.229v6.649H547.9Zm2.507,11.692h15.214v-1.409H550.408Zm0,3.409h15.214v-1.464H550.408Zm0,3.464h15.214v-1.464H550.408Zm.9-14.254h13.355v-1.83H551.31Z" transform="translate(-374.155 -76.102)" fill="#004097"/><path d="M120.038,271.54v21.945c-28.533,19.582-35.116,23.974-49.973,31.063,30.557-4.726,63.144-6.077,78.334-6.244l.339,26.676c-4.726-.167-11.309-.339-18.742-.339-17.558,0-24.986.506-36.3,7.428-9.791,5.91-18.737,15.2-18.737,25.664,0,8.273,4.053,14.35,28.533,15.023,13.677.506,20.427.339,27.521,0l-4.053,27.182c-32.92.506-81.375-2.53-81.375-35.283,0-3.547,0-20.766,22.79-36.3-11.142,1.69-49.128,8.273-66.858,13L0,333.5a102.955,102.955,0,0,0,17.391-3.375c9.791-2.7,36.3-18.57,58.919-34.777L20.594,297.71V271.54h99.439Z" transform="translate(0 -151.411)" fill="#004097"/><path d="M410.131,396.506c18.231-1.351,55.883-4.392,55.883-49.806,0-28.194-16.374-40.181-35.622-41.7-.845,14.689-7.261,102.986-52.508,102.986-22.79,0-36.973-23.129-36.973-49.634,0-37.312,26.17-78.673,81.881-78.673,38.831,0,71.417,21.272,71.417,69.388,0,19.248-5.571,39.169-22.962,54.7C454.7,418.284,429.04,420.986,420.089,422l-9.963-25.492Zm-42.545-38.492c0,6.416,1.857,21.611,11.481,21.611,12.832,0,22.456-33.092,25.659-73.441C367.586,316.988,367.586,353.794,367.586,358.014Z" transform="translate(-178.165 -155.665)" fill="#004097"/><path d="M774.349,265.875c.845,7.089,1.518,12.326,5.571,26.17,33.092-2.024,36.974-3.208,44.908-5.91l6.416,26c-19.582,4.392-28.361,4.559-41.7,5.065,10.636,23.129,19.248,32.582,23.974,37.647l-26,11.987c-14.517-20.6-23.974-43.222-26.17-48.794H689.26V292.713H752.4c-3.041-10.13-4.559-17.9-5.91-24.313l27.856-2.53Zm-22.456,86.273c-8.779,2.53-29.04,8.779-29.04,22.623s17.558,14.183,43.729,14.183c23.807,0,36.467-1.351,46.259-2.53l-.506,26.337c-11.648,1.012-24.313,1.351-39.675,1.351-34.439,0-46.765-2.869-58.413-9.285-8.946-4.9-17.9-14.522-17.9-29.378,0-29.378,34.439-40.52,43.9-43.557l11.648,20.26Z" transform="translate(-359.21 -148.792)" fill="#004097"/><path d="M1098.736,264.82c.506,7.934.845,13,1.518,18.4,16.374-1.351,23.635-1.857,39.675-5.571l3.041,23.129c-15.2,3.208-17.725,3.375-39.336,5.065a98.519,98.519,0,0,0,3.375,14.689c24.986-1.351,37.818-4.392,45.585-6.244l3.881,22.623a257.252,257.252,0,0,1-40.687,5.571c5.571,10.469,9.624,15.028,13.677,19.415l-23.974,14.517c-4.726-5.232-11.987-13.338-19.754-32.92a18.644,18.644,0,0,1-3.375.167H1011.79V321.381h67.531c-.678-3.375-.845-4.559-2.363-14.35h-59.09V284.24h55.882c-1.857-11.648-2.024-13-2.53-17.558l27.521-1.857Zm-35.455,95.9c-3.714,3.208-10.8,9.118-10.8,16.546,0,11.481,18.231,12.326,40.854,12.326,24.648,0,38.324-1.351,44.908-2.2l1.012,26c-5.91.506-15.2,1.184-34.272,1.184-32.247,0-43.051-1.351-50.479-3.208-26.5-6.755-29.545-24.141-29.545-29.884,0-15.868,12.326-26.843,17.9-31.908l20.427,11.142Z" transform="translate(-527.769 -148.243)" fill="#004097"/><path d="M1416.643,347.1A151.535,151.535,0,0,1,1425.7,383.9l-12.418,1.938c-.312-3.13-.39-4.62-.7-6.483-5.467,1.193-21.321,3.725-30.618,4.62l-1.329-7.228a13.958,13.958,0,0,1-1.874,5.215c-1.093,1.788-4.529,3.875-8.2,3.875h-14.216l-2.11-11.026h12.5c1.25,0,2.967,0,3.515-2.458.39-1.713.7-7.451.938-11.474h-20.54c1.25-8.271,1.8-14.9,2.5-26.375H1370.8V327.8H1350.57V317.148h31.084v27.2h-18.043c0,.595-.312,3.875-.623,5.96h18.978c0,3.8,0,14.977-.781,22.055.624-.075,3.2-.3,3.672-.3,3.436-13.411,7.186-40.384,8.28-57.371h12.73c-1.4,12.071-5.468,40.9-9.372,56.4,4.607-.447,9.763-.9,14.449-1.713a130.221,130.221,0,0,0-5.389-19.594l11.092-2.683Z" transform="translate(-707.331 -193.889)" fill="#004097"/><path d="M1632.364,341.625h17.731V363.83c1.4,6.091,7.889,8.615,14.607,8.615h42.567l-2.576,10.547H1664.7c-11.716,0-15.933-5.5-17.73-7.8a57.191,57.191,0,0,1-11.559,9.505l-4.062-12.1a34.961,34.961,0,0,0,7.5-4.606V352.022h-6.482v-10.4Zm19.447-13.665-7.029,6.684a64.629,64.629,0,0,0-12.106-12.179l7.81-7.948a72.125,72.125,0,0,1,11.325,9.951V320.83h9.215c-1.329-2.45-1.483-2.749-2.812-4.977l11.247-2.3a58.739,58.739,0,0,1,3.748,7.277h10.623a49.428,49.428,0,0,0,2.967-6.981l12.106,1.707c-.624,1.189-2.186,3.935-3.124,5.274h10.232v9.209h-22.729a24.608,24.608,0,0,1-1.4,2.9h20.074v36.316h-46V332.932h14.216a15.853,15.853,0,0,0,1.014-2.9h-19.369v-2.078Zm15.778,12.329v3.564H1690.4v-3.564Zm0,8.763v3.564H1690.4v-3.564Zm0,8.762V361.6H1690.4v-3.788Z" transform="translate(-988.636 -115.154)" fill="#004097"/></g></svg>