<?xml version="1.0" encoding="UTF-8"?><svg id="_レイヤー_1" xmlns="http://www.w3.org/2000/svg" width="337.43" height="114.08" viewBox="0 0 337.43 114.08"><defs><style>.cls-1{fill:#fff;}.cls-1,.cls-2{stroke-width:0px;}.cls-2{fill:#004097;}</style></defs><path class="cls-1" d="m232.87,24.23h-3.13v-.97h-16.13v.97h-3.13V.82h22.39v23.41Zm-12.7-20.8h-6.56v17.21h16.14V3.43h-6.61v1.15h5.2v1.77h-5.2v.97h6.2v1.85h-15.33v-1.85h6.15v-.97h-5.05v-1.77h5.05v-1.15h.01Zm8.91,11.73c-.61.8-1.33,1.53-2.13,2.15.77.34,1.57.62,2.38.85l-1.41,2.15c-1.96-.64-3.76-1.7-5.28-3.1v3.02h-2.71v-3.2c-1.44,1.13-3.04,2.04-4.74,2.71l-1.18-2.38c1.91-.57,3.7-1.5,5.25-2.74h-4.23v-4.56h13.22v4.56l.82.54h0Zm-3.56-3.46h-7.81v1.28h7.81v-1.28Zm-2.69,2.92c.65.6,1.35,1.15,2.1,1.61.56-.51,1.09-1.05,1.59-1.61h-3.69Z"/><path class="cls-1" d="m246.6,10.09l-1.51-2.74c1-.36,3.28-1.13,4.33-2.69h-3.94V1.95h4.76c.07-.65.09-1.3.05-1.95h3.18c-.01.65-.06,1.3-.16,1.95h5.58v2.71h-4.2c1.27,1.33,2.9,2.28,4.69,2.71l-1.23,2.71h1.13v2.77h-1.07v9.22c0,.77-.03,2.15-2.15,2.15h-3.64l-.46-3.1h-5.74v-7.15h7.58v7.15h.64c.8,0,.8-.38.8-.97v-7.3h-10.32v8.32h-7.02v1.69h-2.33V3.41h2.33v14.75h1.2V0h2.35v18.16h1.15V3.41h2.3v6.69h1.7Zm11.12,0c-2.3-.9-4.25-2.51-5.56-4.61-1.18,2.1-3.04,3.72-5.28,4.61h10.83Zm-9.02,6.28v2.28h2.64v-2.28h-2.64Z"/><path class="cls-2" d="m269.59,8.5v2.41c-2.32,1.66-3.72,4.32-3.79,7.17,0,2.65,1.68,4.03,4.23,4.03,1.24.1,2.46-.33,3.34-1.2.78-1.03,1.18-2.3,1.13-3.59-.16-3.23-1.04-6.38-2.59-9.22l2.78-.87c.38,1.36,1.12,2.6,2.13,3.59,1.03,1.11,2.27,2,3.65,2.63l-.91,2.88c-1.23-.53-2.31-1.36-3.14-2.41.4,1.19.59,2.45.57,3.71,0,2.47-.61,4.23-1.72,5.37-1.38,1.2-3.16,1.82-4.98,1.74-1.79.13-3.56-.39-5-1.46-1.34-1.3-2.07-3.11-2.01-4.98.04-2.7,1.07-5.29,2.9-7.27l-3.16.08v-2.61h6.58,0Z"/><path class="cls-2" d="m293.77,8.17v2.07c-.45.39-3.4,2.97-4.05,3.52.61-.16,1.24-.24,1.87-.24,3.72,0,5.53,2.38,5.53,5.17.05,1.85-.85,3.59-2.4,4.6-1.49.96-3.2,1.46-6.63,1.46-1.27,0-2.55-.06-3.81-.22l-.35-2.54c1.35.22,2.72.33,4.09.31,1.4,0,6.41,0,6.41-3.58,0-2.89-3.01-2.89-3.56-2.89-1.84-.05-3.64.57-5.05,1.75-.57.49-2.91,2.75-3.4,3.2l-1.59-2.14c1.59-1.3,8.75-7.75,9.12-8.1l-7.65.1v-2.48h11.48,0Z"/><path class="cls-2" d="m315.61,11.43c-.1.93-.23,2.2-.63,4.72.81.31,1.61.67,2.38,1.08l-.88,2.73c-.69-.41-1.22-.73-2.1-1.18-.71,2.83-2.79,5.12-5.55,6.1l-1.55-2.04c3.24-1.08,3.97-2.87,4.6-5.03-1.19-.41-2.41-.71-3.66-.88-1.22,5.01-3.09,6.69-5.29,6.69-1.87,0-3.39-1.52-3.39-3.39,0-.09,0-.18.01-.27,0-2.85,2.61-5.31,6.59-5.47.22-1.26.33-2.36.45-3.85l-5.82.02v-2.48h8.73c-.06.47-.22,1.97-.35,3.2-.08.71-.3,2.34-.45,3.18,1.27.13,2.52.38,3.74.75.23-1.32.39-3.34.43-4.11l2.75.24h0Zm-13.72,8.49c0,.85.43,1.26,1.04,1.26,1.69,0,2.46-3.24,2.75-4.46-3.5.28-3.8,2.65-3.8,3.2h0Z"/><path class="cls-2" d="m326.63,7.32c-.08.94-.12,1.55-.22,2.26h9.99v2.38h-10.26c-.11,1.06-.31,2.11-.59,3.15,1.41-.86,3.03-1.3,4.68-1.28,5.17,0,5.6,3.83,5.6,4.96,0,5.09-5.47,5.47-8.65,5.47-1.65,0-3.19-.12-3.91-.18l-.45-2.48c1.4.19,2.81.28,4.23.29,3.05,0,6.04-.47,6.04-3.17,0-1.99-1.79-2.58-3.09-2.58-1.88-.01-3.69.7-5.05,1.99-.08.31-.1.41-.18.71l-2.69-.63c.69-2.03,1.14-4.12,1.36-6.25h-3.74v-2.38h3.99c.08-1.12.1-1.38.16-2.34l2.79.08h0Z"/><path class="cls-2" d="m12.12,19.98c-.94,1.53-2.16,2.86-3.61,3.91l-1.3-1.57c1.29-.88,2.39-2,3.24-3.31l1.67.97Zm10.22-7.74H7.33v-1.88h6.38v-1.22h2.07v1.23h6.57v1.87h0Zm-1.54,1.02v5.41h-4.99v3.99c0,.86-.37,1.54-1.4,1.54h-2.7l-.4-2.04h2.02c.3,0,.49-.02.49-.41v-3.08h-4.94v-5.41h11.92,0Zm-9.94,1.72v1.96h7.95v-1.96h-7.95Zm10.16,8.84c-1.58-.97-2.92-2.28-3.93-3.83l1.72-1.02c.95,1.3,2.17,2.38,3.58,3.16l-1.37,1.68h0Z"/><path class="cls-2" d="m22.93,17.5c1.19-.51,2.31-1.2,3.31-2.04h-3.15v-1.72h2.86v-1.61h-2.4v-1.72h2.4v-1.26h1.86v1.26h1.97v.89c.29-.5.54-1.03.75-1.57l1.73.67v-.87h5.72v1.8c-.45,1.35-.99,2.67-1.62,3.94,1.17,1.13,1.84,2.67,1.86,4.29.03.75-.14,1.5-.48,2.18-.4.68-1.19,1.05-1.97.91h-1.11l-.25-1.89h.78c.71,0,1.02-.24,1.02-1.32-.11-1.49-.78-2.88-1.87-3.89.65-1.36,1.18-2.77,1.6-4.21h-1.78v12.81h-1.91v-13.69c-.57,1.15-1.25,2.25-2,3.29h1.6v1.72h-3.05c-.33.37-.69.72-1.07,1.05h3.28v7h-4.88v.6h-1.81v-5.24c-.24.12-.43.22-.87.43l-.53-1.81h0Zm3.21.56v1.19h3.1v-1.19h-3.1Zm0,2.69v1.16h3.1v-1.16h-3.1Zm1.6-8.63v1.64h.29c.46-.52.88-1.06,1.26-1.64h-1.54Z"/><path class="cls-2" d="m43.42,18.22c-.31.36-.64.7-.99,1.02l-.73-1.27c0,2.13-.45,4.23-1.32,6.17l-1.59-1.58c.68-1.69,1.02-3.5.99-5.33v-6.95h5.88v-1.18h2.04v1.18h6.17v1.87h-12.16v5.04c1.37-1.35,2.39-3.01,2.96-4.85l1.76.57c-.31.86-.68,1.69-1.11,2.5v8.71h-1.89v-5.92h0Zm9.14-5.69v1.87h1.38v1.86h-1.38v6.55c.03.7-.51,1.29-1.21,1.32-.02,0-.04,0-.06,0h-2.89l-.41-1.92h2.21c.27,0,.41-.06.41-.46v-5.49h-4.56v-1.85h4.56v-1.87h1.96Zm-4.75,4.32c.76,1.06,1.38,2.21,1.87,3.42l-1.76.89c-.44-1.24-1.02-2.42-1.75-3.51l1.64-.79h0Z"/><path class="cls-2" d="m68.98,13.32v3.99h-5.5v1.07h6.14c-.08,2.81-.19,3.91-.53,4.36-.31.39-.78.61-1.27.6h-2.5l-.37-1.92h1.93c.54,0,.62,0,.7-1.46h-4.12v4.17h-1.91v-3.62c-1.65,1.52-3.65,2.62-5.82,3.2l-.83-1.87c1.79-.32,3.5-.95,5.07-1.87h-4.48c.48-1.3.8-2.66.97-4.04h5.09v-1.07h-5.8v-1.53h.16l-1.05-1.19c1.11-.74,1.96-1.81,2.43-3.05l1.97.24c-.11.35-.14.46-.27.78h3.28v1.51c.7-.71,1.23-1.57,1.56-2.51l1.89.24c-.06.26-.14.51-.24.76h4.48v1.68h-2.83c.2.31.38.63.54.97l-1.5.57h2.79Zm-10.14,0c-.22-.72-.48-1.3-.57-1.54h-.3c-.41.59-.91,1.11-1.48,1.54h2.35Zm-.64,3.99c-.03.36-.1.72-.21,1.07h3.58v-1.07h-3.37Zm4.85-3.99l-1.38-1.11c.25-.24.32-.3.46-.43h-1.91c.19.31.35.64.49.97l-1.7.57h4.04,0Zm2.75,0c-.16-.37-.41-1.02-.67-1.54h-.57c-.38.57-.83,1.09-1.34,1.54h2.58Zm1.26,2.59v-1.07h-3.58v1.07h3.58Z"/><path class="cls-2" d="m76.84,15.74c-.51,3.19-2.1,6.1-4.51,8.25l-1.51-1.68c1.3-.99,3.2-2.65,4.05-7.01l1.97.45h0Zm-5.79-3.7h6.28v-2.73h2.07v2.73h6.28v2h-14.63v-2Zm13.35,11.96c-2.39-2.17-4-5.06-4.58-8.24l2.02-.48c.44,2.75,1.88,5.25,4.06,7l-1.49,1.72Z"/><path class="cls-2" d="m95.75,20.17c-.94.67-1.98,1.2-3.07,1.57.67.14,1.35.2,2.04.16h7.5l-.43,1.86h-7.57c-.83,0-1.66-.13-2.45-.4-.74-.22-1.38-.71-1.78-1.37-.65.82-1.43,1.54-2.29,2.13l-.87-2.05c.64-.33,1.23-.75,1.75-1.26v-3.78h-1.53v-1.87h3.47v4.58c.2,1.01,1,1.79,2.02,1.97l-1.08-1.43c.93-.21,1.83-.53,2.69-.95h-3.15v-1.5h2.37v-.99h-2.02v-1.4h2.02v-.6h1.83v.6h2.45v-.6h1.81v.6h2.11v1.4h-2.11v.99h2.5v1.5h-2.88c.9.46,1.86.82,2.85,1.07l-.94,1.48c-1.27-.4-2.48-.97-3.59-1.7l1.02-.84h-3.85l1.19.84h0Zm-7.11-10.86c.93.77,1.76,1.66,2.46,2.65l-1.5,1.38c-.69-1.01-1.5-1.93-2.42-2.73l1.45-1.3h0Zm2.29.24h4.77v2.94h-2.9v.59c0,.22,0,.3.3.3h1.05c.4,0,.41-.12.49-.67l1.53.18c-.06.59-.21,1.7-1.05,1.7h-2.86c-1.03,0-1.12-.64-1.12-1.08v-2.11h2.93v-.6h-3.12v-1.24h-.01Zm4.26,7.3v.99h2.46v-.99h-2.46Zm1.21-7.3h4.93v2.94h-3.21v.59c0,.21.06.3.38.3h1.45c.35,0,.37-.16.41-.67l1.62.19c-.08.67-.22,1.68-1.1,1.68h-3.13c-1.21,0-1.24-.81-1.24-.94v-2.26h3.15v-.6h-3.26v-1.23Z"/><path class="cls-2" d="m109.7,15.74c-.8.08-1.61.12-2.42.12l-.22-.83c-.95,1.01-2.05,1.85-3.28,2.5l-1.05-1.75c1.39-.56,2.62-1.48,3.56-2.65h-3.28v-1.76h2.34c-.28-.56-.62-1.09-1.02-1.57l1.87-.68c.47.58.87,1.21,1.18,1.89l-.86.37h3.31c-.27-.61-.59-1.19-.95-1.75l1.82-.64c.43.62.8,1.27,1.11,1.96l-1.07.43h3.05c.37-.74.68-1.51.94-2.29l2.02.48c-.23.62-.51,1.23-.83,1.81h2.13v1.76h-3.24c.96,1.1,2.15,1.96,3.49,2.53l-1.11,1.7c-1.88-.99-3.47-2.44-4.63-4.23h-4.1c-.21.41-.47.8-.76,1.16,1.69-.06,3.38-.26,5.04-.6l.83,1.48c-.62.14-1.26.25-1.89.33v1.19h4.18v1.59h-4.18v1.02h6.01v1.73h-6.01v1.79c.05.7-.49,1.31-1.19,1.35-.05,0-.1,0-.15,0h-3.08l-.37-1.84h2.18c.49,0,.62-.05.62-.53v-.77h-6.32v-1.73h6.31v-1.02h-4.47v-1.59h4.47v-.95h0Z"/><path class="cls-2" d="m119.46,9.66h14.09v1.89h-12.07v10.09h12.42v1.89h-12.42v.6h-2.02v-14.48h0Zm2.45,9.98c1.65-.81,3.16-1.87,4.48-3.15-1.22-.72-2.48-1.36-3.78-1.92l1.05-1.57c1.38.61,2.72,1.29,4.02,2.05.78-1,1.44-2.1,1.96-3.26l2,.76c-.64,1.25-1.4,2.44-2.27,3.55,1.31.87,2.55,1.83,3.74,2.86l-1.4,1.73c-1.15-1.12-2.37-2.16-3.67-3.1-1.47,1.41-3.1,2.63-4.87,3.64l-1.26-1.59h0Z"/><path class="cls-2" d="m139.49,16.44c.79,1.23,1.8,2.3,2.97,3.18,1.27-.78,2.3-1.89,2.97-3.23h-9.3v-1.91h5.31v-1.8h-6.49v-1.96h6.49v-1.61h2.02v1.6h6.53v1.96h-6.53v1.8h4.4v1.94c-.78,1.69-1.98,3.16-3.48,4.26,1.81.68,3.71,1.11,5.64,1.27l-.78,2.16c-2.41-.28-4.75-1.01-6.89-2.16-2.05,1.1-4.27,1.85-6.57,2.23l-.86-2.13c1.92-.18,3.79-.66,5.56-1.41-1.05-.93-1.97-2.01-2.72-3.2l1.7-1h0Z"/><path class="cls-2" d="m151.16,10.43h2.97v-1.26h1.91v1.26h2.99v1.75h-.87c-.1.65-.35,1.91-.57,2.72h1.89v1.75h-8.71v-1.75h1.8c-.04-.92-.17-1.83-.4-2.72h-1v-1.74Zm7.63,7.09v5.77h-5.56v.81h-1.86v-6.58h7.42Zm-5.56,1.7v2.37h3.72v-2.37h-3.72Zm.7-7.04c.2.9.34,1.81.43,2.72h1.45c.29-1.03.51-2.53.54-2.72h-2.42Zm5.85,11.96v-14.58h5.86v1.72c-.44,1.33-.98,2.64-1.6,3.9,1.2,1.26,1.88,2.93,1.89,4.67.04.91-.32,1.79-.99,2.4-.44.31-.97.45-1.5.4h-1.18l-.3-1.92h.92c.67,0,.99-.3.99-1.3-.04-1.51-.72-2.93-1.87-3.91.62-1.35,1.14-2.74,1.54-4.17h-1.83v12.8h-1.94Z"/><path class="cls-2" d="m166.9,22.16c.27-.02,1.59-.11,1.87-.12v-3.82h-1.87v-1.68h1.87v-6.93h11.78v1.68h-9.7v.83h9.16v1.37h-9.16v.83h9.16v1.39h-9.16v.83h10.83v1.68h-1.83l1.1.79c-.86.78-1.82,1.44-2.85,1.99,1.24.57,2.55.96,3.9,1.15l-.91,2.04c-3.31-.91-6.92-2.51-8.57-5.96h-1.67v3.66c1.57-.12,1.99-.16,4.09-.48v1.76c-2.53.42-5.08.71-7.65.86l-.4-1.86h0Zm7.68-3.94c.44.73,1.05,1.35,1.78,1.8.87-.52,1.68-1.12,2.43-1.8h-4.21Z"/><path class="cls-2" d="m56.52,44.17v10.33c-13.44,9.22-16.53,11.29-23.53,14.63,12.22-1.78,24.54-2.76,36.88-2.94l.16,12.56c-2.22-.08-5.32-.16-8.83-.16-8.27,0-11.76.24-17.09,3.5-4.61,2.78-8.82,7.15-8.82,12.08,0,3.9,1.91,6.76,13.44,7.07,6.44.24,9.62.16,12.96,0l-1.91,12.8c-15.5.24-38.32-1.19-38.32-16.61,0-1.67,0-9.78,10.73-17.09-5.25.8-23.13,3.9-31.48,6.12l-.71-13.12c2.77-.29,5.51-.83,8.19-1.59,4.61-1.27,17.09-8.74,27.74-16.38l-26.23,1.11v-12.32h46.82Z"/><path class="cls-2" d="m109.22,101.01c8.58-.64,26.31-2.07,26.31-23.45,0-13.28-7.71-18.92-16.77-19.64-.4,6.92-3.42,48.49-24.72,48.49-10.73,0-17.41-10.89-17.41-23.37,0-17.57,12.32-37.05,38.55-37.05,18.28,0,33.63,10.02,33.63,32.67,0,9.06-2.62,18.44-10.81,25.76-7.79,6.84-19.87,8.11-24.09,8.58l-4.69-12h0Zm-20.03-18.12c0,3.02.87,10.18,5.41,10.18,6.04,0,10.57-15.58,12.08-34.58-17.48,5.09-17.48,22.42-17.48,24.4h0Z"/><path class="cls-2" d="m195.48,42.74c.46,4.19,1.33,8.31,2.62,12.32,15.58-.95,17.41-1.51,21.15-2.78l3.02,12.24c-6.43,1.53-13.02,2.33-19.64,2.39,5.01,10.89,9.06,15.34,11.29,17.73l-12.24,5.64c-4.93-7.19-9.07-14.89-12.33-22.98h-33.94v-11.92h29.73c-1.43-4.77-2.15-8.43-2.78-11.45l13.12-1.19h0Zm-10.57,40.63c-4.13,1.19-13.67,4.13-13.67,10.65s8.27,6.68,20.59,6.68c7.28.08,14.56-.31,21.78-1.19l-.24,12.4c-5.48.48-11.45.64-18.68.64-16.22,0-22.02-1.35-27.5-4.37-5.18-2.67-8.43-8.01-8.43-13.83,0-13.83,16.22-19.08,20.67-20.51l5.48,9.54h0Z"/><path class="cls-2" d="m268.85,42.5c.24,3.74.4,6.12.71,8.67,7.71-.64,11.13-.87,18.68-2.62l1.43,10.89c-7.16,1.51-8.35,1.59-18.52,2.39.35,2.34.88,4.66,1.59,6.92,7.24-.26,14.43-1.25,21.46-2.94l1.83,10.65c-6.31,1.38-12.71,2.26-19.16,2.62,1.68,3.35,3.85,6.43,6.44,9.14l-11.29,6.84c-2.22-2.46-5.64-6.28-9.3-15.5-.53.07-1.06.1-1.59.08h-33.23v-10.49h31.8c-.32-1.59-.4-2.15-1.11-6.76h-27.82v-10.73h26.31c-.88-5.48-.95-6.12-1.19-8.27l12.96-.87h0Zm-16.69,45.15c-1.75,1.51-5.09,4.29-5.09,7.79,0,5.41,8.58,5.8,19.24,5.8,7.06.1,14.13-.24,21.15-1.03l.48,12.24c-2.78.24-7.16.56-16.14.56-15.18,0-20.27-.64-23.77-1.51-12.48-3.18-13.91-11.37-13.91-14.07,0-7.47,5.8-12.64,8.43-15.02l9.62,5.25Z"/><path class="cls-2" d="m333.04,59.29c2.14,5.58,3.58,11.4,4.27,17.33l-5.85.91c-.15-1.47-.18-2.18-.33-3.05-2.57.56-10.04,1.75-14.42,2.18l-.62-3.4c-.13.87-.43,1.7-.88,2.46-.94,1.16-2.36,1.84-3.86,1.83h-6.69l-.99-5.2h5.88c.59,0,1.4,0,1.66-1.16.18-.81.33-3.51.44-5.4h-9.67c.59-3.89.85-7.02,1.18-12.42h8.31v-3.16h-9.53v-5.02h14.64v12.8h-8.5c0,.28-.15,1.83-.29,2.81h8.94c0,1.79,0,7.05-.37,10.39.29-.04,1.51-.14,1.73-.14,1.62-6.32,3.38-19.02,3.9-27.01h5.99c-.66,5.68-2.57,19.26-4.41,26.56,2.17-.21,4.6-.42,6.8-.81-.6-3.14-1.45-6.22-2.54-9.23l5.22-1.26h0Z"/><path class="cls-2" d="m302.16,93.79h8.35v10.46c.66,2.87,3.71,4.06,6.88,4.06h20.04l-1.21,4.97h-18.83c-5.52,0-7.5-2.59-8.35-3.67-1.61,1.72-3.44,3.23-5.44,4.48l-1.91-5.7c1.26-.57,2.45-1.3,3.53-2.17v-7.52h-3.05v-4.9h0Zm9.16-6.43l-3.31,3.15c-1.64-2.16-3.55-4.09-5.7-5.73l3.68-3.74c1.94,1.37,3.72,2.94,5.33,4.69v-1.71h4.34c-.62-1.15-.7-1.29-1.32-2.34l5.3-1.08c.67,1.1,1.26,2.25,1.77,3.43h5c.55-1.06,1.02-2.16,1.4-3.29l5.7.8c-.29.56-1.03,1.85-1.47,2.48h4.82v4.34h-10.7c-.19.47-.41.92-.66,1.36h9.45v17.1h-21.66v-17.1h6.69c.2-.44.36-.89.48-1.36h-9.12v-.98h0Zm7.43,5.8v1.68h10.74v-1.68h-10.74Zm0,4.13v1.68h10.74v-1.68h-10.74Zm0,4.13v1.78h10.74v-1.78h-10.74Z"/><path class="cls-2" d="m232.87,24.28h-3.13v-.97h-16.13v.97h-3.13V.87h22.39v23.41Zm-12.7-20.8h-6.56v17.21h16.14V3.48h-6.61v1.15h5.2v1.77h-5.2v.97h6.2v1.85h-15.33v-1.85h6.15v-.97h-5.05v-1.77h5.05v-1.15h.01Zm8.91,11.73c-.61.8-1.33,1.53-2.13,2.15.77.34,1.57.62,2.38.85l-1.41,2.15c-1.96-.64-3.76-1.7-5.28-3.1v3.02h-2.71v-3.2c-1.44,1.13-3.04,2.04-4.74,2.71l-1.18-2.38c1.91-.57,3.7-1.5,5.25-2.74h-4.23v-4.56h13.22v4.56l.82.54h0Zm-3.56-3.46h-7.81v1.28h7.81v-1.28Zm-2.69,2.92c.65.6,1.35,1.15,2.1,1.61.56-.51,1.09-1.05,1.59-1.61h-3.69Z"/><path class="cls-2" d="m246.6,10.14l-1.51-2.74c1-.36,3.28-1.13,4.33-2.69h-3.94V2h4.76c.07-.65.09-1.3.05-1.95h3.18c-.01.65-.06,1.3-.16,1.95h5.58v2.71h-4.2c1.27,1.33,2.9,2.28,4.69,2.71l-1.23,2.71h1.13v2.77h-1.07v9.22c0,.77-.03,2.15-2.15,2.15h-3.64l-.46-3.1h-5.74v-7.15h7.58v7.15h.64c.8,0,.8-.38.8-.97v-7.3h-10.32v8.32h-7.02v1.69h-2.33V3.46h2.33v14.75h1.2V.05h2.35v18.16h1.15V3.46h2.3v6.69h1.7Zm11.12,0c-2.3-.9-4.25-2.51-5.56-4.61-1.18,2.1-3.04,3.72-5.28,4.61h10.83Zm-9.02,6.28v2.28h2.64v-2.28h-2.64Z"/></svg>