<?xml version="1.0" encoding="UTF-8"?><svg id="_レイヤー_1" xmlns="http://www.w3.org/2000/svg" width="724.64" height="243.04" viewBox="0 0 724.64 243.04"><defs><style>.cls-1{fill:#004097;stroke-width:0px;}</style></defs><path class="cls-1" d="m505.11,61.16h-8.17v-2.54h-42.15v2.54h-8.17V0h58.48v61.16Zm-33.19-54.33h-17.13v44.96h42.15V6.83h-17.26v3.01h13.59v4.62h-13.59v2.54h16.19v4.82h-40.01v-4.82h16.06v-2.54h-13.18v-4.62h13.18v-3.01h0Zm23.29,30.65c-1.61,2.1-3.47,3.99-5.55,5.62,2.02.89,4.1,1.63,6.22,2.21l-3.68,5.62c-2.28-.74-7.36-2.47-13.78-8.1v7.89h-7.09v-8.36c-3.77,2.94-7.94,5.33-12.38,7.09l-3.08-6.22c4.99-1.48,9.65-3.91,13.72-7.16h-11.04v-11.9h34.53v11.91l2.14,1.41h0Zm-9.3-9.04h-20.41v3.34h20.41v-3.34Zm-7.02,7.63c1.69,1.58,3.53,2.99,5.49,4.21,1.45-1.33,2.84-2.74,4.15-4.21h-9.64Z"/><path class="cls-1" d="m540.98,26.36l-3.95-7.16c2.61-.93,8.56-2.95,11.31-7.02h-10.3v-7.09h12.44c.18-1.69.23-3.39.13-5.09h8.3c-.03,1.7-.16,3.4-.4,5.09h14.59v7.09h-10.97c3.88,4.68,10.23,6.49,12.25,7.09l-3.21,7.09h2.95v7.23h-2.81v24.08c0,2.01-.07,5.62-5.62,5.62h-9.5l-1.2-8.1h-14.99v-18.66h19.81v18.66h1.67c2.08,0,2.08-1,2.08-2.54v-19.07h-26.96v21.74h-18.34v4.42h-6.09V8.9h6.09v38.54h3.14V0h6.15v47.44h3.01V8.9h6.02v17.47h4.42,0Zm29.04,0c-6.01-2.35-11.1-6.57-14.52-12.05-2.54,4.68-6.83,9.04-13.78,12.05h28.3Zm-23.56,16.39v5.96h6.89v-5.96h-6.89Z"/><path class="cls-1" d="m596.22,31.08v4.59c-4.48,3.63-7.21,8.14-7.21,13.66,0,5.05,3.2,7.68,8.06,7.68,3.12,0,5.17-.93,6.36-2.28,1.49-1.96,2.26-4.37,2.16-6.83,0-7.83-3.82-15.47-4.94-17.55l5.28-1.66c.73,2.59,2.13,4.95,4.05,6.83,2.74,2.66,4.94,4.24,6.94,5.01l-1.73,5.48c-2.34-1.01-4.4-2.58-5.98-4.59.76,2.27,1.13,4.66,1.08,7.06,0,4.71-1.16,8.06-3.28,10.22-2.24,2.28-5.98,3.32-9.49,3.32s-6.94-.58-9.53-2.78c-2.9-2.47-3.82-6.52-3.82-9.49,0-5.28,2.05-9.72,5.52-13.85l-6.02.15v-4.98h12.54,0Z"/><path class="cls-1" d="m644.05,30.51v4.05c-.89.77-6.67,5.82-7.95,6.91,1.2-.31,2.43-.47,3.67-.46,7.29,0,10.84,4.67,10.84,10.15.11,3.62-1.67,7.04-4.7,9.03-2.93,1.89-6.29,2.85-13,2.85-2.5.01-5-.13-7.48-.42l-.69-4.98c2.65.44,5.34.65,8.03.62,2.74,0,12.58,0,12.58-7.02,0-5.67-5.9-5.67-6.98-5.67-3.61-.1-7.14,1.12-9.92,3.43-1.12.96-5.71,5.4-6.67,6.29l-3.12-4.21c3.12-2.55,17.17-15.2,17.9-15.89l-15.01.19v-4.86h22.53,0Z"/><path class="cls-1" d="m686.9,36.9c-.19,1.81-.46,4.32-1.23,9.26,1.6.61,3.16,1.32,4.67,2.12l-1.73,5.36c-1.35-.81-2.39-1.43-4.13-2.31-1.19,3.82-3.4,9.07-10.88,11.96l-3.05-4.01c6.37-2.12,7.79-5.63,9.03-9.88-2.33-.81-4.73-1.39-7.18-1.74-2.39,9.84-6.06,13.12-10.38,13.12-4.75,0-6.64-3.94-6.64-7.18,0-5.6,5.13-10.42,12.92-10.73.42-2.47.66-4.63.89-7.56l-11.42.04v-4.86h17.13c-.12.93-.42,3.86-.69,6.29-.15,1.39-.58,4.59-.89,6.25,2.48.26,4.94.75,7.33,1.46.42-2.67.7-5.36.85-8.06l5.4.46h0Zm-26.93,16.67c0,1.66.85,2.47,2.04,2.47,3.32,0,4.82-6.37,5.4-8.76-6.87.54-7.45,5.21-7.45,6.29h0Z"/><path class="cls-1" d="m705.47,28.8c-.15,1.85-.23,3.05-.42,4.43h19.6v4.67h-20.14c-.23,2.08-.61,4.15-1.16,6.17,2.77-1.68,5.95-2.55,9.18-2.51,10.15,0,11,7.52,11,9.72,0,9.99-10.73,10.73-16.97,10.73-3.24,0-6.25-.23-7.68-.35l-.89-4.86c2.75.37,5.52.56,8.3.58,5.98,0,11.84-.93,11.84-6.21,0-3.9-3.51-5.05-6.06-5.05-3.68-.02-7.23,1.37-9.92,3.9-.15.62-.19.81-.34,1.39l-5.29-1.24c1.35-3.98,2.24-8.09,2.66-12.27h-7.33v-4.67h7.83c.15-2.2.19-2.7.31-4.59l5.48.15h-.02Z"/><path class="cls-1" d="m15.29,51.11c-2.09,3.4-4.82,6.36-8.04,8.71l-2.9-3.51c2.87-1.95,5.33-4.45,7.22-7.36l3.72,2.16h0Zm22.77-17.25H4.62v-4.18h14.2v-2.72h4.6v2.73h14.62v4.18Zm-3.43,2.26v12.04h-11.12v8.89c0,1.91-.81,3.43-3.11,3.43h-6.02l-.88-4.53h4.49c.67,0,1.1-.04,1.1-.92v-6.86h-11.01v-12.04h26.56,0Zm-22.13,3.82v4.35h17.71v-4.35H12.49Zm22.63,19.69c-3.52-2.15-6.51-5.07-8.74-8.53l3.82-2.26c2.12,2.9,4.83,5.3,7.97,7.05l-3.05,3.75h0Z"/><path class="cls-1" d="m39.38,45.59c2.66-1.15,5.14-2.67,7.36-4.53h-7.01v-3.83h6.38v-3.58h-5.35v-3.82h5.35v-2.8h4.15v2.8h4.39v1.98c.65-1.12,1.2-2.3,1.66-3.51l3.86,1.49v-1.94h12.75v4c-1,3.01-2.2,5.94-3.61,8.78,3.11,3.61,4.15,6.23,4.15,9.56.06,1.68-.31,3.35-1.06,4.85-1.13,1.91-2.59,2.02-4.39,2.02h-2.48l-.56-4.21h1.73c1.59,0,2.26-.53,2.26-2.94,0-4.15-2.83-7.26-4.15-8.67,1.44-3.03,2.64-6.16,3.57-9.38h-3.97v28.54h-4.25v-30.49c-1.28,2.56-2.77,5.01-4.46,7.33h3.57v3.82h-6.8c-.75.82-1.54,1.6-2.37,2.34h7.29v15.59h-10.87v1.34h-4.03v-11.66c-.53.28-.96.5-1.95.96l-1.17-4.03h.01Zm7.15,1.24v2.65h6.9v-2.66h-6.9Zm0,5.98v2.59h6.9v-2.59h-6.9Zm3.57-19.23v3.65h.64c1.02-1.15,1.95-2.37,2.8-3.65,0,0-3.43,0-3.43,0Z"/><path class="cls-1" d="m85.01,47.18c-.69.79-1.42,1.55-2.19,2.26l-1.63-2.83c-.1,4.39-.92,9.95-2.94,13.74l-3.54-3.51c1.52-3.77,2.27-7.8,2.19-11.86v-15.46h13.11v-2.62h4.54v2.62h13.74v4.18h-27.09v11.23c1.84-1.66,4.18-4.46,6.59-10.8l3.93,1.27c-.68,1.91-1.51,3.77-2.48,5.56v19.41h-4.21v-13.17h0Zm20.36-12.68v4.18h3.08v4.15h-3.08v14.58c.07,1.55-1.14,2.87-2.69,2.93-.05,0-.09,0-.14,0h-6.44l-.92-4.28h4.92c.6,0,.92-.14.92-1.02v-12.22h-10.16v-4.15h10.16v-4.17h4.35Zm-10.59,9.63c1.69,2.37,3.09,4.92,4.18,7.61l-3.93,1.98c-.97-2.76-2.28-5.39-3.9-7.82l3.65-1.77h0Z"/><path class="cls-1" d="m141.94,36.27v8.89h-12.25v2.37h13.67c-.18,6.27-.42,8.71-1.17,9.7-.69.86-1.73,1.36-2.83,1.34h-5.56l-.82-4.28h4.32c1.2,0,1.38,0,1.56-3.26h-9.18v9.31h-4.25v-8.08c-3.68,3.38-8.13,5.83-12.96,7.12l-1.84-4.18c3.98-.71,7.81-2.13,11.3-4.18h-9.98c1.06-2.9,1.79-5.92,2.16-8.99h11.33v-2.37h-12.93v-3.39h.36l-2.34-2.66c2.48-1.64,4.37-4.02,5.42-6.8l4.39.53c-.25.78-.32,1.02-.6,1.73h7.29v3.37c1.56-1.58,2.74-3.5,3.47-5.59l4.22.54c-.13.58-.31,1.15-.53,1.7h9.99v3.75h-6.3c.45.69.85,1.41,1.2,2.16l-3.33,1.27h6.2Zm-22.59,0c-.5-1.59-1.06-2.9-1.27-3.43h-.67c-.91,1.31-2.02,2.47-3.29,3.43h5.24Zm-1.42,8.89c-.07.8-.23,1.6-.46,2.37h7.97v-2.37h-7.51Zm10.8-8.89l-3.08-2.48c.56-.53.71-.67,1.02-.96h-4.25c.41.69.78,1.42,1.1,2.16l-3.78,1.27h8.99,0Zm6.13,0c-.36-.81-.92-2.26-1.49-3.43h-1.27c-.84,1.27-1.84,2.42-2.97,3.43h5.74Zm2.8,5.77v-2.37h-7.97v2.37h7.97Z"/><path class="cls-1" d="m159.44,41.65c-1.28,6.84-4.78,14.31-10.06,18.38l-3.36-3.75c2.9-2.19,7.12-5.91,9.03-15.62l4.39.99h0Zm-12.89-8.25h13.99v-6.09h4.6v6.09h13.99v4.46h-32.58v-4.46Zm29.74,26.63c-4.43-3.36-8.28-10.09-10.2-18.34l4.5-1.06c1.59,6.76,3.54,11.01,9.03,15.59l-3.33,3.82Z"/><path class="cls-1" d="m201.56,51.53c-2.1,1.49-4.4,2.67-6.84,3.51,1.49.32,3.01.44,4.53.36h16.72l-.96,4.15h-16.86c-1.85.01-3.7-.28-5.45-.88-1.65-.49-3.07-1.58-3.97-3.05-1.46,1.83-3.18,3.42-5.1,4.75l-1.95-4.58c1.43-.73,2.75-1.67,3.9-2.8v-8.43h-3.39v-4.18h7.72v10.2c.46,1.77,1.17,3.33,4.49,4.39l-2.41-3.19c2.07-.46,4.08-1.18,5.98-2.13h-7.01v-3.33h5.28v-2.2h-4.5v-3.11h4.49v-1.34h4.07v1.34h5.45v-1.34h4.03v1.34h4.71v3.11h-4.71v2.19h5.56v3.33h-6.41c2.01,1.03,4.14,1.83,6.34,2.37l-2.09,3.29c-2.83-.89-5.52-2.17-8-3.79l2.26-1.88h-8.57l2.65,1.88h.02Zm-15.83-24.19c2.08,1.72,3.93,3.71,5.49,5.91l-3.33,3.08c-1.54-2.24-3.35-4.29-5.38-6.09l3.22-2.9h0Zm5.1.53h10.63v6.55h-6.48v1.31c0,.5,0,.67.67.67h2.34c.88,0,.92-.28,1.1-1.49l3.39.39c-.14,1.31-.46,3.79-2.34,3.79h-6.37c-2.3,0-2.51-1.42-2.51-2.41v-4.71h6.52v-1.34h-6.94v-2.77h0Zm9.49,16.25v2.19h5.45v-2.19h-5.45Zm2.69-16.25h10.98v6.55h-7.15v1.31c0,.46.14.67.85.67h3.22c.78,0,.82-.36.92-1.49l3.61.42c-.18,1.49-.5,3.75-2.45,3.75h-6.98c-2.69,0-2.77-1.81-2.77-2.09v-5.03h7.01v-1.34h-7.26v-2.76Z"/><path class="cls-1" d="m232.64,41.65c-1.79.18-3.59.28-5.38.28l-.5-1.84c-2.1,2.25-4.57,4.13-7.29,5.56l-2.34-3.9c3.11-1.25,5.84-3.29,7.93-5.91h-7.29v-3.93h5.2c-.62-1.25-1.38-2.43-2.26-3.51l4.18-1.52c1.05,1.29,1.92,2.7,2.61,4.21l-1.91.81h7.36c-.61-1.35-1.32-2.65-2.13-3.9l4.04-1.41c.96,1.37,1.79,2.83,2.48,4.35l-2.37.96h6.8c.82-1.65,1.52-3.35,2.09-5.1l4.49,1.06c-.52,1.38-1.14,2.73-1.84,4.03h4.75v3.93h-7.22c2.14,2.44,4.8,4.37,7.79,5.63l-2.48,3.79c-4.19-2.2-7.74-5.44-10.31-9.42h-9.14c-.47.92-1.04,1.79-1.7,2.59,3.77-.14,7.53-.59,11.23-1.34l1.84,3.29c-1.39.32-2.8.57-4.21.74v2.65h9.31v3.54h-9.31v2.26h13.39v3.86h-13.39v3.97c.1,1.56-1.08,2.91-2.64,3.01-.11,0-.22,0-.33,0h-6.87l-.81-4.11h4.85c1.1,0,1.38-.1,1.38-1.17v-1.69h-14.06v-3.86h14.06v-2.26h-9.95v-3.55h9.95v-2.13h0Z"/><path class="cls-1" d="m254.38,28.13h31.38v4.21h-26.88v22.48h27.65v4.21h-27.65v1.34h-4.49V28.13h0Zm5.45,22.24c3.68-1.8,7.05-4.17,9.99-7.01-2.72-1.6-5.53-3.03-8.42-4.28l2.34-3.51c3.07,1.35,6.06,2.88,8.96,4.57,1.74-2.23,3.2-4.67,4.35-7.26l4.46,1.7c-1.43,2.79-3.12,5.44-5.06,7.9,2.91,1.94,5.69,4.07,8.32,6.38l-3.11,3.86c-2.55-2.5-5.28-4.81-8.18-6.9-3.27,3.13-6.91,5.85-10.84,8.11l-2.8-3.54h0Z"/><path class="cls-1" d="m298.98,43.21c1.77,2.74,4.01,5.13,6.62,7.08,2.84-1.73,5.13-4.22,6.62-7.19h-20.72v-4.25h11.83v-4h-14.45v-4.35h14.45v-3.58h4.49v3.57h14.56v4.36h-14.56v4h9.8v4.32c-1.73,3.77-4.4,7.04-7.76,9.49,4.04,1.51,8.27,2.46,12.57,2.83l-1.74,4.81c-8.53-1.27-13.32-3.65-15.33-4.81-4.57,2.45-9.51,4.13-14.62,4.96l-1.91-4.74c4.27-.4,8.45-1.47,12.39-3.15-2.35-2.07-4.39-4.47-6.06-7.12l3.79-2.23h0Z"/><path class="cls-1" d="m324.98,29.83h6.62v-2.8h4.25v2.8h6.66v3.9h-1.95c-.21,1.45-.78,4.25-1.27,6.06h4.21v3.9h-19.4v-3.9h4c-.08-2.04-.38-4.07-.88-6.06h-2.23v-3.89Zm17,15.79v12.85h-12.39v1.81h-4.15v-14.66h16.54Zm-12.39,3.79v5.28h8.28v-5.28h-8.28Zm1.56-15.69c.43,2,.75,4.02.96,6.06h3.22c.64-2.3,1.13-5.63,1.2-6.06,0,0-5.38,0-5.38,0Zm13.02,26.63V27.88h13.07v3.83c-.99,2.97-2.19,5.87-3.57,8.67,2.67,2.81,4.18,6.53,4.21,10.41.1,2.02-.71,3.98-2.19,5.35-.97.68-2.15.99-3.33.88h-2.62l-.67-4.28h2.05c1.49,0,2.19-.67,2.19-2.9,0-3.79-1.88-6.44-4.18-8.71,1.38-3,2.53-6.1,3.43-9.28h-4.07v28.51h-4.33Z"/><path class="cls-1" d="m360.03,55.96c.6-.04,3.54-.25,4.18-.28v-8.5h-4.18v-3.75h4.18v-15.44h26.24v3.75h-21.6v1.84h20.4v3.05h-20.4v1.88h20.4v3.08h-20.4v1.84h24.11v3.75h-4.07l2.45,1.77c-1.93,1.73-4.05,3.21-6.34,4.43,2.75,1.27,5.67,2.13,8.67,2.55l-2.01,4.53c-7.36-2.02-15.4-5.6-19.09-13.28h-3.72v8.14c3.51-.28,4.43-.36,9.1-1.06v3.93c-5.64.94-11.33,1.58-17.03,1.91l-.88-4.15h-.01Zm17.1-8.78c.98,1.63,2.34,3,3.97,4,1.94-1.15,3.75-2.49,5.42-4h-9.39Z"/><path class="cls-1" d="m120.04,93.63v21.95c-28.53,19.58-35.12,23.97-49.97,31.06,30.56-4.73,63.14-6.08,78.33-6.24l.34,26.68c-4.73-.17-11.31-.34-18.74-.34-17.56,0-24.99.51-36.3,7.43-9.79,5.91-18.74,15.2-18.74,25.66,0,8.27,4.05,14.35,28.53,15.02,13.68.51,20.43.34,27.52,0l-4.05,27.18c-32.92.51-81.38-2.53-81.38-35.28,0-3.55,0-20.77,22.79-36.3-11.14,1.69-49.13,8.27-66.86,13l-1.52-27.86c5.88-.62,11.7-1.75,17.39-3.38,9.79-2.7,36.3-18.57,58.92-34.78l-55.72,2.36v-26.17h99.44Z"/><path class="cls-1" d="m231.97,214.34c18.23-1.35,55.88-4.39,55.88-49.81,0-28.19-16.37-40.18-35.62-41.7-.85,14.69-7.26,102.99-52.51,102.99-22.79,0-36.97-23.13-36.97-49.63,0-37.31,26.17-78.67,81.88-78.67,38.83,0,71.42,21.27,71.42,69.39,0,19.25-5.57,39.17-22.96,54.7-16.55,14.52-42.21,17.22-51.16,18.23l-9.96-25.49h0Zm-42.55-38.49c0,6.42,1.86,21.61,11.48,21.61,12.83,0,22.46-33.09,25.66-73.44-37.14,10.8-37.14,47.61-37.14,51.83Z"/><path class="cls-1" d="m415.14,90.58c.84,7.09,1.52,12.33,5.57,26.17,33.09-2.02,36.97-3.21,44.91-5.91l6.42,26c-19.58,4.39-28.36,4.56-41.7,5.07,10.64,23.13,19.25,32.58,23.97,37.65l-26,11.99c-14.52-20.6-23.97-43.22-26.17-48.79h-72.09v-25.33h63.14c-3.04-10.13-4.56-17.9-5.91-24.31l27.86-2.53h0Zm-22.46,86.27c-8.78,2.53-29.04,8.78-29.04,22.62s17.56,14.18,43.73,14.18c23.81,0,36.47-1.35,46.26-2.53l-.51,26.34c-11.65,1.01-24.31,1.35-39.67,1.35-34.44,0-46.77-2.87-58.41-9.29-8.95-4.9-17.9-14.52-17.9-29.38,0-29.38,34.44-40.52,43.9-43.56l11.65,20.26h0Z"/><path class="cls-1" d="m570.97,90.08c.51,7.93.84,13,1.52,18.4,16.37-1.35,23.64-1.86,39.68-5.57l3.04,23.13c-15.2,3.21-17.72,3.38-39.34,5.07.75,4.98,1.88,9.89,3.38,14.69,24.99-1.35,37.82-4.39,45.58-6.24l3.88,22.62c-13.39,2.94-27,4.8-40.69,5.57,5.57,10.47,9.62,15.03,13.68,19.42l-23.97,14.52c-4.73-5.23-11.99-13.34-19.75-32.92-1.12.16-2.25.21-3.38.17h-70.57v-22.28h67.53c-.68-3.38-.84-4.56-2.36-14.35h-59.09v-22.79h55.88c-1.86-11.65-2.02-13-2.53-17.56l27.52-1.86h0Zm-35.45,95.9c-3.71,3.21-10.8,9.12-10.8,16.55,0,11.48,18.23,12.33,40.85,12.33,24.65,0,38.32-1.35,44.91-2.2l1.01,26c-5.91.51-15.2,1.18-34.27,1.18-32.25,0-43.05-1.35-50.48-3.21-26.5-6.76-29.55-24.14-29.55-29.88,0-15.87,12.33-26.84,17.9-31.91l20.43,11.14h0Z"/><path class="cls-1" d="m709.31,126.71c4.55,11.84,7.59,24.2,9.06,36.8l-12.42,1.94c-.31-3.13-.39-4.62-.7-6.48-5.47,1.19-21.32,3.73-30.62,4.62l-1.33-7.23c-.27,1.85-.91,3.62-1.87,5.21-1.09,1.79-4.53,3.88-8.2,3.88h-14.22l-2.11-11.03h12.5c1.25,0,2.97,0,3.52-2.46.39-1.71.7-7.45.94-11.47h-20.54c1.25-8.27,1.8-14.9,2.5-26.38h17.65v-6.7h-20.23v-10.65h31.08v27.2h-18.04c0,.6-.31,3.88-.62,5.96h18.98c0,3.8,0,14.98-.78,22.05.62-.08,3.2-.3,3.67-.3,3.44-13.41,7.19-40.38,8.28-57.37h12.73c-1.4,12.07-5.47,40.9-9.37,56.4,4.61-.45,9.76-.9,14.45-1.71-1.28-6.66-3.09-13.21-5.39-19.59l11.09-2.68h0Z"/><path class="cls-1" d="m643.73,199.97h17.73v22.2c1.4,6.09,7.89,8.61,14.61,8.61h42.57l-2.58,10.55h-39.99c-11.72,0-15.93-5.5-17.73-7.8-3.42,3.66-7.31,6.86-11.56,9.51l-4.06-12.1c2.68-1.21,5.2-2.76,7.5-4.61v-15.97h-6.48v-10.4h0Zm19.45-13.67l-7.03,6.68c-3.48-4.58-7.55-8.68-12.11-12.18l7.81-7.95c4.11,2.91,7.91,6.25,11.32,9.95v-3.64h9.21c-1.33-2.45-1.48-2.75-2.81-4.98l11.25-2.3c1.42,2.34,2.67,4.77,3.75,7.28h10.62c1.17-2.25,2.16-4.58,2.97-6.98l12.11,1.71c-.62,1.19-2.19,3.93-3.12,5.27h10.23v9.21h-22.73c-.4,1-.87,1.96-1.4,2.9h20.07v36.32h-46v-36.32h14.22c.43-.93.77-1.9,1.01-2.9h-19.37v-2.08h0Zm15.78,12.33v3.56h22.81v-3.56h-22.81Zm0,8.76v3.56h22.81v-3.56h-22.81Zm0,8.76v3.79h22.81v-3.79h-22.81Z"/></svg>