<?xml version="1.0" encoding="UTF-8"?><svg id="_レイヤー_1" xmlns="http://www.w3.org/2000/svg" width="724.64" height="265.98" viewBox="0 0 724.64 265.98"><defs><style>.cls-1{fill:#004097;stroke-width:0px;}</style></defs><path class="cls-1" d="m505.11,68.26h-8.17v-2.54h-42.15v2.54h-8.17V7.11h58.48v61.16Zm-33.19-54.33h-17.13v44.96h42.15V13.93h-17.26v3.01h13.59v4.62h-13.59v2.54h16.19v4.82h-40.01v-4.82h16.06v-2.54h-13.18v-4.62h13.18v-3.01h0Zm23.29,30.65c-1.61,2.1-3.47,3.99-5.55,5.62,2.02.89,4.1,1.63,6.22,2.21l-3.68,5.62c-2.28-.74-7.36-2.47-13.78-8.1v7.89h-7.09v-8.36c-3.77,2.94-7.94,5.33-12.38,7.09l-3.08-6.22c4.99-1.48,9.65-3.91,13.72-7.16h-11.04v-11.9h34.53v11.91l2.14,1.41h0Zm-9.3-9.04h-20.41v3.34h20.41v-3.34Zm-7.02,7.63c1.69,1.58,3.53,2.99,5.49,4.21,1.45-1.33,2.84-2.74,4.15-4.21h-9.64Z"/><path class="cls-1" d="m540.98,33.47l-3.95-7.16c2.61-.93,8.56-2.95,11.31-7.02h-10.3v-7.09h12.44c.18-1.69.23-3.39.13-5.09h8.3c-.03,1.7-.16,3.4-.4,5.09h14.59v7.09h-10.97c3.88,4.68,10.23,6.49,12.25,7.09l-3.21,7.09h2.95v7.23h-2.81v24.08c0,2.01-.07,5.62-5.62,5.62h-9.5l-1.2-8.1h-14.99v-18.66h19.81v18.66h1.67c2.08,0,2.08-1,2.08-2.54v-19.07h-26.96v21.74h-18.34v4.42h-6.09V16.01h6.09v38.54h3.14V7.11h6.15v47.44h3.01V16.01h6.02v17.47h4.42,0Zm29.04,0c-6.01-2.35-11.1-6.57-14.52-12.05-2.54,4.68-6.83,9.04-13.78,12.05h28.3Zm-23.56,16.39v5.96h6.89v-5.96h-6.89Z"/><path class="cls-1" d="m596.22,38.19v4.59c-4.48,3.63-7.21,8.14-7.21,13.66,0,5.05,3.2,7.68,8.06,7.68,3.12,0,5.17-.93,6.36-2.28,1.49-1.96,2.26-4.37,2.16-6.83,0-7.83-3.82-15.47-4.94-17.55l5.28-1.66c.73,2.59,2.13,4.95,4.05,6.83,2.74,2.66,4.94,4.24,6.94,5.01l-1.73,5.48c-2.34-1.01-4.4-2.58-5.98-4.59.76,2.27,1.13,4.66,1.08,7.06,0,4.71-1.16,8.06-3.28,10.22-2.24,2.28-5.98,3.32-9.49,3.32s-6.94-.58-9.53-2.78c-2.9-2.47-3.82-6.52-3.82-9.49,0-5.28,2.05-9.72,5.52-13.85l-6.02.15v-4.98h12.54,0Z"/><path class="cls-1" d="m644.05,37.61v4.05c-.89.77-6.67,5.82-7.95,6.91,1.2-.31,2.43-.47,3.67-.46,7.29,0,10.84,4.67,10.84,10.15.11,3.62-1.67,7.04-4.7,9.03-2.93,1.89-6.29,2.85-13,2.85-2.5.01-5-.13-7.48-.42l-.69-4.98c2.65.44,5.34.65,8.03.62,2.74,0,12.58,0,12.58-7.02,0-5.67-5.9-5.67-6.98-5.67-3.61-.1-7.14,1.12-9.92,3.43-1.12.96-5.71,5.4-6.67,6.29l-3.12-4.21c3.12-2.55,17.17-15.2,17.9-15.89l-15.01.19v-4.86h22.53,0Z"/><path class="cls-1" d="m686.9,44.01c-.19,1.81-.46,4.32-1.23,9.26,1.6.61,3.16,1.32,4.67,2.12l-1.73,5.36c-1.35-.81-2.39-1.43-4.13-2.31-1.19,3.82-3.4,9.07-10.88,11.96l-3.05-4.01c6.37-2.12,7.79-5.63,9.03-9.88-2.33-.81-4.73-1.39-7.18-1.74-2.39,9.84-6.06,13.12-10.38,13.12-4.75,0-6.64-3.94-6.64-7.18,0-5.6,5.13-10.42,12.92-10.73.42-2.47.66-4.63.89-7.56l-11.42.04v-4.86h17.13c-.12.93-.42,3.86-.69,6.29-.15,1.39-.58,4.59-.89,6.25,2.48.26,4.94.75,7.33,1.46.42-2.67.7-5.36.85-8.06l5.4.46h0Zm-26.93,16.67c0,1.66.85,2.47,2.04,2.47,3.32,0,4.82-6.37,5.4-8.76-6.87.54-7.45,5.21-7.45,6.29h0Z"/><path class="cls-1" d="m705.47,35.91c-.15,1.85-.23,3.05-.42,4.43h19.6v4.67h-20.14c-.23,2.08-.61,4.15-1.16,6.17,2.77-1.68,5.95-2.55,9.18-2.51,10.15,0,11,7.52,11,9.72,0,9.99-10.73,10.73-16.97,10.73-3.24,0-6.25-.23-7.68-.35l-.89-4.86c2.75.37,5.52.56,8.3.58,5.98,0,11.84-.93,11.84-6.21,0-3.9-3.51-5.05-6.06-5.05-3.68-.02-7.23,1.37-9.92,3.9-.15.62-.19.81-.34,1.39l-5.29-1.24c1.35-3.98,2.24-8.09,2.66-12.27h-7.33v-4.67h7.83c.15-2.2.19-2.7.31-4.59l5.48.15h-.02Z"/><path class="cls-1" d="m120.04,116.56v21.95c-28.53,19.58-35.12,23.97-49.97,31.06,30.56-4.73,63.14-6.08,78.33-6.24l.34,26.68c-4.73-.17-11.31-.34-18.74-.34-17.56,0-24.99.51-36.3,7.43-9.79,5.91-18.74,15.2-18.74,25.66,0,8.27,4.05,14.35,28.53,15.02,13.68.51,20.43.34,27.52,0l-4.05,27.18c-32.92.51-81.38-2.53-81.38-35.28,0-3.55,0-20.77,22.79-36.3-11.14,1.69-49.13,8.27-66.86,13l-1.52-27.86c5.88-.62,11.7-1.75,17.39-3.38,9.79-2.7,36.3-18.57,58.92-34.78l-55.72,2.36v-26.17h99.44Z"/><path class="cls-1" d="m231.97,237.27c18.23-1.35,55.88-4.39,55.88-49.81,0-28.19-16.37-40.18-35.62-41.7-.85,14.69-7.26,102.99-52.51,102.99-22.79,0-36.97-23.13-36.97-49.63,0-37.31,26.17-78.67,81.88-78.67,38.83,0,71.42,21.27,71.42,69.39,0,19.25-5.57,39.17-22.96,54.7-16.55,14.52-42.21,17.22-51.16,18.23l-9.96-25.49h0Zm-42.55-38.49c0,6.42,1.86,21.61,11.48,21.61,12.83,0,22.46-33.09,25.66-73.44-37.14,10.8-37.14,47.61-37.14,51.83Z"/><path class="cls-1" d="m415.14,113.51c.84,7.09,1.52,12.33,5.57,26.17,33.09-2.02,36.97-3.21,44.91-5.91l6.42,26c-19.58,4.39-28.36,4.56-41.7,5.07,10.64,23.13,19.25,32.58,23.97,37.65l-26,11.99c-14.52-20.6-23.97-43.22-26.17-48.79h-72.09v-25.33h63.14c-3.04-10.13-4.56-17.9-5.91-24.31l27.86-2.53h0Zm-22.46,86.27c-8.78,2.53-29.04,8.78-29.04,22.62s17.56,14.18,43.73,14.18c23.81,0,36.47-1.35,46.26-2.53l-.51,26.34c-11.65,1.01-24.31,1.35-39.67,1.35-34.44,0-46.77-2.87-58.41-9.29-8.95-4.9-17.9-14.52-17.9-29.38,0-29.38,34.44-40.52,43.9-43.56l11.65,20.26h0Z"/><path class="cls-1" d="m570.97,113.01c.51,7.93.84,13,1.52,18.4,16.37-1.35,23.64-1.86,39.68-5.57l3.04,23.13c-15.2,3.21-17.72,3.38-39.34,5.07.75,4.98,1.88,9.89,3.38,14.69,24.99-1.35,37.82-4.39,45.58-6.24l3.88,22.62c-13.39,2.94-27,4.8-40.69,5.57,5.57,10.47,9.62,15.03,13.68,19.42l-23.97,14.52c-4.73-5.23-11.99-13.34-19.75-32.92-1.12.16-2.25.21-3.38.17h-70.57v-22.28h67.53c-.68-3.38-.84-4.56-2.36-14.35h-59.09v-22.79h55.88c-1.86-11.65-2.02-13-2.53-17.56l27.52-1.86h0Zm-35.45,95.9c-3.71,3.21-10.8,9.12-10.8,16.55,0,11.48,18.23,12.33,40.85,12.33,24.65,0,38.32-1.35,44.91-2.2l1.01,26c-5.91.51-15.2,1.18-34.27,1.18-32.25,0-43.05-1.35-50.48-3.21-26.5-6.76-29.55-24.14-29.55-29.88,0-15.87,12.33-26.84,17.9-31.91l20.43,11.14h0Z"/><path class="cls-1" d="m709.31,149.64c4.55,11.84,7.59,24.2,9.06,36.8l-12.42,1.94c-.31-3.13-.39-4.62-.7-6.48-5.47,1.19-21.32,3.73-30.62,4.62l-1.33-7.23c-.27,1.85-.91,3.62-1.87,5.21-1.09,1.79-4.53,3.88-8.2,3.88h-14.22l-2.11-11.03h12.5c1.25,0,2.97,0,3.52-2.46.39-1.71.7-7.45.94-11.47h-20.54c1.25-8.27,1.8-14.9,2.5-26.38h17.65v-6.7h-20.23v-10.65h31.08v27.2h-18.04c0,.6-.31,3.88-.62,5.96h18.98c0,3.8,0,14.98-.78,22.05.62-.08,3.2-.3,3.67-.3,3.44-13.41,7.19-40.38,8.28-57.37h12.73c-1.4,12.07-5.47,40.9-9.37,56.4,4.61-.45,9.76-.9,14.45-1.71-1.28-6.66-3.09-13.21-5.39-19.59l11.09-2.68h0Z"/><path class="cls-1" d="m643.73,222.9h17.73v22.2c1.4,6.09,7.89,8.61,14.61,8.61h42.57l-2.58,10.55h-39.99c-11.72,0-15.93-5.5-17.73-7.8-3.42,3.66-7.31,6.86-11.56,9.51l-4.06-12.1c2.68-1.21,5.2-2.76,7.5-4.61v-15.97h-6.48v-10.4h0Zm19.45-13.67l-7.03,6.68c-3.48-4.58-7.55-8.68-12.11-12.18l7.81-7.95c4.11,2.91,7.91,6.25,11.32,9.95v-3.64h9.21c-1.33-2.45-1.48-2.75-2.81-4.98l11.25-2.3c1.42,2.34,2.67,4.77,3.75,7.28h10.62c1.17-2.25,2.16-4.58,2.97-6.98l12.11,1.71c-.62,1.19-2.19,3.93-3.12,5.27h10.23v9.21h-22.73c-.4,1-.87,1.96-1.4,2.9h20.07v36.32h-46v-36.32h14.22c.43-.93.77-1.9,1.01-2.9h-19.37v-2.08h0Zm15.78,12.33v3.56h22.81v-3.56h-22.81Zm0,8.76v3.56h22.81v-3.56h-22.81Zm0,8.76v3.79h22.81v-3.79h-22.81Z"/></svg>